<svg width="250" height="250" viewBox="0 0 250 250" fill="none" xmlns="http://www.w3.org/2000/svg">
<path d="M214.618 93.3267H139.821C139.821 106.305 150.445 116.942 163.407 116.942C163.407 116.942 163.407 116.942 163.619 116.942H177.432C164.469 145.877 130.47 158.855 101.572 145.877C80.96 136.729 67.7857 116.304 67.5727 93.965C67.5727 93.7522 67.5727 93.5395 67.5727 93.3267C67.9977 61.6262 93.9223 36.3083 125.583 36.7338C140.883 36.9466 155.332 43.1165 165.957 53.9671C167.869 55.8818 169.569 58.0094 171.269 60.3497C175.52 66.3068 182.319 69.7109 189.544 69.7109H202.08C188.694 27.1599 143.221 3.33129 100.722 16.7349C67.3607 27.3726 44.4112 58.2221 44.1991 93.3267H35.2739C15.7244 93.3267 0 109.283 0 128.857C0 133.325 0.850003 137.792 2.55003 142.047L32.2989 215.873C37.6119 229.277 50.5733 238 65.0227 238H184.869C199.318 238 212.28 229.277 217.593 215.873L247.342 142.047C254.779 123.963 246.066 103.326 228.005 95.8797C223.755 94.1777 219.08 93.3267 214.618 93.3267Z" fill="#7DC042"/>
</svg>
