<svg width="91" height="35" viewBox="0 0 91 35" fill="none" xmlns="http://www.w3.org/2000/svg">
<path d="M17.12 4.43191C18.1865 3.2388 18.9101 1.63697 18.7193 0C17.1582 0.0694663 15.2532 0.921257 14.1502 2.11516C13.1599 3.13769 12.2834 4.80662 12.512 6.37491C14.2642 6.51084 16.0151 5.59148 17.12 4.43191Z" fill="black"/>
<path d="M18.6991 6.6834C16.1541 6.54779 13.9902 7.97525 12.7748 7.97525C11.5589 7.97525 9.69767 6.75176 7.68469 6.78467C5.06471 6.81917 2.63368 8.14409 1.30413 10.2513C-1.43049 14.4669 0.582485 20.7202 3.24174 24.1535C4.53307 25.852 6.0896 27.7223 8.14026 27.6551C10.0779 27.587 10.8374 26.5329 13.1925 26.5329C15.5461 26.5329 16.2302 27.6551 18.2812 27.6211C20.4083 27.587 21.738 25.9216 23.0294 24.2213C24.5109 22.285 25.1173 20.4154 25.1554 20.3127C25.1172 20.2787 21.0539 18.8845 21.0162 14.704C20.9778 11.2036 24.2064 9.53848 24.3584 9.43531C22.5354 7.02377 19.6867 6.75176 18.6991 6.6834Z" fill="black"/>
<path d="M40.8481 1.94482C46.3797 1.94482 50.2314 5.35516 50.2314 10.3203C50.2314 15.3032 46.3002 18.7313 40.7094 18.7313H34.5851V27.4424H30.1602V1.94482H40.8481ZM34.5849 15.4093H39.6621C43.5147 15.4093 45.7072 13.5541 45.7072 10.3381C45.7072 7.12235 43.5147 5.28459 39.6819 5.28459H34.5849V15.4093Z" fill="black"/>
<path d="M51.3984 22.1607C51.3984 18.9092 54.184 16.9126 59.1234 16.6653L64.8127 16.3649V14.9338C64.8127 12.8665 63.252 11.6295 60.6447 11.6295C58.1746 11.6295 56.6336 12.6896 56.2587 14.3507H52.2285C52.4656 10.9933 55.6657 8.51953 60.8025 8.51953C65.8401 8.51953 69.0602 10.905 69.0602 14.6332V27.4438H64.9706V24.387H64.8722C63.6672 26.4545 61.0394 27.7618 58.3133 27.7618C54.2435 27.7618 51.3984 25.5 51.3984 22.1607ZM64.8126 20.4821V19.0156L59.6957 19.2982C57.1472 19.4574 55.7052 20.4646 55.7052 22.0548C55.7052 23.6803 57.2065 24.7406 59.4983 24.7406C62.4813 24.7403 64.8126 22.9027 64.8126 20.4821Z" fill="black"/>
<path d="M72.9021 34.282V31.1897C73.2178 31.2603 73.9288 31.2603 74.2846 31.2603C76.26 31.2603 77.327 30.5183 77.9786 28.61C77.9786 28.5745 78.3544 27.4791 78.3544 27.4613L70.8474 8.85498H75.4698L80.7255 23.9804H80.804L86.0597 8.85498H90.5635L82.7791 28.4153C81.0018 32.9215 78.9471 34.3703 74.6404 34.3703C74.2846 34.3703 73.2176 34.3349 72.9021 34.282Z" fill="black"/>
</svg>
