<?xml version="1.0" encoding="UTF-8"?>
<svg id="Layer_1" xmlns="http://www.w3.org/2000/svg" version="1.1" viewBox="0 0 212.98 42.6">
  <!-- Generator: Adobe Illustrator 29.0.1, SVG Export Plug-In . SVG Version: 2.1.0 Build 192)  -->
  <defs>
    <style>
      .st0 {
        fill: #010101;
      }

      .st1 {
        fill: #ea4535;
      }

      .st2 {
        fill: #557ebf;
      }

      .st3 {
        fill: #606469;
      }

      .st4 {
        fill: #f9bc15;
      }

      .st5 {
        fill: #36a852;
      }
    </style>
  </defs>
  <path class="st3" d="M49.89,21.71v10.47h-3.38V6.29h8.78c2.14,0,4.16.79,5.74,2.25,1.58,1.35,2.36,3.38,2.36,5.51s-.79,4.05-2.36,5.51c-1.58,1.46-3.49,2.25-5.74,2.25l-5.4-.11h0ZM49.89,9.44v9h5.63c1.24,0,2.48-.45,3.26-1.35,1.8-1.69,1.8-4.5.11-6.19l-.11-.11c-.9-.9-2.03-1.46-3.26-1.35,0,0-5.63,0-5.63,0Z"/>
  <path class="st3" d="M71.16,13.94c2.48,0,4.39.68,5.85,2.03,1.46,1.35,2.14,3.15,2.14,5.4v10.8h-3.15v-2.48h-.11c-1.35,2.03-3.26,3.04-5.51,3.04-1.91,0-3.6-.56-4.95-1.69-1.24-1.13-2.03-2.7-2.03-4.39,0-1.8.68-3.26,2.03-4.39s3.26-1.58,5.51-1.58c2.03,0,3.6.34,4.84,1.13v-.79c0-1.13-.45-2.25-1.35-2.93-.9-.79-2.03-1.24-3.26-1.24-1.91,0-3.38.79-4.39,2.36l-2.93-1.8c1.8-2.36,4.16-3.49,7.32-3.49v.02ZM66.88,26.77c0,.9.45,1.69,1.13,2.14.79.56,1.69.9,2.59.9,1.35,0,2.7-.56,3.71-1.58,1.13-1.01,1.69-2.25,1.69-3.6-1.01-.79-2.48-1.24-4.39-1.24-1.35,0-2.48.34-3.38,1.01-.9.56-1.35,1.35-1.35,2.36h0Z"/>
  <path class="st3" d="M97.38,14.5l-9.44,25.6h-3.38l2.46-8.94-7.32-16.54h3.6l5.29,12.72h.11l5.18-12.72h3.49v-.11h.01Z"/>
  <path class="st2" d="M36.5,19.46c0-1.01-.11-2.03-.23-3.04h-14.07v5.74h7.99c-.34,1.8-1.35,3.49-2.93,4.5v3.71h4.84c2.81-2.59,4.39-6.41,4.39-10.92h.01Z"/>
  <path class="st5" d="M22.2,33.97c4.05,0,7.43-1.35,9.9-3.6l-4.84-3.71c-1.35.9-3.04,1.46-5.06,1.46-3.83,0-7.2-2.59-8.33-6.19h-4.95v3.83c2.59,5.06,7.65,8.22,13.28,8.22h0Z"/>
  <path class="st4" d="M13.87,21.93c-.68-1.8-.68-3.83,0-5.74v-3.83h-4.95c-2.14,4.16-2.14,9.12,0,13.39l4.95-3.83h0Z"/>
  <path class="st1" d="M22.2,10.12c2.14,0,4.16.79,5.74,2.25h0l4.28-4.28c-2.7-2.48-6.3-3.94-9.9-3.83-5.63,0-10.8,3.15-13.28,8.22l4.95,3.83c1.01-3.6,4.39-6.19,8.22-6.19h-.01Z"/>
  <path class="st0" d="M133.26,8.61c-1.04,1.24-2.71,2.21-4.38,2.07-.21-1.67.61-3.45,1.57-4.54,1.04-1.27,2.87-2.17,4.35-2.24.17,1.74-.5,3.45-1.53,4.72M134.78,11.01c-2.42-.14-4.49,1.37-5.64,1.37s-2.92-1.3-4.84-1.27c-2.49.03-4.8,1.44-6.07,3.69-2.61,4.49-.68,11.14,1.84,14.79,1.24,1.81,2.71,3.79,4.66,3.72,1.84-.07,2.58-1.2,4.8-1.2s2.89,1.2,4.84,1.17c2.02-.03,3.29-1.81,4.52-3.62,1.41-2.05,1.98-4.05,2.02-4.16-.03-.03-3.9-1.51-3.93-5.97-.03-3.72,3.04-5.5,3.18-5.6-1.74-2.58-4.45-2.85-5.39-2.92M148.75,5.96v27.13h4.21v-9.27h5.83c5.32,0,9.07-3.65,9.07-8.94s-3.67-8.91-8.93-8.91h-10.18ZM152.96,9.51h4.85c3.65,0,5.74,1.95,5.74,5.38s-2.09,5.39-5.76,5.39h-4.84v-10.77h0ZM175.54,33.3c2.64,0,5.1-1.34,6.21-3.46h.09v3.25h3.9v-13.5c0-3.91-3.13-6.44-7.95-6.44-4.47,0-7.78,2.56-7.9,6.07h3.79c.31-1.67,1.86-2.77,3.98-2.77,2.58,0,4.02,1.2,4.02,3.41v1.5l-5.25.31c-4.89.3-7.53,2.3-7.53,5.78s2.73,5.85,6.65,5.85h0ZM176.67,30.08c-2.24,0-3.67-1.08-3.67-2.73s1.37-2.7,4-2.85l4.68-.3v1.53c0,2.54-2.16,4.35-5.01,4.35ZM190.94,40.47c4.11,0,6.04-1.57,7.73-6.32l7.39-20.74h-4.28l-4.96,16.03h-.09l-4.96-16.03h-4.4l7.13,19.75-.38,1.2c-.64,2.04-1.69,2.82-3.55,2.82-.33,0-.97-.03-1.24-.07v3.25c.24.07,1.29.1,1.6.1h.01Z"/>
  <rect x="106.06" y="8.09" width=".54" height="28.19"/>
</svg>