<?xml version="1.0" encoding="UTF-8"?>
<svg id="Layer_4" data-name="Layer 4" xmlns="http://www.w3.org/2000/svg" viewBox="0 0 145.92 145.44">
  <defs>
    <style>
      .cls-1 {
        fill: #ebcb40;
      }

      .cls-1, .cls-2 {
        stroke-width: 0px;
      }

      .cls-2 {
        fill: #fcfcfc;
      }
    </style>
  </defs>
  <circle class="cls-1" cx="73.03" cy="72.67" r="67.5"/>
  <g>
    <path class="cls-2" d="m111.65,103.82c-2,1.21-4.03,1.71-6.21,1.71-21.67-.01-43.34,0-65.01,0-2.12,0-4.1-.5-6.02-1.7,9.33-10.44,18.64-20.86,27.99-31.33,1.12.98,2.23,1.94,3.34,2.91,1.8,1.57,3.59,3.16,5.41,4.72,1.23,1.06,2.53,1.06,3.77-.02,2.73-2.37,5.45-4.76,8.17-7.14.17-.15.34-.29.56-.47,9.33,10.44,18.64,20.86,28.01,31.33Z"/>
    <path class="cls-2" d="m73.03,74.51c-12.69-11.11-25.33-22.17-38.06-33.3,1.67-.93,3.38-1.4,5.22-1.4,8.47,0,16.94,0,25.41,0,13.4,0,26.81,0,40.21,0,1.85,0,3.57.47,5.29,1.39-12.71,11.12-25.35,22.18-38.07,33.31Z"/>
    <path class="cls-2" d="m58.3,68.88c-9.24,10.34-18.41,20.6-27.65,30.94-.99-1.72-1.42-3.49-1.42-5.36-.02-9.89-.01-19.78-.01-29.68,0-4.56-.01-9.12,0-13.68,0-2.17.49-4.21,1.74-6.14,9.12,7.97,18.2,15.92,27.34,23.92Z"/>
    <path class="cls-2" d="m115.12,44.95c1.19,1.84,1.72,3.83,1.72,5.93.02,12.34.02,24.69,0,37.03,0,2.76,0,5.53-.2,8.28-.08,1.2-.65,2.37-1.07,3.79-9.38-10.5-18.56-20.76-27.81-31.11,9.13-7.99,18.22-15.94,27.36-23.93Z"/>
  </g>
</svg>