<svg width="51" height="38" viewBox="0 0 51 38" fill="none" xmlns="http://www.w3.org/2000/svg">
<circle cx="27.5611" cy="34.1456" r="2.46837" fill="#999999"/>
<circle cx="13.1647" cy="34.1456" r="2.46837" fill="#999999"/>
<path d="M10.0148 34.2372C10.0148 32.4733 11.45 31.0381 13.214 31.0381C14.9779 31.0381 16.4131 32.4733 16.4131 34.2372C16.4131 36.0016 14.9779 37.4368 13.214 37.4368C11.45 37.4368 10.0148 36.0016 10.0148 34.2372ZM15.4277 34.2372C15.4277 33.0166 14.4345 32.0235 13.214 32.0235C11.9934 32.0235 11.0003 33.0166 11.0003 34.2372C11.0003 35.4584 11.9934 36.4514 13.214 36.4514C14.4345 36.4514 15.4277 35.4584 15.4277 34.2372Z" fill="#717171"/>
<path d="M50.2549 3.03831C50.2549 3.70994 49.7083 4.25653 49.0367 4.25653H42.4003C41.7287 4.25653 41.1821 3.70994 41.1821 3.03831V2.6212H38.3299C37.1852 2.6212 36.2239 3.47863 36.0931 4.61555C36.1049 4.51224 35.396 10.6941 33.5329 26.9419C33.3433 28.5955 31.9519 29.835 30.2905 29.835H30.2645C25.1124 29.7932 12.6865 29.7047 8.58808 29.7864H8.57848C8.3105 29.7864 8.09101 29.5722 8.08584 29.3034C8.08051 29.0316 8.29661 28.8063 8.56887 28.8011C12.6773 28.7213 25.1154 28.8079 30.2722 28.8498C31.3269 28.8577 32.2557 28.1152 32.499 27.0883L6.21136 25.0111C5.64895 24.9669 5.17878 24.5895 5.01427 24.0502L0.0609779 7.85118C-0.207587 6.97484 0.447789 6.08874 1.36537 6.08874H34.9325L35.1143 4.50292C35.302 2.86848 36.6843 1.63577 38.3299 1.63577H41.1821V1.21866C41.1821 0.54644 41.7287 0 42.4003 0H49.0367C49.7083 0 50.2549 0.546588 50.2549 1.21866V3.03831ZM1.36522 7.07417C1.11129 7.07417 0.928604 7.31834 1.00295 7.56355L5.95624 23.7626C6.00147 23.9098 6.13479 24.0166 6.28866 24.0286L32.6363 26.1105L34.8195 7.07417H1.36522ZM49.2695 1.21866C49.2695 1.09022 49.1651 0.985278 49.0365 0.985278H42.4002C42.2717 0.985278 42.1672 1.09022 42.1672 1.21866V3.03831C42.1672 3.16675 42.2716 3.27125 42.4002 3.27125H49.0367C49.1651 3.27125 49.2696 3.1669 49.2696 3.03831L49.2695 1.21866Z" fill="#999999"/>
<path d="M24.2439 34.2372C24.2439 32.4733 25.6791 31.0381 27.4435 31.0381C29.2074 31.0381 30.6426 32.4733 30.6426 34.2372C30.6426 36.0016 29.2074 37.4368 27.4435 37.4368C25.6792 37.4368 24.2439 36.0016 24.2439 34.2372ZM29.6573 34.2372C29.6573 33.0166 28.6642 32.0235 27.4436 32.0235C26.2224 32.0235 25.2295 33.0166 25.2295 34.2372C25.2295 35.4584 26.2226 36.4514 27.4436 36.4514C28.6642 36.4515 29.6573 35.4584 29.6573 34.2372Z" fill="#717171"/>
<g opacity="0.5">
<circle cx="19" cy="16" r="7" fill="#EF3853"/>
<g filter="url(#filter0_d_11215_734)">
<rect x="15.1074" y="13.4546" width="1.90655" height="9.53275" rx="0.953275" transform="rotate(-45 15.1074 13.4546)" fill="white"/>
<rect x="21.8486" y="12.105" width="1.90655" height="9.53275" rx="0.953275" transform="rotate(45 21.8486 12.105)" fill="white"/>
</g>
</g>
<defs>
<filter id="filter0_d_11215_734" x="15.502" y="12.5" width="7.2998" height="8.30029" filterUnits="userSpaceOnUse" color-interpolation-filters="sRGB">
<feFlood flood-opacity="0" result="BackgroundImageFix"/>
<feColorMatrix in="SourceAlpha" type="matrix" values="0 0 0 0 0 0 0 0 0 0 0 0 0 0 0 0 0 0 127 0" result="hardAlpha"/>
<feOffset dy="1"/>
<feComposite in2="hardAlpha" operator="out"/>
<feColorMatrix type="matrix" values="0 0 0 0 0 0 0 0 0 0 0 0 0 0 0 0 0 0 0.18 0"/>
<feBlend mode="normal" in2="BackgroundImageFix" result="effect1_dropShadow_11215_734"/>
<feBlend mode="normal" in="SourceGraphic" in2="effect1_dropShadow_11215_734" result="shape"/>
</filter>
</defs>
</svg>
