<svg width="149" height="64" viewBox="0 0 149 64" fill="none" xmlns="http://www.w3.org/2000/svg">
<g clip-path="url(#clip0_348_3501)">
<path d="M42.0788 52.338L42.2577 52.3123C43.9694 51.9535 45.5023 51.0308 46.6009 49.698C49.1047 46.7505 48.8237 42.342 45.9878 39.702C44.4804 38.2411 42.4621 37.4721 40.3671 37.5234H31.7061V63.4361H34.312V52.6199H38.7319L45.9111 63.4361H49.0536L41.7722 52.8506L42.0788 52.338ZM34.312 50.185V39.9583H40.4437C43.2541 39.9327 45.579 42.1882 45.6045 45.0332C45.6301 46.4173 45.0425 47.7757 44.0205 48.724C42.9986 49.698 41.6189 50.2106 40.2138 50.185H34.312Z" fill="#7DC042"/>
<path d="M65.175 36.9083C61.4449 36.9083 58.2513 38.2155 55.722 40.8042C53.1926 43.3929 51.8896 46.6224 51.8896 50.4414C51.8896 54.2603 53.1671 57.5155 55.722 60.0785C58.2768 62.6416 61.4449 64 65.175 64C68.9051 64 72.0731 62.6929 74.628 60.0785C77.1828 57.4642 78.4603 54.2603 78.4603 50.4414C78.4603 46.6224 77.1828 43.4185 74.628 40.8298C72.0987 38.2411 68.9051 36.9083 65.175 36.9083ZM72.7118 58.3869C70.719 60.463 68.1642 61.5395 65.175 61.5395C62.1858 61.5395 59.6309 60.4886 57.587 58.3869C55.5431 56.2852 54.5723 53.6452 54.5723 50.4414C54.5723 47.2375 55.5942 44.5976 57.587 42.4958C59.5798 40.3941 62.1602 39.3432 65.175 39.3432C68.1897 39.3432 70.719 40.3941 72.7118 42.4958C74.7046 44.5976 75.7777 47.2119 75.7777 50.4414C75.8032 53.6708 74.7557 56.3364 72.7118 58.3869Z" fill="#7DC042"/>
<path d="M99.1796 40.5479V37.4978H82.4197V39.9584H96.3948L81.832 60.3604V63.4105H99.3329V60.9499H84.6168L99.1796 40.5479Z" fill="#7DC042"/>
<path d="M104.315 63.4105H119.031V60.9499H106.921V52.5943H117.856V50.185H106.921V39.9584H119.031V37.4978H104.315V63.4105Z" fill="#7DC042"/>
<path d="M145.168 40.8555C142.613 38.2411 139.445 36.9083 135.715 36.9083C131.985 36.9083 128.791 38.2155 126.262 40.8042C123.733 43.3929 122.43 46.6224 122.43 50.4414C122.43 54.2603 123.707 57.5155 126.262 60.0785C128.817 62.6416 131.985 64 135.715 64C139.445 64 142.613 62.6929 145.168 60.0785C147.723 57.4642 149 54.2603 149 50.4414C149 46.6224 147.697 43.4185 145.168 40.8555ZM143.226 58.3869C141.234 60.463 138.679 61.5395 135.689 61.5395C132.7 61.5395 130.145 60.4886 128.101 58.3869C126.058 56.2852 125.087 53.6452 125.087 50.4414C125.087 47.2375 126.109 44.5976 128.101 42.4958C130.094 40.3941 132.675 39.3432 135.689 39.3432C138.704 39.3432 141.234 40.3941 143.226 42.4958C145.219 44.5719 146.292 47.2119 146.292 50.4414C146.318 53.6708 145.27 56.3364 143.226 58.3869Z" fill="#7DC042"/>
<path d="M12.0845 50.1851V52.2355H23.7858L23.7092 52.7225C23.3771 54.8755 22.3551 56.8491 20.8477 58.3869C18.8549 60.463 16.3001 61.5395 13.3109 61.5395C10.3217 61.5395 7.7668 60.4886 5.72291 58.3869C3.67901 56.2852 2.70816 53.6452 2.70816 50.4414C2.70816 47.2375 3.73011 44.5976 5.72291 42.4958C7.71571 40.3941 10.2961 39.3432 13.3109 39.3432C16.3256 39.3432 18.8549 40.3941 20.8477 42.4958C21.3843 43.0597 21.8697 43.7005 22.2785 44.3925L24.7056 43.4698C24.1691 42.5215 23.5048 41.6244 22.7383 40.8298C20.1835 38.2155 17.0154 36.8827 13.2853 36.8827C9.55521 36.8827 6.36163 38.1899 3.8323 40.7786C1.30298 43.3673 0 46.5967 0 50.4157C0 54.2347 1.27743 57.4898 3.8323 60.0529C6.38717 62.616 9.55521 63.9744 13.2853 63.9744C17.0154 63.9744 20.1835 62.6672 22.7383 60.0529C24.7311 58.0281 26.0341 55.3881 26.3663 52.5687L26.4174 51.8511C26.4429 51.6973 26.4429 51.5435 26.4684 51.3897C26.5195 51.0565 26.5451 50.7489 26.5451 50.4157C26.5451 50.3388 26.5451 50.2363 26.5195 50.1594L12.0845 50.1851Z" fill="#7DC042"/>
<path d="M85.2817 9.6628H76.2886C76.2886 11.2263 77.566 12.5078 79.1245 12.5078C79.1245 12.5078 79.1245 12.5078 79.15 12.5078H80.8107C79.2522 15.9936 75.1644 17.5571 71.6898 15.9936C69.2116 14.8915 67.6276 12.4309 67.602 9.73969C67.602 9.71406 67.602 9.68843 67.602 9.6628C67.6531 5.84381 70.7701 2.79375 74.5768 2.84501C76.4163 2.87064 78.1536 3.61394 79.4311 4.92111C79.661 5.15178 79.8654 5.40809 80.0698 5.69003C80.5808 6.40769 81.3983 6.81778 82.267 6.81778H83.7743C82.1648 1.69163 76.6974 -1.17902 71.5876 0.435723C67.5765 1.71726 64.8172 5.43372 64.7917 9.6628H63.7186C61.3681 9.6628 59.4775 11.5851 59.4775 13.9431C59.4775 14.4814 59.5797 15.0196 59.7841 15.5322L63.3609 24.4261C63.9997 26.0408 65.5581 27.0917 67.2954 27.0917H81.7049C83.4422 27.0917 85.0007 26.0408 85.6394 24.4261L89.2162 15.5322C90.1104 13.3536 89.0629 10.8674 86.8913 9.97036C86.3803 9.76532 85.8182 9.6628 85.2817 9.6628Z" fill="#7DC042"/>
</g>
<defs>
<clipPath id="clip0_348_3501">
<rect width="149" height="64" fill="white"/>
</clipPath>
</defs>
</svg>
