<svg width="88" height="35" viewBox="0 0 88 35" fill="none" xmlns="http://www.w3.org/2000/svg">
<path d="M40.6813 16.5855V26.6393H37.4807V1.8125H45.9657C48.1162 1.8125 49.9498 2.52713 51.4502 3.95623C52.9839 5.38532 53.7507 7.13015 53.7507 9.1907C53.7507 11.3012 52.9839 13.046 51.4502 14.4584C49.9665 15.8709 48.1329 16.5689 45.9657 16.5689H40.6813V16.5855ZM40.6813 4.87014V13.5279H46.0325C47.2994 13.5279 48.3663 13.0959 49.1997 12.2483C50.0499 11.4008 50.4833 10.3706 50.4833 9.20734C50.4833 8.0607 50.0499 7.04697 49.1997 6.1996C48.3662 5.31878 47.316 4.88678 46.0325 4.88678H40.6813V4.87014Z" fill="#383E41"/>
<path d="M62.1253 9.09033C64.4924 9.09033 66.3595 9.72179 67.7264 10.9847C69.0934 12.2476 69.7768 13.9758 69.7768 16.1694V26.6386H66.7261V24.2789H66.5928C65.2759 26.2232 63.5088 27.187 61.3084 27.187C59.4248 27.187 57.8577 26.6386 56.5908 25.5252C55.3239 24.4118 54.6904 23.0325 54.6904 21.3708C54.6904 19.6094 55.3573 18.2135 56.6909 17.1832C58.0246 16.1363 59.8083 15.6212 62.0253 15.6212C63.9257 15.6212 65.4928 15.9702 66.7096 16.668V15.9369C66.7096 14.8235 66.2763 13.893 65.3927 13.112C64.5091 12.331 63.4756 11.9487 62.292 11.9487C60.5083 11.9487 59.0914 12.6964 58.0578 14.2087L55.2404 12.4472C56.7909 10.2037 59.0914 9.09033 62.1253 9.09033ZM57.9912 21.4205C57.9912 22.2515 58.3413 22.9495 59.058 23.4977C59.7582 24.0462 60.5917 24.3286 61.5419 24.3286C62.8922 24.3286 64.0924 23.8301 65.1427 22.833C66.193 21.8359 66.7263 20.6726 66.7263 19.3267C65.7261 18.5457 64.3425 18.1468 62.5588 18.1468C61.2586 18.1468 60.175 18.4625 59.3081 19.0774C58.4245 19.7255 57.9912 20.5066 57.9912 21.4205Z" fill="#383E41"/>
<path d="M87.1875 9.63916L76.5187 34.1003H73.2179L77.1853 25.5422L70.1506 9.63916H73.6346L78.7024 21.8365H78.7691L83.7034 9.63916H87.1875Z" fill="#383E41"/>
<path d="M27.689 11.5654H14.2729V17.0493L21.9995 17.051C21.6862 18.8756 20.6776 20.4309 19.1323 21.4679V21.4689C19.1328 21.4686 19.1335 21.4683 19.134 21.4679L18.9949 24.7456L23.7333 25.0241C23.7326 25.0246 23.732 25.0253 23.7314 25.0258C26.417 22.5482 27.9558 18.8856 27.9558 14.5584C27.9556 13.518 27.8623 12.5226 27.689 11.5654Z" fill="#0085F7"/>
<path d="M19.1285 21.468C19.128 21.4683 19.1273 21.4687 19.1268 21.469C17.8468 22.3291 16.1986 22.8322 14.2708 22.8322C10.5451 22.8322 7.38445 20.3297 6.25258 16.9563H6.25207C6.25224 16.9568 6.25241 16.9575 6.25258 16.958L2.29676 16.3335L1.50903 20.6266C3.85978 25.2756 8.69035 28.4656 14.271 28.4656C18.1274 28.4656 21.3673 27.2017 23.7261 25.0257C23.7268 25.0252 23.7275 25.0247 23.728 25.024L19.1285 21.468Z" fill="#00A94B"/>
<path d="M5.81616 14.2341C5.81616 13.2869 5.97452 12.3713 6.26298 11.5105L5.02775 7.84131H1.51858C0.546776 9.76403 0 11.9342 0 14.2341C0 16.534 0.548479 18.7042 1.51858 20.627L1.51926 20.6264L6.26298 16.9577C6.26281 16.9572 6.26264 16.9567 6.26247 16.956C5.97435 16.0959 5.81616 15.1808 5.81616 14.2341Z" fill="#FFBB00"/>
<path d="M14.2678 0C8.68831 0 3.8557 3.19056 1.50513 7.84025L6.24936 11.5095C7.38123 8.13612 10.5418 5.63355 14.2676 5.63355C16.373 5.63355 18.2585 6.3565 19.7471 7.76896L23.823 3.7093C21.3476 1.41076 18.1202 0 14.2678 0Z" fill="#FF4031"/>
</svg>
