<?xml version="1.0" encoding="UTF-8"?>
<svg id="Layer_6" data-name="Layer 6" xmlns="http://www.w3.org/2000/svg" viewBox="0 0 145.92 145.44">
  <defs>
    <style>
      .cls-1 {
        fill: #397fc2;
      }

      .cls-1, .cls-2, .cls-3, .cls-4, .cls-5 {
        stroke-width: 0px;
      }

      .cls-2 {
        fill: #fff;
      }

      .cls-3 {
        fill: #f0493b;
      }

      .cls-4 {
        fill: #febb12;
      }

      .cls-5 {
        fill: #00a750;
      }
    </style>
  </defs>
  <circle class="cls-3" cx="73.03" cy="72.67" r="67.5" transform="translate(-12.84 129.6) rotate(-78.4)"/>
  <circle class="cls-2" cx="73.03" cy="72.67" r="56.68" transform="translate(-12.84 129.6) rotate(-78.4)"/>
  <g id="Layer_5" data-name="Layer 5">
    <g>
      <path class="cls-1" d="m111.85,65.31s.53,5.63.53,7.5c0,1.97-.53,7.84-.53,7.84,0,0,0,.02,0,.03-1.24,8.8-4.71,16.73-11.03,22.42l-13-9.79c.99-.65,1.93-1.37,2.81-2.16,3.14-2.79,4.66-6.4,5.36-10.47h-21.95v-15.36h37.82Z"/>
      <path class="cls-3" d="m100.99,42.92l-11.57,11.39c-4.17-3.48-9.27-6.03-15.11-6.03-10.72,0-19.84,6.89-23.17,16.48l-13.2-9.94c6.65-13.25,20.37-22.43,36.08-22.43,10.28,0,19.84,4.15,26.94,10.51,0,0,.02.02.03.02Z"/>
      <path class="cls-5" d="m100.81,103.1s-.09.08-.13.12c-7.09,6.31-16.64,9.74-26.88,9.74-15.72,0-29.33-9.05-35.91-22.23l13.23-9.96c3.3,9.64,12.44,16.58,23.2,16.58,4.98,0,9.62-1.48,13.49-4.04l13,9.79Z"/>
      <path class="cls-4" d="m51.12,80.77l-13.23,9.96c-2.69-5.39-4.21-11.48-4.21-17.92s1.54-12.56,4.26-18l13.2,9.94c-.88,2.52-1.35,5.23-1.35,8.06s.46,5.46,1.32,7.96h0Z"/>
    </g>
  </g>
</svg>