<svg width="210" height="30" viewBox="0 0 210 30" fill="none" xmlns="http://www.w3.org/2000/svg">
<g clip-path="url(#clip0_13235_218)">
<mask id="mask0_13235_218" style="mask-type:luminance" maskUnits="userSpaceOnUse" x="0" y="0" width="210" height="30">
<path d="M210 0H0V30H210V0Z" fill="white"/>
</mask>
<g mask="url(#mask0_13235_218)">
<path d="M92.8858 16.8006L93.0693 16.7616C94.9205 16.3819 96.5874 15.381 97.7953 13.9241C99.1012 12.3753 99.7617 10.3815 99.6395 8.35707C99.5173 6.33264 98.6219 4.43325 97.1392 3.05361C96.3269 2.27195 95.3682 1.65938 94.3185 1.2513C93.2687 0.843214 92.1487 0.647695 91.0232 0.676033H81.5879V28.8446H84.4208V17.0766H89.2301L97.0363 28.8446H100.475L92.5439 17.3302L92.8858 16.8006ZM84.4208 14.476V3.36022H91.0927C91.8236 3.35175 92.5489 3.48785 93.2273 3.76073C93.9056 4.03361 94.5236 4.43791 95.046 4.9505C95.5683 5.46309 95.9847 6.07392 96.2714 6.74803C96.5581 7.42214 96.7094 8.1463 96.7166 8.87909C96.7294 9.6298 96.5828 10.3747 96.2866 11.0642C95.9904 11.7538 95.5514 12.3724 94.9986 12.8789C93.8758 13.9336 92.3864 14.5067 90.8481 14.476H84.4208Z" fill="#008359"/>
<path d="M118.015 0.0288086C113.953 0.0288086 110.492 1.45591 107.729 4.27667C104.965 7.09743 103.559 10.6011 103.559 14.7625C103.559 18.924 104.949 22.4499 107.729 25.2456C110.509 28.0413 113.956 29.4963 118.015 29.4963C122.073 29.4963 125.521 28.0636 128.301 25.2456C131.081 22.4276 132.471 18.924 132.471 14.7625C132.471 10.6011 131.081 7.11416 128.301 4.31848C125.543 1.47264 122.082 0.0288086 118.015 0.0288086ZM126.227 23.3948C124.044 25.6637 121.281 26.8149 118.015 26.8149C114.748 26.8149 111.977 25.6637 109.766 23.3921C107.556 21.1204 106.489 18.2244 106.489 14.7625C106.489 11.3007 107.601 8.39632 109.769 6.12187C111.938 3.84743 114.754 2.70184 118.02 2.70184C121.287 2.70184 124.053 3.853 126.235 6.12187C128.417 8.39075 129.571 11.2645 129.571 14.7625C129.571 18.2606 128.431 21.1538 126.227 23.3948Z" fill="#008359"/>
<path d="M155.013 3.99053V0.679199H136.793V3.36059H151.985L136.15 25.5364V28.8478H155.174V26.1664H139.169L155.013 3.99053Z" fill="#008359"/>
<path d="M160.596 28.8478H176.629V26.1664H163.435V17.0797H175.33V14.4764H163.435V3.36059H176.629V0.679199H160.596V28.8478Z" fill="#008359"/>
<path d="M205.049 4.31848C202.269 1.47264 198.819 0.0288086 194.763 0.0288086C190.707 0.0288086 187.238 1.45591 184.477 4.27667C181.717 7.09743 180.307 10.6039 180.307 14.7625C180.307 18.9212 181.697 22.4472 184.477 25.2456C187.257 28.0441 190.702 29.4963 194.763 29.4963C198.825 29.4963 202.269 28.0636 205.049 25.2456C207.829 22.4276 209.219 18.9212 209.219 14.7625C209.219 10.6039 207.81 7.12252 205.049 4.31848ZM202.956 23.3948C200.776 25.6637 198.018 26.8149 194.749 26.8149C191.48 26.8149 188.711 25.6637 186.501 23.3921C184.291 21.1204 183.218 18.2216 183.218 14.7625C183.218 11.3035 184.33 8.39911 186.504 6.12187C188.678 3.84464 191.488 2.70184 194.755 2.70184C198.021 2.70184 200.787 3.853 202.964 6.12187C205.141 8.39075 206.3 11.2645 206.3 14.7625C206.3 18.2606 205.18 21.1538 202.956 23.3948Z" fill="#008359"/>
<path d="M60.2517 14.4745V16.7044H72.9701L72.8812 17.2228C72.5081 19.5544 71.4164 21.7104 69.7592 23.3883C67.5825 25.6572 64.822 26.8084 61.5527 26.8084C58.2835 26.8084 55.5146 25.6572 53.3045 23.3855C51.0944 21.1139 50.0158 18.2151 50.0158 14.7449C50.0158 11.2747 51.1278 8.38145 53.3017 6.10422C55.4757 3.82698 58.2862 2.68418 61.5527 2.68418C64.8192 2.68418 67.5853 3.83534 69.7648 6.10422C70.3617 6.72244 70.8826 7.41024 71.316 8.15289L73.9709 7.14946C73.3906 6.10583 72.6745 5.14415 71.8415 4.28967C69.0754 1.44383 65.6171 0 61.5555 0C57.494 0 54.0301 1.42711 51.2696 4.24786C48.509 7.06862 47.0996 10.5751 47.0996 14.7337C47.0996 18.8924 48.4896 22.4184 51.2696 25.2168C54.0496 28.0153 57.4912 29.4675 61.5555 29.4675C65.6198 29.4675 69.0615 28.0348 71.8415 25.2168C74.0232 23.0138 75.4145 20.1474 75.7974 17.0667L75.8641 16.3002C75.8808 16.1302 75.9002 15.9601 75.9197 15.7929C75.9691 15.4419 75.9969 15.0882 76.0031 14.7337C76.001 14.6405 75.9936 14.5474 75.9809 14.455L60.2517 14.4745Z" fill="#008359"/>
<path d="M28.0935 10.5494H18.3135C18.3131 10.9582 18.3933 11.3631 18.5495 11.7407C18.7057 12.1183 18.9348 12.4613 19.2237 12.7498C19.5125 13.0384 19.8554 13.2668 20.2325 13.4221C20.6097 13.5773 21.0138 13.6563 21.4215 13.6545H23.2341C22.5348 15.2234 21.3211 16.5051 19.7947 17.2866C18.2683 18.0681 16.5211 18.3023 14.8436 17.9503C13.166 17.5983 11.6591 16.6812 10.5734 15.3516C9.48766 14.0219 8.88848 12.3598 8.87544 10.6414C8.87544 10.6107 8.87544 10.5801 8.87544 10.5494C8.89271 9.06364 9.34924 7.6164 10.1872 6.39088C11.0252 5.16536 12.207 4.21667 13.583 3.66488C14.959 3.11309 16.4674 2.98301 17.9171 3.29111C19.3669 3.59921 20.6929 4.33164 21.7273 5.39568C21.9786 5.65745 22.2108 5.93689 22.4223 6.23187C22.6975 6.61071 23.0579 6.91917 23.4743 7.13225C23.8906 7.34533 24.3512 7.45703 24.8187 7.45829H26.4588C25.7016 5.04829 24.1113 2.98842 21.9741 1.64942C19.837 0.310416 17.2933 -0.219782 14.8009 0.15425C12.3086 0.528282 10.0312 1.78198 8.37872 3.6897C6.72624 5.59742 5.80715 8.03389 5.78688 10.5606H4.62207C3.86542 10.5612 3.12047 10.7479 2.45252 11.1043C1.78458 11.4608 1.21404 11.976 0.790912 12.605C0.367783 13.2339 0.104987 13.9573 0.0255591 14.7118C-0.0538689 15.4662 0.0524939 16.2287 0.33533 16.9324L4.22731 26.6071C4.57201 27.4641 5.16429 28.1982 5.92811 28.7152C6.69194 29.2322 7.59246 29.5085 8.51405 29.5087H24.2015C25.1231 29.5085 26.0236 29.2322 26.7874 28.7152C27.5513 28.1982 28.1435 27.4641 28.4882 26.6071L32.3802 16.9324C32.6661 16.2282 32.7749 15.4643 32.6969 14.708C32.6189 13.9518 32.3566 13.2264 31.9331 12.5957C31.5095 11.9651 30.9378 11.4486 30.2682 11.0917C29.5986 10.7349 28.8518 10.5486 28.0935 10.5494Z" fill="#008359"/>
</g>
</g>
<defs>
<clipPath id="clip0_13235_218">
<rect width="210" height="30" fill="white"/>
</clipPath>
</defs>
</svg>
