<?xml version="1.0" encoding="UTF-8"?>
<svg id="Layer_1" xmlns="http://www.w3.org/2000/svg" viewBox="0 0 287.08 377.92">
  <defs>
    <style>
      .cls-1 {
        fill: none;
      }
    </style>
  </defs>
  <g>
    <path class="cls-1" d="M99.2,165.01v-11.22h-46.68c-8.67,0-15.73,7.03-15.73,15.68v155.42c0,8.64,7.05,15.68,15.73,15.68h180.68c8.67,0,15.73-7.03,15.73-15.68v-155.42c0-8.64-7.05-15.68-15.73-15.68h-46.68v11.22h-87.33Z"/>
    <path d="M233.88,116.44h-46.68v37.35h46.68c8.67,0,15.73,7.03,15.73,15.68v155.42c0,8.64-7.05,15.68-15.73,15.68H53.2c-8.67,0-15.73-7.03-15.73-15.68v-155.42c0-8.64,7.05-15.68,15.73-15.68h46.68v-37.35h-46.68c-29.38,0-53.2,23.74-53.2,53.03v155.42c0,29.29,23.82,53.03,53.2,53.03h180.68c29.38,0,53.2-23.74,53.2-53.03v-155.42c0-29.29-23.82-53.03-53.2-53.03Z"/>
  </g>
  <path d="M221.74,77c-.05-.05-.11-.1-.16-.15L154.46,4.68c-5.81-6.25-15.7-6.24-21.51,0l-67.67,72.79.02.02c-5.71,5.75-5.7,15.03.04,20.76,5.74,5.74,15.06,5.74,20.8,0,.46-.46.87-.95,1.26-1.46l39.66-42.68v178.42c0,9.52,7.38,17.23,16.48,17.23h0c9.1,0,16.48-7.71,16.48-17.23V53.74l39.89,42.91c.32.39.66.78,1.03,1.14,5.74,5.74,15.06,5.74,20.8,0,5.74-5.74,5.74-15.06,0-20.8Z"/>
</svg>