<?xml version="1.0" encoding="UTF-8"?>
<svg id="Layer_7" data-name="Layer 7" xmlns="http://www.w3.org/2000/svg" viewBox="0 0 145.92 145.44">
  <defs>
    <style>
      .cls-1 {
        fill: #008985;
      }

      .cls-1, .cls-2 {
        stroke-width: 0px;
      }

      .cls-2 {
        fill: #fff;
      }
    </style>
  </defs>
  <circle class="cls-1" cx="73.03" cy="72.67" r="67.5" transform="translate(-12.84 129.6) rotate(-78.4)"/>
  <path class="cls-2" d="m94.03,55.13h-.59v-13.92c-.03-3.09-1.77-6.04-4.63-7.06-.96-.34-1.93-.33-2.92-.33h-20.74c-1.97,0-3.94-.02-5.91,0-2.9.03-5.32,2.13-6.21,4.95-.59,1.86-.37,4.01-.37,5.94v12.69h-.63v7.36h.63v1.48h-.63v7.36h.63v30.44c0,1.88.6,3.68,1.77,5.12,1.23,1.51,3.04,2.35,4.93,2.36h21.6c1.94,0,3.88,0,5.83,0,3.91-.02,6.66-3.58,6.67-7.5,0-1.23,0-2.46,0-3.69v-33.3h.59v-11.9Zm-2.79,44.98s-35.07-.04-36.37-.02v-54.97s35.07.04,36.37.02v54.97Z"/>
</svg>