<svg width="286" height="267" viewBox="0 0 286 267" fill="none" xmlns="http://www.w3.org/2000/svg">
<path d="M180.386 266.289C238.669 266.289 285.913 263.344 285.913 259.707C285.913 256.071 238.663 253.125 180.386 253.125C122.108 253.125 74.8581 256.071 74.8581 259.707C74.8581 263.344 122.103 266.289 180.386 266.289Z" fill="black" fill-opacity="0.1"/>
<path d="M10.7349 37.6858L48.1067 34.5232C52.7697 34.116 57.4328 35.3152 61.315 37.9312C65.1972 40.5473 68.0643 44.4183 69.4364 48.8918L105.224 168.766L98.1513 181.327C96.344 184.568 95.4516 188.244 95.5743 191.953C95.697 195.662 96.8237 199.271 98.8374 202.389C100.851 205.507 103.679 208.023 107.009 209.657C110.339 211.291 114.059 211.994 117.757 211.682L261.203 199.494" stroke="#BBB7B7" stroke-width="5.15" stroke-linecap="round" stroke-linejoin="round"/>
<path d="M74.7521 67.0924L241.48 52.9469C243.131 52.7907 244.793 53.0139 246.344 53.594C247.895 54.1741 249.295 55.0944 250.444 56.2936C251.587 57.4929 252.446 58.932 252.954 60.5105C253.461 62.089 253.606 63.7568 253.378 65.3967L242.083 146.923C241.742 149.372 240.582 151.636 238.803 153.354C237.018 155.067 234.714 156.137 232.249 156.383L105.218 168.771L74.7465 67.0924H74.7521Z" fill="black" fill-opacity="0.1" stroke="#BBB7B7" stroke-width="5.15" stroke-miterlimit="10"/>
<path d="M133.682 239.17C141.162 239.17 147.22 233.106 147.22 225.632C147.22 218.158 141.157 212.095 133.682 212.095C126.208 212.095 120.145 218.158 120.145 225.632C120.145 233.106 126.208 239.17 133.682 239.17Z" fill="white" fill-opacity="0.2" stroke="#BBB7B7" stroke-width="5.15" stroke-miterlimit="10"/>
<path d="M227.97 231.176C235.445 231.176 241.508 225.113 241.508 217.639C241.508 210.165 235.445 204.102 227.97 204.102C220.496 204.102 214.433 210.165 214.433 217.639C214.433 225.113 220.496 231.176 227.97 231.176Z" fill="white" fill-opacity="0.2" stroke="#BBB7B7" stroke-width="5.15" stroke-miterlimit="10"/>
<path d="M40.3087 31.3048L5.07894 34.2945C2.02785 34.5511 -0.236763 37.2396 0.019819 40.2907C0.276401 43.3418 2.96493 45.6064 6.01603 45.3499L41.2458 42.3601C44.2969 42.1035 46.5615 39.415 46.305 36.3639C46.0484 33.3128 43.3598 31.0482 40.3087 31.3048Z" fill="#9D9D9D"/>
<path d="M144.95 130.078C145.624 124.818 148.079 119.948 151.905 116.278C155.732 112.608 160.701 110.36 165.989 109.914C171.272 109.462 176.554 110.834 180.944 113.807C185.339 116.774 188.58 121.159 190.136 126.229" stroke="black" stroke-opacity="0.5" stroke-width="4.15" stroke-linecap="round" stroke-linejoin="round"/>
<path d="M190.454 99.0592C192.233 99.0592 193.672 97.6201 193.672 95.8407C193.672 94.0614 192.233 92.6223 190.454 92.6223C188.674 92.6223 187.235 94.0614 187.235 95.8407C187.235 97.6201 188.674 99.0592 190.454 99.0592Z" fill="black" fill-opacity="0.5"/>
<path d="M139.461 103.371C141.24 103.371 142.679 101.932 142.679 100.152C142.679 98.3731 141.24 96.934 139.461 96.934C137.682 96.934 136.243 98.3731 136.243 100.152C136.243 101.932 137.682 103.371 139.461 103.371Z" fill="black" fill-opacity="0.5"/>
<path d="M48.7648 221.633V234.021" stroke="#BBB7B7" stroke-width="2.15" stroke-linecap="round" stroke-linejoin="round"/>
<path d="M42.5845 227.813H54.9451" stroke="#BBB7B7" stroke-width="2.15" stroke-linecap="round" stroke-linejoin="round"/>
<path d="M236.283 1.28918V13.6776" stroke="#BBB7B7" stroke-width="2.15" stroke-linecap="round" stroke-linejoin="round"/>
<path d="M230.074 7.49731H242.463" stroke="#BBB7B7" stroke-width="2.15" stroke-linecap="round" stroke-linejoin="round"/>
<path d="M99.9027 28.2537V40.6143" stroke="#BBB7B7" stroke-width="2.15" stroke-linecap="round" stroke-linejoin="round"/>
<path d="M93.7225 34.434H106.111" stroke="#BBB7B7" stroke-width="2.15" stroke-linecap="round" stroke-linejoin="round"/>
<path d="M277.128 73.7021C278.746 73.7021 280.062 72.3914 280.062 70.7682C280.062 69.145 278.746 67.8342 277.128 67.8342C275.511 67.8342 274.194 69.145 274.194 70.7682C274.194 72.3914 275.511 73.7021 277.128 73.7021Z" stroke="#BBB7B7" stroke-width="2.15" stroke-linecap="round" stroke-linejoin="round"/>
<path d="M167.545 47.3412C169.102 47.3412 170.362 46.0806 170.362 44.5243C170.362 42.9681 169.102 41.7075 167.545 41.7075C165.989 41.7075 164.729 42.9681 164.729 44.5243C164.729 46.0806 165.989 47.3412 167.545 47.3412Z" fill="#BBB7B7"/>
</svg>
