<?xml version="1.0" encoding="utf-8"?>
<!-- Generator: Adobe Illustrator 16.0.0, SVG Export Plug-In . SVG Version: 6.00 Build 0)  -->
<!DOCTYPE svg PUBLIC "-//W3C//DTD SVG 1.1//EN" "http://www.w3.org/Graphics/SVG/1.1/DTD/svg11.dtd">
<svg version="1.1" xmlns="http://www.w3.org/2000/svg" xmlns:xlink="http://www.w3.org/1999/xlink" x="0px" y="0px" width="306px"
	 height="291.5px" viewBox="0 0 306 291.5" enable-background="new 0 0 306 291.5" xml:space="preserve">
<g id="Layer_1">
	<g id="Layer_1_1_" display="none">
		
			<image display="inline" overflow="visible" opacity="0.6" enable-background="new    " width="800" height="600" xlink:href="../../../Noproductes available/22-03-23/apr/No Products.jpg"  transform="matrix(1 0 0 1 -243.9998 -106)">
		</image>
	</g>
	<g id="Layer_4" opacity="0.5">
		<path fill="#F6F6F6" d="M284.841,273.786c0,6.932-5.373,12.551-12,12.551H32.174c-6.627,0-12-5.619-12-12.551V143.39
			c0-6.932,5.373-12.552,12-12.552h240.667c6.627,0,12,5.62,12,12.552V273.786z"/>
		<path fill="#F6F6F6" d="M49.534,57.893c0,1.352-0.65,2.446-1.452,2.446H18.984c-0.801,0-1.45-1.095-1.45-2.446V32.481
			c0-1.352,0.649-2.446,1.45-2.446h29.099c0.802,0,1.452,1.095,1.452,2.446V57.893z"/>
		<path fill="#F6F6F6" d="M80.201,26.525c0,0.818-0.406,1.48-0.907,1.48H61.107c-0.501,0-0.906-0.663-0.906-1.48V11.144
			c0-0.818,0.405-1.48,0.906-1.48h18.187c0.501,0,0.907,0.663,0.907,1.48L80.201,26.525L80.201,26.525z"/>
		<path fill="#F6F6F6" d="M162.842,169.84c0,2.969-2.01,5.375-4.488,5.375h-90c-2.478,0-4.486-2.406-4.486-5.375v-55.837
			c0-2.969,2.01-5.375,4.486-5.375h89.999c2.479,0,4.488,2.406,4.488,5.375L162.842,169.84L162.842,169.84z"/>
		<path fill="#F6F6F6" d="M132.508,138.507c0,2.969-2.01,5.375-4.488,5.375H38.021c-2.478,0-4.486-2.406-4.486-5.375V82.669
			c0-2.969,2.01-5.375,4.486-5.375h89.999c2.479,0,4.488,2.406,4.488,5.375V138.507L132.508,138.507z"/>
	</g>
</g>
<g id="Layer_2_1_" display="none">
	<g id="Layer_2" display="inline">
		<polygon fill="none" stroke="#8D8C93" stroke-miterlimit="10" points="76.613,195.263 117.613,195.263 140.613,218.208 
			230.113,218.208 230.113,281.708 140.613,281.708 99.113,281.708 99.113,218.708 		"/>
		<line fill="none" stroke="#8D8C93" stroke-miterlimit="10" x1="99.113" y1="218.708" x2="123.113" y2="218.708"/>
		<line fill="none" stroke="#8D8C93" stroke-miterlimit="10" x1="140.613" y1="218.208" x2="140.613" y2="281.708"/>
		<polyline fill="none" stroke="#8D8C93" stroke-miterlimit="10" points="181.363,218.208 200.613,195.263 251.363,195.263 
			230.113,218.208 		"/>
		<polygon fill="none" stroke="#8D8C93" stroke-miterlimit="10" points="79.863,150.958 94.113,153.458 104.113,142.958 
			105.738,157.333 118.113,163.208 105.238,169.458 104.488,182.458 94.113,172.458 79.863,175.208 88.238,162.708 		"/>
		<polygon fill="none" stroke="#8D8C93" stroke-miterlimit="10" points="216.525,123.277 226.185,128.936 236.271,124.018 
			233.572,134.882 240.96,142.481 229.937,143.541 225.886,152.767 221.059,142.715 209.983,140.865 219.429,134.059 		"/>
		<polygon fill="none" stroke="#8D8C93" stroke-miterlimit="10" points="10.374,227.926 17.08,231.854 24.08,228.438 
			22.206,235.979 27.335,241.255 19.683,241.991 16.872,248.396 13.523,241.418 5.833,240.133 12.391,235.409 		"/>
		<path fill="none" stroke="#8D8C93" stroke-miterlimit="10" d="M127.363,149.208c0,0,21.625,12.75,26.875,29.375"/>
		<path fill="none" stroke="#8D8C93" stroke-miterlimit="10" d="M122.613,157.208c0,0,12.875,4,16.75,14.125"/>
		<path fill="none" stroke="#8D8C93" stroke-miterlimit="10" d="M174.238,175.333c0,0,0.25-21.5,17.75-34.5"/>
		<path fill="none" stroke="#8D8C93" stroke-miterlimit="10" d="M181.363,169.208c0.25-0.375,4.375-16.875,18.375-21"/>
		<line fill="none" stroke="#8D8C93" stroke-miterlimit="10" x1="41.28" y1="234.208" x2="78.613" y2="234.208"/>
		<line fill="none" stroke="#8D8C93" stroke-miterlimit="10" x1="41.28" y1="241.375" x2="61.946" y2="241.375"/>
		<line fill="none" stroke="#8D8C93" stroke-miterlimit="10" x1="27.446" y1="280.374" x2="44.613" y2="280.374"/>
		<line fill="none" stroke="#8D8C93" stroke-miterlimit="10" x1="51.613" y1="280.374" x2="88.946" y2="280.374"/>
		<line fill="none" stroke="#8D8C93" stroke-miterlimit="10" x1="238.96" y1="280.374" x2="278.613" y2="280.374"/>
		<line fill="none" stroke="#FE9C64" stroke-miterlimit="10" x1="139.363" y1="185.083" x2="155.238" y2="200.958"/>
		<line fill="none" stroke="#FC9180" stroke-miterlimit="10" x1="166.238" y1="179.833" x2="166.238" y2="198.583"/>
		<line fill="none" stroke="#F8739C" stroke-miterlimit="10" x1="174.988" y1="200.958" x2="190.206" y2="185.739"/>
		<path fill="none" stroke="#8D8C93" stroke-miterlimit="10" d="M172.947,260.208c0,0,12.666-12.834,21.833,2.333"/>
		<path fill="#8D8C93" d="M168.447,238.485c0-3.223,2.61-5.834,5.833-5.834l0,0c3.222,0,5.833,2.611,5.833,5.834l0,0
			c0,3.222-2.611,5.832-5.833,5.832l0,0C171.057,244.317,168.447,241.707,168.447,238.485L168.447,238.485z"/>
		<path fill="#8D8C93" d="M190.613,240.041c0-3.222,2.61-5.833,5.833-5.833l0,0c3.222,0,5.833,2.611,5.833,5.833l0,0
			c0,3.222-2.611,5.833-5.833,5.833l0,0C193.223,245.874,190.613,243.263,190.613,240.041L190.613,240.041z"/>
	</g>
	<g id="Layer_3" display="inline">
		<g enable-background="new    ">
			<path fill="#B6B4C1" d="M63.868,341.5v-11.453h2.25l4.688,7.648v-7.648h2.148V341.5h-2.32l-4.617-7.469v7.469H63.868z"/>
			<path fill="#B6B4C1" d="M74.93,335.844c0-1.167,0.174-2.146,0.523-2.938c0.26-0.583,0.616-1.106,1.066-1.57
				c0.45-0.464,0.944-0.808,1.48-1.031c0.713-0.302,1.536-0.453,2.469-0.453c1.688,0,3.038,0.523,4.051,1.57
				c1.013,1.047,1.52,2.503,1.52,4.367c0,1.849-0.503,3.296-1.508,4.34c-1.005,1.044-2.349,1.566-4.031,1.566
				c-1.703,0-3.058-0.52-4.063-1.559C75.433,339.098,74.93,337.667,74.93,335.844z M77.313,335.766c0,1.297,0.299,2.28,0.898,2.949
				c0.599,0.669,1.359,1.004,2.281,1.004s1.678-0.332,2.27-0.996c0.591-0.664,0.887-1.66,0.887-2.988
				c0-1.313-0.288-2.292-0.863-2.938c-0.576-0.646-1.34-0.969-2.293-0.969s-1.722,0.327-2.305,0.98
				C77.605,333.462,77.313,334.448,77.313,335.766z"/>
			<path fill="#B6B4C1" d="M92.29,341.5v-11.453h3.711c1.406,0,2.323,0.058,2.75,0.172c0.656,0.172,1.206,0.546,1.648,1.121
				c0.442,0.575,0.664,1.319,0.664,2.23c0,0.703-0.128,1.294-0.383,1.773c-0.255,0.479-0.58,0.855-0.973,1.129
				c-0.394,0.273-0.793,0.454-1.199,0.543c-0.552,0.109-1.352,0.164-2.398,0.164h-1.508v4.32H92.29z M94.602,331.984v3.25h1.266
				c0.911,0,1.521-0.06,1.828-0.18c0.307-0.12,0.548-0.308,0.723-0.563c0.174-0.255,0.262-0.552,0.262-0.891
				c0-0.417-0.123-0.761-0.367-1.031c-0.245-0.271-0.555-0.44-0.93-0.508c-0.276-0.052-0.831-0.078-1.664-0.078H94.602z"/>
			<path fill="#B6B4C1" d="M102.969,341.5v-11.453h4.867c1.224,0,2.113,0.103,2.668,0.309s0.999,0.571,1.332,1.098
				c0.333,0.526,0.5,1.128,0.5,1.805c0,0.859-0.253,1.569-0.758,2.129c-0.505,0.56-1.261,0.913-2.266,1.059
				c0.5,0.292,0.913,0.612,1.238,0.961c0.325,0.349,0.764,0.969,1.316,1.859l1.398,2.234h-2.766l-1.672-2.492
				c-0.594-0.891-1-1.452-1.219-1.684s-0.451-0.391-0.695-0.477c-0.245-0.086-0.633-0.129-1.164-0.129h-0.469v4.781H102.969z
				 M105.282,334.891h1.711c1.109,0,1.802-0.047,2.078-0.141c0.276-0.094,0.492-0.255,0.648-0.484s0.234-0.516,0.234-0.859
				c0-0.386-0.103-0.696-0.309-0.934c-0.206-0.237-0.496-0.387-0.871-0.449c-0.188-0.026-0.75-0.039-1.688-0.039h-1.805V334.891z"/>
			<path fill="#B6B4C1" d="M114.048,335.844c0-1.167,0.174-2.146,0.523-2.938c0.26-0.583,0.616-1.106,1.066-1.57
				c0.45-0.464,0.944-0.808,1.48-1.031c0.713-0.302,1.536-0.453,2.469-0.453c1.688,0,3.038,0.523,4.051,1.57
				c1.013,1.047,1.52,2.503,1.52,4.367c0,1.849-0.503,3.296-1.508,4.34c-1.005,1.044-2.349,1.566-4.031,1.566
				c-1.703,0-3.058-0.52-4.063-1.559C114.55,339.098,114.048,337.667,114.048,335.844z M116.43,335.766
				c0,1.297,0.299,2.28,0.898,2.949c0.599,0.669,1.359,1.004,2.281,1.004s1.678-0.332,2.27-0.996
				c0.591-0.664,0.887-1.66,0.887-2.988c0-1.313-0.288-2.292-0.863-2.938c-0.576-0.646-1.34-0.969-2.293-0.969
				s-1.722,0.327-2.305,0.98C116.722,333.462,116.43,334.448,116.43,335.766z"/>
			<path fill="#B6B4C1" d="M126.954,330.047h4.227c0.953,0,1.68,0.073,2.18,0.219c0.672,0.198,1.247,0.55,1.727,1.055
				c0.479,0.505,0.844,1.124,1.094,1.855s0.375,1.634,0.375,2.707c0,0.942-0.117,1.755-0.352,2.438
				c-0.287,0.833-0.695,1.508-1.227,2.023c-0.401,0.391-0.943,0.695-1.625,0.914c-0.511,0.161-1.193,0.242-2.047,0.242h-4.352
				V330.047z M129.266,331.984v7.586h1.727c0.646,0,1.112-0.036,1.398-0.109c0.375-0.094,0.686-0.253,0.934-0.477
				c0.247-0.224,0.449-0.593,0.605-1.105s0.234-1.212,0.234-2.098s-0.078-1.565-0.234-2.039s-0.375-0.844-0.656-1.109
				s-0.638-0.445-1.07-0.539c-0.323-0.073-0.956-0.109-1.898-0.109H129.266z"/>
			<path fill="#B6B4C1" d="M138.501,330.047h2.313v6.203c0,0.984,0.028,1.622,0.086,1.914c0.099,0.469,0.334,0.845,0.707,1.129
				c0.372,0.284,0.881,0.426,1.527,0.426c0.656,0,1.151-0.134,1.484-0.402c0.333-0.269,0.534-0.598,0.602-0.988
				c0.067-0.391,0.102-1.039,0.102-1.945v-6.336h2.313v6.016c0,1.375-0.063,2.347-0.188,2.914s-0.355,1.047-0.691,1.438
				s-0.785,0.702-1.348,0.934s-1.297,0.348-2.203,0.348c-1.094,0-1.923-0.126-2.488-0.379c-0.565-0.253-1.012-0.581-1.34-0.984
				s-0.544-0.827-0.648-1.27c-0.151-0.656-0.227-1.625-0.227-2.906V330.047z"/>
			<path fill="#B6B4C1" d="M157.399,337.289l2.242,0.711c-0.344,1.25-0.915,2.179-1.715,2.785c-0.799,0.606-1.813,0.91-3.043,0.91
				c-1.521,0-2.771-0.52-3.75-1.559c-0.979-1.039-1.469-2.46-1.469-4.262c0-1.906,0.492-3.387,1.477-4.441s2.278-1.582,3.882-1.582
				c1.401,0,2.539,0.414,3.414,1.242c0.521,0.489,0.912,1.192,1.172,2.109l-2.289,0.547c-0.135-0.594-0.418-1.063-0.848-1.406
				s-0.951-0.516-1.566-0.516c-0.849,0-1.538,0.305-2.066,0.914c-0.529,0.609-0.793,1.597-0.793,2.961
				c0,1.448,0.26,2.479,0.781,3.094c0.521,0.614,1.198,0.922,2.031,0.922c0.615,0,1.144-0.195,1.586-0.586
				C156.889,338.742,157.206,338.128,157.399,337.289z"/>
			<path fill="#B6B4C1" d="M164.203,341.5v-9.516h-3.398v-1.938h9.102v1.938h-3.391v9.516H164.203z"/>
			<path fill="#B6B4C1" d="M170.813,337.773l2.25-0.219c0.136,0.755,0.41,1.31,0.824,1.664s0.973,0.531,1.676,0.531
				c0.745,0,1.307-0.157,1.684-0.473c0.378-0.315,0.566-0.684,0.566-1.105c0-0.271-0.079-0.501-0.238-0.691
				c-0.158-0.19-0.436-0.355-0.832-0.496c-0.271-0.094-0.888-0.261-1.852-0.5c-1.239-0.308-2.109-0.685-2.609-1.133
				c-0.703-0.63-1.055-1.398-1.055-2.305c0-0.583,0.166-1.129,0.496-1.637c0.331-0.508,0.808-0.895,1.43-1.16
				c0.623-0.266,1.374-0.398,2.254-0.398c1.438,0,2.52,0.315,3.246,0.945s1.108,1.472,1.145,2.523l-2.313,0.102
				c-0.099-0.589-0.311-1.012-0.637-1.27c-0.325-0.258-0.813-0.387-1.465-0.387c-0.672,0-1.197,0.138-1.578,0.414
				c-0.244,0.177-0.367,0.414-0.367,0.711c0,0.271,0.115,0.503,0.344,0.695c0.292,0.245,1,0.5,2.125,0.766s1.957,0.54,2.496,0.824
				s0.961,0.672,1.266,1.164s0.457,1.101,0.457,1.824c0,0.656-0.182,1.271-0.547,1.844c-0.364,0.573-0.88,0.999-1.547,1.277
				c-0.666,0.278-1.497,0.418-2.492,0.418c-1.447,0-2.56-0.335-3.336-1.004C171.428,340.03,170.964,339.055,170.813,337.773z"/>
			<path fill="#B6B4C1" d="M186.531,341.5v-11.453h7.852v1.938h-5.539v2.711h4.781v1.938h-4.781v4.867H186.531z"/>
			<path fill="#B6B4C1" d="M195.821,335.844c0-1.167,0.175-2.146,0.523-2.938c0.261-0.583,0.616-1.106,1.066-1.57
				c0.451-0.464,0.944-0.808,1.48-1.031c0.714-0.302,1.537-0.453,2.469-0.453c1.688,0,3.038,0.523,4.051,1.57
				c1.014,1.047,1.52,2.503,1.52,4.367c0,1.849-0.502,3.296-1.508,4.34c-1.005,1.044-2.349,1.566-4.031,1.566
				c-1.703,0-3.057-0.52-4.063-1.559C196.323,339.098,195.821,337.667,195.821,335.844z M198.203,335.766
				c0,1.297,0.3,2.28,0.898,2.949c0.6,0.669,1.359,1.004,2.281,1.004s1.679-0.332,2.27-0.996c0.592-0.664,0.887-1.66,0.887-2.988
				c0-1.313-0.287-2.292-0.863-2.938c-0.575-0.646-1.34-0.969-2.293-0.969s-1.721,0.327-2.305,0.98
				C198.495,333.462,198.203,334.448,198.203,335.766z"/>
			<path fill="#B6B4C1" d="M208.719,330.047h2.313v6.203c0,0.984,0.029,1.622,0.086,1.914c0.1,0.469,0.335,0.845,0.707,1.129
				c0.373,0.284,0.882,0.426,1.527,0.426c0.656,0,1.151-0.134,1.484-0.402c0.334-0.269,0.534-0.598,0.602-0.988
				c0.068-0.391,0.102-1.039,0.102-1.945v-6.336h2.313v6.016c0,1.375-0.063,2.347-0.188,2.914s-0.355,1.047-0.691,1.438
				s-0.785,0.702-1.348,0.934s-1.297,0.348-2.203,0.348c-1.094,0-1.923-0.126-2.488-0.379c-0.564-0.253-1.012-0.581-1.34-0.984
				s-0.544-0.827-0.648-1.27c-0.15-0.656-0.227-1.625-0.227-2.906V330.047z"/>
			<path fill="#B6B4C1" d="M220.313,341.5v-11.453h2.25l4.688,7.648v-7.648h2.148V341.5h-2.32l-4.617-7.469v7.469H220.313z"/>
			<path fill="#B6B4C1" d="M231.836,330.047h4.227c0.953,0,1.68,0.073,2.18,0.219c0.672,0.198,1.248,0.55,1.727,1.055
				c0.479,0.505,0.844,1.124,1.094,1.855s0.375,1.634,0.375,2.707c0,0.942-0.117,1.755-0.352,2.438
				c-0.286,0.833-0.695,1.508-1.227,2.023c-0.4,0.391-0.942,0.695-1.625,0.914c-0.51,0.161-1.192,0.242-2.047,0.242h-4.352V330.047z
				 M234.149,331.984v7.586h1.727c0.646,0,1.112-0.036,1.398-0.109c0.375-0.094,0.687-0.253,0.934-0.477
				c0.248-0.224,0.449-0.593,0.605-1.105s0.234-1.212,0.234-2.098s-0.078-1.565-0.234-2.039s-0.375-0.844-0.656-1.109
				s-0.638-0.445-1.07-0.539c-0.322-0.073-0.955-0.109-1.898-0.109H234.149z"/>
		</g>
		<g enable-background="new    ">
			<path fill="#B6B4C1" d="M36.121,374.5v-10.021h1.36l5.264,7.868v-7.868h1.271V374.5h-1.36l-5.264-7.875v7.875H36.121z"/>
			<path fill="#B6B4C1" d="M45.63,370.87c0-1.345,0.374-2.34,1.121-2.987c0.625-0.538,1.385-0.807,2.283-0.807
				c0.998,0,1.814,0.327,2.447,0.98c0.633,0.654,0.95,1.558,0.95,2.711c0,0.935-0.14,1.669-0.42,2.205
				c-0.28,0.535-0.688,0.951-1.224,1.247s-1.12,0.444-1.753,0.444c-1.016,0-1.838-0.326-2.464-0.978S45.63,372.096,45.63,370.87z
				 M46.894,370.87c0,0.93,0.203,1.626,0.608,2.089c0.406,0.462,0.916,0.693,1.531,0.693c0.611,0,1.119-0.232,1.524-0.697
				s0.608-1.174,0.608-2.126c0-0.897-0.204-1.578-0.612-2.04c-0.408-0.463-0.915-0.694-1.521-0.694c-0.615,0-1.125,0.23-1.531,0.69
				S46.894,369.94,46.894,370.87z"/>
			<path fill="#B6B4C1" d="M57.763,377.282V367.24h1.121v0.943c0.264-0.369,0.563-0.646,0.896-0.83
				c0.333-0.186,0.736-0.277,1.21-0.277c0.62,0,1.167,0.159,1.641,0.479s0.832,0.77,1.073,1.35c0.242,0.582,0.362,1.219,0.362,1.911
				c0,0.743-0.133,1.411-0.4,2.007c-0.267,0.594-0.654,1.05-1.162,1.367c-0.508,0.316-1.042,0.475-1.603,0.475
				c-0.41,0-0.778-0.087-1.104-0.26s-0.594-0.392-0.803-0.656v3.534H57.763z M58.878,370.911c0,0.935,0.189,1.625,0.567,2.071
				s0.836,0.67,1.374,0.67c0.547,0,1.015-0.231,1.405-0.693c0.39-0.463,0.584-1.18,0.584-2.15c0-0.925-0.19-1.618-0.571-2.078
				s-0.835-0.69-1.364-0.69c-0.524,0-0.988,0.245-1.391,0.735C59.079,369.265,58.878,369.977,58.878,370.911z"/>
			<path fill="#B6B4C1" d="M65.536,374.5v-7.26h1.107v1.101c0.283-0.515,0.543-0.854,0.783-1.019s0.502-0.246,0.79-0.246
				c0.415,0,0.836,0.132,1.265,0.396l-0.424,1.142c-0.301-0.178-0.602-0.267-0.902-0.267c-0.269,0-0.51,0.081-0.725,0.242
				c-0.214,0.162-0.367,0.387-0.458,0.674c-0.137,0.438-0.205,0.916-0.205,1.436v3.801H65.536z"/>
			<path fill="#B6B4C1" d="M69.754,370.87c0-1.345,0.374-2.34,1.121-2.987c0.625-0.538,1.385-0.807,2.283-0.807
				c0.998,0,1.814,0.327,2.447,0.98c0.633,0.654,0.95,1.558,0.95,2.711c0,0.935-0.14,1.669-0.42,2.205
				c-0.28,0.535-0.688,0.951-1.224,1.247s-1.12,0.444-1.753,0.444c-1.016,0-1.838-0.326-2.464-0.978S69.754,372.096,69.754,370.87z
				 M71.018,370.87c0,0.93,0.203,1.626,0.608,2.089c0.406,0.462,0.916,0.693,1.531,0.693c0.611,0,1.119-0.232,1.524-0.697
				s0.608-1.174,0.608-2.126c0-0.897-0.204-1.578-0.612-2.04c-0.408-0.463-0.915-0.694-1.521-0.694c-0.615,0-1.125,0.23-1.531,0.69
				S71.018,369.94,71.018,370.87z"/>
			<path fill="#B6B4C1" d="M82.708,374.5v-0.916c-0.46,0.72-1.137,1.08-2.03,1.08c-0.579,0-1.111-0.159-1.596-0.479
				s-0.861-0.765-1.128-1.336c-0.267-0.572-0.4-1.229-0.4-1.973c0-0.725,0.121-1.382,0.362-1.973
				c0.242-0.59,0.604-1.042,1.087-1.356s1.023-0.472,1.62-0.472c0.438,0,0.827,0.092,1.169,0.277
				c0.342,0.184,0.62,0.425,0.834,0.721v-3.596h1.224V374.5H82.708z M78.818,370.877c0,0.93,0.196,1.625,0.588,2.085
				s0.854,0.69,1.388,0.69c0.538,0,0.995-0.22,1.371-0.66c0.376-0.439,0.564-1.11,0.564-2.013c0-0.993-0.191-1.723-0.574-2.188
				s-0.854-0.697-1.415-0.697c-0.547,0-1.004,0.224-1.371,0.67S78.818,369.915,78.818,370.877z"/>
			<path fill="#B6B4C1" d="M90.542,374.5v-1.066c-0.565,0.82-1.333,1.23-2.304,1.23c-0.428,0-0.828-0.082-1.2-0.246
				s-0.647-0.37-0.827-0.619c-0.18-0.248-0.307-0.552-0.379-0.912c-0.05-0.241-0.075-0.624-0.075-1.148v-4.498h1.23v4.026
				c0,0.643,0.025,1.075,0.075,1.299c0.078,0.323,0.242,0.577,0.492,0.763c0.25,0.184,0.561,0.276,0.93,0.276
				s0.715-0.095,1.039-0.284c0.324-0.188,0.553-0.446,0.687-0.771c0.134-0.326,0.202-0.799,0.202-1.419v-3.89h1.23v7.26H90.542z"/>
			<path fill="#B6B4C1" d="M98.307,371.841l1.21,0.157c-0.132,0.834-0.471,1.486-1.015,1.959c-0.544,0.471-1.213,0.707-2.006,0.707
				c-0.994,0-1.792-0.324-2.396-0.975c-0.604-0.648-0.906-1.58-0.906-2.792c0-0.784,0.13-1.47,0.39-2.058s0.655-1.029,1.186-1.322
				c0.531-0.295,1.108-0.441,1.733-0.441c0.789,0,1.433,0.199,1.935,0.598c0.501,0.399,0.823,0.966,0.964,1.699l-1.196,0.185
				c-0.114-0.487-0.315-0.854-0.605-1.101s-0.639-0.369-1.049-0.369c-0.62,0-1.124,0.223-1.511,0.666
				c-0.387,0.445-0.581,1.147-0.581,2.109c0,0.976,0.187,1.684,0.561,2.126s0.861,0.663,1.463,0.663c0.483,0,0.886-0.148,1.21-0.444
				S98.221,372.456,98.307,371.841z"/>
			<path fill="#B6B4C1" d="M103.257,373.399l0.178,1.087c-0.346,0.073-0.656,0.109-0.93,0.109c-0.447,0-0.793-0.07-1.039-0.212
				s-0.419-0.327-0.52-0.558c-0.1-0.229-0.15-0.714-0.15-1.452v-4.177h-0.902v-0.957h0.902v-1.798l1.224-0.738v2.536h1.237v0.957
				h-1.237v4.245c0,0.351,0.021,0.576,0.065,0.677s0.114,0.18,0.212,0.239s0.238,0.089,0.42,0.089
				C102.853,373.447,103.033,373.432,103.257,373.399z"/>
			<path fill="#B6B4C1" d="M103.968,372.333l1.217-0.191c0.068,0.487,0.259,0.861,0.571,1.121s0.749,0.39,1.309,0.39
				c0.565,0,0.984-0.115,1.258-0.346c0.273-0.229,0.41-0.5,0.41-0.81c0-0.278-0.121-0.497-0.362-0.656
				c-0.168-0.109-0.588-0.248-1.258-0.417c-0.902-0.228-1.528-0.425-1.876-0.592c-0.349-0.166-0.613-0.396-0.793-0.689
				c-0.18-0.295-0.27-0.619-0.27-0.975c0-0.323,0.074-0.623,0.222-0.898c0.148-0.276,0.35-0.505,0.605-0.688
				c0.191-0.142,0.452-0.261,0.783-0.359c0.331-0.098,0.685-0.146,1.063-0.146c0.57,0,1.07,0.082,1.5,0.246s0.749,0.387,0.954,0.666
				c0.205,0.281,0.346,0.655,0.424,1.125l-1.203,0.164c-0.055-0.374-0.213-0.665-0.475-0.875s-0.632-0.314-1.111-0.314
				c-0.565,0-0.968,0.094-1.21,0.28s-0.362,0.405-0.362,0.656c0,0.159,0.05,0.303,0.15,0.431c0.1,0.132,0.257,0.241,0.472,0.328
				c0.123,0.046,0.485,0.15,1.087,0.314c0.871,0.232,1.478,0.423,1.822,0.57c0.344,0.148,0.614,0.364,0.81,0.646
				s0.294,0.634,0.294,1.053c0,0.41-0.12,0.797-0.359,1.158c-0.239,0.363-0.584,0.643-1.036,0.842
				c-0.451,0.197-0.961,0.297-1.531,0.297c-0.943,0-1.662-0.196-2.157-0.588S104.104,373.104,103.968,372.333z"/>
			<path fill="#B6B4C1" d="M120.087,373.604c-0.456,0.388-0.895,0.661-1.316,0.82s-0.874,0.239-1.357,0.239
				c-0.797,0-1.411-0.195-1.839-0.584c-0.428-0.391-0.643-0.888-0.643-1.494c0-0.355,0.081-0.68,0.243-0.975
				c0.162-0.293,0.374-0.529,0.636-0.707s0.557-0.313,0.885-0.403c0.242-0.063,0.606-0.125,1.094-0.185
				c0.994-0.118,1.725-0.26,2.194-0.424c0.004-0.169,0.007-0.275,0.007-0.321c0-0.501-0.116-0.854-0.349-1.06
				c-0.314-0.278-0.782-0.417-1.401-0.417c-0.579,0-1.006,0.102-1.282,0.304c-0.276,0.203-0.479,0.563-0.612,1.077l-1.203-0.164
				c0.109-0.515,0.29-0.931,0.54-1.247c0.25-0.317,0.613-0.561,1.087-0.732c0.474-0.17,1.023-0.256,1.647-0.256
				c0.62,0,1.124,0.073,1.511,0.219s0.672,0.329,0.854,0.551c0.182,0.221,0.31,0.5,0.383,0.837c0.041,0.21,0.062,0.588,0.062,1.135
				v1.641c0,1.144,0.026,1.867,0.079,2.171c0.052,0.303,0.156,0.593,0.311,0.871h-1.285
				C120.205,374.245,120.123,373.946,120.087,373.604z M119.984,370.856c-0.447,0.183-1.117,0.337-2.01,0.465
				c-0.506,0.073-0.864,0.155-1.073,0.246s-0.372,0.225-0.485,0.399c-0.114,0.176-0.171,0.371-0.171,0.585
				c0,0.328,0.124,0.602,0.373,0.82s0.612,0.328,1.09,0.328c0.474,0,0.896-0.104,1.265-0.312c0.369-0.207,0.64-0.49,0.813-0.851
				c0.132-0.278,0.198-0.688,0.198-1.23V370.856z"/>
			<path fill="#B6B4C1" d="M125.152,374.5l-2.762-7.26h1.299l1.559,4.348c0.168,0.47,0.324,0.957,0.465,1.463
				c0.109-0.383,0.262-0.843,0.458-1.381l1.613-4.43h1.265l-2.748,7.26H125.152z"/>
			<path fill="#B6B4C1" d="M134.873,373.604c-0.456,0.388-0.895,0.661-1.316,0.82s-0.874,0.239-1.357,0.239
				c-0.797,0-1.411-0.195-1.839-0.584c-0.428-0.391-0.643-0.888-0.643-1.494c0-0.355,0.081-0.68,0.243-0.975
				c0.162-0.293,0.374-0.529,0.636-0.707s0.557-0.313,0.885-0.403c0.242-0.063,0.606-0.125,1.094-0.185
				c0.994-0.118,1.725-0.26,2.194-0.424c0.004-0.169,0.007-0.275,0.007-0.321c0-0.501-0.116-0.854-0.349-1.06
				c-0.314-0.278-0.782-0.417-1.401-0.417c-0.579,0-1.006,0.102-1.282,0.304c-0.276,0.203-0.479,0.563-0.612,1.077l-1.203-0.164
				c0.109-0.515,0.29-0.931,0.54-1.247c0.25-0.317,0.613-0.561,1.087-0.732c0.474-0.17,1.023-0.256,1.647-0.256
				c0.62,0,1.124,0.073,1.511,0.219s0.672,0.329,0.854,0.551c0.182,0.221,0.31,0.5,0.383,0.837c0.041,0.21,0.062,0.588,0.062,1.135
				v1.641c0,1.144,0.026,1.867,0.079,2.171c0.052,0.303,0.156,0.593,0.311,0.871h-1.285
				C134.991,374.245,134.909,373.946,134.873,373.604z M134.77,370.856c-0.447,0.183-1.117,0.337-2.01,0.465
				c-0.506,0.073-0.864,0.155-1.073,0.246s-0.372,0.225-0.485,0.399c-0.114,0.176-0.171,0.371-0.171,0.585
				c0,0.328,0.124,0.602,0.373,0.82s0.612,0.328,1.09,0.328c0.474,0,0.896-0.104,1.265-0.312c0.369-0.207,0.64-0.49,0.813-0.851
				c0.132-0.278,0.198-0.688,0.198-1.23V370.856z"/>
			<path fill="#B6B4C1" d="M137.928,365.894v-1.415h1.23v1.415H137.928z M137.928,374.5v-7.26h1.23v7.26H137.928z"/>
			<path fill="#B6B4C1" d="M141.005,374.5v-10.021h1.23V374.5H141.005z"/>
			<path fill="#B6B4C1" d="M148.88,373.604c-0.456,0.388-0.895,0.661-1.316,0.82s-0.874,0.239-1.357,0.239
				c-0.797,0-1.411-0.195-1.839-0.584c-0.428-0.391-0.643-0.888-0.643-1.494c0-0.355,0.081-0.68,0.243-0.975
				c0.162-0.293,0.374-0.529,0.636-0.707s0.557-0.313,0.885-0.403c0.242-0.063,0.606-0.125,1.094-0.185
				c0.994-0.118,1.725-0.26,2.194-0.424c0.004-0.169,0.007-0.275,0.007-0.321c0-0.501-0.116-0.854-0.349-1.06
				c-0.314-0.278-0.782-0.417-1.401-0.417c-0.579,0-1.006,0.102-1.282,0.304c-0.276,0.203-0.479,0.563-0.612,1.077l-1.203-0.164
				c0.109-0.515,0.29-0.931,0.54-1.247c0.25-0.317,0.613-0.561,1.087-0.732c0.474-0.17,1.023-0.256,1.647-0.256
				c0.62,0,1.124,0.073,1.511,0.219s0.672,0.329,0.854,0.551c0.182,0.221,0.31,0.5,0.383,0.837c0.041,0.21,0.062,0.588,0.062,1.135
				v1.641c0,1.144,0.026,1.867,0.079,2.171c0.052,0.303,0.156,0.593,0.311,0.871h-1.285
				C148.998,374.245,148.916,373.946,148.88,373.604z M148.777,370.856c-0.447,0.183-1.117,0.337-2.01,0.465
				c-0.506,0.073-0.864,0.155-1.073,0.246s-0.372,0.225-0.485,0.399c-0.114,0.176-0.171,0.371-0.171,0.585
				c0,0.328,0.124,0.602,0.373,0.82s0.612,0.328,1.09,0.328c0.474,0,0.896-0.104,1.265-0.312c0.369-0.207,0.64-0.49,0.813-0.851
				c0.132-0.278,0.198-0.688,0.198-1.23V370.856z"/>
			<path fill="#B6B4C1" d="M153.063,374.5h-1.142v-10.021h1.23v3.575c0.52-0.651,1.182-0.978,1.989-0.978
				c0.447,0,0.869,0.09,1.269,0.27c0.399,0.181,0.728,0.434,0.984,0.76c0.257,0.325,0.459,0.719,0.604,1.179
				c0.146,0.46,0.219,0.952,0.219,1.477c0,1.244-0.307,2.206-0.922,2.885s-1.354,1.019-2.215,1.019
				c-0.857,0-1.529-0.357-2.017-1.073V374.5z M153.05,370.815c0,0.87,0.119,1.499,0.355,1.887c0.387,0.634,0.912,0.95,1.572,0.95
				c0.538,0,1.003-0.233,1.395-0.701c0.393-0.467,0.588-1.163,0.588-2.088c0-0.948-0.188-1.647-0.563-2.099
				s-0.831-0.677-1.364-0.677c-0.537,0-1.002,0.233-1.395,0.701C153.245,369.256,153.05,369.932,153.05,370.815z"/>
			<path fill="#B6B4C1" d="M159.688,374.5v-10.021h1.23V374.5H159.688z"/>
			<path fill="#B6B4C1" d="M167.795,372.162l1.271,0.157c-0.201,0.743-0.572,1.319-1.115,1.729c-0.542,0.41-1.234,0.615-2.078,0.615
				c-1.062,0-1.903-0.327-2.525-0.98c-0.622-0.654-0.934-1.571-0.934-2.752c0-1.222,0.314-2.169,0.943-2.844
				s1.445-1.012,2.447-1.012c0.971,0,1.764,0.33,2.379,0.991s0.924,1.591,0.924,2.789c0,0.073-0.003,0.183-0.008,0.328h-5.414
				c0.046,0.798,0.271,1.408,0.678,1.832c0.405,0.424,0.911,0.636,1.518,0.636c0.451,0,0.836-0.118,1.154-0.355
				C167.355,373.06,167.608,372.682,167.795,372.162z M163.754,370.173h4.055c-0.055-0.61-0.21-1.068-0.465-1.374
				c-0.393-0.474-0.9-0.711-1.525-0.711c-0.564,0-1.039,0.189-1.425,0.567S163.795,369.539,163.754,370.173z"/>
			<path fill="#B6B4C1" d="M174.508,365.894v-1.415h1.23v1.415H174.508z M174.508,374.5v-7.26h1.23v7.26H174.508z"/>
			<path fill="#B6B4C1" d="M177.612,374.5v-7.26h1.107v1.032c0.533-0.798,1.303-1.196,2.311-1.196c0.438,0,0.84,0.078,1.206,0.236
				c0.366,0.156,0.642,0.363,0.823,0.618c0.183,0.255,0.311,0.559,0.383,0.909c0.046,0.228,0.068,0.627,0.068,1.196v4.464h-1.23
				v-4.416c0-0.501-0.047-0.876-0.143-1.125c-0.096-0.248-0.266-0.446-0.51-0.594c-0.244-0.148-0.529-0.223-0.857-0.223
				c-0.524,0-0.977,0.166-1.357,0.499s-0.57,0.964-0.57,1.894v3.965H177.612z"/>
			<path fill="#B6B4C1" d="M191.973,373.399l0.178,1.087c-0.346,0.073-0.656,0.109-0.93,0.109c-0.446,0-0.793-0.07-1.039-0.212
				s-0.419-0.327-0.52-0.558c-0.1-0.229-0.15-0.714-0.15-1.452v-4.177h-0.902v-0.957h0.902v-1.798l1.225-0.738v2.536h1.236v0.957
				h-1.236v4.245c0,0.351,0.021,0.576,0.064,0.677s0.113,0.18,0.212,0.239s0.238,0.089,0.421,0.089
				C191.571,373.447,191.75,373.432,191.973,373.399z"/>
			<path fill="#B6B4C1" d="M193.176,374.5v-10.021h1.23v3.596c0.574-0.665,1.299-0.998,2.174-0.998c0.538,0,1.006,0.105,1.402,0.318
				c0.396,0.211,0.68,0.504,0.851,0.878s0.257,0.916,0.257,1.627v4.601h-1.23v-4.601c0-0.615-0.134-1.063-0.4-1.343
				c-0.267-0.281-0.644-0.421-1.131-0.421c-0.365,0-0.708,0.095-1.029,0.284c-0.321,0.188-0.551,0.445-0.688,0.769
				s-0.205,0.771-0.205,1.34v3.972H193.176z"/>
			<path fill="#B6B4C1" d="M200.969,365.894v-1.415h1.23v1.415H200.969z M200.969,374.5v-7.26h1.23v7.26H200.969z"/>
			<path fill="#B6B4C1" d="M203.58,372.333l1.217-0.191c0.068,0.487,0.26,0.861,0.571,1.121s0.749,0.39,1.31,0.39
				c0.564,0,0.984-0.115,1.258-0.346c0.273-0.229,0.41-0.5,0.41-0.81c0-0.278-0.121-0.497-0.363-0.656
				c-0.168-0.109-0.588-0.248-1.258-0.417c-0.902-0.228-1.527-0.425-1.876-0.592c-0.349-0.166-0.612-0.396-0.793-0.689
				c-0.181-0.295-0.271-0.619-0.271-0.975c0-0.323,0.074-0.623,0.223-0.898c0.148-0.276,0.35-0.505,0.605-0.688
				c0.191-0.142,0.451-0.261,0.782-0.359c0.331-0.098,0.685-0.146,1.063-0.146c0.569,0,1.069,0.082,1.5,0.246
				s0.748,0.387,0.953,0.666c0.205,0.281,0.347,0.655,0.424,1.125l-1.203,0.164c-0.055-0.374-0.213-0.665-0.475-0.875
				s-0.633-0.314-1.111-0.314c-0.564,0-0.968,0.094-1.209,0.28c-0.242,0.187-0.363,0.405-0.363,0.656
				c0,0.159,0.051,0.303,0.15,0.431c0.101,0.132,0.258,0.241,0.473,0.328c0.123,0.046,0.484,0.15,1.086,0.314
				c0.871,0.232,1.479,0.423,1.822,0.57c0.344,0.148,0.614,0.364,0.811,0.646c0.195,0.282,0.293,0.634,0.293,1.053
				c0,0.41-0.119,0.797-0.358,1.158c-0.239,0.363-0.585,0.643-1.036,0.842c-0.451,0.197-0.961,0.297-1.531,0.297
				c-0.943,0-1.662-0.196-2.156-0.588S203.717,373.104,203.58,372.333z"/>
			<path fill="#B6B4C1" d="M219.699,371.841l1.211,0.157c-0.133,0.834-0.471,1.486-1.016,1.959
				c-0.545,0.471-1.213,0.707-2.006,0.707c-0.994,0-1.793-0.324-2.396-0.975c-0.604-0.648-0.906-1.58-0.906-2.792
				c0-0.784,0.131-1.47,0.391-2.058s0.654-1.029,1.186-1.322c0.531-0.295,1.108-0.441,1.732-0.441c0.789,0,1.434,0.199,1.936,0.598
				c0.501,0.399,0.822,0.966,0.963,1.699l-1.195,0.185c-0.114-0.487-0.316-0.854-0.605-1.101s-0.639-0.369-1.049-0.369
				c-0.62,0-1.124,0.223-1.512,0.666c-0.387,0.445-0.58,1.147-0.58,2.109c0,0.976,0.187,1.684,0.561,2.126
				c0.373,0.442,0.861,0.663,1.463,0.663c0.482,0,0.886-0.148,1.209-0.444C219.408,372.912,219.614,372.456,219.699,371.841z"/>
			<path fill="#B6B4C1" d="M226.699,373.604c-0.455,0.388-0.895,0.661-1.315,0.82s-0.874,0.239-1.356,0.239
				c-0.798,0-1.411-0.195-1.84-0.584c-0.428-0.391-0.643-0.888-0.643-1.494c0-0.355,0.082-0.68,0.243-0.975
				c0.161-0.293,0.374-0.529,0.636-0.707s0.557-0.313,0.885-0.403c0.242-0.063,0.606-0.125,1.094-0.185
				c0.994-0.118,1.726-0.26,2.195-0.424c0.004-0.169,0.006-0.275,0.006-0.321c0-0.501-0.115-0.854-0.348-1.06
				c-0.314-0.278-0.782-0.417-1.402-0.417c-0.578,0-1.006,0.102-1.281,0.304c-0.275,0.203-0.479,0.563-0.611,1.077l-1.203-0.164
				c0.109-0.515,0.289-0.931,0.539-1.247c0.251-0.317,0.613-0.561,1.088-0.732c0.474-0.17,1.022-0.256,1.646-0.256
				c0.62,0,1.124,0.073,1.512,0.219c0.387,0.146,0.672,0.329,0.854,0.551c0.183,0.221,0.311,0.5,0.383,0.837
				c0.041,0.21,0.063,0.588,0.063,1.135v1.641c0,1.144,0.025,1.867,0.078,2.171c0.053,0.303,0.156,0.593,0.311,0.871h-1.285
				C226.819,374.245,226.737,373.946,226.699,373.604z M226.598,370.856c-0.447,0.183-1.117,0.337-2.01,0.465
				c-0.506,0.073-0.864,0.155-1.074,0.246c-0.209,0.091-0.371,0.225-0.484,0.399c-0.114,0.176-0.172,0.371-0.172,0.585
				c0,0.328,0.125,0.602,0.373,0.82s0.611,0.328,1.09,0.328c0.475,0,0.896-0.104,1.266-0.312c0.369-0.207,0.64-0.49,0.813-0.851
				c0.133-0.278,0.199-0.688,0.199-1.23V370.856z"/>
			<path fill="#B6B4C1" d="M232.436,373.399l0.178,1.087c-0.347,0.073-0.656,0.109-0.93,0.109c-0.447,0-0.793-0.07-1.039-0.212
				s-0.42-0.327-0.52-0.558c-0.101-0.229-0.15-0.714-0.15-1.452v-4.177h-0.902v-0.957h0.902v-1.798l1.223-0.738v2.536h1.238v0.957
				h-1.238v4.245c0,0.351,0.021,0.576,0.065,0.677s0.114,0.18,0.212,0.239s0.238,0.089,0.42,0.089
				C232.031,373.447,232.212,373.432,232.436,373.399z"/>
			<path fill="#B6B4C1" d="M238.608,372.162l1.271,0.157c-0.2,0.743-0.571,1.319-1.113,1.729c-0.543,0.41-1.235,0.615-2.078,0.615
				c-1.063,0-1.904-0.327-2.526-0.98c-0.622-0.654-0.933-1.571-0.933-2.752c0-1.222,0.314-2.169,0.943-2.844
				s1.444-1.012,2.447-1.012c0.971,0,1.764,0.33,2.379,0.991s0.922,1.591,0.922,2.789c0,0.073-0.002,0.183-0.006,0.328H234.5
				c0.045,0.798,0.271,1.408,0.676,1.832c0.406,0.424,0.912,0.636,1.518,0.636c0.451,0,0.837-0.118,1.156-0.355
				C238.168,373.06,238.421,372.682,238.608,372.162z M234.569,370.173h4.053c-0.055-0.61-0.209-1.068-0.465-1.374
				c-0.392-0.474-0.899-0.711-1.523-0.711c-0.565,0-1.041,0.189-1.426,0.567S234.61,369.539,234.569,370.173z"/>
			<path fill="#B6B4C1" d="M241.199,375.102l1.195,0.178c0.051,0.369,0.189,0.638,0.418,0.807c0.305,0.228,0.722,0.342,1.25,0.342
				c0.57,0,1.01-0.114,1.32-0.342c0.31-0.228,0.52-0.547,0.629-0.957c0.063-0.251,0.093-0.777,0.088-1.579
				c-0.537,0.634-1.207,0.95-2.01,0.95c-0.998,0-1.77-0.36-2.316-1.08s-0.82-1.584-0.82-2.591c0-0.692,0.125-1.332,0.375-1.917
				c0.251-0.586,0.615-1.038,1.091-1.357s1.036-0.479,1.679-0.479c0.856,0,1.563,0.347,2.119,1.039v-0.875h1.135v6.275
				c0,1.13-0.115,1.932-0.346,2.402c-0.23,0.473-0.595,0.845-1.094,1.118s-1.113,0.41-1.842,0.41c-0.866,0-1.566-0.194-2.1-0.585
				C241.438,376.473,241.181,375.886,241.199,375.102z M242.217,370.74c0,0.952,0.189,1.647,0.568,2.085
				c0.378,0.438,0.852,0.656,1.422,0.656c0.564,0,1.039-0.218,1.422-0.653c0.383-0.435,0.574-1.117,0.574-2.047
				c0-0.889-0.197-1.559-0.592-2.01s-0.869-0.677-1.426-0.677c-0.547,0-1.012,0.222-1.395,0.667
				C242.408,369.205,242.217,369.865,242.217,370.74z"/>
			<path fill="#B6B4C1" d="M248.752,370.87c0-1.345,0.374-2.34,1.121-2.987c0.625-0.538,1.386-0.807,2.283-0.807
				c0.998,0,1.814,0.327,2.447,0.98c0.634,0.654,0.951,1.558,0.951,2.711c0,0.935-0.141,1.669-0.421,2.205
				c-0.28,0.535-0.688,0.951-1.224,1.247s-1.12,0.444-1.754,0.444c-1.016,0-1.838-0.326-2.464-0.978S248.752,372.096,248.752,370.87
				z M250.018,370.87c0,0.93,0.202,1.626,0.607,2.089c0.406,0.462,0.916,0.693,1.531,0.693c0.611,0,1.119-0.232,1.525-0.697
				c0.405-0.465,0.607-1.174,0.607-2.126c0-0.897-0.203-1.578-0.611-2.04c-0.408-0.463-0.915-0.694-1.521-0.694
				c-0.615,0-1.125,0.23-1.531,0.69C250.22,369.245,250.018,369.94,250.018,370.87z"/>
			<path fill="#B6B4C1" d="M256.983,374.5v-7.26h1.107v1.101c0.283-0.515,0.544-0.854,0.783-1.019s0.502-0.246,0.789-0.246
				c0.415,0,0.837,0.132,1.266,0.396l-0.424,1.142c-0.301-0.178-0.602-0.267-0.902-0.267c-0.27,0-0.511,0.081-0.725,0.242
				c-0.215,0.162-0.367,0.387-0.459,0.674c-0.137,0.438-0.205,0.916-0.205,1.436v3.801H256.983z"/>
			<path fill="#B6B4C1" d="M261.604,377.296l-0.137-1.155c0.27,0.073,0.504,0.109,0.705,0.109c0.273,0,0.492-0.046,0.656-0.137
				s0.298-0.219,0.402-0.383c0.078-0.123,0.203-0.429,0.377-0.916c0.022-0.068,0.059-0.169,0.109-0.301l-2.756-7.273h1.326
				l1.512,4.204c0.195,0.533,0.371,1.094,0.525,1.682c0.142-0.565,0.311-1.116,0.506-1.654l1.553-4.231h1.23l-2.762,7.383
				c-0.297,0.798-0.527,1.347-0.691,1.647c-0.219,0.405-0.469,0.703-0.752,0.892c-0.282,0.189-0.619,0.284-1.012,0.284
				C262.16,377.446,261.896,377.396,261.604,377.296z"/>
		</g>
		<g enable-background="new    ">
			<path fill="#B6B4C1" d="M20.802,395.282V385.24h1.121v0.943c0.264-0.369,0.563-0.646,0.896-0.83
				c0.333-0.186,0.736-0.277,1.21-0.277c0.62,0,1.167,0.159,1.641,0.479s0.832,0.77,1.073,1.35c0.242,0.582,0.362,1.219,0.362,1.911
				c0,0.743-0.133,1.411-0.4,2.007c-0.267,0.594-0.654,1.05-1.162,1.367c-0.508,0.316-1.042,0.475-1.603,0.475
				c-0.41,0-0.778-0.087-1.104-0.26s-0.594-0.392-0.803-0.656v3.534H20.802z M21.916,388.911c0,0.935,0.189,1.625,0.567,2.071
				s0.836,0.67,1.374,0.67c0.547,0,1.015-0.231,1.405-0.693c0.39-0.463,0.584-1.18,0.584-2.15c0-0.925-0.19-1.618-0.571-2.078
				s-0.835-0.69-1.364-0.69c-0.524,0-0.988,0.245-1.391,0.735C22.117,387.265,21.916,387.977,21.916,388.911z"/>
			<path fill="#B6B4C1" d="M28.56,392.5v-10.021h1.23V392.5H28.56z"/>
			<path fill="#B6B4C1" d="M36.668,390.162l1.271,0.157c-0.201,0.743-0.572,1.319-1.114,1.729s-1.235,0.615-2.078,0.615
				c-1.062,0-1.904-0.327-2.526-0.98c-0.622-0.654-0.933-1.571-0.933-2.752c0-1.222,0.314-2.169,0.943-2.844
				s1.445-1.012,2.447-1.012c0.971,0,1.764,0.33,2.379,0.991s0.923,1.591,0.923,2.789c0,0.073-0.002,0.183-0.007,0.328h-5.414
				c0.045,0.798,0.271,1.408,0.677,1.832s0.912,0.636,1.518,0.636c0.451,0,0.836-0.118,1.155-0.355S36.481,390.682,36.668,390.162z
				 M32.628,388.173h4.054c-0.055-0.61-0.209-1.068-0.465-1.374c-0.392-0.474-0.9-0.711-1.524-0.711
				c-0.565,0-1.04,0.189-1.425,0.567S32.669,387.539,32.628,388.173z"/>
			<path fill="#B6B4C1" d="M44.221,391.604c-0.456,0.388-0.895,0.661-1.316,0.82s-0.874,0.239-1.357,0.239
				c-0.797,0-1.411-0.195-1.839-0.584c-0.428-0.391-0.643-0.888-0.643-1.494c0-0.355,0.081-0.68,0.243-0.975
				c0.162-0.293,0.374-0.529,0.636-0.707s0.557-0.313,0.885-0.403c0.242-0.063,0.606-0.125,1.094-0.185
				c0.994-0.118,1.725-0.26,2.194-0.424c0.004-0.169,0.007-0.275,0.007-0.321c0-0.501-0.116-0.854-0.349-1.06
				c-0.314-0.278-0.782-0.417-1.401-0.417c-0.579,0-1.006,0.102-1.282,0.304c-0.276,0.203-0.479,0.563-0.612,1.077l-1.203-0.164
				c0.109-0.515,0.29-0.931,0.54-1.247c0.25-0.317,0.613-0.561,1.087-0.732c0.474-0.17,1.023-0.256,1.647-0.256
				c0.62,0,1.124,0.073,1.511,0.219s0.672,0.329,0.854,0.551c0.182,0.221,0.31,0.5,0.383,0.837c0.041,0.21,0.062,0.588,0.062,1.135
				v1.641c0,1.144,0.026,1.867,0.079,2.171c0.052,0.303,0.156,0.593,0.311,0.871h-1.285
				C44.34,392.245,44.258,391.946,44.221,391.604z M44.119,388.856c-0.447,0.183-1.117,0.337-2.01,0.465
				c-0.506,0.073-0.864,0.155-1.073,0.246s-0.372,0.225-0.485,0.399c-0.114,0.176-0.171,0.371-0.171,0.585
				c0,0.328,0.124,0.602,0.373,0.82s0.612,0.328,1.09,0.328c0.474,0,0.896-0.104,1.265-0.312c0.369-0.207,0.64-0.49,0.813-0.851
				c0.132-0.278,0.198-0.688,0.198-1.23V388.856z"/>
			<path fill="#B6B4C1" d="M46.778,390.333l1.217-0.191c0.068,0.487,0.259,0.861,0.571,1.121s0.749,0.39,1.309,0.39
				c0.565,0,0.984-0.115,1.258-0.346c0.273-0.229,0.41-0.5,0.41-0.81c0-0.278-0.121-0.497-0.362-0.656
				c-0.168-0.109-0.588-0.248-1.258-0.417c-0.902-0.228-1.528-0.425-1.876-0.592c-0.349-0.166-0.613-0.396-0.793-0.689
				c-0.18-0.295-0.27-0.619-0.27-0.975c0-0.323,0.074-0.623,0.222-0.898c0.148-0.276,0.35-0.505,0.605-0.688
				c0.191-0.142,0.452-0.261,0.783-0.359c0.331-0.098,0.685-0.146,1.063-0.146c0.57,0,1.07,0.082,1.5,0.246s0.749,0.387,0.954,0.666
				c0.205,0.281,0.346,0.655,0.424,1.125l-1.203,0.164c-0.055-0.374-0.213-0.665-0.475-0.875s-0.632-0.314-1.111-0.314
				c-0.565,0-0.968,0.094-1.21,0.28s-0.362,0.405-0.362,0.656c0,0.159,0.05,0.303,0.15,0.431c0.1,0.132,0.257,0.241,0.472,0.328
				c0.123,0.046,0.485,0.15,1.087,0.314c0.871,0.232,1.478,0.423,1.822,0.57c0.344,0.148,0.614,0.364,0.81,0.646
				s0.294,0.634,0.294,1.053c0,0.41-0.12,0.797-0.359,1.158c-0.239,0.363-0.584,0.643-1.036,0.842
				c-0.451,0.197-0.961,0.297-1.531,0.297c-0.943,0-1.662-0.196-2.157-0.588S46.915,391.104,46.778,390.333z"/>
			<path fill="#B6B4C1" d="M59.24,390.162l1.271,0.157c-0.201,0.743-0.572,1.319-1.114,1.729s-1.235,0.615-2.078,0.615
				c-1.062,0-1.904-0.327-2.526-0.98c-0.622-0.654-0.933-1.571-0.933-2.752c0-1.222,0.314-2.169,0.943-2.844
				s1.445-1.012,2.447-1.012c0.971,0,1.764,0.33,2.379,0.991s0.923,1.591,0.923,2.789c0,0.073-0.002,0.183-0.007,0.328h-5.414
				c0.045,0.798,0.271,1.408,0.677,1.832s0.912,0.636,1.518,0.636c0.451,0,0.836-0.118,1.155-0.355S59.053,390.682,59.24,390.162z
				 M55.2,388.173h4.054c-0.055-0.61-0.209-1.068-0.465-1.374c-0.392-0.474-0.9-0.711-1.524-0.711c-0.565,0-1.04,0.189-1.425,0.567
				S55.241,387.539,55.2,388.173z"/>
			<path fill="#B6B4C1" d="M70.683,389.841l1.21,0.157c-0.132,0.834-0.471,1.486-1.015,1.959c-0.544,0.471-1.213,0.707-2.006,0.707
				c-0.994,0-1.792-0.324-2.396-0.975c-0.604-0.648-0.906-1.58-0.906-2.792c0-0.784,0.13-1.47,0.39-2.058s0.655-1.029,1.186-1.322
				c0.531-0.295,1.108-0.441,1.733-0.441c0.789,0,1.433,0.199,1.935,0.598c0.501,0.399,0.823,0.966,0.964,1.699l-1.196,0.185
				c-0.114-0.487-0.315-0.854-0.605-1.101s-0.639-0.369-1.049-0.369c-0.62,0-1.124,0.223-1.511,0.666
				c-0.387,0.445-0.581,1.147-0.581,2.109c0,0.976,0.187,1.684,0.561,2.126s0.861,0.663,1.463,0.663c0.483,0,0.886-0.148,1.21-0.444
				S70.597,390.456,70.683,389.841z"/>
			<path fill="#B6B4C1" d="M72.946,392.5v-10.021h1.23v3.596c0.574-0.665,1.299-0.998,2.174-0.998c0.538,0,1.005,0.105,1.401,0.318
				c0.396,0.211,0.68,0.504,0.851,0.878s0.256,0.916,0.256,1.627v4.601h-1.23v-4.601c0-0.615-0.133-1.063-0.4-1.343
				c-0.267-0.281-0.644-0.421-1.131-0.421c-0.365,0-0.708,0.095-1.029,0.284c-0.321,0.188-0.55,0.445-0.687,0.769
				s-0.205,0.771-0.205,1.34v3.972H72.946z"/>
			<path fill="#B6B4C1" d="M85.702,390.162l1.271,0.157c-0.201,0.743-0.572,1.319-1.114,1.729s-1.235,0.615-2.078,0.615
				c-1.062,0-1.904-0.327-2.526-0.98c-0.622-0.654-0.933-1.571-0.933-2.752c0-1.222,0.314-2.169,0.943-2.844
				s1.445-1.012,2.447-1.012c0.971,0,1.764,0.33,2.379,0.991s0.923,1.591,0.923,2.789c0,0.073-0.002,0.183-0.007,0.328h-5.414
				c0.045,0.798,0.271,1.408,0.677,1.832s0.912,0.636,1.518,0.636c0.451,0,0.836-0.118,1.155-0.355S85.515,390.682,85.702,390.162z
				 M81.662,388.173h4.054c-0.055-0.61-0.209-1.068-0.465-1.374c-0.392-0.474-0.9-0.711-1.524-0.711
				c-0.565,0-1.04,0.189-1.425,0.567S81.703,387.539,81.662,388.173z"/>
			<path fill="#B6B4C1" d="M93.256,389.841l1.21,0.157c-0.132,0.834-0.471,1.486-1.015,1.959c-0.544,0.471-1.213,0.707-2.006,0.707
				c-0.994,0-1.792-0.324-2.396-0.975c-0.604-0.648-0.906-1.58-0.906-2.792c0-0.784,0.13-1.47,0.39-2.058s0.655-1.029,1.186-1.322
				c0.531-0.295,1.108-0.441,1.733-0.441c0.789,0,1.433,0.199,1.935,0.598c0.501,0.399,0.823,0.966,0.964,1.699l-1.196,0.185
				c-0.114-0.487-0.315-0.854-0.605-1.101s-0.639-0.369-1.049-0.369c-0.62,0-1.124,0.223-1.511,0.666
				c-0.387,0.445-0.581,1.147-0.581,2.109c0,0.976,0.187,1.684,0.561,2.126s0.861,0.663,1.463,0.663c0.483,0,0.886-0.148,1.21-0.444
				S93.169,390.456,93.256,389.841z"/>
			<path fill="#B6B4C1" d="M95.525,392.5v-10.021h1.23v5.715l2.912-2.953h1.593l-2.775,2.693l3.056,4.566h-1.518l-2.399-3.712
				l-0.868,0.834v2.878H95.525z"/>
			<path fill="#B6B4C1" d="M106.415,383.894v-1.415h1.23v1.415H106.415z M106.415,392.5v-7.26h1.23v7.26H106.415z"/>
			<path fill="#B6B4C1" d="M109.518,392.5v-7.26h1.107v1.032c0.533-0.798,1.303-1.196,2.311-1.196c0.438,0,0.84,0.078,1.207,0.236
				c0.367,0.156,0.642,0.363,0.824,0.618s0.31,0.559,0.383,0.909c0.045,0.228,0.068,0.627,0.068,1.196v4.464h-1.23v-4.416
				c0-0.501-0.048-0.876-0.144-1.125c-0.096-0.248-0.266-0.446-0.509-0.594c-0.244-0.148-0.53-0.223-0.858-0.223
				c-0.524,0-0.977,0.166-1.357,0.499s-0.571,0.964-0.571,1.894v3.965H109.518z"/>
			<path fill="#B6B4C1" d="M120.736,388.87c0-1.345,0.374-2.34,1.121-2.987c0.625-0.538,1.385-0.807,2.283-0.807
				c0.998,0,1.814,0.327,2.447,0.98c0.633,0.654,0.95,1.558,0.95,2.711c0,0.935-0.14,1.669-0.42,2.205
				c-0.28,0.535-0.688,0.951-1.224,1.247s-1.12,0.444-1.753,0.444c-1.016,0-1.838-0.326-2.464-0.978S120.736,390.096,120.736,388.87
				z M122.001,388.87c0,0.93,0.203,1.626,0.608,2.089c0.406,0.462,0.916,0.693,1.531,0.693c0.611,0,1.119-0.232,1.524-0.697
				s0.608-1.174,0.608-2.126c0-0.897-0.204-1.578-0.612-2.04c-0.408-0.463-0.915-0.694-1.521-0.694c-0.615,0-1.125,0.23-1.531,0.69
				S122.001,387.94,122.001,388.87z"/>
			<path fill="#B6B4C1" d="M131.667,391.399l0.178,1.087c-0.346,0.073-0.656,0.109-0.93,0.109c-0.447,0-0.793-0.07-1.039-0.212
				s-0.419-0.327-0.52-0.558c-0.1-0.229-0.15-0.714-0.15-1.452v-4.177h-0.902v-0.957h0.902v-1.798l1.224-0.738v2.536h1.237v0.957
				h-1.237v4.245c0,0.351,0.021,0.576,0.065,0.677s0.114,0.18,0.212,0.239s0.238,0.089,0.42,0.089
				C131.263,391.447,131.444,391.432,131.667,391.399z"/>
			<path fill="#B6B4C1" d="M132.87,392.5v-10.021h1.23v3.596c0.574-0.665,1.299-0.998,2.174-0.998c0.538,0,1.005,0.105,1.401,0.318
				c0.396,0.211,0.68,0.504,0.851,0.878s0.256,0.916,0.256,1.627v4.601h-1.23v-4.601c0-0.615-0.133-1.063-0.4-1.343
				c-0.267-0.281-0.644-0.421-1.131-0.421c-0.365,0-0.708,0.095-1.029,0.284c-0.321,0.188-0.55,0.445-0.687,0.769
				s-0.205,0.771-0.205,1.34v3.972H132.87z"/>
			<path fill="#B6B4C1" d="M145.626,390.162l1.271,0.157c-0.201,0.743-0.572,1.319-1.114,1.729s-1.235,0.615-2.078,0.615
				c-1.062,0-1.904-0.327-2.526-0.98c-0.622-0.654-0.933-1.571-0.933-2.752c0-1.222,0.314-2.169,0.943-2.844
				s1.445-1.012,2.447-1.012c0.971,0,1.764,0.33,2.379,0.991s0.923,1.591,0.923,2.789c0,0.073-0.002,0.183-0.007,0.328h-5.414
				c0.045,0.798,0.271,1.408,0.677,1.832s0.912,0.636,1.518,0.636c0.451,0,0.836-0.118,1.155-0.355S145.439,390.682,145.626,390.162
				z M141.586,388.173h4.054c-0.055-0.61-0.209-1.068-0.465-1.374c-0.392-0.474-0.9-0.711-1.524-0.711
				c-0.565,0-1.04,0.189-1.425,0.567S141.627,387.539,141.586,388.173z"/>
			<path fill="#B6B4C1" d="M148.428,392.5v-7.26h1.107v1.101c0.283-0.515,0.543-0.854,0.783-1.019s0.502-0.246,0.79-0.246
				c0.415,0,0.836,0.132,1.265,0.396l-0.424,1.142c-0.301-0.178-0.602-0.267-0.902-0.267c-0.269,0-0.51,0.081-0.725,0.242
				c-0.214,0.162-0.367,0.387-0.458,0.674c-0.137,0.438-0.205,0.916-0.205,1.436v3.801H148.428z"/>
			<path fill="#B6B4C1" d="M161.731,389.841l1.211,0.157c-0.133,0.834-0.471,1.486-1.016,1.959
				c-0.545,0.471-1.213,0.707-2.006,0.707c-0.994,0-1.793-0.324-2.396-0.975c-0.604-0.648-0.906-1.58-0.906-2.792
				c0-0.784,0.131-1.47,0.391-2.058s0.654-1.029,1.186-1.322c0.531-0.295,1.108-0.441,1.732-0.441c0.789,0,1.434,0.199,1.936,0.598
				c0.501,0.399,0.822,0.966,0.963,1.699l-1.195,0.185c-0.114-0.487-0.316-0.854-0.605-1.101s-0.639-0.369-1.049-0.369
				c-0.62,0-1.124,0.223-1.512,0.666c-0.387,0.445-0.58,1.147-0.58,2.109c0,0.976,0.187,1.684,0.561,2.126
				c0.373,0.442,0.861,0.663,1.463,0.663c0.482,0,0.886-0.148,1.209-0.444C161.44,390.912,161.645,390.456,161.731,389.841z"/>
			<path fill="#B6B4C1" d="M168.731,391.604c-0.455,0.388-0.895,0.661-1.315,0.82s-0.874,0.239-1.356,0.239
				c-0.798,0-1.411-0.195-1.84-0.584c-0.428-0.391-0.643-0.888-0.643-1.494c0-0.355,0.082-0.68,0.243-0.975
				c0.161-0.293,0.374-0.529,0.636-0.707s0.557-0.313,0.885-0.403c0.242-0.063,0.606-0.125,1.094-0.185
				c0.994-0.118,1.726-0.26,2.195-0.424c0.004-0.169,0.006-0.275,0.006-0.321c0-0.501-0.115-0.854-0.348-1.06
				c-0.314-0.278-0.782-0.417-1.402-0.417c-0.578,0-1.006,0.102-1.281,0.304c-0.275,0.203-0.479,0.563-0.611,1.077l-1.203-0.164
				c0.109-0.515,0.289-0.931,0.539-1.247c0.251-0.317,0.613-0.561,1.088-0.732c0.474-0.17,1.022-0.256,1.646-0.256
				c0.62,0,1.124,0.073,1.512,0.219c0.387,0.146,0.672,0.329,0.854,0.551c0.183,0.221,0.311,0.5,0.383,0.837
				c0.041,0.21,0.063,0.588,0.063,1.135v1.641c0,1.144,0.025,1.867,0.078,2.171c0.053,0.303,0.156,0.593,0.311,0.871h-1.285
				C168.85,392.245,168.768,391.946,168.731,391.604z M168.629,388.856c-0.447,0.183-1.117,0.337-2.01,0.465
				c-0.506,0.073-0.864,0.155-1.074,0.246c-0.209,0.091-0.371,0.225-0.484,0.399c-0.114,0.176-0.172,0.371-0.172,0.585
				c0,0.328,0.125,0.602,0.373,0.82s0.611,0.328,1.09,0.328c0.475,0,0.896-0.104,1.266-0.312c0.369-0.207,0.64-0.49,0.813-0.851
				c0.133-0.278,0.199-0.688,0.199-1.23V388.856z"/>
			<path fill="#B6B4C1" d="M174.467,391.399l0.178,1.087c-0.347,0.073-0.656,0.109-0.93,0.109c-0.447,0-0.793-0.07-1.039-0.212
				s-0.42-0.327-0.52-0.558c-0.101-0.229-0.15-0.714-0.15-1.452v-4.177h-0.902v-0.957h0.902v-1.798l1.223-0.738v2.536h1.238v0.957
				h-1.238v4.245c0,0.351,0.021,0.576,0.065,0.677s0.114,0.18,0.212,0.239s0.238,0.089,0.42,0.089
				C174.063,391.447,174.243,391.432,174.467,391.399z"/>
			<path fill="#B6B4C1" d="M180.639,390.162l1.271,0.157c-0.2,0.743-0.571,1.319-1.113,1.729c-0.543,0.41-1.235,0.615-2.078,0.615
				c-1.063,0-1.904-0.327-2.526-0.98c-0.622-0.654-0.933-1.571-0.933-2.752c0-1.222,0.314-2.169,0.943-2.844
				s1.444-1.012,2.447-1.012c0.971,0,1.764,0.33,2.379,0.991s0.922,1.591,0.922,2.789c0,0.073-0.002,0.183-0.006,0.328h-5.414
				c0.045,0.798,0.271,1.408,0.676,1.832c0.406,0.424,0.912,0.636,1.518,0.636c0.451,0,0.837-0.118,1.156-0.355
				C180.199,391.06,180.452,390.682,180.639,390.162z M176.6,388.173h4.053c-0.055-0.61-0.209-1.068-0.465-1.374
				c-0.392-0.474-0.899-0.711-1.523-0.711c-0.565,0-1.041,0.189-1.426,0.567S176.641,387.539,176.6,388.173z"/>
			<path fill="#B6B4C1" d="M183.231,393.102l1.195,0.178c0.051,0.369,0.189,0.638,0.418,0.807c0.305,0.228,0.722,0.342,1.25,0.342
				c0.57,0,1.01-0.114,1.32-0.342c0.31-0.228,0.52-0.547,0.629-0.957c0.063-0.251,0.093-0.777,0.088-1.579
				c-0.537,0.634-1.207,0.95-2.01,0.95c-0.998,0-1.77-0.36-2.316-1.08s-0.82-1.584-0.82-2.591c0-0.692,0.125-1.332,0.375-1.917
				c0.251-0.586,0.615-1.038,1.091-1.357s1.036-0.479,1.679-0.479c0.856,0,1.563,0.347,2.119,1.039v-0.875h1.135v6.275
				c0,1.13-0.115,1.932-0.346,2.402c-0.23,0.473-0.595,0.845-1.094,1.118s-1.113,0.41-1.842,0.41c-0.866,0-1.566-0.194-2.1-0.585
				C183.469,394.473,183.212,393.886,183.231,393.102z M184.248,388.74c0,0.952,0.189,1.647,0.568,2.085
				c0.378,0.438,0.852,0.656,1.422,0.656c0.564,0,1.039-0.218,1.422-0.653c0.383-0.435,0.574-1.117,0.574-2.047
				c0-0.889-0.197-1.559-0.592-2.01s-0.869-0.677-1.426-0.677c-0.547,0-1.012,0.222-1.395,0.667
				C184.44,387.205,184.248,387.865,184.248,388.74z"/>
			<path fill="#B6B4C1" d="M190.783,388.87c0-1.345,0.374-2.34,1.121-2.987c0.625-0.538,1.386-0.807,2.283-0.807
				c0.998,0,1.814,0.327,2.447,0.98c0.634,0.654,0.951,1.558,0.951,2.711c0,0.935-0.141,1.669-0.421,2.205
				c-0.28,0.535-0.688,0.951-1.224,1.247s-1.12,0.444-1.754,0.444c-1.016,0-1.838-0.326-2.464-0.978S190.783,390.096,190.783,388.87
				z M192.049,388.87c0,0.93,0.202,1.626,0.607,2.089c0.406,0.462,0.916,0.693,1.531,0.693c0.611,0,1.119-0.232,1.525-0.697
				c0.405-0.465,0.607-1.174,0.607-2.126c0-0.897-0.203-1.578-0.611-2.04c-0.408-0.463-0.915-0.694-1.521-0.694
				c-0.615,0-1.125,0.23-1.531,0.69C192.251,387.245,192.049,387.94,192.049,388.87z"/>
			<path fill="#B6B4C1" d="M199.014,392.5v-7.26h1.107v1.101c0.283-0.515,0.544-0.854,0.783-1.019s0.502-0.246,0.789-0.246
				c0.415,0,0.837,0.132,1.266,0.396l-0.424,1.142c-0.301-0.178-0.602-0.267-0.902-0.267c-0.27,0-0.511,0.081-0.725,0.242
				c-0.215,0.162-0.367,0.387-0.459,0.674c-0.137,0.438-0.205,0.916-0.205,1.436v3.801H199.014z"/>
			<path fill="#B6B4C1" d="M203.698,383.894v-1.415h1.23v1.415H203.698z M203.698,392.5v-7.26h1.23v7.26H203.698z"/>
			<path fill="#B6B4C1" d="M211.77,390.162l1.271,0.157c-0.2,0.743-0.571,1.319-1.113,1.729c-0.543,0.41-1.235,0.615-2.078,0.615
				c-1.063,0-1.904-0.327-2.526-0.98c-0.622-0.654-0.933-1.571-0.933-2.752c0-1.222,0.314-2.169,0.943-2.844
				s1.444-1.012,2.447-1.012c0.971,0,1.764,0.33,2.379,0.991s0.922,1.591,0.922,2.789c0,0.073-0.002,0.183-0.006,0.328h-5.414
				c0.045,0.798,0.271,1.408,0.676,1.832c0.406,0.424,0.912,0.636,1.518,0.636c0.451,0,0.837-0.118,1.156-0.355
				C211.33,391.06,211.583,390.682,211.77,390.162z M207.731,388.173h4.053c-0.055-0.61-0.209-1.068-0.465-1.374
				c-0.392-0.474-0.899-0.711-1.523-0.711c-0.565,0-1.041,0.189-1.426,0.567S207.772,387.539,207.731,388.173z"/>
			<path fill="#B6B4C1" d="M214.094,390.333l1.217-0.191c0.068,0.487,0.26,0.861,0.571,1.121s0.749,0.39,1.31,0.39
				c0.564,0,0.984-0.115,1.258-0.346c0.273-0.229,0.41-0.5,0.41-0.81c0-0.278-0.121-0.497-0.363-0.656
				c-0.168-0.109-0.588-0.248-1.258-0.417c-0.902-0.228-1.527-0.425-1.876-0.592c-0.349-0.166-0.612-0.396-0.793-0.689
				c-0.181-0.295-0.271-0.619-0.271-0.975c0-0.323,0.074-0.623,0.223-0.898c0.148-0.276,0.35-0.505,0.605-0.688
				c0.191-0.142,0.451-0.261,0.782-0.359c0.331-0.098,0.685-0.146,1.063-0.146c0.569,0,1.069,0.082,1.5,0.246
				s0.748,0.387,0.953,0.666c0.205,0.281,0.347,0.655,0.424,1.125l-1.203,0.164c-0.055-0.374-0.213-0.665-0.475-0.875
				s-0.633-0.314-1.111-0.314c-0.564,0-0.968,0.094-1.209,0.28c-0.242,0.187-0.363,0.405-0.363,0.656
				c0,0.159,0.051,0.303,0.15,0.431c0.101,0.132,0.258,0.241,0.473,0.328c0.123,0.046,0.484,0.15,1.086,0.314
				c0.871,0.232,1.479,0.423,1.822,0.57c0.344,0.148,0.614,0.364,0.811,0.646c0.195,0.282,0.293,0.634,0.293,1.053
				c0,0.41-0.119,0.797-0.358,1.158c-0.239,0.363-0.585,0.643-1.036,0.842c-0.451,0.197-0.961,0.297-1.531,0.297
				c-0.943,0-1.662-0.196-2.156-0.588S214.231,391.104,214.094,390.333z"/>
			<path fill="#B6B4C1" d="M225.018,388.87c0-1.345,0.374-2.34,1.121-2.987c0.625-0.538,1.386-0.807,2.283-0.807
				c0.998,0,1.814,0.327,2.447,0.98c0.634,0.654,0.951,1.558,0.951,2.711c0,0.935-0.141,1.669-0.421,2.205
				c-0.28,0.535-0.688,0.951-1.224,1.247s-1.12,0.444-1.754,0.444c-1.016,0-1.838-0.326-2.464-0.978S225.018,390.096,225.018,388.87
				z M226.283,388.87c0,0.93,0.202,1.626,0.607,2.089c0.406,0.462,0.916,0.693,1.531,0.693c0.611,0,1.119-0.232,1.525-0.697
				c0.405-0.465,0.607-1.174,0.607-2.126c0-0.897-0.203-1.578-0.611-2.04c-0.408-0.463-0.915-0.694-1.521-0.694
				c-0.615,0-1.125,0.23-1.531,0.69C226.486,387.245,226.283,387.94,226.283,388.87z"/>
			<path fill="#B6B4C1" d="M233.248,392.5v-7.26h1.107v1.101c0.283-0.515,0.544-0.854,0.783-1.019s0.502-0.246,0.789-0.246
				c0.415,0,0.837,0.132,1.266,0.396l-0.424,1.142c-0.301-0.178-0.602-0.267-0.902-0.267c-0.27,0-0.511,0.081-0.725,0.242
				c-0.215,0.162-0.367,0.387-0.459,0.674c-0.137,0.438-0.205,0.916-0.205,1.436v3.801H233.248z"/>
			<path fill="#B6B4C1" d="M241.323,390.333l1.217-0.191c0.068,0.487,0.258,0.861,0.57,1.121s0.748,0.39,1.309,0.39
				c0.565,0,0.984-0.115,1.258-0.346c0.273-0.229,0.41-0.5,0.41-0.81c0-0.278-0.12-0.497-0.361-0.656
				c-0.169-0.109-0.588-0.248-1.258-0.417c-0.902-0.228-1.528-0.425-1.877-0.592c-0.349-0.166-0.613-0.396-0.793-0.689
				c-0.18-0.295-0.27-0.619-0.27-0.975c0-0.323,0.074-0.623,0.222-0.898c0.147-0.276,0.35-0.505,0.604-0.688
				c0.191-0.142,0.453-0.261,0.783-0.359c0.33-0.098,0.685-0.146,1.063-0.146c0.57,0,1.07,0.082,1.501,0.246
				s0.749,0.387,0.954,0.666c0.205,0.281,0.346,0.655,0.424,1.125l-1.203,0.164c-0.055-0.374-0.213-0.665-0.476-0.875
				s-0.632-0.314-1.11-0.314c-0.565,0-0.969,0.094-1.211,0.28c-0.241,0.187-0.361,0.405-0.361,0.656c0,0.159,0.05,0.303,0.15,0.431
				c0.1,0.132,0.257,0.241,0.471,0.328c0.123,0.046,0.486,0.15,1.088,0.314c0.87,0.232,1.477,0.423,1.821,0.57
				c0.345,0.148,0.614,0.364,0.81,0.646c0.196,0.282,0.295,0.634,0.295,1.053c0,0.41-0.12,0.797-0.359,1.158
				c-0.239,0.363-0.584,0.643-1.035,0.842c-0.451,0.197-0.962,0.297-1.531,0.297c-0.943,0-1.662-0.196-2.157-0.588
				S241.459,391.104,241.323,390.333z"/>
			<path fill="#B6B4C1" d="M253.783,390.162l1.271,0.157c-0.2,0.743-0.571,1.319-1.113,1.729c-0.543,0.41-1.235,0.615-2.078,0.615
				c-1.063,0-1.904-0.327-2.526-0.98c-0.622-0.654-0.933-1.571-0.933-2.752c0-1.222,0.314-2.169,0.943-2.844
				s1.444-1.012,2.447-1.012c0.971,0,1.764,0.33,2.379,0.991s0.922,1.591,0.922,2.789c0,0.073-0.002,0.183-0.006,0.328h-5.414
				c0.045,0.798,0.271,1.408,0.676,1.832c0.406,0.424,0.912,0.636,1.518,0.636c0.451,0,0.837-0.118,1.156-0.355
				C253.344,391.06,253.597,390.682,253.783,390.162z M249.744,388.173h4.053c-0.055-0.61-0.209-1.068-0.465-1.374
				c-0.392-0.474-0.899-0.711-1.523-0.711c-0.565,0-1.041,0.189-1.426,0.567S249.785,387.539,249.744,388.173z"/>
			<path fill="#B6B4C1" d="M261.338,391.604c-0.456,0.388-0.895,0.661-1.316,0.82s-0.874,0.239-1.357,0.239
				c-0.797,0-1.41-0.195-1.838-0.584c-0.429-0.391-0.643-0.888-0.643-1.494c0-0.355,0.08-0.68,0.242-0.975
				c0.162-0.293,0.373-0.529,0.636-0.707s0.558-0.313,0.886-0.403c0.241-0.063,0.605-0.125,1.094-0.185
				c0.993-0.118,1.725-0.26,2.193-0.424c0.005-0.169,0.008-0.275,0.008-0.321c0-0.501-0.117-0.854-0.35-1.06
				c-0.314-0.278-0.781-0.417-1.4-0.417c-0.579,0-1.006,0.102-1.282,0.304c-0.276,0.203-0.479,0.563-0.612,1.077l-1.203-0.164
				c0.109-0.515,0.29-0.931,0.541-1.247c0.25-0.317,0.612-0.561,1.086-0.732c0.475-0.17,1.023-0.256,1.648-0.256
				c0.619,0,1.123,0.073,1.51,0.219c0.388,0.146,0.673,0.329,0.855,0.551c0.182,0.221,0.31,0.5,0.383,0.837
				c0.041,0.21,0.061,0.588,0.061,1.135v1.641c0,1.144,0.027,1.867,0.079,2.171c0.052,0.303,0.156,0.593,0.312,0.871h-1.285
				C261.456,392.245,261.374,391.946,261.338,391.604z M261.235,388.856c-0.446,0.183-1.116,0.337-2.01,0.465
				c-0.506,0.073-0.863,0.155-1.072,0.246c-0.21,0.091-0.372,0.225-0.486,0.399c-0.113,0.176-0.17,0.371-0.17,0.585
				c0,0.328,0.123,0.602,0.372,0.82s0.612,0.328,1.091,0.328c0.474,0,0.895-0.104,1.264-0.312c0.369-0.207,0.641-0.49,0.814-0.851
				c0.132-0.278,0.197-0.688,0.197-1.23V388.856z"/>
			<path fill="#B6B4C1" d="M264.373,392.5v-7.26h1.107v1.101c0.282-0.515,0.543-0.854,0.782-1.019s0.503-0.246,0.79-0.246
				c0.414,0,0.836,0.132,1.264,0.396l-0.424,1.142c-0.301-0.178-0.602-0.267-0.902-0.267c-0.269,0-0.51,0.081-0.725,0.242
				c-0.214,0.162-0.366,0.387-0.457,0.674c-0.137,0.438-0.205,0.916-0.205,1.436v3.801H264.373z"/>
			<path fill="#B6B4C1" d="M273.785,389.841l1.211,0.157c-0.133,0.834-0.471,1.486-1.016,1.959
				c-0.545,0.471-1.213,0.707-2.006,0.707c-0.994,0-1.793-0.324-2.396-0.975c-0.604-0.648-0.906-1.58-0.906-2.792
				c0-0.784,0.131-1.47,0.391-2.058s0.654-1.029,1.186-1.322c0.531-0.295,1.108-0.441,1.732-0.441c0.789,0,1.434,0.199,1.936,0.598
				c0.501,0.399,0.822,0.966,0.963,1.699l-1.195,0.185c-0.114-0.487-0.316-0.854-0.605-1.101s-0.639-0.369-1.049-0.369
				c-0.62,0-1.124,0.223-1.512,0.666c-0.387,0.445-0.58,1.147-0.58,2.109c0,0.976,0.187,1.684,0.561,2.126
				c0.373,0.442,0.861,0.663,1.463,0.663c0.482,0,0.886-0.148,1.209-0.444C273.494,390.912,273.699,390.456,273.785,389.841z"/>
			<path fill="#B6B4C1" d="M276.049,392.5v-10.021h1.23v3.596c0.574-0.665,1.299-0.998,2.174-0.998c0.537,0,1.004,0.105,1.4,0.318
				c0.396,0.211,0.681,0.504,0.852,0.878s0.256,0.916,0.256,1.627v4.601h-1.23v-4.601c0-0.615-0.133-1.063-0.399-1.343
				c-0.267-0.281-0.644-0.421-1.132-0.421c-0.364,0-0.707,0.095-1.028,0.284c-0.321,0.188-0.55,0.445-0.687,0.769
				s-0.205,0.771-0.205,1.34v3.972H276.049z"/>
		</g>
	</g>
</g>
<g id="Layer_3_1_">
	<g id="Layer_3_2_">
		<path fill="none" stroke="#9F9FA4" stroke-miterlimit="10" d="M84.89,192.834l118.5-19c0,0,5.438-1.313,6,3.75
			c0.75,6.75,1.563,46.563,1.563,46.563s0.438,2.063-2.75,3.188c-1.828,0.646-6.055,2.114-8.258,2.849
			c-6.75,2.25-65.555,22.651-65.555,22.651l-21.25,1.5L84.89,192.834"/>
		<polyline fill="none" stroke="#9F9FA4" stroke-miterlimit="10" points="210.141,257.584 142.141,268.584 102.973,174.584 
			75.473,178.25 		"/>
		<polyline fill="none" stroke="#9F9FA4" stroke-miterlimit="10" points="113.141,254.334 120.899,269.624 142.141,268.584 		"/>
		<line fill="none" stroke="#9F9FA4" stroke-miterlimit="10" x1="88.177" y1="192.307" x2="78.302" y2="177.873"/>
		<path fill="#9F9FA4" d="M76.501,178.188c0.164,1.672-1.06,3.16-2.731,3.323l-17.418,1.7c-1.671,0.163-3.159-1.061-3.322-2.732l0,0
			c-0.164-1.672,1.06-3.16,2.731-3.322l17.418-1.7C74.85,175.293,76.338,176.518,76.501,178.188L76.501,178.188z"/>
		<line fill="none" stroke="#9F9FA4" stroke-miterlimit="10" x1="135.473" y1="197.417" x2="149.473" y2="233.751"/>
		<line fill="none" stroke="#9F9FA4" stroke-miterlimit="10" x1="155.807" y1="193.084" x2="162.141" y2="228.417"/>
		<line fill="none" stroke="#9F9FA4" stroke-miterlimit="10" x1="171.807" y1="191.584" x2="177.307" y2="224.751"/>
		<line fill="none" stroke="#9F9FA4" stroke-miterlimit="10" x1="186.973" y1="187.084" x2="190.473" y2="221.584"/>
		<circle fill="#9F9FA4" cx="210.141" cy="191.352" r="8.762"/>
		
			<line fill="none" stroke="#FCFCFC" stroke-width="2" stroke-miterlimit="10" x1="209.641" y1="186.251" x2="210.141" y2="197.417"/>
		
			<line fill="none" stroke="#FCFCFC" stroke-width="2" stroke-miterlimit="10" x1="204.307" y1="191.602" x2="215.473" y2="191.102"/>
		<circle fill="#C0C0C4" stroke="#9F9FA3" stroke-width="2" stroke-miterlimit="10" cx="118.473" cy="272.168" r="7.417"/>
		<circle fill="#C0C0C4" stroke="#9F9FA3" stroke-width="2" stroke-miterlimit="10" cx="142.807" cy="268.584" r="7.417"/>
		<circle fill="#C0C0C4" stroke="#9F9FA3" stroke-width="2" stroke-miterlimit="10" cx="191.057" cy="261.168" r="7.417"/>
		<circle fill="#C0C0C4" stroke="#9F9FA3" stroke-width="2" stroke-miterlimit="10" cx="210.141" cy="258.168" r="7.417"/>
		<path fill="none" stroke="#9F9FA3" stroke-width="1.5" stroke-miterlimit="20" stroke-dasharray="5,3" d="M182.889,144.502
			c0,0-43.531-6.375-61.084,20.25c-17.552,26.625,24,32.75,39.5,15.75s-22.666-14.75-28.75,2.75
			c-6.082,17.5,9.586,32.332,22.227,38.332"/>
		<g>
			<path fill="#63625E" d="M195.596,137.923c-1.117-0.499-2.367,0.082-3.025,1.75c-0.658,1.669,0.885,3.042,0.885,3.042
				s2.053,0.235,2.855-1.369C197.115,139.743,196.715,138.423,195.596,137.923z"/>
			<path fill="#9E9C95" d="M191.344,141.877c-2.049,0-3.746,1.005-4.066,2.322l-1.818,0.454l1.818,0.455
				c0.32,1.317,2.02,2.322,4.066,2.322c2.277,0,4.123-1.244,4.123-2.777C195.467,143.121,193.621,141.877,191.344,141.877z"/>
			<path fill="#9E9C95" d="M192.332,144.654c0-0.931,0.414-1.776,1.09-2.398c-0.611-0.24-1.32-0.378-2.078-0.378
				c-2.049,0-3.746,1.005-4.066,2.322l-1.818,0.454l1.818,0.456c0.32,1.316,2.02,2.322,4.066,2.322c0.758,0,1.467-0.14,2.078-0.38
				C192.746,146.432,192.332,145.586,192.332,144.654z"/>
			<path fill="#9E9C95" d="M190.264,144.654c0-1.126,0.605-2.127,1.545-2.758c-0.152-0.012-0.309-0.018-0.465-0.018
				c-2.049,0-3.746,1.005-4.066,2.322l-1.818,0.454l1.818,0.456c0.32,1.316,2.02,2.322,4.066,2.322c0.156,0,0.313-0.008,0.465-0.02
				C190.869,146.781,190.264,145.781,190.264,144.654z"/>
			<path fill="#9E9C95" d="M188.573,144.654c0-1.038,0.516-1.968,1.33-2.602c-1.361,0.343-2.385,1.157-2.625,2.148l-1.818,0.454
				l1.818,0.456c0.24,0.99,1.264,1.805,2.625,2.146C189.088,146.623,188.573,145.691,188.573,144.654z"/>
			<path fill="#9E9C95" d="M194.592,142.945c-1.594,1.467,0,3.418,0,3.418l0,0c0.549-0.471,0.875-1.064,0.875-1.709
				S195.141,143.417,194.592,142.945z"/>
			<path opacity="0.19" fill="#58595B" enable-background="new    " d="M192.869,142.075c-0.113,0.277-0.178,0.582-0.178,0.9
				c0,1.311,1.063,2.373,2.373,2.373c0.096,0,0.188-0.006,0.279-0.017c0.08-0.217,0.123-0.444,0.123-0.678
				C195.467,143.483,194.391,142.482,192.869,142.075z"/>
			<path fill="#63625E" d="M186.932,139.589c-0.877,1.051-0.631,2.574,0.965,3.79c1.064,0.811,2.285,0.527,2.98,0.249
				c0.379-0.151,0.652-0.481,0.734-0.88c0.15-0.734,0.211-1.985-0.777-2.888C189.352,138.507,187.811,138.539,186.932,139.589z"/>
			<path fill="#CECCC8" d="M190.053,138.029c-1.227,0.869-1.393,2.553-0.041,4.291c1.354,1.738,3.768,0.964,3.768,0.964
				s1.527-2.022,0.336-3.873C192.922,137.56,191.28,137.16,190.053,138.029z"/>
			<circle fill="#CECCC8" cx="195.467" cy="142.975" r="2.374"/>
			<g>
				<path fill="#231F20" d="M194.063,141.661c-0.031,0-0.063-0.021-0.074-0.053c-0.006-0.01-0.383-1.005-1.193-1.005
					c-0.006,0-0.01,0-0.014,0c-0.045,0-0.08-0.035-0.08-0.079c-0.002-0.045,0.033-0.081,0.078-0.082c0.006,0,0.01,0,0.016,0
					c0.924,0,1.326,1.065,1.344,1.11c0.016,0.042-0.006,0.088-0.047,0.104C194.08,141.659,194.073,141.661,194.063,141.661z"/>
			</g>
			<g>
				<path fill="#231F20" d="M196.815,141.538c-0.002,0-0.006,0-0.008,0c-0.045-0.005-0.076-0.044-0.072-0.088
					c0.006-0.049,0.131-1.193,1.037-1.415c0.043-0.011,0.088,0.016,0.1,0.059c0.01,0.043-0.018,0.087-0.061,0.097
					c-0.799,0.195-0.916,1.264-0.916,1.275C196.891,141.507,196.856,141.538,196.815,141.538z"/>
			</g>
			<circle fill="#FFFFFF" cx="194.571" cy="142.472" r="0.8"/>
			<circle fill="#231F20" cx="194.571" cy="142.472" r="0.457"/>
			<circle fill="#FFFFFF" cx="194.653" cy="142.378" r="0.125"/>
			<circle fill="#FFFFFF" cx="196.365" cy="142.472" r="0.799"/>
			<circle fill="#231F20" cx="196.365" cy="142.472" r="0.457"/>
			<circle fill="#FFFFFF" cx="196.283" cy="142.378" r="0.125"/>
			<path fill="#E9673F" d="M194.729,143.792h1.479l0,0C196.004,144.549,194.93,144.549,194.729,143.792L194.729,143.792z"/>
		</g>
	</g>
</g>
<g id="Layer_4_1_" display="none">
	<g display="inline">
		<g id="Layer_2_2_">
			<path fill="none" stroke="#9898A0" stroke-miterlimit="10" d="M66.93,166.233"/>
			<polyline fill="none" stroke="#9898A0" stroke-miterlimit="10" points="108.43,208.732 108.43,192.233 200.18,192.233 
				210.18,281.232 100.93,281.232 100.93,267.982 			"/>
			<path fill="none" stroke="#9898A0" stroke-miterlimit="10" d="M135.68,207.588v-24.507c0,0,4.125-14.961,19.875-15.349
				c15.75-0.389,20,15.349,20,15.349v25.152"/>
			<circle fill="#9898A0" cx="135.68" cy="213.107" r="6.25"/>
			<circle fill="#9898A0" cx="175.555" cy="213.482" r="6.25"/>
		</g>
		<g id="Layer_3_3_">
			<g>
				<g>
					<path fill="#9898A0" d="M106.907,220.453c5.886,0,11.588,4.256,11.588,13.783c0,15.607-24,28.574-24,28.574
						s-24.001-12.965-24.001-28.574c0-9.529,5.703-13.785,11.59-13.783c5.432,0,11.019,3.627,12.411,10.076
						C95.888,224.08,101.475,220.453,106.907,220.453 M82.079,219.645c-3.328,0-6.378,1.266-8.583,3.564
						c-2.491,2.604-3.812,6.412-3.812,11.025c0,3.721,1.308,7.588,3.885,11.496c2.031,3.078,4.855,6.189,8.396,9.256
						c5.998,5.188,12.085,8.5,12.145,8.533l0.385,0.207l0.387-0.207c0.06-0.033,6.146-3.346,12.145-8.533
						c3.541-3.064,6.365-6.178,8.396-9.256c2.578-3.908,3.885-7.775,3.885-11.496c0-4.611-1.318-8.424-3.813-11.025
						c-2.205-2.301-5.254-3.564-8.585-3.564c-2.936,0-5.852,0.986-8.211,2.783c-1.871,1.426-3.296,3.271-4.202,5.416
						c-0.903-2.145-2.328-3.988-4.199-5.416c-2.359-1.797-5.275-2.783-8.211-2.783H82.079
						C82.081,219.645,82.079,219.645,82.079,219.645L82.079,219.645z"/>
				</g>
			</g>
			<g enable-background="new    ">
				<path fill="#B6B4C1" d="M82.848,342.732l-2.734-11.453h2.367l1.728,7.867l2.094-7.867h2.75l2.008,8l1.758-8h2.328l-2.781,11.453
					h-2.453l-2.28-8.564l-2.273,8.564H82.848z"/>
				<path fill="#B6B4C1" d="M96.255,342.732v-11.453h2.313v11.453H96.255z"/>
				<path fill="#B6B4C1" d="M100.184,339.006l2.25-0.219c0.135,0.754,0.41,1.311,0.824,1.664s0.973,0.531,1.676,0.531
					c0.745,0,1.306-0.158,1.684-0.475c0.377-0.314,0.566-0.684,0.566-1.104c0-0.271-0.08-0.502-0.238-0.691
					c-0.159-0.189-0.437-0.355-0.832-0.496c-0.271-0.094-0.888-0.262-1.852-0.5c-1.24-0.309-2.109-0.686-2.609-1.133
					c-0.703-0.631-1.055-1.398-1.055-2.305c0-0.584,0.165-1.129,0.496-1.637c0.331-0.51,0.807-0.896,1.43-1.16
					c0.622-0.268,1.374-0.398,2.254-0.398c1.438,0,2.521,0.314,3.246,0.945c0.727,0.629,1.108,1.471,1.146,2.521l-2.313,0.104
					c-0.099-0.59-0.312-1.012-0.637-1.271c-0.326-0.258-0.814-0.387-1.465-0.387c-0.672,0-1.198,0.139-1.578,0.414
					c-0.245,0.178-0.367,0.414-0.367,0.711c0,0.271,0.114,0.504,0.344,0.695c0.292,0.246,1,0.5,2.125,0.766
					c1.125,0.268,1.957,0.541,2.496,0.824c0.539,0.285,0.961,0.672,1.267,1.164c0.305,0.492,0.457,1.102,0.457,1.824
					c0,0.656-0.184,1.271-0.548,1.844c-0.364,0.574-0.88,1-1.547,1.277s-1.498,0.418-2.492,0.418c-1.447,0-2.56-0.334-3.336-1.004
					C100.799,341.262,100.336,340.287,100.184,339.006z"/>
				<path fill="#B6B4C1" d="M111.45,342.732v-11.453h2.313v4.508h4.531v-4.508h2.313v11.453h-2.313v-5.008h-4.531v5.008H111.45z"/>
				<path fill="#B6B4C1" d="M123.059,342.732v-11.359h2.313v9.43h5.75v1.93H123.059L123.059,342.732z"/>
				<path fill="#B6B4C1" d="M132.7,342.732v-11.453h2.313v11.453H132.7z"/>
				<path fill="#B6B4C1" d="M136.63,339.006l2.25-0.219c0.135,0.754,0.41,1.311,0.823,1.664c0.414,0.354,0.974,0.531,1.677,0.531
					c0.745,0,1.306-0.158,1.684-0.475c0.377-0.314,0.566-0.684,0.566-1.104c0-0.271-0.08-0.502-0.238-0.691
					c-0.159-0.189-0.438-0.355-0.832-0.496c-0.271-0.094-0.888-0.262-1.852-0.5c-1.24-0.309-2.109-0.686-2.609-1.133
					c-0.703-0.631-1.055-1.398-1.055-2.305c0-0.584,0.165-1.129,0.496-1.637c0.33-0.51,0.807-0.896,1.43-1.16
					c0.622-0.268,1.374-0.398,2.254-0.398c1.438,0,2.52,0.314,3.246,0.945c0.726,0.629,1.107,1.471,1.145,2.521l-2.313,0.104
					c-0.1-0.59-0.313-1.012-0.637-1.271c-0.326-0.258-0.814-0.387-1.466-0.387c-0.672,0-1.197,0.139-1.578,0.414
					c-0.244,0.178-0.366,0.414-0.366,0.711c0,0.271,0.113,0.504,0.344,0.695c0.292,0.246,1,0.5,2.125,0.766
					c1.125,0.268,1.957,0.541,2.496,0.824c0.539,0.285,0.961,0.672,1.266,1.164c0.306,0.492,0.457,1.102,0.457,1.824
					c0,0.656-0.183,1.271-0.547,1.844c-0.365,0.574-0.88,1-1.547,1.277s-1.498,0.418-2.492,0.418c-1.448,0-2.56-0.334-3.336-1.004
					C137.244,341.262,136.78,340.287,136.63,339.006z"/>
				<path fill="#B6B4C1" d="M150.466,342.732v-9.518h-3.398v-1.938h9.103v1.938h-3.392v9.518H150.466z"/>
				<path fill="#B6B4C1" d="M162.035,342.732v-11.453h2.314v11.453H162.035z"/>
				<path fill="#B6B4C1" d="M165.965,339.006l2.25-0.219c0.135,0.754,0.41,1.311,0.824,1.664s0.973,0.531,1.676,0.531
					c0.744,0,1.307-0.158,1.684-0.475c0.377-0.314,0.566-0.684,0.566-1.104c0-0.271-0.08-0.502-0.238-0.691
					s-0.436-0.355-0.832-0.496c-0.27-0.094-0.889-0.262-1.852-0.5c-1.24-0.309-2.109-0.686-2.609-1.133
					c-0.703-0.631-1.055-1.398-1.055-2.305c0-0.584,0.166-1.129,0.496-1.637c0.33-0.51,0.807-0.896,1.43-1.16
					c0.623-0.268,1.373-0.398,2.254-0.398c1.439,0,2.52,0.314,3.246,0.945c0.727,0.629,1.107,1.471,1.145,2.521l-2.313,0.104
					c-0.1-0.59-0.313-1.012-0.637-1.271c-0.326-0.258-0.814-0.387-1.465-0.387c-0.672,0-1.197,0.139-1.578,0.414
					c-0.244,0.178-0.367,0.414-0.367,0.711c0,0.271,0.113,0.504,0.344,0.695c0.291,0.246,1,0.5,2.125,0.766
					c1.125,0.268,1.957,0.541,2.496,0.824c0.539,0.285,0.961,0.672,1.266,1.164c0.307,0.492,0.457,1.102,0.457,1.824
					c0,0.656-0.182,1.271-0.547,1.844c-0.365,0.574-0.881,1-1.547,1.277s-1.498,0.418-2.492,0.418c-1.447,0-2.561-0.334-3.336-1.004
					C166.58,341.262,166.115,340.287,165.965,339.006z"/>
				<path fill="#B6B4C1" d="M181.668,342.732v-11.453h8.492v1.938h-6.18v2.539h5.75v1.93h-5.75v3.117h6.398v1.93H181.668
					L181.668,342.732z"/>
				<path fill="#B6B4C1" d="M192.309,342.732v-11.453h3.461l2.078,7.813l2.055-7.813h3.471v11.453h-2.148v-9.018l-2.273,9.018
					h-2.227l-2.266-9.018v9.018H192.309z"/>
				<path fill="#B6B4C1" d="M205.668,342.732v-11.453h3.711c1.406,0,2.322,0.057,2.75,0.172c0.656,0.172,1.205,0.545,1.648,1.121
					c0.441,0.574,0.664,1.318,0.664,2.229c0,0.703-0.129,1.295-0.383,1.773c-0.256,0.48-0.58,0.855-0.973,1.129
					c-0.395,0.273-0.793,0.455-1.199,0.543c-0.553,0.109-1.354,0.164-2.398,0.164h-1.508v4.32h-2.313V342.732z M207.981,333.217
					v3.25h1.268c0.91,0,1.52-0.061,1.826-0.18c0.309-0.121,0.549-0.309,0.725-0.563c0.174-0.256,0.262-0.553,0.262-0.893
					c0-0.416-0.123-0.76-0.367-1.031c-0.246-0.27-0.555-0.439-0.93-0.508c-0.277-0.051-0.832-0.078-1.664-0.078h-1.119V333.217z"/>
				<path fill="#B6B4C1" d="M218.918,342.732v-9.518h-3.398v-1.938h9.104v1.938h-3.393v9.518H218.918z"/>
				<path fill="#B6B4C1" d="M229.123,342.732v-4.82l-4.195-6.633h2.711l2.695,4.531l2.641-4.531h2.664l-4.211,6.646v4.807H229.123z"
					/>
			</g>
			<g enable-background="new    ">
				<path fill="#B6B4C1" d="M32.241,374.732v-4.246l-3.861-5.775h1.612l1.977,3.021c0.365,0.564,0.704,1.129,1.019,1.693
					c0.301-0.523,0.666-1.113,1.095-1.77l1.94-2.947h1.545l-3.999,5.777v4.244h-1.327V374.732z"/>
				<path fill="#B6B4C1" d="M36.855,371.102c0-1.346,0.374-2.34,1.121-2.986c0.625-0.539,1.385-0.807,2.283-0.807
					c0.998,0,1.813,0.326,2.447,0.979c0.633,0.654,0.949,1.559,0.949,2.711c0,0.936-0.14,1.67-0.42,2.205
					c-0.279,0.535-0.688,0.951-1.224,1.248c-0.536,0.295-1.12,0.443-1.753,0.443c-1.017,0-1.838-0.326-2.464-0.979
					C37.17,373.266,36.855,372.328,36.855,371.102z M38.12,371.102c0,0.93,0.203,1.627,0.608,2.09
					c0.406,0.461,0.916,0.691,1.531,0.691c0.61,0,1.119-0.23,1.523-0.695c0.405-0.465,0.608-1.174,0.608-2.127
					c0-0.896-0.204-1.578-0.612-2.039c-0.408-0.463-0.915-0.695-1.521-0.695c-0.615,0-1.125,0.23-1.531,0.691
					C38.321,369.477,38.12,370.172,38.12,371.102z"/>
				<path fill="#B6B4C1" d="M49.857,374.732v-1.066c-0.564,0.82-1.333,1.23-2.304,1.23c-0.428,0-0.828-0.082-1.2-0.246
					s-0.646-0.371-0.827-0.619c-0.18-0.248-0.307-0.553-0.379-0.912c-0.05-0.242-0.075-0.625-0.075-1.148v-4.498h1.23v4.025
					c0,0.645,0.024,1.076,0.075,1.299c0.077,0.324,0.241,0.578,0.491,0.764c0.25,0.184,0.562,0.275,0.931,0.275
					s0.715-0.094,1.039-0.283c0.323-0.188,0.553-0.445,0.687-0.771s0.202-0.799,0.202-1.418v-3.891h1.23v7.26H49.857L49.857,374.732
					z"/>
				<path fill="#B6B4C1" d="M61.485,374.732v-0.916c-0.46,0.719-1.137,1.08-2.029,1.08c-0.579,0-1.111-0.16-1.597-0.48
					c-0.484-0.318-0.86-0.764-1.128-1.336c-0.267-0.572-0.399-1.229-0.399-1.973c0-0.725,0.12-1.381,0.361-1.973
					c0.242-0.59,0.604-1.043,1.087-1.355c0.483-0.314,1.023-0.473,1.62-0.473c0.438,0,0.827,0.092,1.169,0.277
					c0.342,0.184,0.62,0.424,0.834,0.721v-3.596h1.225v10.021h-1.143V374.732z M57.595,371.109c0,0.93,0.196,1.625,0.588,2.084
					c0.392,0.461,0.854,0.689,1.388,0.689c0.538,0,0.995-0.219,1.371-0.658s0.564-1.111,0.564-2.014
					c0-0.994-0.191-1.723-0.574-2.188s-0.854-0.697-1.415-0.697c-0.547,0-1.004,0.223-1.371,0.67
					C57.779,369.441,57.595,370.146,57.595,371.109z"/>
				<path fill="#B6B4C1" d="M64.103,371.102c0-1.346,0.374-2.34,1.121-2.986c0.625-0.539,1.385-0.807,2.283-0.807
					c0.998,0,1.813,0.326,2.446,0.979c0.634,0.654,0.95,1.559,0.95,2.711c0,0.936-0.14,1.67-0.42,2.205s-0.688,0.951-1.224,1.248
					c-0.536,0.295-1.12,0.443-1.753,0.443c-1.017,0-1.838-0.326-2.464-0.979C64.418,373.266,64.103,372.328,64.103,371.102z
					 M65.368,371.102c0,0.93,0.203,1.627,0.608,2.09c0.406,0.461,0.916,0.691,1.531,0.691c0.61,0,1.119-0.23,1.523-0.695
					c0.405-0.465,0.608-1.174,0.608-2.127c0-0.896-0.204-1.578-0.612-2.039c-0.408-0.463-0.915-0.695-1.521-0.695
					c-0.615,0-1.125,0.23-1.531,0.691C65.569,369.477,65.368,370.172,65.368,371.102z"/>
				<path fill="#B6B4C1" d="M72.347,374.732v-7.26h1.106v1.031c0.533-0.799,1.304-1.195,2.312-1.195c0.438,0,0.84,0.076,1.207,0.234
					c0.367,0.156,0.642,0.363,0.824,0.619c0.182,0.254,0.31,0.559,0.383,0.908c0.045,0.229,0.068,0.627,0.068,1.197v4.463h-1.23
					v-4.416c0-0.5-0.048-0.875-0.144-1.125c-0.097-0.248-0.267-0.445-0.51-0.594c-0.244-0.148-0.529-0.223-0.857-0.223
					c-0.524,0-0.978,0.166-1.357,0.498c-0.38,0.334-0.571,0.965-0.571,1.895v3.965h-1.23V374.732z"/>
				<path fill="#B6B4C1" d="M80.14,368.258l-0.314-1.873v-1.674h1.401v1.674l-0.328,1.873H80.14z"/>
				<path fill="#B6B4C1" d="M85.493,373.631l0.179,1.088c-0.347,0.072-0.656,0.109-0.931,0.109c-0.446,0-0.793-0.07-1.039-0.213
					c-0.245-0.141-0.419-0.326-0.52-0.557c-0.1-0.23-0.15-0.715-0.15-1.453v-4.176h-0.901v-0.957h0.901v-1.799l1.225-0.738v2.537
					h1.236v0.957h-1.236v4.244c0,0.352,0.021,0.576,0.064,0.678c0.044,0.1,0.114,0.18,0.212,0.238c0.099,0.059,0.238,0.09,0.42,0.09
					C85.09,373.68,85.269,373.664,85.493,373.631z"/>
				<path fill="#B6B4C1" d="M90.586,374.732v-10.021h1.229v3.596c0.574-0.664,1.299-0.998,2.174-0.998
					c0.538,0,1.005,0.105,1.401,0.318c0.396,0.211,0.68,0.504,0.851,0.877c0.171,0.375,0.257,0.916,0.257,1.627v4.602h-1.23v-4.602
					c0-0.613-0.133-1.063-0.4-1.342c-0.267-0.281-0.644-0.422-1.131-0.422c-0.365,0-0.708,0.096-1.028,0.285
					c-0.321,0.188-0.551,0.445-0.688,0.768c-0.137,0.324-0.205,0.771-0.205,1.342v3.971H90.586L90.586,374.732z"/>
				<path fill="#B6B4C1" d="M103.109,373.836c-0.456,0.389-0.895,0.662-1.315,0.82c-0.421,0.16-0.874,0.24-1.357,0.24
					c-0.797,0-1.411-0.195-1.839-0.584c-0.428-0.393-0.644-0.889-0.644-1.494c0-0.355,0.081-0.68,0.243-0.977
					c0.162-0.293,0.374-0.527,0.637-0.707c0.262-0.178,0.557-0.313,0.885-0.402c0.242-0.063,0.605-0.125,1.094-0.186
					c0.994-0.117,1.725-0.26,2.194-0.424c0.004-0.168,0.007-0.273,0.007-0.32c0-0.502-0.116-0.854-0.349-1.061
					c-0.314-0.277-0.782-0.416-1.401-0.416c-0.579,0-1.006,0.102-1.282,0.303c-0.275,0.203-0.479,0.564-0.612,1.078l-1.202-0.164
					c0.108-0.516,0.29-0.932,0.54-1.248s0.612-0.561,1.087-0.73c0.474-0.17,1.022-0.256,1.646-0.256c0.62,0,1.124,0.072,1.511,0.219
					c0.388,0.145,0.673,0.328,0.854,0.551c0.182,0.221,0.31,0.5,0.383,0.836c0.041,0.211,0.063,0.588,0.063,1.135v1.643
					c0,1.143,0.025,1.867,0.078,2.17s0.156,0.594,0.312,0.871h-1.285C103.227,374.477,103.145,374.178,103.109,373.836z
					 M103.007,371.088c-0.447,0.184-1.117,0.338-2.011,0.467c-0.506,0.072-0.863,0.154-1.072,0.244
					c-0.209,0.092-0.372,0.227-0.485,0.4c-0.114,0.176-0.171,0.371-0.171,0.584c0,0.328,0.124,0.602,0.373,0.82
					s0.612,0.328,1.09,0.328c0.474,0,0.896-0.104,1.265-0.313c0.369-0.207,0.641-0.49,0.813-0.85
					c0.132-0.279,0.198-0.689,0.198-1.23V371.088z"/>
				<path fill="#B6B4C1" d="M108.175,374.732l-2.763-7.26h1.3l1.559,4.348c0.168,0.469,0.324,0.957,0.465,1.463
					c0.109-0.383,0.263-0.844,0.458-1.381l1.613-4.43h1.265l-2.748,7.26H108.175z"/>
				<path fill="#B6B4C1" d="M118.128,372.395l1.271,0.156c-0.201,0.742-0.572,1.318-1.114,1.729s-1.234,0.615-2.077,0.615
					c-1.063,0-1.904-0.326-2.526-0.98s-0.933-1.57-0.933-2.752c0-1.221,0.313-2.168,0.942-2.844
					c0.629-0.674,1.445-1.012,2.447-1.012c0.971,0,1.764,0.33,2.379,0.99c0.615,0.662,0.923,1.592,0.923,2.789
					c0,0.074-0.002,0.184-0.007,0.328h-5.414c0.045,0.799,0.271,1.408,0.677,1.832c0.406,0.424,0.912,0.637,1.519,0.637
					c0.451,0,0.836-0.117,1.154-0.355C117.687,373.291,117.94,372.914,118.128,372.395z M114.088,370.404h4.054
					c-0.055-0.609-0.209-1.068-0.465-1.373c-0.393-0.475-0.9-0.711-1.524-0.711c-0.564,0-1.04,0.188-1.425,0.566
					S114.129,369.771,114.088,370.404z"/>
				<path fill="#B6B4C1" d="M129.571,373.836c-0.456,0.389-0.895,0.662-1.315,0.82c-0.421,0.16-0.874,0.24-1.357,0.24
					c-0.797,0-1.411-0.195-1.839-0.584c-0.428-0.393-0.643-0.889-0.643-1.494c0-0.355,0.081-0.68,0.242-0.977
					c0.162-0.293,0.374-0.527,0.637-0.707c0.262-0.178,0.557-0.313,0.885-0.402c0.242-0.063,0.605-0.125,1.094-0.186
					c0.994-0.117,1.726-0.26,2.194-0.424c0.004-0.168,0.007-0.273,0.007-0.32c0-0.502-0.116-0.854-0.349-1.061
					c-0.314-0.277-0.782-0.416-1.401-0.416c-0.579,0-1.006,0.102-1.282,0.303c-0.275,0.203-0.479,0.564-0.611,1.078l-1.203-0.164
					c0.108-0.516,0.29-0.932,0.54-1.248s0.612-0.561,1.087-0.73c0.474-0.17,1.022-0.256,1.646-0.256c0.62,0,1.124,0.072,1.512,0.219
					c0.387,0.145,0.672,0.328,0.854,0.551c0.182,0.221,0.31,0.5,0.383,0.836c0.041,0.211,0.063,0.588,0.063,1.135v1.643
					c0,1.143,0.025,1.867,0.079,2.17c0.052,0.303,0.155,0.594,0.311,0.871h-1.285C129.689,374.477,129.607,374.178,129.571,373.836z
					 M129.469,371.088c-0.447,0.184-1.117,0.338-2.01,0.467c-0.507,0.072-0.864,0.154-1.073,0.244
					c-0.209,0.092-0.372,0.227-0.485,0.4c-0.114,0.176-0.171,0.371-0.171,0.584c0,0.328,0.124,0.602,0.373,0.82
					s0.612,0.328,1.09,0.328c0.475,0,0.896-0.104,1.266-0.313c0.368-0.207,0.64-0.49,0.813-0.85c0.132-0.279,0.198-0.689,0.198-1.23
					V371.088z"/>
				<path fill="#B6B4C1" d="M132.62,374.732v-7.26h1.107v1.031c0.533-0.799,1.303-1.195,2.311-1.195
					c0.438,0,0.841,0.076,1.207,0.234c0.367,0.156,0.643,0.363,0.824,0.619c0.183,0.254,0.311,0.559,0.383,0.908
					c0.046,0.229,0.068,0.627,0.068,1.197v4.463h-1.229v-4.416c0-0.5-0.049-0.875-0.145-1.125c-0.096-0.248-0.266-0.445-0.509-0.594
					c-0.244-0.148-0.53-0.223-0.858-0.223c-0.523,0-0.977,0.166-1.356,0.498c-0.38,0.334-0.571,0.965-0.571,1.895v3.965h-1.231
					V374.732z"/>
				<path fill="#B6B4C1" d="M140.351,377.527l-0.137-1.154c0.269,0.072,0.503,0.109,0.704,0.109c0.272,0,0.491-0.047,0.655-0.137
					c0.164-0.092,0.299-0.221,0.403-0.385c0.078-0.123,0.203-0.428,0.376-0.916c0.023-0.066,0.059-0.168,0.109-0.301l-2.755-7.271
					h1.325l1.512,4.203c0.195,0.533,0.372,1.094,0.525,1.682c0.142-0.564,0.311-1.115,0.506-1.654l1.553-4.23h1.229l-2.762,7.383
					c-0.296,0.799-0.526,1.348-0.69,1.646c-0.219,0.406-0.469,0.703-0.752,0.893s-0.62,0.285-1.012,0.285
					C140.907,377.678,140.643,377.629,140.351,377.527z"/>
				<path fill="#B6B4C1" d="M151.302,366.125v-1.414h1.229v1.414H151.302z M151.302,374.732v-7.26h1.229v7.26H151.302z"/>
				<path fill="#B6B4C1" d="M157.092,373.631l0.178,1.088c-0.346,0.072-0.656,0.109-0.93,0.109c-0.447,0-0.793-0.07-1.039-0.213
					c-0.246-0.141-0.418-0.326-0.52-0.557c-0.1-0.23-0.15-0.715-0.15-1.453v-4.176h-0.902v-0.957h0.902v-1.799l1.225-0.738v2.537
					h1.236v0.957h-1.236v4.244c0,0.352,0.021,0.576,0.064,0.678c0.045,0.1,0.113,0.18,0.213,0.238c0.098,0.059,0.236,0.09,0.42,0.09
					C156.69,373.68,156.869,373.664,157.092,373.631z"/>
				<path fill="#B6B4C1" d="M163.266,372.395l1.27,0.156c-0.199,0.742-0.57,1.318-1.113,1.729s-1.234,0.615-2.078,0.615
					c-1.063,0-1.904-0.326-2.525-0.98c-0.623-0.654-0.934-1.57-0.934-2.752c0-1.221,0.314-2.168,0.943-2.844
					c0.629-0.674,1.445-1.012,2.447-1.012c0.971,0,1.764,0.33,2.379,0.99c0.615,0.662,0.922,1.592,0.922,2.789
					c0,0.074-0.002,0.184-0.006,0.328h-5.414c0.045,0.799,0.271,1.408,0.678,1.832c0.404,0.424,0.91,0.637,1.518,0.637
					c0.451,0,0.836-0.117,1.154-0.355C162.824,373.291,163.078,372.914,163.266,372.395z M159.225,370.404h4.055
					c-0.055-0.609-0.211-1.068-0.465-1.373c-0.393-0.475-0.898-0.711-1.523-0.711c-0.564,0-1.041,0.188-1.428,0.566
					C159.479,369.266,159.266,369.771,159.225,370.404z"/>
				<path fill="#B6B4C1" d="M166.082,374.732v-7.26h1.1v1.018c0.229-0.355,0.531-0.641,0.91-0.857
					c0.377-0.217,0.809-0.324,1.291-0.324c0.537,0,0.979,0.111,1.322,0.336c0.346,0.223,0.588,0.535,0.729,0.936
					c0.574-0.848,1.322-1.27,2.242-1.27c0.721,0,1.273,0.197,1.662,0.598c0.387,0.398,0.58,1.014,0.58,1.842v4.984h-1.225v-4.574
					c0-0.492-0.039-0.846-0.119-1.063s-0.225-0.391-0.434-0.521s-0.455-0.199-0.738-0.199c-0.51,0-0.934,0.17-1.271,0.512
					c-0.338,0.338-0.506,0.883-0.506,1.629v4.219h-1.23v-4.717c0-0.547-0.1-0.957-0.301-1.23s-0.529-0.41-0.984-0.41
					c-0.346,0-0.666,0.09-0.961,0.273c-0.293,0.182-0.506,0.449-0.639,0.799c-0.133,0.352-0.197,0.857-0.197,1.518v3.768h-1.23
					V374.732z"/>
				<path fill="#B6B4C1" d="M177.252,372.564l1.217-0.191c0.066,0.488,0.258,0.861,0.57,1.121s0.748,0.391,1.309,0.391
					c0.564,0,0.984-0.115,1.258-0.346c0.273-0.229,0.41-0.5,0.41-0.811c0-0.277-0.121-0.496-0.361-0.656
					c-0.17-0.109-0.588-0.248-1.258-0.416c-0.902-0.229-1.529-0.426-1.877-0.592c-0.35-0.166-0.613-0.396-0.793-0.689
					c-0.18-0.295-0.27-0.619-0.27-0.975c0-0.324,0.072-0.623,0.221-0.898s0.35-0.506,0.605-0.688
					c0.191-0.143,0.451-0.262,0.783-0.359c0.33-0.098,0.684-0.146,1.063-0.146c0.57,0,1.07,0.082,1.5,0.246
					c0.432,0.164,0.75,0.387,0.955,0.666c0.205,0.281,0.346,0.654,0.424,1.125l-1.203,0.164c-0.055-0.375-0.213-0.666-0.477-0.875
					c-0.262-0.211-0.633-0.314-1.109-0.314c-0.566,0-0.969,0.094-1.211,0.281c-0.242,0.186-0.361,0.404-0.361,0.654
					c0,0.16,0.049,0.305,0.15,0.432c0.1,0.133,0.256,0.24,0.471,0.328c0.123,0.047,0.486,0.15,1.088,0.314
					c0.869,0.232,1.479,0.422,1.82,0.57c0.346,0.146,0.615,0.363,0.811,0.645c0.197,0.283,0.295,0.635,0.295,1.055
					c0,0.408-0.121,0.797-0.357,1.156c-0.24,0.363-0.586,0.645-1.037,0.844c-0.451,0.195-0.961,0.297-1.531,0.297
					c-0.941,0-1.662-0.197-2.156-0.588C177.703,373.916,177.389,373.336,177.252,372.564z"/>
				<path fill="#B6B4C1" d="M188.641,366.125v-1.414h1.229v1.414H188.641z M188.641,374.732v-7.26h1.229v7.26H188.641z"/>
				<path fill="#B6B4C1" d="M191.744,374.732v-7.26h1.107v1.031c0.533-0.799,1.303-1.195,2.311-1.195
					c0.438,0,0.84,0.076,1.205,0.234c0.367,0.156,0.645,0.363,0.824,0.619c0.182,0.254,0.313,0.559,0.383,0.908
					c0.045,0.229,0.068,0.627,0.068,1.197v4.463h-1.23v-4.416c0-0.5-0.047-0.875-0.143-1.125c-0.096-0.248-0.266-0.445-0.51-0.594
					s-0.529-0.223-0.857-0.223c-0.523,0-0.977,0.166-1.355,0.498c-0.381,0.334-0.572,0.965-0.572,1.895v3.965h-1.23V374.732z"/>
				<path fill="#B6B4C1" d="M203.365,377.527l-0.137-1.154c0.27,0.072,0.502,0.109,0.703,0.109c0.273,0,0.492-0.047,0.656-0.137
					c0.164-0.092,0.299-0.221,0.402-0.385c0.078-0.123,0.203-0.428,0.377-0.916c0.023-0.066,0.059-0.168,0.109-0.301l-2.756-7.271
					h1.326l1.512,4.203c0.195,0.533,0.371,1.094,0.525,1.682c0.143-0.564,0.311-1.115,0.506-1.654l1.553-4.23h1.23l-2.764,7.383
					c-0.297,0.799-0.525,1.348-0.689,1.646c-0.219,0.406-0.471,0.703-0.752,0.893s-0.619,0.285-1.012,0.285
					C203.92,377.678,203.656,377.629,203.365,377.527z"/>
				<path fill="#B6B4C1" d="M209.961,371.102c0-1.346,0.373-2.34,1.121-2.986c0.625-0.539,1.385-0.807,2.283-0.807
					c0.998,0,1.814,0.326,2.447,0.979c0.633,0.654,0.949,1.559,0.949,2.711c0,0.936-0.139,1.67-0.42,2.205
					c-0.279,0.535-0.689,0.951-1.225,1.248c-0.535,0.295-1.119,0.443-1.754,0.443c-1.016,0-1.838-0.326-2.465-0.979
					C210.276,373.268,209.961,372.328,209.961,371.102z M211.227,371.102c0,0.93,0.201,1.627,0.607,2.09
					c0.406,0.461,0.916,0.691,1.531,0.691c0.611,0,1.119-0.23,1.523-0.695c0.406-0.465,0.609-1.174,0.609-2.127
					c0-0.896-0.205-1.578-0.611-2.039c-0.408-0.463-0.916-0.695-1.521-0.695c-0.615,0-1.125,0.23-1.531,0.691
					C211.428,369.477,211.227,370.172,211.227,371.102z"/>
				<path fill="#B6B4C1" d="M222.963,374.732v-1.066c-0.564,0.82-1.332,1.23-2.305,1.23c-0.428,0-0.826-0.082-1.199-0.246
					c-0.371-0.164-0.646-0.371-0.826-0.619c-0.182-0.248-0.307-0.553-0.379-0.912c-0.051-0.242-0.076-0.625-0.076-1.148v-4.498h1.23
					v4.025c0,0.645,0.025,1.076,0.074,1.299c0.078,0.324,0.242,0.578,0.492,0.764c0.252,0.184,0.561,0.275,0.93,0.275
					s0.717-0.094,1.039-0.283c0.324-0.188,0.553-0.445,0.688-0.771s0.203-0.799,0.203-1.418v-3.891h1.229v7.26H222.963
					L222.963,374.732z"/>
				<path fill="#B6B4C1" d="M225.979,374.732v-7.26h1.107v1.1c0.281-0.514,0.543-0.854,0.781-1.018
					c0.24-0.164,0.502-0.246,0.789-0.246c0.416,0,0.838,0.131,1.266,0.395l-0.424,1.143c-0.301-0.178-0.602-0.268-0.902-0.268
					c-0.27,0-0.51,0.082-0.725,0.242c-0.215,0.162-0.367,0.387-0.459,0.674c-0.137,0.439-0.203,0.916-0.203,1.438v3.801H225.979z"/>
				<path fill="#B6B4C1" d="M235.883,374.732l-2.223-7.26h1.271l1.156,4.189l0.43,1.559c0.02-0.076,0.145-0.576,0.377-1.496
					l1.154-4.252h1.266l1.086,4.211l0.363,1.387l0.416-1.4l1.244-4.197h1.195l-2.27,7.26h-1.277l-1.154-4.348l-0.281-1.236
					l-1.469,5.584H235.883L235.883,374.732z"/>
				<path fill="#B6B4C1" d="M244.66,366.125v-1.414h1.23v1.414H244.66z M244.66,374.732v-7.26h1.23v7.26H244.66z"/>
				<path fill="#B6B4C1" d="M247.272,372.564l1.217-0.191c0.068,0.488,0.26,0.861,0.57,1.121c0.314,0.26,0.75,0.391,1.311,0.391
					c0.564,0,0.984-0.115,1.258-0.346c0.273-0.229,0.41-0.5,0.41-0.811c0-0.277-0.119-0.496-0.361-0.656
					c-0.168-0.109-0.588-0.248-1.258-0.416c-0.902-0.229-1.527-0.426-1.877-0.592s-0.613-0.396-0.793-0.689
					c-0.182-0.295-0.271-0.619-0.271-0.975c0-0.324,0.074-0.623,0.223-0.898s0.352-0.506,0.605-0.688
					c0.189-0.143,0.451-0.262,0.781-0.359c0.332-0.098,0.686-0.146,1.063-0.146c0.57,0,1.07,0.082,1.502,0.246
					c0.43,0.164,0.748,0.387,0.953,0.666c0.205,0.281,0.346,0.654,0.424,1.125l-1.203,0.164c-0.055-0.375-0.213-0.666-0.475-0.875
					c-0.264-0.211-0.633-0.314-1.111-0.314c-0.564,0-0.969,0.094-1.211,0.281c-0.24,0.186-0.361,0.404-0.361,0.654
					c0,0.16,0.051,0.305,0.15,0.432c0.1,0.133,0.258,0.24,0.473,0.328c0.121,0.047,0.484,0.15,1.086,0.314
					c0.871,0.232,1.479,0.422,1.822,0.57c0.344,0.146,0.613,0.363,0.811,0.645c0.195,0.283,0.293,0.635,0.293,1.055
					c0,0.408-0.119,0.797-0.359,1.156c-0.236,0.363-0.584,0.645-1.035,0.844c-0.449,0.195-0.961,0.297-1.529,0.297
					c-0.943,0-1.662-0.197-2.156-0.588C247.725,373.916,247.408,373.336,247.272,372.564z"/>
				<path fill="#B6B4C1" d="M254.764,374.732v-10.021h1.23v3.596c0.574-0.664,1.299-0.998,2.174-0.998
					c0.537,0,1.006,0.105,1.4,0.318c0.396,0.211,0.682,0.504,0.852,0.877c0.172,0.375,0.258,0.916,0.258,1.627v4.602h-1.23v-4.602
					c0-0.613-0.135-1.063-0.398-1.342c-0.27-0.281-0.646-0.422-1.133-0.422c-0.363,0-0.707,0.096-1.027,0.285
					c-0.322,0.188-0.551,0.445-0.689,0.768c-0.137,0.324-0.205,0.771-0.205,1.342v3.971H254.764L254.764,374.732z"/>
				<path fill="#B6B4C1" d="M262.524,374.732v-10.021h1.23v10.021H262.524z"/>
				<path fill="#B6B4C1" d="M265.668,366.125v-1.414h1.229v1.414H265.668z M265.668,374.732v-7.26h1.229v7.26H265.668z"/>
				<path fill="#B6B4C1" d="M268.28,372.564l1.217-0.191c0.068,0.488,0.26,0.861,0.57,1.121c0.313,0.26,0.748,0.391,1.311,0.391
					s0.982-0.115,1.258-0.346c0.271-0.229,0.41-0.5,0.41-0.811c0-0.277-0.121-0.496-0.363-0.656
					c-0.168-0.109-0.588-0.248-1.258-0.416c-0.902-0.229-1.527-0.426-1.875-0.592c-0.352-0.166-0.613-0.396-0.793-0.689
					c-0.182-0.295-0.271-0.619-0.271-0.975c0-0.324,0.074-0.623,0.223-0.898c0.146-0.275,0.35-0.506,0.604-0.688
					c0.191-0.143,0.453-0.262,0.783-0.359s0.684-0.146,1.063-0.146c0.57,0,1.07,0.082,1.5,0.246c0.434,0.164,0.75,0.387,0.955,0.666
					c0.205,0.281,0.348,0.654,0.424,1.125l-1.203,0.164c-0.055-0.375-0.213-0.666-0.477-0.875c-0.262-0.211-0.631-0.314-1.109-0.314
					c-0.564,0-0.969,0.094-1.211,0.281c-0.24,0.186-0.361,0.404-0.361,0.654c0,0.16,0.051,0.305,0.15,0.432
					c0.102,0.133,0.258,0.24,0.473,0.328c0.123,0.047,0.484,0.15,1.086,0.314c0.871,0.232,1.479,0.422,1.822,0.57
					c0.344,0.146,0.613,0.363,0.811,0.645c0.195,0.283,0.293,0.635,0.293,1.055c0,0.408-0.119,0.797-0.357,1.156
					c-0.24,0.363-0.586,0.645-1.035,0.844c-0.451,0.195-0.963,0.297-1.531,0.297c-0.943,0-1.662-0.197-2.158-0.588
					C268.731,373.916,268.416,373.336,268.28,372.564z"/>
				<path fill="#B6B4C1" d="M278.457,373.631l0.178,1.088c-0.346,0.072-0.656,0.109-0.93,0.109c-0.447,0-0.793-0.07-1.039-0.213
					c-0.246-0.141-0.42-0.326-0.52-0.557s-0.15-0.715-0.15-1.453v-4.176h-0.902v-0.957h0.902v-1.799l1.225-0.738v2.537h1.236v0.957
					h-1.236v4.244c0,0.352,0.02,0.576,0.064,0.678c0.043,0.1,0.113,0.18,0.211,0.238c0.1,0.061,0.238,0.09,0.422,0.09
					C278.055,373.68,278.235,373.664,278.457,373.631z"/>
			</g>
		</g>
	</g>
</g>
</svg>
