<svg width="14" height="14" viewBox="0 0 14 14" fill="none" xmlns="http://www.w3.org/2000/svg">
<rect x="0.5" y="0.5" width="13" height="13" stroke="#007F51"/>
<circle cx="7" cy="7" r="3.5" fill="#007F51" stroke="#007F51"/>
<g clip-path="url(#clip0_8796_31)">
<path d="M10 5.375C10 6.70625 9.00859 7.80664 7.72422 7.97656C7.64102 7.35078 7.36562 6.78594 6.95898 6.34414C7.40781 5.54258 8.26562 5 9.25 5H9.625C9.83242 5 10 5.16758 10 5.375ZM4 6.125C4 5.91758 4.16758 5.75 4.375 5.75H4.75C6.19961 5.75 7.375 6.92539 7.375 8.375V8.75V10.625C7.375 10.8324 7.20742 11 7 11C6.79258 11 6.625 10.8324 6.625 10.625V8.75C5.17539 8.75 4 7.57461 4 6.125Z" fill="#F5F5F5"/>
</g>
<defs>
<clipPath id="clip0_8796_31">
<rect width="6" height="6" fill="white" transform="translate(4 5)"/>
</clipPath>
</defs>
</svg>
