<svg width="502" height="502" viewBox="0 0 502 502" fill="none" xmlns="http://www.w3.org/2000/svg">
<path d="M326.973 40.2508C290.015 40.8834 261.522 71.1038 229.886 90.2199C182.115 119.085 120.761 124.948 80.4103 163.512C52.7903 189.947 39.1559 229.746 43.0113 267.767C46.8667 305.789 67.7499 341.431 97.9502 364.864C117.207 379.794 139.807 389.864 162.869 397.745C186.242 405.717 210.579 411.63 235.277 411.942C269.504 412.373 303.128 402.022 334.091 387.414C355.627 377.264 376.39 364.854 393.327 348.117C409.331 332.314 421.6 312.897 430.003 292.034C450.776 240.468 447.473 181.363 429.461 128.763C414.562 85.2602 378.136 39.3673 326.973 40.2508Z" fill="#A8A8A8"/>
<path opacity="0.7" d="M326.973 40.2508C290.015 40.8834 261.522 71.1038 229.886 90.2199C182.115 119.085 120.761 124.948 80.4103 163.512C52.7903 189.947 39.1559 229.746 43.0113 267.767C46.8667 305.789 67.7499 341.431 97.9502 364.864C117.207 379.794 139.807 389.864 162.869 397.745C186.242 405.717 210.579 411.63 235.277 411.942C269.504 412.373 303.128 402.022 334.091 387.414C355.627 377.264 376.39 364.854 393.327 348.117C409.331 332.314 421.6 312.897 430.003 292.034C450.776 240.468 447.473 181.363 429.461 128.763C414.562 85.2602 378.136 39.3673 326.973 40.2508Z" fill="white"/>
<path opacity="0.1" d="M349.884 253.058C349.623 245.498 349.131 237.436 348.318 229.092C347.224 212.426 345.135 196.864 341.35 187.075C320.507 182.808 212.226 190.76 212.145 190.76L211.473 187.748L211.202 186.553L210.72 184.455L210.589 183.973C209.886 181.141 209.093 178.34 208.17 175.559C208.17 175.559 126.082 168.23 98.854 175.338C98.854 175.579 98.854 175.81 98.854 176.051L98.9343 182.768C99.0146 195.77 98.7134 207.968 99.3861 221.362V221.462C99.2559 221.45 99.1248 221.45 98.9946 221.462C97.9379 221.602 96.9406 222.031 96.113 222.703C95.2855 223.374 94.66 224.262 94.3059 225.267C94.0357 226.047 93.9364 226.876 94.0147 227.697L94.3762 231.924C94.3762 231.994 94.3762 232.054 94.3762 232.125C95.3802 242.787 96.3842 253.349 96.3842 253.349C96.3842 253.349 96.9062 253.399 97.7596 253.439L102.268 253.761C92.6694 254.644 82.1876 267.315 82.6494 278.208C83.1113 289.102 72.6094 309.613 75.2299 321.38C77.2379 330.577 87.569 345.366 92.5991 356.6L92.2075 358.829L69.748 403.929C71.254 401.72 84.808 460.655 147.759 448.175L192.547 375.205C197.543 371.437 202.114 367.138 206.182 362.384C207.898 360.678 209.326 358.704 210.408 356.54C212.008 353.985 213.228 351.212 214.033 348.307C214.234 347.544 214.445 346.791 214.665 346.018C218.32 336.711 223.199 324.011 226.774 315.216C273.962 313.81 323.509 310.929 348.388 305.075H348.438C350.848 288.71 350.898 270.347 349.884 253.058ZM107.549 294.292C107.159 291.574 106.924 288.835 106.846 286.09C107.398 288.981 108 291.863 108.633 294.754C108.272 294.593 107.91 294.433 107.549 294.292Z" fill="black"/>
<path d="M64.6172 401.048C64.6172 401.048 84.7775 460.655 147.758 448.176C147.758 448.176 161.734 382.564 173.441 372.876C180.991 366.651 197.667 355.486 201.231 347.404C204.796 339.322 219.113 300.939 221.884 296.321C224.655 291.702 191.844 238.561 191.844 238.561L122.729 274.223L84.2755 342.495C84.2755 342.495 76.8961 386.671 64.6172 401.048Z" fill="white"/>
<path d="M83.6035 347.815C83.6035 347.815 78.6738 384.672 62.3789 403.929" stroke="#263238" stroke-linecap="round" stroke-linejoin="round"/>
<path d="M147.76 448.175C147.76 448.175 161.655 384.692 173.442 372.875C173.442 372.875 200.068 357.394 204.867 339.171C208.191 326.551 214.235 312.003 217.126 305.396" stroke="#263238" stroke-linecap="round" stroke-linejoin="round"/>
<path d="M153.361 307.435C152.357 306.792 169.475 320.487 170.138 339.201" stroke="#263238" stroke-linecap="round" stroke-linejoin="round"/>
<path d="M339.272 295.959C283.771 309.011 105.019 307.294 105.019 307.294C103.513 304.121 101.696 296.13 99.9389 286.873C96.4249 268.289 93.1419 244.604 93.1419 244.604L87.2283 244.193C87.2283 244.193 86.2243 233.631 85.2203 222.968C84.2163 212.306 90.2403 212.316 90.2403 212.316L89.8086 175.409L89.6981 166.192C116.927 159.084 199.014 166.413 199.014 166.413L201.574 175.308L203 181.613L332.194 177.969C344.041 208.601 339.272 295.959 339.272 295.959Z" fill="#A8A8A8"/>
<path d="M317.807 206.427L233.069 210.664C229.581 210.838 226.895 213.807 227.07 217.295L227.931 234.513C228.105 238.001 231.074 240.687 234.562 240.513L319.299 236.276C322.787 236.101 325.473 233.133 325.298 229.645L324.438 212.426C324.263 208.938 321.294 206.252 317.807 206.427Z" fill="#263238"/>
<path d="M324.835 247.526L325.106 250.388L227.537 254.163L227.457 251.593L324.835 247.526Z" fill="#263238"/>
<path d="M325.316 257.476L325.407 260.046L227.848 263.65L227.758 261.09L325.316 257.476Z" fill="#263238"/>
<path opacity="0.3" d="M332.174 177.968C332.174 177.968 346.571 246.24 339.272 295.958C339.272 295.958 248.229 306.641 217.055 304.914L215.78 288.298L218.39 287.896C218.39 287.896 205.82 193.058 202.969 181.613C202.969 181.613 311.391 173.691 332.174 177.968Z" fill="black"/>
<path opacity="0.8" d="M212.778 288.058L213.852 300.618C213.852 300.618 122.086 304.634 114.014 301.712C105.942 298.79 114.446 294.132 135.791 292.455C157.136 290.778 212.778 288.058 212.778 288.058Z" fill="white"/>
<path d="M157.989 234.785C162.619 234.785 166.372 231.387 166.372 227.195C166.372 223.003 162.619 219.604 157.989 219.604C153.359 219.604 149.605 223.003 149.605 227.195C149.605 231.387 153.359 234.785 157.989 234.785Z" fill="#263238"/>
<path d="M93.1406 244.594C95.0319 265.833 99.0068 286.834 105.008 307.294C143.933 306.963 182.848 306.531 221.763 305.286C260.678 304.041 300.667 301.411 339.231 295.959C339.231 295.959 346.139 234.956 332.133 177.969C316.651 174.746 203.36 181.593 203.36 181.593" stroke="#263238" stroke-linecap="round" stroke-linejoin="round"/>
<path d="M212.778 288.057L213.852 300.617L126.504 302.625C122.9 302.936 117.287 303.408 113.974 301.712C112.468 300.938 111.384 299.051 112.097 297.505C112.739 296.119 114.426 295.627 115.932 295.326C126.615 293.127 137.518 292.204 148.391 291.4C171.671 289.674 194.987 288.506 218.34 287.897C217.848 287.897 212.155 240.919 211.523 236.582C209.053 219.614 206.704 202.577 203.651 185.699C202.55 179.165 200.976 172.719 198.943 166.413C162.959 163.842 125.38 161.463 89.6172 166.192C89.9485 182.125 89.3561 196.312 90.1694 212.315" stroke="#263238" stroke-linecap="round" stroke-linejoin="round"/>
<path d="M103.673 302.566C103.458 301.916 103.329 301.241 103.291 300.558" stroke="#263238" stroke-linecap="round" stroke-linejoin="round"/>
<path d="M103.875 296.752C105.21 293.409 109.216 289.634 120.11 288.429C139.979 286.22 183.291 282.244 208.703 281.28" stroke="#263238" stroke-linecap="round" stroke-linejoin="round" stroke-dasharray="3.91 3.91"/>
<path d="M210.67 281.21L212.678 281.14L212.407 279.132" stroke="#263238" stroke-linecap="round" stroke-linejoin="round"/>
<path d="M211.845 275.286C207.277 242.425 202.217 209.805 196.424 177.125" stroke="#263238" stroke-linecap="round" stroke-linejoin="round" stroke-dasharray="3.88 3.88"/>
<path d="M196.102 175.208L195.74 173.2L193.732 173.06" stroke="#263238" stroke-linecap="round" stroke-linejoin="round"/>
<path d="M189.676 172.798C172.98 171.683 125.5 168.902 93.8242 171.071" stroke="#263238" stroke-linecap="round" stroke-linejoin="round" stroke-dasharray="4.07 4.07"/>
<path d="M91.7756 171.222L89.7676 171.382" stroke="#263238" stroke-linecap="round" stroke-linejoin="round"/>
<path d="M87.2279 244.193L84.8283 218.591C84.7555 217.822 84.8385 217.046 85.0725 216.31C85.3064 215.574 85.6864 214.893 86.1897 214.307C86.6931 213.721 87.3094 213.243 88.0019 212.901C88.6943 212.558 89.4487 212.36 90.2198 212.316C104.979 211.462 143.151 209.454 157.799 210.629C164.827 211.191 172.467 213.45 175.871 220.177C178.702 225.719 179.124 234.032 174.375 238.59C167.146 245.518 153.432 244.986 144.115 245.317C126.765 245.98 87.2379 244.343 87.2279 244.193Z" stroke="#263238" stroke-linecap="round" stroke-linejoin="round"/>
<path d="M177.989 228.541C177.989 227.828 181.643 243.249 168.29 248.339C154.937 253.43 93.1406 251.823 93.1406 251.823V244.594C93.1406 244.594 136.855 245.518 144.134 245.317C151.413 245.117 177.206 247.536 177.989 228.541Z" fill="#263238"/>
<path d="M165.148 314.684C165.148 314.684 176.072 321.079 180.158 333.097" stroke="#263238" stroke-linecap="round" stroke-linejoin="round"/>
<path d="M85.1289 216.161C85.1289 216.161 138.702 213.641 152.337 214.092C165.971 214.544 172.648 217.546 174.003 226.09C175.358 234.634 167.095 239.955 160.509 240.959C153.923 241.963 87.2172 242.254 87.2172 242.254" stroke="#263238" stroke-linecap="round" stroke-linejoin="round" stroke-dasharray="4 4"/>
<path d="M121.946 319.663C121.946 319.663 113.653 290.859 98.3921 285.186C98.3921 285.186 95.3801 265.528 101.886 264.443C108.392 263.359 126.765 251.251 121.966 236.141C117.167 221.03 102.759 243.721 93.1612 244.594C83.563 245.468 73.0812 258.148 73.5129 269.052C73.9447 279.955 63.4729 300.467 66.0934 312.224C68.7138 323.981 84.8682 344.954 86.1734 355.868" fill="white"/>
<path d="M121.946 319.663C121.946 319.663 113.653 290.859 98.3921 285.186C98.3921 285.186 95.3801 265.528 101.886 264.443C108.392 263.359 126.765 251.251 121.966 236.141C117.167 221.03 102.759 243.721 93.1612 244.594C83.563 245.468 73.0812 258.148 73.5129 269.052C73.9447 279.955 63.4729 300.467 66.0934 312.224C68.7138 323.981 84.8682 344.954 86.1734 355.868" stroke="#263238" stroke-linecap="round" stroke-linejoin="round"/>
<path d="M101.855 240.167C101.855 240.167 113.351 242.255 119.596 234.956C125.841 227.657 118.652 227.195 118.652 227.195L101.855 240.167Z" fill="white" stroke="#263238" stroke-linecap="round" stroke-linejoin="round"/>
<path d="M81.3242 256.432C83.4227 256.576 85.4519 257.242 87.2277 258.369" stroke="#263238" stroke-linecap="round" stroke-linejoin="round"/>
<path d="M80.9727 260.608C83.063 260.807 85.0543 261.593 86.7155 262.877" stroke="#263238" stroke-linecap="round" stroke-linejoin="round"/>
<path d="M112.006 299.192C112.006 299.192 161.202 296.652 174.153 297.395" stroke="#263238" stroke-linecap="round" stroke-linejoin="round"/>
<path d="M162.176 293.64C162.176 293.64 174.555 292.636 182.256 293.64" stroke="#263238" stroke-linecap="round" stroke-linejoin="round"/>
<path d="M193.541 297.254H213.571" stroke="#263238" stroke-linecap="round" stroke-linejoin="round"/>
<path d="M205.66 187.236C205.66 187.236 293.641 179.375 328.992 183.863C328.992 183.863 338.53 201.403 336.451 291.291C296.719 296.384 256.743 299.356 216.694 300.196" stroke="#263238" stroke-linecap="round" stroke-linejoin="round" stroke-dasharray="4 4"/>
<g opacity="0.1">
<path d="M443.828 311.631C441.328 300.999 437.664 297.003 433.989 293.931C433.989 293.931 433.909 287.907 429.2 284.473C427.943 283.365 426.6 282.358 425.184 281.461C420.766 278.148 415.897 274.433 415.897 274.433C413.608 267.807 410.506 259.785 407.152 251.893L407.323 253.69C403.889 245.307 400.526 236.964 399.582 234.193V234.132C400.586 236.803 401.59 239.383 402.694 241.763L390.124 197.336C389.823 195.549 389.512 193.792 389.201 192.095C388.598 187.075 386.962 177.617 383.016 176.945C382.869 176.935 382.721 176.935 382.574 176.945C382.574 176.945 377.926 174.937 377.926 183.179C372.394 185.027 370.255 189.203 369.723 194.113C369.435 195.67 369.401 197.264 369.623 198.832C369.723 200.649 369.934 202.506 370.215 204.354L352.404 180.941L350.687 178.712L328.72 149.796L299.192 110.841C298.093 109.395 296.721 108.18 295.152 107.264C293.584 106.349 291.85 105.752 290.051 105.506C288.251 105.261 286.421 105.373 284.665 105.835C282.908 106.298 281.26 107.101 279.815 108.201L243.159 136.042L228.852 146.905C217.878 152.618 220.74 163.903 223.782 167.909L287.706 252.054C287.373 252.012 287.038 251.995 286.702 252.004C286.702 252.004 284.875 247.696 280.357 248.379C279.395 248.424 278.464 248.733 277.666 249.273C276.938 249.656 276.319 250.219 275.869 250.909C275.369 251.514 274.919 252.159 274.524 252.837C272.225 256.773 274.353 266.401 277.676 278.158C277.887 278.921 278.098 279.654 278.299 280.337V280.447L279.152 283.389C282.405 294.674 288.489 316.832 289.614 327.695C289.694 328.699 289.744 329.773 289.765 330.777C289.835 343.287 284.283 364.231 286.672 372.885C286.983 374.02 287.305 375.104 287.626 376.178C289.403 381.961 290.989 387.433 293.781 392.865C297.174 399.491 301.22 405.847 305.005 412.262C311.953 424.049 319.142 435.695 326.571 447.201C329.995 452.482 334.001 457.302 337.876 462.261C339.653 464.54 343.529 467.964 344.201 470.886C344.201 470.886 378.568 473.727 397.805 461.508L395.998 434.159L408.899 360.014C412.584 354.422 423.959 343.498 426.228 340.044C427.403 338.328 428.548 336.621 429.662 334.954C438.146 327.033 442.393 320.898 444.26 313.76C444.3 313.78 444.17 312.967 443.828 311.631ZM324.854 327.826L324.684 327.504C328.194 329.094 331.913 330.176 335.728 330.717C331.722 330.255 327.194 329.613 324.854 327.826ZM339.352 331.149L341.199 331.279C340.581 331.277 339.964 331.234 339.352 331.149ZM324.493 327.073L322.184 322.494C318.971 313.278 311.712 291.551 311.682 291.461C310.26 285.2 308.361 279.058 305.999 273.088C307.707 273.69 309.538 273.858 311.327 273.578C313.117 273.297 314.808 272.577 316.25 271.481L333.82 258.138C335.637 259.232 337.495 260.216 339.312 261.08L355.768 273.941L342.716 327.585L324.493 327.073ZM391.098 203.52C392.464 209.926 394.622 219.143 397.484 228.068C394.706 220.067 392.564 211.859 391.078 203.52H391.098Z" fill="black"/>
<path d="M316.512 461.287L316.612 461.769C316.612 461.769 316.582 461.588 316.512 461.287Z" fill="black"/>
</g>
<path d="M377.504 205.489C378.508 204.826 393.226 196.814 400.596 220.84C407.965 244.866 416.61 285.749 416.61 285.749L399.1 289.152C399.1 289.152 382.875 280.518 368.337 258.892C368.337 258.892 347.956 253.611 339.081 241.061C331.049 229.655 355.827 187.778 355.827 187.778L377.504 205.489Z" fill="white"/>
<path d="M371.209 235.388C375.546 241.894 383.759 255.578 394.843 259.895" stroke="#263238" stroke-linecap="round" stroke-linejoin="round"/>
<path d="M358.939 242.386C360.947 243.199 365.967 246.091 368.337 246.201C368.337 246.201 378.568 266.452 395.445 273.028" stroke="#263238" stroke-linecap="round" stroke-linejoin="round"/>
<path d="M349.553 249.846C355.828 255.097 363.308 258.681 368.338 258.882C368.338 258.882 378.568 279.132 395.446 285.709" stroke="#263238" stroke-linecap="round" stroke-linejoin="round"/>
<path d="M296.744 103.102L241.227 145.273C236.405 148.935 235.465 155.813 239.128 160.635L316.236 262.148C319.899 266.97 326.777 267.909 331.598 264.247L387.116 222.076C391.938 218.414 392.878 211.536 389.215 206.714L312.106 105.201C308.444 100.379 301.566 99.4394 296.744 103.102Z" fill="#263238"/>
<path d="M385.536 219.876L334.593 258.58C333.148 259.681 331.5 260.487 329.743 260.95C327.986 261.413 326.155 261.524 324.354 261.278C322.554 261.032 320.82 260.432 319.252 259.515C317.684 258.597 316.312 257.379 315.216 255.929L241.573 158.983C240.373 157.417 239.53 155.608 239.103 153.682C238.509 151.096 238.676 148.393 239.582 145.9C240.489 143.406 242.097 141.227 244.213 139.626L258.53 128.763L295.176 100.912C296.622 99.8131 298.271 99.01 300.027 98.5485C301.784 98.087 303.614 97.9761 305.414 98.2223C307.213 98.4684 308.947 99.0667 310.515 99.983C312.083 100.899 313.455 102.116 314.553 103.562L344.101 142.457L366.069 171.373L388.157 200.489C389.259 201.933 390.065 203.581 390.53 205.337C390.994 207.094 391.108 208.925 390.865 210.725C390.622 212.526 390.026 214.261 389.111 215.831C388.197 217.401 386.982 218.776 385.536 219.876Z" fill="#A8A8A8"/>
<path opacity="0.1" d="M344.061 142.457L258.5 128.753L295.176 100.912C296.622 99.8131 298.271 99.01 300.027 98.5485C301.784 98.087 303.614 97.9761 305.414 98.2223C307.213 98.4684 308.947 99.0667 310.515 99.983C312.083 100.899 313.455 102.116 314.553 103.562L344.061 142.457Z" fill="black"/>
<path opacity="0.1" d="M385.537 219.876L334.594 258.581C333.149 259.682 331.5 260.487 329.743 260.95C327.986 261.413 326.155 261.525 324.355 261.278C322.555 261.032 320.821 260.433 319.253 259.515C317.685 258.597 316.313 257.379 315.217 255.93L241.573 158.984C240.374 157.418 239.531 155.609 239.104 153.683L367.756 173.692L388.157 200.549C390.364 203.463 391.327 207.132 390.836 210.754C390.345 214.375 388.44 217.655 385.537 219.876Z" fill="black"/>
<path d="M302.407 110.756L293.412 117.588C291.611 118.956 291.26 121.526 292.628 123.327L303.517 137.663C304.885 139.464 307.455 139.815 309.257 138.447L318.251 131.615C320.053 130.246 320.404 127.676 319.035 125.875L308.147 111.54C306.778 109.738 304.208 109.387 302.407 110.756Z" fill="white" stroke="#263238" stroke-linecap="round" stroke-linejoin="round"/>
<path d="M298.098 114.015L313.63 135.119" stroke="#263238" stroke-linecap="round" stroke-linejoin="round"/>
<path d="M298.098 130.53L313.63 118.753" stroke="#263238" stroke-linecap="round" stroke-linejoin="round"/>
<path d="M328.177 252.265L325.526 254.213L293.188 211.643L295.818 209.655L328.177 252.265Z" fill="#263238"/>
<path d="M332.666 248.942L330.016 250.91L297.637 208.27L300.247 206.282L332.666 248.942Z" fill="#263238"/>
<path d="M337.144 245.638L334.503 247.586L302.074 204.906L304.695 202.908L337.144 245.638Z" fill="#263238"/>
<path d="M341.63 242.315L338.98 244.263L306.982 202.145L309.593 200.147L341.63 242.315Z" fill="#263238"/>
<path d="M346.47 238.741L343.819 240.699L311.771 198.511L314.392 196.513L346.47 238.741Z" fill="#263238"/>
<path d="M346.47 189.103L343.819 191.051L311.771 148.863L314.392 146.875L346.47 189.103Z" fill="#263238"/>
<path d="M276.676 115.077L272.574 118.192L362.879 237.079L366.981 233.963L276.676 115.077Z" fill="#263238"/>
<path d="M385.536 219.876L334.593 258.58C333.148 259.681 331.5 260.487 329.743 260.95C327.986 261.413 326.155 261.524 324.354 261.278C322.554 261.032 320.82 260.432 319.252 259.515C317.684 258.597 316.312 257.379 315.216 255.929L241.573 158.983C240.373 157.417 239.53 155.608 239.103 153.682C238.509 151.096 238.676 148.393 239.582 145.9C240.489 143.406 242.097 141.227 244.213 139.626L258.53 128.763L295.176 100.912C296.622 99.8131 298.271 99.01 300.027 98.5485C301.784 98.087 303.614 97.9761 305.414 98.2223C307.213 98.4684 308.947 99.0667 310.515 99.983C312.083 100.899 313.455 102.116 314.553 103.562L344.101 142.457L366.069 171.373L388.157 200.489C389.259 201.933 390.065 203.581 390.53 205.337C390.994 207.094 391.108 208.925 390.865 210.725C390.622 212.526 390.026 214.261 389.111 215.831C388.197 217.401 386.982 218.776 385.536 219.876Z" stroke="#263238" stroke-linecap="round" stroke-linejoin="round"/>
<path d="M344.242 470.876C344.242 470.876 403.538 491.96 421.479 446.037C421.479 446.037 393.418 411.901 408.739 384.01C418.377 366.44 445.033 327.656 445.033 327.656C445.033 327.656 456.168 317.083 459.631 306.461C459.631 306.461 457.724 294.624 449.33 286.612C449.33 286.612 449.24 280.588 444.531 277.154C439.822 273.721 431.188 267.114 431.188 267.114C431.188 267.114 416.991 233.059 414.883 226.904C412.775 220.75 408.538 209.113 406.419 196.262C404.301 183.411 402.343 169.576 397.845 169.616C397.845 169.616 393.207 167.608 393.207 175.851C393.207 175.851 383.468 180.871 384.904 191.493C386.339 202.115 387.665 207.607 387.283 213.581C386.902 219.555 388.819 240.297 393.618 246.803C393.618 246.803 395.225 275.919 397.634 283.5C397.715 283.731 397.785 283.941 397.855 284.132C400.385 290.548 375.105 315.256 361.42 321.943C361.42 321.943 359.984 324.613 354.673 323.88C349.362 323.148 340.376 322.806 338.83 318.86C337.284 314.915 326.993 284.132 326.993 284.132C326.993 284.132 318.67 244.675 302.043 244.685C302.043 244.685 299.523 238.661 293.007 241.954C286.492 245.247 290.759 263.199 293.64 273.018C296.522 282.837 303.821 308.65 305.005 320.527C306.19 332.404 299.463 356.199 301.993 365.557C304.523 374.914 307.335 381.229 315.407 396.55C323.479 411.871 341.36 457.553 344.242 470.876Z" fill="white"/>
<path d="M344.241 470.876C344.241 470.876 331.551 423.106 312.897 392.213C294.242 361.32 305.216 350.396 305.216 324.684C305.216 298.971 284.263 255.197 289.915 245.548C295.568 235.9 303.278 243.621 306.501 252.627C309.724 261.633 305.216 266.783 296.18 267.426" stroke="#263238" stroke-linecap="round" stroke-linejoin="round"/>
<path d="M302.043 244.725C302.043 244.725 312.876 244.062 319.533 261.381C326.189 278.7 336.852 322.625 347.956 335.989" stroke="#263238" stroke-linecap="round" stroke-linejoin="round"/>
<path d="M339.191 319.764C339.252 319.904 354.703 328.519 378.679 320.968" stroke="#263238" stroke-linecap="round" stroke-linejoin="round"/>
<path d="M304.102 295.557C305.306 294.084 306.877 292.952 308.657 292.277C310.437 291.602 312.363 291.408 314.242 291.712" stroke="#263238" stroke-linecap="round" stroke-linejoin="round"/>
<path d="M306.16 301.009C307.201 299.764 308.571 298.838 310.114 298.335C311.657 297.833 313.311 297.775 314.885 298.168" stroke="#263238" stroke-linecap="round" stroke-linejoin="round"/>
<path d="M393.207 175.82C377.444 181.071 389.191 204.876 387.283 213.561C385.376 222.245 390.295 238.872 394.08 247.887C394.08 258.46 397.845 284.112 397.845 284.112C395.516 292.274 376.079 316.33 357.193 323.86" stroke="#263238" stroke-linecap="round" stroke-linejoin="round"/>
<path d="M404.772 187.809C404.772 187.809 403.597 169.586 397.844 169.586C392.092 169.586 392.443 181.865 394.832 190.981C397.222 200.097 406.519 198.792 404.772 187.809Z" stroke="#263238" stroke-linecap="round" stroke-linejoin="round"/>
<path d="M404.773 187.809C404.773 187.809 409.673 216.453 417.976 234.444" stroke="#263238" stroke-linecap="round" stroke-linejoin="round"/>
<path d="M427.764 301.532C431.78 295.026 433.557 288.871 435.043 281.04C434.672 276.131 429.019 260.107 422.453 244.585" stroke="#263238" stroke-linecap="round" stroke-linejoin="round"/>
<path d="M431.721 268.63C438.237 273.529 449.572 277.294 448.267 285.748C446.826 294.205 443.867 302.331 439.532 309.734" stroke="#263238" stroke-linecap="round" stroke-linejoin="round"/>
<path d="M422.925 448.175C422.925 448.175 400.224 416.66 404.772 394.893C408.116 378.879 429.611 350.878 445.033 327.685C453.527 319.764 457.773 313.629 459.631 306.491C456.91 293.087 452.492 289.182 448.245 285.748" stroke="#263238" stroke-linecap="round" stroke-linejoin="round"/>
<path d="M428.98 273.831C426.451 273.12 423.804 272.936 421.201 273.29C418.599 273.644 416.096 274.529 413.85 275.889" stroke="#263238" stroke-linecap="round" stroke-linejoin="round"/>
<path d="M427.704 279.223C424.621 278.756 421.469 279.309 418.729 280.799" stroke="#263238" stroke-linecap="round" stroke-linejoin="round"/>
</svg>
