<svg width="167" height="40" viewBox="0 0 167 40" fill="none" xmlns="http://www.w3.org/2000/svg">
<mask id="mask0_13207_2856" style="mask-type:luminance" maskUnits="userSpaceOnUse" x="45" y="16" width="89" height="21">
<path d="M134 16.1924H45V36.1924H134V16.1924Z" fill="white"/>
</mask>
<g mask="url(#mask0_13207_2856)">
<path d="M54.6372 36.1924C57.517 36.1924 59.7409 35.4037 61.3661 33.5445L61.6798 35.8544H63.9893V25.6009H54.2095V28.2206H60.7959V28.5023C60.7959 31.8262 58.6004 33.5163 54.7227 33.5163C50.5314 33.5163 48.3074 31.4318 48.3074 26.5023V25.9107C48.3074 21.0938 50.6455 18.8685 55.0364 18.8685C58.1727 18.8685 60.7389 20.1924 60.7389 23.122H63.9893C63.9893 18.4459 60.1116 16.1924 54.9794 16.1924C48.5926 16.1924 45 19.4882 45 26.1924C45 33.0375 48.45 36.1924 54.6372 36.1924Z" fill="#2E2F2E"/>
<path d="M67.4648 35.8541H70.4301V27.9104C70.4301 25.2626 71.6276 23.6851 74.1082 23.6851H75.1061V20.9245C74.8495 20.84 74.3078 20.6992 73.7375 20.6992C71.7701 20.6992 70.8578 22.0231 70.3445 23.4316H70.1735L69.9168 21.0372H67.4648V35.8541Z" fill="#2E2F2E"/>
<path d="M82.8609 36.1921C87.6225 36.1921 90.0745 33.7696 90.0745 28.4456C90.0745 23.1217 87.6225 20.6992 82.8609 20.6992C78.1564 20.6992 75.6758 23.1217 75.6758 28.4456C75.6758 33.7696 78.1564 36.1921 82.8609 36.1921ZM82.8609 33.7696C80.0382 33.7696 78.7551 32.1639 78.7551 28.6991V28.1921C78.7551 24.7555 80.0382 23.1217 82.8609 23.1217C85.7121 23.1217 86.9952 24.7555 86.9952 28.1921V28.6991C86.9952 32.1639 85.7121 33.7696 82.8609 33.7696Z" fill="#2E2F2E"/>
<path d="M90.8594 35.854H103.519V33.4314H95.1077L103.12 22.4737V21.0371H91.4011V23.4596H98.8429L90.8594 34.3892V35.854Z" fill="#2E2F2E"/>
<path d="M111.397 36.1921C115.332 36.1921 117.898 34.2203 117.898 30.7273H114.989C114.989 32.6991 113.621 33.8541 111.425 33.8541C108.717 33.8541 107.519 32.3893 107.434 29.178H117.955V28.0513C117.955 23.0654 115.702 20.6992 111.454 20.6992C106.778 20.6992 104.383 23.1217 104.383 28.4456C104.383 33.7696 106.749 36.1921 111.397 36.1921ZM107.491 27.0372C107.719 24.3048 108.945 23.0654 111.397 23.0654C113.478 23.0654 114.847 24.1358 114.847 27.0372H107.491Z" fill="#2E2F2E"/>
<path d="M126.787 36.1921C131.549 36.1921 134.001 33.7696 134.001 28.4456C134.001 23.1217 131.549 20.6992 126.787 20.6992C122.083 20.6992 119.602 23.1217 119.602 28.4456C119.602 33.7696 122.083 36.1921 126.787 36.1921ZM126.787 33.7696C123.965 33.7696 122.682 32.1639 122.682 28.6991V28.1921C122.682 24.7555 123.965 23.1217 126.787 23.1217C129.639 23.1217 130.922 24.7555 130.922 28.1921V28.6991C130.922 32.1639 129.639 33.7696 126.787 33.7696Z" fill="#2E2F2E"/>
</g>
<path d="M48.0312 11.1924V2.96036H52.0992C52.6672 2.96036 53.1392 3.06836 53.5152 3.28436C53.8912 3.49236 54.1712 3.78436 54.3552 4.16036C54.5472 4.53636 54.6432 4.97236 54.6432 5.46836C54.6432 5.97236 54.5392 6.42036 54.3312 6.81236C54.1232 7.19636 53.8272 7.49636 53.4432 7.71236C53.0672 7.92836 52.6152 8.03636 52.0872 8.03636H49.1712V11.1924H48.0312ZM49.1712 7.05236H52.0152C52.4632 7.05236 52.8192 6.91236 53.0832 6.63236C53.3552 6.35236 53.4912 5.96836 53.4912 5.48036C53.4912 5.15236 53.4352 4.87636 53.3232 4.65236C53.2112 4.42836 53.0472 4.25636 52.8312 4.13636C52.6152 4.00836 52.3432 3.94436 52.0152 3.94436H49.1712V7.05236ZM58.2825 11.3364C57.6425 11.3364 57.1025 11.2204 56.6625 10.9884C56.2305 10.7484 55.8985 10.3844 55.6665 9.89636C55.4425 9.40836 55.3305 8.78836 55.3305 8.03636C55.3305 7.27636 55.4425 6.65636 55.6665 6.17636C55.8985 5.68836 56.2305 5.32836 56.6625 5.09636C57.1025 4.85636 57.6425 4.73636 58.2825 4.73636C58.9225 4.73636 59.4585 4.85636 59.8905 5.09636C60.3305 5.32836 60.6625 5.68836 60.8865 6.17636C61.1105 6.65636 61.2225 7.27636 61.2225 8.03636C61.2225 8.78836 61.1105 9.40836 60.8865 9.89636C60.6625 10.3844 60.3305 10.7484 59.8905 10.9884C59.4585 11.2204 58.9225 11.3364 58.2825 11.3364ZM58.2825 10.4484C58.6905 10.4484 59.0305 10.3684 59.3025 10.2084C59.5745 10.0484 59.7785 9.80036 59.9145 9.46436C60.0585 9.12036 60.1306 8.68836 60.1306 8.16836V7.90436C60.1306 7.37636 60.0585 6.94436 59.9145 6.60836C59.7785 6.27236 59.5745 6.02436 59.3025 5.86436C59.0305 5.70436 58.6905 5.62436 58.2825 5.62436C57.8745 5.62436 57.5305 5.70436 57.2505 5.86436C56.9785 6.02436 56.7745 6.27236 56.6385 6.60836C56.5025 6.94436 56.4345 7.37636 56.4345 7.90436V8.16836C56.4345 8.68836 56.5025 9.12036 56.6385 9.46436C56.7745 9.80036 56.9785 10.0484 57.2505 10.2084C57.5305 10.3684 57.8745 10.4484 58.2825 10.4484ZM63.6876 11.1924L61.7796 4.88036H62.8716L63.8316 8.34836C63.8796 8.51636 63.9236 8.70036 63.9636 8.90036C64.0116 9.09236 64.0556 9.27236 64.0956 9.44036C64.1436 9.60036 64.1756 9.72436 64.1916 9.81236H64.2636C64.2956 9.66036 64.3316 9.48836 64.3716 9.29636C64.4196 9.10436 64.4596 8.92036 64.4916 8.74436C64.5316 8.56836 64.5637 8.43236 64.5877 8.33636L65.4516 4.88036H66.5916L67.4676 8.33636C67.4996 8.47236 67.5356 8.63236 67.5756 8.81636C67.6156 8.99236 67.6557 9.16836 67.6957 9.34436C67.7437 9.52036 67.7756 9.67636 67.7916 9.81236H67.8637C67.8957 9.68436 67.9316 9.53636 67.9716 9.36836C68.0116 9.19236 68.0556 9.01636 68.1036 8.84036C68.1516 8.65636 68.1956 8.49636 68.2356 8.36036L69.1837 4.88036H70.1916L68.2957 11.1924H67.2156L66.3996 7.92836C66.3676 7.77636 66.3277 7.60036 66.2797 7.40036C66.2317 7.19236 66.1836 6.98436 66.1356 6.77636C66.0956 6.56036 66.0596 6.37236 66.0276 6.21236H65.9556C65.9396 6.33236 65.9116 6.48436 65.8716 6.66836C65.8396 6.85236 65.7997 7.05636 65.7517 7.28036C65.7037 7.49636 65.6476 7.71236 65.5836 7.92836L64.7677 11.1924H63.6876ZM73.609 11.3364C72.985 11.3364 72.457 11.2204 72.025 10.9884C71.601 10.7484 71.277 10.3844 71.053 9.89636C70.837 9.40836 70.7289 8.78836 70.7289 8.03636C70.7289 7.27636 70.837 6.65636 71.053 6.17636C71.277 5.68836 71.6049 5.32836 72.0369 5.09636C72.4689 4.85636 73.0089 4.73636 73.6569 4.73636C74.2489 4.73636 74.7449 4.85236 75.1449 5.08436C75.5449 5.30836 75.8449 5.64836 76.0449 6.10436C76.2529 6.55236 76.3569 7.11636 76.3569 7.79636V8.30036H71.8209C71.8369 8.80436 71.9089 9.22036 72.0369 9.54836C72.1729 9.86836 72.373 10.1044 72.637 10.2564C72.901 10.4004 73.2329 10.4724 73.6329 10.4724C73.9049 10.4724 74.1409 10.4404 74.3409 10.3764C74.5489 10.3044 74.7209 10.2044 74.8569 10.0764C75.0009 9.94836 75.109 9.79636 75.181 9.62036C75.253 9.44436 75.2929 9.25236 75.3009 9.04436H76.333C76.325 9.38036 76.2609 9.69236 76.1409 9.98036C76.0209 10.2604 75.8449 10.5004 75.6129 10.7004C75.3809 10.9004 75.097 11.0564 74.761 11.1684C74.425 11.2804 74.041 11.3364 73.609 11.3364ZM71.845 7.50836H75.2649C75.2649 7.15636 75.2249 6.86036 75.1449 6.62036C75.0649 6.38036 74.9489 6.18436 74.7969 6.03236C74.6529 5.88036 74.4809 5.77236 74.2809 5.70836C74.0889 5.63636 73.8689 5.60036 73.6209 5.60036C73.2529 5.60036 72.9409 5.66836 72.6849 5.80436C72.4289 5.94036 72.233 6.14836 72.097 6.42836C71.961 6.70836 71.877 7.06836 71.845 7.50836ZM77.6632 11.1924V4.88036H78.5151L78.6111 5.92436H78.6951C78.7591 5.72436 78.8471 5.53636 78.9591 5.36036C79.0711 5.17636 79.2231 5.02836 79.4151 4.91636C79.6071 4.79636 79.8431 4.73636 80.1231 4.73636C80.2431 4.73636 80.3511 4.74836 80.4471 4.77236C80.5511 4.78836 80.6272 4.80836 80.6752 4.83236V5.80436H80.2791C80.0071 5.80436 79.7711 5.85236 79.5711 5.94836C79.3791 6.03636 79.2192 6.16436 79.0912 6.33236C78.9632 6.50036 78.8672 6.70036 78.8032 6.93236C78.7472 7.16436 78.7192 7.41236 78.7192 7.67636V11.1924H77.6632ZM84.0504 11.3364C83.4264 11.3364 82.8984 11.2204 82.4664 10.9884C82.0424 10.7484 81.7184 10.3844 81.4944 9.89636C81.2784 9.40836 81.1703 8.78836 81.1703 8.03636C81.1703 7.27636 81.2784 6.65636 81.4944 6.17636C81.7184 5.68836 82.0464 5.32836 82.4784 5.09636C82.9104 4.85636 83.4503 4.73636 84.0983 4.73636C84.6903 4.73636 85.1863 4.85236 85.5863 5.08436C85.9863 5.30836 86.2863 5.64836 86.4863 6.10436C86.6943 6.55236 86.7984 7.11636 86.7984 7.79636V8.30036H82.2623C82.2783 8.80436 82.3504 9.22036 82.4784 9.54836C82.6144 9.86836 82.8144 10.1044 83.0784 10.2564C83.3424 10.4004 83.6744 10.4724 84.0744 10.4724C84.3464 10.4724 84.5823 10.4404 84.7823 10.3764C84.9903 10.3044 85.1624 10.2044 85.2984 10.0764C85.4424 9.94836 85.5503 9.79636 85.6223 9.62036C85.6943 9.44436 85.7344 9.25236 85.7424 9.04436H86.7743C86.7663 9.38036 86.7023 9.69236 86.5823 9.98036C86.4623 10.2604 86.2863 10.5004 86.0543 10.7004C85.8223 10.9004 85.5384 11.0564 85.2024 11.1684C84.8664 11.2804 84.4824 11.3364 84.0504 11.3364ZM82.2864 7.50836H85.7063C85.7063 7.15636 85.6663 6.86036 85.5863 6.62036C85.5063 6.38036 85.3903 6.18436 85.2383 6.03236C85.0943 5.88036 84.9223 5.77236 84.7223 5.70836C84.5303 5.63636 84.3104 5.60036 84.0624 5.60036C83.6944 5.60036 83.3823 5.66836 83.1263 5.80436C82.8703 5.94036 82.6743 6.14836 82.5383 6.42836C82.4023 6.70836 82.3184 7.06836 82.2864 7.50836ZM90.2526 11.3364C89.7326 11.3364 89.2846 11.2204 88.9086 10.9884C88.5406 10.7564 88.2526 10.3964 88.0446 9.90836C87.8446 9.41236 87.7445 8.77236 87.7445 7.98836C87.7445 7.24436 87.8485 6.63236 88.0565 6.15236C88.2645 5.67236 88.5526 5.31636 88.9206 5.08436C89.2886 4.85236 89.7165 4.73636 90.2045 4.73636C90.4845 4.73636 90.7445 4.76836 90.9845 4.83236C91.2245 4.89636 91.4365 4.99636 91.6205 5.13236C91.8125 5.26836 91.9805 5.44836 92.1245 5.67236H92.1966V2.51636H93.2526V11.1924H92.4005L92.3045 10.2924H92.2205C92.0045 10.6444 91.7246 10.9084 91.3806 11.0844C91.0366 11.2524 90.6606 11.3364 90.2526 11.3364ZM90.5046 10.4124C90.9046 10.4124 91.2286 10.3244 91.4766 10.1484C91.7246 9.97236 91.9046 9.71636 92.0166 9.38036C92.1366 9.04436 92.1966 8.62836 92.1966 8.13236V7.94036C92.1966 7.50836 92.1525 7.14436 92.0645 6.84836C91.9765 6.55236 91.8565 6.31636 91.7045 6.14036C91.5525 5.96436 91.3765 5.84036 91.1765 5.76836C90.9765 5.69636 90.7645 5.66036 90.5405 5.66036C90.1485 5.66036 89.8285 5.74036 89.5805 5.90036C89.3325 6.05236 89.1485 6.29636 89.0285 6.63236C88.9085 6.96036 88.8485 7.38836 88.8485 7.91636V8.16836C88.8485 8.71236 88.9125 9.15236 89.0405 9.48836C89.1685 9.81636 89.3525 10.0524 89.5925 10.1964C89.8405 10.3404 90.1446 10.4124 90.5046 10.4124ZM100.421 11.3364C99.997 11.3364 99.617 11.2524 99.281 11.0844C98.945 10.9084 98.669 10.6444 98.453 10.2924H98.369L98.2611 11.1924H97.421V2.51636H98.477V5.67236H98.549C98.693 5.44836 98.8611 5.26836 99.0531 5.13236C99.2451 4.99636 99.461 4.89636 99.701 4.83236C99.941 4.76836 100.197 4.73636 100.469 4.73636C100.957 4.73636 101.385 4.85236 101.753 5.08436C102.121 5.31636 102.405 5.67236 102.605 6.15236C102.813 6.63236 102.917 7.24436 102.917 7.98836C102.917 8.77236 102.817 9.41236 102.617 9.90836C102.417 10.3964 102.133 10.7564 101.765 10.9884C101.397 11.2204 100.949 11.3364 100.421 11.3364ZM100.169 10.4124C100.529 10.4124 100.829 10.3404 101.069 10.1964C101.317 10.0524 101.505 9.81636 101.633 9.48836C101.761 9.15236 101.825 8.71236 101.825 8.16836V7.91636C101.825 7.38836 101.765 6.96036 101.645 6.63236C101.525 6.29636 101.341 6.05236 101.093 5.90036C100.845 5.74036 100.525 5.66036 100.133 5.66036C99.9091 5.66036 99.6971 5.69636 99.4971 5.76836C99.2971 5.84036 99.1171 5.96436 98.9571 6.14036C98.8051 6.31636 98.685 6.55236 98.597 6.84836C98.517 7.14436 98.477 7.50836 98.477 7.94036V8.13236C98.477 8.62836 98.533 9.04436 98.645 9.38036C98.765 9.71636 98.949 9.97236 99.197 10.1484C99.453 10.3244 99.777 10.4124 100.169 10.4124ZM104.746 13.3764C104.554 13.3764 104.386 13.3604 104.242 13.3284C104.106 13.3044 104.014 13.2884 103.966 13.2804V12.5124H104.494C104.686 12.5124 104.874 12.4724 105.058 12.3924C105.242 12.3124 105.414 12.1764 105.574 11.9844C105.734 11.7924 105.87 11.5284 105.982 11.1924L103.534 4.88036H104.638L105.898 8.13236C105.954 8.28436 106.018 8.47236 106.09 8.69636C106.17 8.91236 106.246 9.13636 106.318 9.36836C106.398 9.60036 106.462 9.80436 106.51 9.98036H106.582C106.614 9.85236 106.654 9.70836 106.702 9.54836C106.75 9.38836 106.798 9.22436 106.846 9.05636C106.902 8.88036 106.954 8.71636 107.002 8.56436C107.058 8.40436 107.102 8.26436 107.134 8.14436L108.202 4.88036H109.27L107.134 11.0124C107.014 11.3564 106.882 11.6724 106.738 11.9604C106.594 12.2564 106.434 12.5084 106.258 12.7164C106.082 12.9244 105.87 13.0844 105.622 13.1964C105.374 13.3164 105.082 13.3764 104.746 13.3764Z" fill="black" fill-opacity="0.55"/>
<path d="M135.203 36.1924V34.4004H136.981V36.1924H135.203ZM142.172 36.3604C141.407 36.3604 140.768 36.2251 140.254 35.9544C139.75 35.6744 139.372 35.2497 139.12 34.6804C138.868 34.1111 138.742 33.3877 138.742 32.5104C138.742 31.6237 138.868 30.9004 139.12 30.3404C139.382 29.7711 139.764 29.3511 140.268 29.0804C140.782 28.8004 141.416 28.6604 142.172 28.6604C142.667 28.6604 143.106 28.7211 143.488 28.8424C143.871 28.9637 144.198 29.1504 144.468 29.4024C144.748 29.6451 144.958 29.9484 145.098 30.3124C145.238 30.6764 145.308 31.1011 145.308 31.5864H143.572C143.572 31.2411 143.521 30.9564 143.418 30.7324C143.316 30.5084 143.157 30.3404 142.942 30.2284C142.737 30.1071 142.471 30.0464 142.144 30.0464C141.762 30.0464 141.449 30.1351 141.206 30.3124C140.964 30.4897 140.782 30.7557 140.66 31.1104C140.548 31.4557 140.492 31.8944 140.492 32.4264V32.6084C140.492 33.1311 140.548 33.5697 140.66 33.9244C140.782 34.2791 140.968 34.5451 141.22 34.7224C141.472 34.8904 141.804 34.9744 142.214 34.9744C142.532 34.9744 142.793 34.9184 142.998 34.8064C143.213 34.6851 143.376 34.5077 143.488 34.2744C143.6 34.0411 143.656 33.7611 143.656 33.4344H145.308C145.308 33.8917 145.238 34.3024 145.098 34.6664C144.958 35.0304 144.753 35.3384 144.482 35.5904C144.212 35.8424 143.88 36.0337 143.488 36.1644C143.106 36.2951 142.667 36.3604 142.172 36.3604ZM150.039 36.3604C149.236 36.3604 148.564 36.2251 148.023 35.9544C147.481 35.6744 147.075 35.2497 146.805 34.6804C146.534 34.1111 146.399 33.3877 146.399 32.5104C146.399 31.6237 146.534 30.9004 146.805 30.3404C147.075 29.7711 147.481 29.3511 148.023 29.0804C148.564 28.8004 149.236 28.6604 150.039 28.6604C150.851 28.6604 151.523 28.8004 152.055 29.0804C152.596 29.3511 153.002 29.7711 153.273 30.3404C153.543 30.9004 153.679 31.6237 153.679 32.5104C153.679 33.3877 153.543 34.1111 153.273 34.6804C153.002 35.2497 152.596 35.6744 152.055 35.9544C151.523 36.2251 150.851 36.3604 150.039 36.3604ZM150.039 34.9604C150.487 34.9604 150.846 34.8764 151.117 34.7084C151.397 34.5311 151.597 34.2697 151.719 33.9244C151.849 33.5697 151.915 33.1311 151.915 32.6084V32.4124C151.915 31.8897 151.849 31.4557 151.719 31.1104C151.597 30.7557 151.397 30.4944 151.117 30.3264C150.846 30.1491 150.487 30.0604 150.039 30.0604C149.591 30.0604 149.227 30.1491 148.947 30.3264C148.676 30.4944 148.475 30.7557 148.345 31.1104C148.223 31.4557 148.163 31.8897 148.163 32.4124V32.6084C148.163 33.1311 148.223 33.5697 148.345 33.9244C148.475 34.2697 148.676 34.5311 148.947 34.7084C149.227 34.8764 149.591 34.9604 150.039 34.9604ZM155.13 36.1924V28.8284H156.558L156.698 29.8084H156.796C156.954 29.5844 157.136 29.3884 157.342 29.2204C157.547 29.0431 157.78 28.9077 158.042 28.8144C158.312 28.7117 158.606 28.6604 158.924 28.6604C159.353 28.6604 159.736 28.7491 160.072 28.9264C160.408 29.1037 160.669 29.3977 160.856 29.8084H160.954C161.112 29.5844 161.299 29.3884 161.514 29.2204C161.728 29.0431 161.976 28.9077 162.256 28.8144C162.536 28.7117 162.839 28.6604 163.166 28.6604C163.604 28.6604 163.992 28.7397 164.328 28.8984C164.664 29.0571 164.93 29.3184 165.126 29.6824C165.322 30.0464 165.42 30.5317 165.42 31.1384V36.1924H163.712V31.4884C163.712 31.2364 163.684 31.0264 163.628 30.8584C163.572 30.6811 163.492 30.5457 163.39 30.4524C163.296 30.3497 163.175 30.2751 163.026 30.2284C162.886 30.1817 162.732 30.1584 162.564 30.1584C162.293 30.1584 162.05 30.2331 161.836 30.3824C161.621 30.5317 161.448 30.7371 161.318 30.9984C161.196 31.2597 161.136 31.5631 161.136 31.9084V36.1924H159.428V31.4884C159.428 31.2364 159.4 31.0264 159.344 30.8584C159.288 30.6811 159.208 30.5457 159.106 30.4524C159.012 30.3497 158.891 30.2751 158.742 30.2284C158.602 30.1817 158.448 30.1584 158.28 30.1584C158.009 30.1584 157.762 30.2331 157.538 30.3824C157.323 30.5317 157.15 30.7371 157.02 30.9984C156.898 31.2597 156.838 31.5631 156.838 31.9084V36.1924H155.13Z" fill="black" fill-opacity="0.55"/>
<path d="M34.3388 13.6877H22.3712C22.3712 15.7065 24.0712 17.3612 26.1451 17.3612C26.1451 17.3612 26.1451 17.3612 26.1791 17.3612H28.389C26.3151 21.8622 20.8753 23.881 16.2514 21.8622C12.9536 20.4391 10.8456 17.2619 10.8116 13.7869C10.8116 13.7538 10.8116 13.7208 10.8116 13.6877C10.8796 8.75645 15.0275 4.81812 20.0933 4.88431C22.5412 4.91741 24.8531 5.87717 26.5531 7.56502C26.8591 7.86288 27.1311 8.19383 27.4031 8.55788C28.083 9.48455 29.171 10.0141 30.327 10.0141H32.3329C30.191 3.39503 22.9152 -0.311634 16.1154 1.77336C10.7776 3.42812 7.10576 8.22693 7.07176 13.6877H5.6438C2.51591 13.6877 0 16.1698 0 19.2146C0 19.9096 0.135994 20.6046 0.407985 21.2665L5.16782 32.7505C6.01779 34.8355 8.09172 36.1924 10.4036 36.1924H29.579C31.8909 36.1924 33.9648 34.8355 34.8148 32.7505L39.5746 21.2665C40.7646 18.4534 39.3706 15.2431 36.4807 14.0848C35.8008 13.82 35.0528 13.6877 34.3388 13.6877Z" fill="#008359"/>
</svg>
