<?xml version="1.0" encoding="UTF-8"?>
<svg id="Layer_1" data-name="Layer 1" xmlns="http://www.w3.org/2000/svg" viewBox="0 0 4332.58 996.08">
  <defs>
    <style>
      .cls-1 {
        fill: red;
        stroke-width: 0px;
      }
    </style>
  </defs>
  <path class="cls-1" d="M77.72,405.27c0-8.66,0-17.32.01-25.98-5.61,7.9-10.04,16.42-14.26,25.05,3.74-.41,8.18-.31,14.25.93Z"/>
  <path class="cls-1" d="M228.75,350.31c0-.93-.01-1.92-.01-2.88-23.57-8.24-45.71,39.95-94.37,19.24-.38-32.94,11.05-33.79-6.49-36.59-9.75,6.46-19.02,13.96-27.78,22.51-4.75,4.64-8.32,9.92-12.48,14.87.27,12.36.24,24.84-.43,37.79,46.99-3.69,76.08,4.9,83.56,28.08,3.05-18.22,7.57-33.58,13.74-45.74,11.17-21.88,25.59-33.61,44.25-37.28Z"/>
  <path class="cls-1" d="M274.39,625.01c-1.96,1.42-4.49,2.1-6.69,3.17,1.5,1.64,2.7,3.36,4.32,4.87,6.59,6.16,13.87,11.88,22.8,16.47-1.25-43.72,42.33-56.86,37.82-102.82-7.36-.21-14.49-.53-21.48-.9-1.89,13.41-4.54,25.39-8.12,35.61-7.05,20.23-16.7,34.9-28.65,43.59Z"/>
  <path class="cls-1" d="M193.89,611.89c-12.84-17.46-20.95-42.9-24.78-75.13-13.53-20.6-25.21-41.28-44.2-47.97,23.18,4.2,33.08,17.41,42.72,30.79-.58-8.69-1.22-17.28-1.21-26.85,0-16.85,1.09-31.76,2.72-45.74-12.48,27.08-70.56,23.14-123.55,22.59-.64,6.92-1.87,13.63-1.87,20.87,0,48.53,14.51,91.15,43.18,126.71,34.19,42.39,82.07,64.94,142.2,67.69-.77-17.1-1.4-34.43-1.65-51.62-13.9-2.66-24.99-9.62-33.56-21.33Z"/>
  <path class="cls-1" d="M228.76,321.71c-5.76-8.09-1.53-15.25,2.86-21.36l-1.8-.02c-9.84,0-19.18,1.22-28.47,2.52-16.57,8.09-35.38,14.61-48.09,25.28,30.44,1.4,39.95-11.37,75.5-6.42Z"/>
  <path class="cls-1" d="M152.09,317.2c7.07-2.43,14.01-4.95,20.69-7.71-7.07,2.22-14,4.67-20.69,7.71Z"/>
  <path class="cls-1" d="M267.7,628.18c-7.62,3.84-16.27,6.33-27.03,6.31-.48.04-.85-.08-1.31-.12-.1,16.6-1.06,33.79-1.9,50.84,1.34,0,2.59.19,3.94.19,17.21,0,33.43-1.74,48.72-4.99-1.8-16.91-7.41-33.31-18.1-47.36-1.62-1.51-2.82-3.24-4.32-4.87Z"/>
  <path class="cls-1" d="M427.58,552.98c-26.36-3.55-54.53-5.91-85.54-6.29-13.46,36.99,29.82,35.43,47.17,51.45.31,5.33.81,13.16,1.27,22.1,1.76-2.14,3.68-4.02,5.41-6.29,14.39-18.64,24.8-39.12,31.68-60.97Z"/>
  <path class="cls-1" d="M411.19,391.94c-1.1.12-1.92.43-3.05.52-5.45-7.38-8.77-14.13-10.43-20.42-5.1-6.58-9.96-13.34-16.08-19.42-34.95-34.68-80.15-52.3-134.36-52.3l-3.53.11c-2.29,12.81-4.42,29.89-5.82,48.68,1.14-.07,2.12-.44,3.28-.45,13.65,0,25.23,3.57,35.52,10.85,10.2,7.26,19.01,20.71,26.24,39.89,7.65,20.38,11.49,52.5,11.49,95.32,0,16.04-.9,30.58-2.41,43.89,21.69.73,39.79-2.41,39.42-24.04,0,8.59,0,17.15,0,25.72,28.92-.11,54.24,2.24,77.79,5.81,4.89-17.74,7.91-36.24,7.91-55.83,0-36.86-9.22-69.48-25.98-98.32Z"/>
  <path class="cls-1" d="M468.09,341.05l.53,5.61,16.07-.02c15.46.03,19.55,2.13,19.73,2.21,2.87,1.53,3.77,2.94,4.09,3.67.18.53,1.93,6.1,1.91,30.07v130.29c4.79,7.44,4.81,21.69-.04,29.13v7.22c.02,4.86.37,9.33.62,13.97,35.61,8.66,71.74,16.95,114.79,20.54-.84-8.08-1.49-19.08-1.5-34.5l.03-166.63c0-24.04,1.75-29.61,1.85-30,.48-1.15,1.3-2.46,3.62-3.74.13-.06,3.9-1.66,15.69-1.96.15-13.96.16-27.8.03-41.54l-102.63-.03c12.45,13.79,24.47,41.28,6.9,54.98-20.4-6.46-5.54-36.98-9-54.98h-9.91c0,11.91,0,23.83,0,35.74-20.86,0-41.8,0-62.76-.03Z"/>
  <path class="cls-1" d="M681.88,662.45c-10.87,3.82-16.51,12.51-18.97,22.8,31.7-1.06,58.13-8.28,78.8-21.39-22.91.07-43.65-.24-59.84-1.41Z"/>
  <path class="cls-1" d="M674.03,305.36h-14.57c.26,13.69.6,27.45,1.05,41.41h13.53s-.01-41.41-.01-41.41Z"/>
  <path class="cls-1" d="M800.74,382.64c0-16.84,1.74-21.93,2.26-23.28,1.6-4.28,3.83-7.2,7.09-9.14,3.77-2.27,8.99-3.43,15.5-3.43h23.09s0-11.84,0-11.84c-19.39-6.4-32.45-17.05-42.77-29.59h-107.03s0,41.39,0,41.39h16.07c13.77.01,20.98,2.16,24.43,3.95,1.69.89,3.44,3.12,5.03,6.31.94,1.98,3.12,8.36,3.12,25.61l-.03,138.78c0,34.6-3.08,53.48-6.29,63.89,16.38-8.31,29.82-17.42,53.96-12.81,4.65-8.5-7.94-28.8,4.99-31.62.37-8.96.54-18.6.54-28.98l.03-129.26Z"/>
  <path class="cls-1" d="M644.13,675.31c-4.05-14.45-50.11-.21-56.69-12.87-1.84-18.41-1.18-35.09,28.33-32.1-4,12.27-26.96,11.59-18.87,32.09,12.58-.01,25.14.01,37.76.03,15.2-6.28,10.7-26.07,8.86-44.04-6.22-4.44-11.01-9.42-13.83-15.47-.57-1.29-1.44-3.7-2.29-8.07-40.09-7.81-77.45-17.49-116.15-26.29.59,7.25,1.48,14.09,2.72,20.54,11.5,7.07,21.17,16.67,26.26,28.3-4.41,2.48-10.04,2.81-16.37,2.39.71,1.45,1.23,3.15,2,4.55,10.61,19.62,28.63,35.78,53.47,47.96,16.58,8.11,38.44,12.23,66.02,13.06-.1-3.56-.44-6.99-1.22-10.08Z"/>
  <path class="cls-1" d="M730.52,605.02c-4.06,5.06-8.73,9.52-14.36,13.1-10.42,6.68-23.03,9.97-38.42,9.94-5.51.01-10.38-.69-15.01-1.59-1.87,15.47-3.31,30.62,9.68,35.99,24.41-14.16,51.58-11.6,83.35-8.82,2.52-2.08,5.32-4.15,7.59-6.3-14.95,2.22-28.67,2.38-24.81-16.97,24.16-1.88,26.93,5.16,32.43,8.67,7.76-8.75,13.67-17.97,17.72-27.58-25.43,1.95-42.13-2.02-58.17-6.43Z"/>
  <path class="cls-1" d="M1148.45,662.54c-17.06.02-34.13,0-51.24,0,.6,4.87,1.44,10.23,2.12,15.25h49.1s0-15.25,0-15.25Z"/>
  <path class="cls-1" d="M1100.02,484.96l.03-117.92c-.96-.09-1.8-.09-2.78-.19,0-8.54,0-17.12,0-25.67,18.89.01,37.77.01,56.7.02.52,10.69-4.02,17.92-12.98,22.19,6.22,3.8,11.57,8.14,15.44,13.62,3.65,5.23,9.33,16.53,15.34,40.53l3.08,12.09h27.79c3.29-1.82,6.56-3.66,9.81-5.49v-118.68s-171.58-.03-171.58-.03c-9.19,3.55-21.3,5.13-38.01,3.59-.06-1.73-1.06-2.81-2.49-3.6h-102.54c7.14,10.52,10.44,22.87,1.22,35.73-8.98.23-16.89-.21-24.36-1v89.44s39.39,0,39.39,0l2.08-13.62c3.27-21.31,10.91-37.68,22.71-48.67,7.16-6.69,20.61-10.21,38.98-10.21h8.52s-.03,159.32-.03,159.32c9.42,7.45,23.75,11.61,35.39,17.54,21.22-19.65,48.49-35.17,78.26-48.99Z"/>
  <path class="cls-1" d="M986.34,555.3v48.19c0,18.92-1.18,24.18-1.34,24.89,26.91,3.54,53.95,6.96,83.9,8.39,5.46-33.83-28.4-74.61-9.41-96.35-1.46,15.95,4.87,26.65,18.85,32.11,1.69-6.11,11.04-7.03,21.66-7.06l.03-73.9c-36.46,22.23-74.7,43.24-113.69,63.73Z"/>
  <path class="cls-1" d="M965.51,636.35h-27.35s-.01,19.74-.01,19.74c46.74-.01,93.47.02,140.18.04-22.1-14.62-58.22-19.67-96.98-22.95-.03,0-.04.07-.09.12-3.45,2.04-8.9,3.08-15.75,3.06Z"/>
  <path class="cls-1" d="M1021.74,675.4c.43-10.48-34.71-13.81-83.59-14.41v16.78s149.15,0,149.15,0c-2.6-5.25-5.62-10.42-8.97-15.24-38.21-8.92-29.84,13.92-56.59,12.86Z"/>
  <path class="cls-1" d="M1148.45,652.64v-3.26c-88.59-5.67-34.92,16.37,0,3.26Z"/>
  <path class="cls-1" d="M1141.98,636.42l-20.91-.02c-8.88,0-13.14-1.7-14.88-2.72-2.87-1.68-4.33-3.14-4.52-3.69-.13-.32-.66-2.6-1.07-8.13-6.88-1.81-14.11-3.39-22.27-4.31-16.59,36.82,46.79,19.2,70.12,28.8v-7.84c-2.11-.75-4.42-1.33-6.47-2.09Z"/>
  <path class="cls-1" d="M1618.45,631.01c-6.41,2.26-13.41,3.74-21.68,3.74-20.35,0-35.66-7.4-46.78-22.61-16.27-22.1-24.96-57.07-26.74-102.69-38.6-18.85-54.08-54.06-20.03-103.91,10.07.24,20.61-.85,31.23-2.2,1.89-5.48,3.81-10.9,6.14-15.49,13.56-26.58,31.57-38.93,56.72-38.93,13.6,0,25.2,3.59,35.5,10.84.81.58,1.56,1.45,2.35,2.1-4.02-8.62,4.84-24.1,9.67-27.03,18.49-3.08,30.41,29.49,9.42,32.12-6.83,1.23-11.14.58-14.33-.84,7.24,7.74,13.67,18.96,19.12,33.53,7.6,20.31,11.49,52.32,11.5,94.95.91.28,1.58.72,2.59.96,21.54-5.79.3-117.6,18.85-64.29-.01,36.42-.03,72.86-.02,109.28-10.87,20.82-10.67-17.28-9.38-25.73-4.21,1.15-8.45,2-12.68,2.94-1.32,25.52-4.87,47.02-10.79,63.93-7.05,20.23-16.72,34.89-28.62,43.58-1.64,1.18-3.8,1.69-5.61,2.68,4.39,8.78,8.21,17.98,10.41,28.27,23.73,0,47.46.01,71.18.03,17.11-11,32.37-24.92,45.51-42.03,27.4-35.53,41.27-77.15,41.28-123.71,0-54.74-18.7-101.02-55.52-137.63-34.95-34.69-80.14-52.3-134.37-52.3l-8.41.2-9.05-.2c-39.23-.02-74.08,10.81-104.3,31.65,5.05,2.34,11.53,3.66,21.62,2.59-1.03,24.26-25.41,25.95-49.36,20.85-35.68,36.27-54.04,81.56-54.07,135.02.01,48.54,14.53,91.15,43.19,126.74,12.64,15.65,27.25,28.48,43.55,38.78,46.43-.01,92.87.01,139.32.02-.77-8.73-3.57-17.1-7.42-25.21Z"/>
  <path class="cls-1" d="M1644.78,669.1c3.85,2.85,7.31,5.96,10.63,9.16,14.17-3.73,27.47-8.97,39.82-15.62-21.91-1.31-44.07-2.8-50.45,6.46Z"/>
  <path class="cls-1" d="M1648.45,680.08c-4.42-5.8-8.51-11.81-13.14-17.45-45.87,0-91.71,0-137.54-.03,28.43,15.15,61.66,23.06,99.73,23.05,18.08-.01,35.01-1.96,50.94-5.57Z"/>
  <path class="cls-1" d="M2037.07,391.91l-1.58,14.32c-1.74,15.75-5.31,28.1-10.63,36.73-4.99,8.08-10.72,13.57-17.42,16.77-2.98,1.4-6.43,2.47-10.28,3.33,23.83,13.98,51.01,25.71,79.11,36.78v-107.91s-39.21-.01-39.21-.01Z"/>
  <path class="cls-1" d="M1821.83,660.81v17.11s209.99.05,209.99.05v-15.49c-10.81.13-28.83.23-56.61.22-41.28,0-100.46-4.5-153.38-1.88Z"/>
  <path class="cls-1" d="M1983.7,464.78v-3.91c-9.41-5.35-18.67-10.82-27.35-16.68-20.83.76-4.04,27.25-9.5,38.56-8.36-5-21.26-6.94-37.72-6.47-26.38-15.66,22.9-38.11.02-51.43-17.38,9.91-29.42,25.44-39.36,42.57l-.02,136.23c-.02,20.09-1.4,24.94-1.59,25.53-.48,1.21-1.51,3.32-3.25,4.26-3.47,2.05-8.94,3.09-15.74,3.1l-27.35-.02v20.62c71.61,1.05,174.64,2.82,209.98,4.06v-24.64s-27.32,0-27.32,0c-8.25,0-12.52-1.46-14.65-2.72-2.86-1.7-4.32-3.15-4.53-3.7-.2-.53-1.65-5.57-1.64-26.48v-30.34c-7.64-1.23-16.57-1.53-27.36-.63-2.08-8.24,10.35-5.95,27.37-1.28v-55.54c11.95,1.02,22.55,5.02,32.31,12.1,10.08,7.33,16.77,25.46,19.43,52.43l.43,4.23c5.38.77,10.45,1.21,14.85.94,10.63-2.09,20.16-4.99,25.54-10.64l.02-70.08c-30.33-12.71-60.02-25.84-87.08-40.75-1.87.2-3.49.58-5.49.67ZM1909.11,630.56c-21.95-9.67-14.41-15.71-9.43-32.14,23.99.78,36.6,9.37,37.74,25.7-13.41-.54-26.71-1.08-28.31,6.43Z"/>
  <path class="cls-1" d="M1937.48,412.02c11.98,16.51,27.9,30.29,46.22,42.48v-63.82c-12.78,5.9-19.6,21.11-46.22,21.35Z"/>
  <path class="cls-1" d="M2141.02,435.34l.03-53.8c-12.18,15.83-21.47,33.58-27.2,53.81h27.18Z"/>
  <path class="cls-1" d="M1869.79,406.54v50.83c6.77-10.86,13.48-21.8,20.44-32.53-2.33-3.63-11.1-12.18-20.44-18.3Z"/>
  <path class="cls-1" d="M1975.26,354.18c13.42-5.76,19.19-3.12,22.76,3.09h1.25c31.97.02,45.8,1.81,51.8,3.29,14.91,3.7,26.22,9.84,33.56,18.3,7.36,8.43,12.08,22.59,14.05,42.05l1.47,14.42,2.81.02c8.66-24.41,21.62-45.95,38.05-65.09v-64.63s-138.07-.04-138.07-.04c-2.99,10.7-17.38,21.57-37.16,16.43-1.93-8.76,2.72-13.06,8.73-16.42l-152.63-.02v41.4s27.33.01,27.33.01c8.21-.01,12.49,1.5,14.63,2.68,3.54,2.07,4.31,3.57,4.35,3.56.14.38.97,3.36,1.38,13.75,19.45,0,38.94,0,58.45.02-10.29,8.07-43.08,23.46-58.23,15.87l-.02,16.91c16.38,8.19,32.72,16.46,48.82,25.06-16.22-32.81,54.31-55.34,56.64-70.66ZM1899.73,309.17c21.89-2.05,36.26,1.05,47.17,6.45,2.75,16.66-63.82,22.32-47.17-6.45Z"/>
  <path class="cls-1" d="M2333.31,685.65h36.58s4.27-9.77,4.27-9.77c1.79-4.12,3.92-7.08,6.3-8.74,3.13-2.09,4.66-2.19,4.78-2.19,1.42,0,5.56.37,13.88,3.85,15.65,6.59,28.51,10.94,39.22,13.41,10.88,2.48,22.53,3.73,34.56,3.74,2.79,0,5.25-.51,7.93-.63-48.59-23.14-97.31-46.15-147.49-68.16l-.03,68.5Z"/>
  <path class="cls-1" d="M2584.83,300.07c-9.85-3.25-19.6-6.49-29.21-9.64h-7.93s-1.53,7.31-1.53,7.31c13.04,4.16,25.98,8.46,38.91,12.72l-.23-10.39Z"/>
  <path class="cls-1" d="M2584.58,290.45h-14.76c4.83,1.42,9.73,2.77,14.84,3.99l-.08-3.99Z"/>
  <path class="cls-1" d="M2513.49,364.54c16.72,15.25,26.98,35.08,31.3,60.59l2.3,13.59h41.09s-2.96-121.3-2.96-121.3c-13.25-3.65-27.07-6.99-41.23-10.09-.8,3.26-1.4,5.73-1.55,6.72-1.98-.48-6.71-1.97-16.23-6.51-1.95-.97-3.55-1.53-5.41-2.37-11.35,14.29-23.55,28.03-36.03,41.56,9.86,3.61,19.43,9.32,28.72,17.81Z"/>
  <path class="cls-1" d="M2356.87,473.26c7.28,9.69,15.55,18.92,25.9,27.14,14.87,11.68,38.1,25.28,70.96,41.43,26.63,13.18,38.73,21,44.21,25.23,7.11,5.54,12.35,11.27,15.6,17.02,2.92,5.23,4.39,10.38,4.42,15.71,0,9.21-3.71,16.96-11.72,24.25-8.27,7.6-19.6,11.29-34.62,11.28-20.65.02-39.69-8.11-58.13-24.77-18.67-16.92-31.58-42.24-38.26-75.38l-2.65-13.1h-39.22s-.05,89.02-.05,89.02c50.1,27.76,107.45,50.48,165.47,72.78,27.67-4.22,51.62-15.35,71.26-33.58,26-23.97,39.16-53.19,39.15-86.8.05-26.47-8.2-50.35-24.51-71.06-2.46-3.08-5.83-6.2-8.93-9.29-18.98.63-37.39-9.45-43.59-19.57.8-3.97,4.4-6.01,8.94-7.39-12.69-8.1-26.89-16.26-44-24.72-35.02-17.27-48.34-25.11-53.18-28.54-2.99-2.12-5.23-4.22-7.62-6.32-26.31,25.71-53.07,51.01-79.44,76.66Z"/>
  <path class="cls-1" d="M2457.15,290.41c-35.08,0-64.68,11.35-88.01,33.7-21.77,20.81-33.13,46.23-34.81,75.26.08,3.48-.01,7.36-.15,11.57.56,15.06,4.13,29.19,10.37,42.27,3.45-9.09,14.12-17.89,27.18-15.39,1.36,8.58-38.4,19.41-9.48,25.72,20.27-25.78,44.21-49.08,68.46-72.12-2.35-2.51-4.6-4.99-6.09-7.38-2.03-3.41-3.02-7.37-3.01-12.07-.02-7.45,3.17-13.79,9.92-19.98,7.06-6.5,16.93-9.62,30.2-9.62,5.88,0,11.54,1.03,17.13,2.48,13.37-13.29,26-27.16,37.82-41.47-8.36-3.62-16.08-6.59-22.68-8.33-11.88-3.06-24.25-4.63-36.84-4.64Z"/>
  <path class="cls-1" d="M2926.66,677.84v-42.19s-18.49,0-18.49,0c-.17,14.73-1.47,28.82-4.28,42.19h22.78Z"/>
  <path class="cls-1" d="M2787.08,373.62c-5.32-8.7-14.59-14.67-25.51-19.37v11.85c8.57,2.46,16.79,5.16,25.51,7.52Z"/>
  <path class="cls-1" d="M2647.78,424.95h40.14s2.15-13.91,2.15-13.91c3.3-21.7,11.09-38.35,23.12-49.56.78-.7,1.87-1.25,2.81-1.88-22.96-7.45-45.45-15.23-68.18-22.83l-.04,88.19Z"/>
  <path class="cls-1" d="M2739.9,315.76c2.82,12.67-12.74,12.75-18.88,19.27,29.69,7.64,49.89,21.74,84.97,25.72-20.23,18.09,38.86,42.41,71.37,41.34v-7.62c-24.75-8.43-53.07-14.44-71.37-27.3,27.18.15,52.75,18.38,71.37,20.98v-34.76c-46.9-11.82-93.56-23.78-137.46-37.63Z"/>
  <path class="cls-1" d="M2761.58,474.51l-.05,127.63c-.01,20.47-1.37,25.43-1.4,25.63-.64,1.28-1.84,3.66-3.8,4.71-3.48,2.05-9.07,3.12-16.03,3.13h-27.86s.02,42.2.02,42.2l86.72.02c4.9-8.93,12.79-16.37,25.61-21.39-4.29,7.13-7.51,14.26-10.25,21.38l76.36.03c-.01-14.35-.01-28.67-.03-42.95-3.55-.62-6.16-1.37-7.25-2.02-2.89-1.72-4.33-3.25-4.6-3.77-.22-.53-1.68-5.64-1.71-26.94l.03-191.75c-18.13-3.26-30.88-10.22-52.54-11.07-4.55,30.17-28.28,60.97-63.24,75.16Z"/>
  <path class="cls-1" d="M2647.83,309.6c9.96,3.29,18.93,7.29,25.99,12.55-8.68-1.01-17.37-2.6-25.98-4.41v13.21c25.26,8.31,50.89,16.41,76.76,24.29,7.43-2.65,16.79-4.17,28.35-4.17h.55c-38.76-13.7-91.1-15.63-80.12-52.67h-25.57s0,11.21,0,11.21Z"/>
  <path class="cls-1" d="M2787.08,380.04c-8.72-2.11-17.1-4.42-25.53-6.78l.03,51.3c8.33.05,16.64.08,25.49.45,0-14.96.01-29.96.02-44.96Z"/>
  <path class="cls-1" d="M2969.84,425.01h22.1s-.01-18.83-.01-18.83c-9.3-1.7-18.77-3.31-25.43-6.79,1.92,7.59,2.84,16.34,3.34,25.63Z"/>
  <path class="cls-1" d="M2957,373.65c-8.69-2.27-17.51-4.48-26.31-6.73,1.37,1.49,3.01,2.78,4.14,4.45,3.74,5.37,9.5,16.87,15.66,41.3l1.67,6.64c7.47-11.25,3.94-30,4.84-45.66Z"/>
  <path class="cls-1" d="M2913.67,354.08c.57.26.91.61,1.48.9,14.7,3.54,29,7.37,41.88,12.22,20.4-5.41-3.53-40.95,18.91-44.97-8.65,22.29,2.35,24.42,16.02,23.47v-47.24s-252.15-.06-252.15-.06c34.84,30.8,101.45,39.98,161.81,53.36,7.61.75,11.17,1.87,12.05,2.32Z"/>
  <path class="cls-1" d="M3306.22,585.81c-20.42-1.09-4.21,22.83-9.4,32.15-12.67-3.08-22.66-3.7-31.18-3.23-3.18,3.66-6.45,6.97-10,9.54-7.06,5.09-16.27,7.6-26.53,8.66-3.71,4.95-8.04,9.53-17.26,10.71-8.03-1.19-8.87,2.53-9.43,6.42-17.34-6.62-17.47-15.02-14.34-25.58-5.4-3.58-10.36-7.82-14.59-13.52-9.6-13.1-16.61-30.55-21.29-51.88-13.81-4.58-32.97-5.53-25.26-24.73,7.09.03,14.2.01,21.34.02-1.22-10.5-1.9-21.87-2.18-33.81-38.26-17.02-79.74-35.18-122.58-46.63-1.64,10.79-3,21.73-3,33.23,0,49.43,14.79,92.92,43.96,129.13,37.21,46.13,90.1,69.52,157.47,69.53,67.19,0,120.18-24.45,157.38-72.85,7.52-9.76,13.87-20.02,19.4-30.66-26.59-8.53-56.92-5.06-92.52,3.5Z"/>
  <path class="cls-1" d="M3155.3,315.84c-3.14-3.97-7.01-7.45-11.18-10.69-24.33,8.84-46.58,22.42-66.14,41.6-27.95,27.39-45.55,60.22-53.09,97.72,36.5,6.6,78.63,24.06,120.95,38.5.59-43.71,6.48-77.78,18.16-100.63,13.75-27.01,32.1-39.61,57.79-39.6,13.86,0,25.64,3.63,36.11,11.04,10.39,7.39,19.43,21.08,26.77,40.56,7.79,20.95,11.72,53.64,11.74,97.21,0,12.65-.65,24.2-1.61,35.22,37.01,11.55,78.82,19.82,113.7,32.82,8.35-22.63,12.92-46.84,12.92-72.65.05-26.61-4.62-51.16-13.25-73.71-4.71.3-10.11.14-16.88-.95,1.52-7.46-2.07-11.43-9.44-12.82-.9-8.93,3.8-14.02,10.34-17.83-7.74-12.37-16.57-24.15-27.38-34.9-35.58-35.3-81.6-53.24-136.85-53.26l-8.6.21-9.24-.21c-21.12,0-40.75,3.76-59.39,9.74,4.84,4.99,7.32,9.43,4.56,12.63Z"/>
  <path class="cls-1" d="M3293.12,542.91c1.22-.73,2.39-1.44,3.7-2.09,32.02,14.27,65.67,27.49,103.47,37.78,2.31-4.67,4.29-9.54,6.22-14.4-38.2-10.21-75.55-21.01-112.2-32.34-.37,3.72-.71,7.54-1.19,11.05Z"/>
  <path class="cls-1" d="M3487.66,392.32c-18.72,32.05-28.17,66.46-28.17,102.31,0,16.67,2.12,32.92,6.18,48.78,5.02-6.21,10.14-12.37,14.88-18.66,3.75-7.44,8.22-14.39,14.49-20.14,39.64-57.44,66.7-120.17,68.94-187.44-.01.05-.07.03-.13.07-31.84,17.71-57.42,43.02-76.19,75.08Z"/>
  <path class="cls-1" d="M3708.01,655.56c1.51.34,3.27.67,4.18,1.04-3.23-1.38-4.09-1.44-4.18-1.04Z"/>
  <path class="cls-1" d="M3589.53,335.19c4.33-11.2,8.96-23,13.58-34.9-8.19,2.66-16.28,5.91-24.29,9.61,3.53,8.97,7.07,17.55,10.71,25.28Z"/>
  <path class="cls-1" d="M3586.78,522.85c-6.59-3.96-13.83-8-16.15-14.08-17.24-44.78,21.49-96.6,9.43,0,1.91-2.9,3.61-6.48,5.13-10.48-.22-5.02-.98-9.7-.95-14.87-.03-17.44,2.38-33.64,5.87-49.17-2.85-15.68-9.04-29.03-19.45-34.75-23.94,30.99-45.55,55.99-18.94,89.96-28.56-1.54-45.47,4.86-56.69,15.15-4.67,6.79-9.48,13.51-14.49,20.14-4.45,8.86-7.95,18.36-12.11,27.41,3.1,10.07,7.08,19.9,11.85,29.55,23.94,2.4,54.74,46.12,90.29,29.88-23.61,17.06-44.72,12.97-68.12,5.05,15.13,18.51,33.62,33.79,55.72,45.16,13.74,7.11,28.53,12.37,43.99,16.34,2.21-26.57-4.93-52.18-40.99-47.26,2.59-14.92,25.2-14.79,37.77-6.44-10.58-13.75-4.37-31.91-.63-52.92-1.1-2.72-2.17-5.28-3.08-8.15-3.86-12.63-6.59-26.24-8.45-40.52Z"/>
  <path class="cls-1" d="M3485.47,592.19c2.5,4.38,5.45,8.36,8.18,12.46,6.29.47,12.74.86,20.33.48-5.42-7.11-17.04-9.95-28.51-12.94Z"/>
  <path class="cls-1" d="M3708.01,655.56c-18.73-4.26-79.78-4.99-99.65-11.84-1.32,12.16-2.05,23.96-2.53,35.47,18.37,4.38,37.84,6.72,58.4,6.71,26.41,0,49.84-4.54,70.83-12.17-9.27-5.06-27.24-16.64-27.04-18.17Z"/>
  <path class="cls-1" d="M3665.13,290.98c-.02,1.91.25,3.59-.08,5.71-9.47,0-18.86,0-28.25-.02-.02-1.3,0-2.61-.02-3.9-7.36,1.02-14.74,2.44-21.93,4.27-16.07,44.44-32.85,90.57-24.38,135.98,2.35-10.06,4.83-20.07,8.64-29.19,7.19-17.32,18.23-30.97,33.81-41.62,33.21-22.9,75.12-20.66,106.93,3.82-1-19.49-2.04-40.3-3.19-62.43-24.69-8.34-48.58-12.49-71.52-12.61Z"/>
  <path class="cls-1" d="M3748.76,668.73c16.98-7.92,33.48-19.19,49.27-33.66-5.26-11.57-10.02-23.26-13.44-34.44-3.9-5.46-8.19-9.93-13.01-13.52-5.85,5.86-11.49,10.89-17.11,15.4-1.57,19.05-9.01,43.97-5.7,66.23Z"/>
  <path class="cls-1" d="M3800.68,632.49c3.29-3.06,6.58-6.03,9.78-9.38l4.58-4.71.04-80.6-28.75,33.42c-2.38,2.78-4.76,5.15-7.16,7.73,1.16,6.65,3.01,13.96,5.42,21.68,6.35,8.95,11.52,20.06,16.09,31.87Z"/>
  <path class="cls-1" d="M3626.5,613.07c-2.32-1.79-4.35-3.97-6.47-6.07-3.75-.79-7.59-1.45-11.69-1.84-14.23,48.55,55.89,18.89,75.55,32.12-11.09,1.03-26.8-1.09-28.34,6.44,33.78.53,54.59,9.99,84.97,12.88-6.97-51.01-14.24-31.81-10.42-38.32-34.04,16.27-79.3,13.74-103.6-5.21Z"/>
  <path class="cls-1" d="M3778.31,315.95c-3.01-17.04,52.94,6.02,37.76-19.25,1.33,1.6,3.35,2.72,4.91,4.15v-10.19s-40.6,0-40.6,0l-1.88,14.17c-1.03,7.35-2.94,9.47-5.38,10.95-.53-.07-5.52-.75-24.39-8.17h0c-1.07,20.49-1.45,42.62-1.07,65.39,14.57,14.09,25.18,33.38,31.09,58.03l2.96,12.51,39.29.04v-111.9c-8.73-8.98-9.5-23.39-42.68-15.73Z"/>
  <path class="cls-1" d="M4052.07,534.53c-4.87-6.39-15.63-7.31-27-6.55l26.57,33.4c11.35-3.44,24.05-5.98,38.17-7.55,41.1,26.41,92.08,45.97,149.59,61.18-6.72-6.64-14.08-14.97-21.98-24.84l-49.52-62.03c-10.33,0-20.56-.01-30.89-.01,0-10.69.01-21.42.02-32.12,1.76-.06,3.38-.06,5.11-.13l-11.63-14.56c-36.07,15.49-72.82,27.48-78.43,53.22Z"/>
  <path class="cls-1" d="M3986.06,335.27c12.13,5.16,26.17,9.03,41.2,12.22.72-1.35,1.5-2.84,2.82-3.64,2.09-1.08,7.23-3.01,18.91-2.98h16.34s-.02-42.22-.02-42.22h-42.05c-10.54,13.48-21.46,26.69-37.22,36.62Z"/>
  <path class="cls-1" d="M4024.91,572.84l.03-44.87c-18.56,1.18-38.89,6.59-38.95.12,41.44-22.76,96.95-28.58,141.44-50.6l-21.68-27.22,51.27-41.14c5.73-25.41,32.53-44.41,67.1-53.17,9.47-7.07,13.63-9.55,15.17-10.33,3.4-1.72,9.94-3.91,22.26-4.8l15.27-1.07v-30.15c-2.53,0-5.04.02-7.6,0,4.09-4.78,5.89-8.3,5.87-10.94l-166.21-.02-.02,41.62,15.77.57c16.89.58,21.15,1.94,23.14,2.15-.14.24-2,6.38-18.16,19.95,9,1.36,17.85,2.79,26.31,4.46,16.91-1.77,19.33,6.1,9.47,6.44-14.99-1.15-29.12-2.88-42.97-4.82l-97.5,78.91v-73.64c.03-10.79.45-17.18.85-20.98-12.88-1.97-25.94-3.84-39.71-5.2-7.4,28.63-39.91,55.28-77.15,82.08v151.58c6.63-5.13,13.48-10.19,20.41-15.15,17.74,7.25,45.52,7.62,37.77,32.17-46.51-.55-62.81-4.9-47.2,25.69-4.97-.49-8.6-1.95-11.61-3.78-.36,5.17-.84,7.31-1.01,7.59-.52,1.24-1.56,3.41-3.33,4.39-3.5,2.05-9.06,3.13-16.04,3.12h-27.86s-.02,42.21-.02,42.21h207.58s0-42.18,0-42.18h-16.34c-13.96-.02-18.88-2.07-20.07-2.77-2.91-1.55-4.3-2.96-4.58-3.44-.05-.23-.44-1.7-.82-5.01-14.18-.54-27.91-2.54-39.78-6.54,6.65-19.36,19.76-34.36,38.91-45.26Z"/>
  <path class="cls-1" d="M3860.07,318.46c35.24,8.03,81.3,8.7,116.52,16.82,13.67-12.89,26.88-24.74,38.88-36.62l-155.41-.05.02,19.85Z"/>
  <path class="cls-1" d="M3887.91,340.81c8.4,0,12.77,1.54,14.91,2.76,3.59,2.11,4.41,3.59,4.45,3.58.1.34.72,3.09,1.16,9.99,15.96,5.88,19.65,20.13,20.92,35.95,29-6,23.25-35.59,47.24-44.97-26.5-6.65-78.53-25.03-116.5-23.82l-.04,16.5h27.86Z"/>
  <path class="cls-1" d="M4094.92,616.15c6.88,9.39,10.28,15.2,11.82,18.26-2.25.48-5.68,1.09-10.96,1.57l-14.88,1.33-.05,40.74,213.23.05.02-42.2h-16.38c-7.08,0-13.64-1.91-20.01-5.74-2.93-1.81-6.12-4.21-9.45-7-36.12-10.88-70.32-23.12-111.27-30.76-6.98,9.6-22.65,17.91-42.09,23.75Z"/>
  <path class="cls-1" d="M3919.89,418.79c-.85-7.61-5.45-12.85-10.97-17.33l-.03,24.1c3.67-2.24,7.19-4.61,11-6.77Z"/>
  <path class="cls-1" d="M1305.05,71.26c-15.53-23.93-30.58-48.24-47.83-71.01l-76.47-.02c-2.84,23.53-6.78,46.3-7.9,71.02,44.03.01,88.13,0,132.19.02Z"/>
  <path class="cls-1" d="M1549.25,99.08c-43.59-28.6-90.82-54.7-130.92-85.68,23.5,26.35-11.86,29.2-37.78,38.56-.51-23.18-49.67-13.31-66.07-25.66,5.49-19.83,58.38-7.43,75.54-19.31-2.69-2.1-5.51-4.38-8.4-6.73l-119.65-.02c26.08,33.07,54.03,67.4,81.76,98.81l205.51.03Z"/>
  <path class="cls-1" d="M2749.41.78c1.44,16.03-14.85,19.93-18.87,32.15,37.82,28.23,92.79,44.77,140.32,66.4l181.56.04c75.77-30.3,148.93-62.37,225.69-92.02-.02-2.25-.02-4.5.02-6.73l-593.18-.1c15.04,8.76,29.85,17.72,45.59,26.04,1.3-11.98,6.17-21.52,18.89-25.77ZM2872.13,7.27c-8.6,11.26-17.54,22.32-47.25,19.3-8.07-5.23-5.56-17.64-18.84-19.33,1.29-10.61,39.4,6.77,66.09.03Z"/>
  <path class="cls-1" d="M3306.36,20.22c-44.02-4.06-123.06,26.92-169.94,57.8,41.76-.13,87.03-2.67,93.21,21.36l263.99.04c-8.39-22.45-17.07-44.73-26.77-66.36-10.07-21.88,29.31,29.94,37.01,66.38l133.57.02c40.82-15.6,79.64-32.58,84.36-72.73-12.84,6.24-18.85,17.12-28.41,25.66-64.06-37.21-102.37-16.56-198.21-32.14,63.86-16.81,135.43,1.95,198.22-6.43,8.31-2.2,12.77-6.98,15.24-13.13l-195.72-.05c.17,2.42.5,4.71,1.17,6.74-36.19-4.11-60.9-.18-79.8-6.73l-132.8-.04c-7.67,4.49-15.36,8.93-23.38,13.13,11.05,1.03,26.75-1.08,28.26,6.47Z"/>
  <path class="cls-1" d="M3730.65,99.49l432.16.09c21.52-32.8,43.93-66.95,69.58-98.77l-357.84-.08c-43.25,22.46-88.87,43.32-143.4,58.14-.19,13.57-.48,27.18-.5,40.62ZM3891.63,52.43c23.58,9.76,43.2,22.08,47.24,45-15.74,0-31.48-.03-47.23-.03,0-14.97.01-29.97-.01-44.98ZM3872.78,84.56c-25.06-.05-53.88,2.45-66.08-6.41,6.07-36.09,64.23-24.27,66.08,6.41Z"/>
  <path class="cls-1" d="M929.74,98.97l91.72.02c.66-11.79,1.78-23.88.39-34.24,21.14,3.59,36.54,18.2,46.04,34.24l93.23.02c6.8-31.55,9.63-64.79,9.06-98.8h-135.97c4.66,4.19,6,9.31-2.93,19.56-25.7,6.87-44.24,4.07-56.6-12.88-.59-2.37,1.32-4.58,3.98-6.71h-25.82c-13.25,7.56-25.07,16.07-34.86,26.01-90.21-9.34-150.94,55.21-236,70.61-.22.75-.27,1.36-.47,2.11l151.18.03c11.01-41.68,68.26-31.08,97.04.02Z"/>
  <path class="cls-1" d="M2721.09,39.38c-5.65-20.26-26.43-30.29-49.24-38.88h-17.88c-.06,12.7,9.26,31.73-8.44,32.4-13.79-5.55-29.9-9.6-28.27-25.69-1.11-2.81-1.23-4.94-.85-6.73h-11.81c-38.81,25.13-72,66.41-111.73,98.78l188.82.03c10.49-21.76,21.35-43.25,39.4-59.91Z"/>
  <path class="cls-1" d="M4289.51,99.59c14.18-9.54,27.43-19.65,43.05-28.19V.82s-92.36-.01-92.36-.01c-21.01,31.19-42.09,64.36-66.65,98.76l115.95.02Z"/>
  <path class="cls-1" d="M3731.13,52.4c48.49-11.83,91.41-30.67,132.03-51.67l-136.46-.02c3.73,17.04,7.18,34.42,4.43,51.69Z"/>
  <path class="cls-1" d="M1323.89,90.52c-5.95,3.46-12.11,6.27-18.36,8.52h24.27c-2.05-2.79-4.16-5.52-5.9-8.52Z"/>
  <path class="cls-1" d="M4332.57,99.6l.02-20.54c-12.36,6.28-23.9,13.15-34.62,20.54h34.61Z"/>
  <path class="cls-1" d="M3060.94,97.25c-.8.78-1.83,1.37-2.68,2.11h8.59c-.79-1.69-2.47-2.71-5.9-2.11Z"/>
  <path class="cls-1" d="M2277.37,77.86c11.39,8.64,30.63,11.93,40.8,21.36l62.48.03c-31.51-21.06-61.67-44.12-103.28-21.39Z"/>
  <path class="cls-1" d="M1172.86,84.07c-.7,5.01-1.34,10-2.03,14.94h43.41c-14.38-3.89-28.37-8.99-41.38-14.94Z"/>
  <path class="cls-1" d="M2840.95,99.31c-33.25-24.55-74.19-43.84-119.85-59.93-7.13,23.49-15.99,42.46-26.3,59.91l146.15.03Z"/>
  <path class="cls-1" d="M3712.3,65.26c-21.04,11.38-41.72,22.98-62.96,34.21h69.03c-1.82-11.71-3.79-23.2-6.07-34.21Z"/>
  <path class="cls-1" d="M2592.62.49h-54.63c-6.78,3.19-14.63,5.69-24.6,6.72-.18-2.39-.51-4.57-.78-6.73l-91.9-.03c46.09,11.95,90.53,30.78,130.46,38.91,10.67-15.11,27.16-26.24,41.46-38.87Z"/>
  <path class="cls-1" d="M2448.84,99.25c-8.93-26.35-40.04-58.27-48.74-27.78-38.1-23.37-107.11-25.66-113.28-70.77.29-.09.57-.17.86-.28h-57.45c-.01.1,0,.16-.01.26-4.97.52-8.9.29-12.35-.26l-5.49-.02c61.81,33.07,121.93,67.21,185.89,98.83l50.57.02Z"/>
  <path class="cls-1" d="M1783.06,99.13c-23.08-33.01-59.3-65.86-99.82-98.81l-278.37-.05c51.75,32.85,103.29,65.76,154.75,98.81l223.43.04Z"/>
  <path class="cls-1" d="M578.13,77.55c4.11,6.15,5.78,13.95,8.05,21.36h45.34c-9.8-12.59-41.23-25.02-34.5-47.09-28.31,0-56.69-.03-84.95-.01-5.43,11.3,11.37,37.78-9.43,38.55-46.52.52-18.71-25.18-18.9-44.98,66.48-34.51,137.42-11.55,188.78-19.21-45.28,18.8,34.25,32.74,28.31,64.25C755.78,54.39,845.13,41.77,891.82.18L.19,0l-.02,98.8,370.73.07c4.21-64.4,89.81-26.41,72.91,0l131.52.03c-4.93-9.13-6.12-18.06,2.79-21.35ZM77.78,96.7c-22.75,2.68-20.51-11.72-47.17-6.42,7.91-7.44,12.46-17.21,9.41-32.13,28.83-4.67,34.35,6.59,56.65,6.42-9.64,8.46-9.28,23.69-18.9,32.12Z"/>
  <path class="cls-1" d="M2003.6,52.08c47.38-15.89,87.9-30.4,116.49-51.68l-118.45-.02c-9.07,16.25-12.37,33.84,1.96,51.7Z"/>
  <path class="cls-1" d="M1814.82,71.36c-1.55,7.51-17.19,5.39-28.36,6.41.65,10.18,5.95,17.16,15.38,21.35h46.45c15.73-14.35,3.32-22.39,13.76-40.64,9.11,13.59,25.85,22.01,27.49,40.66l245.8.04c-16.78-10.42-29.88-18.54-65.64-8.54,5.55-24.02,74.43-4.97,56.66-44.96,24.09,7.87,28.21,29.36,28.42,53.5h16.39c6.19-4.81,15.77-8.11,30.67-8.51.65,2.98,1.7,5.7,2.6,8.53h8.06c-19.82-28.52-26.7-56.89,27.14-66.36-2.5,19.77-20.5,28.92-28.31,45.01,4.56,7.21,9.28,14.25,14.03,21.35h39.93c-5.37-24.73.64-25.11,12.09-53.49-27.58-14.36-49.57-32.55-79.51-45.29h-50.8c-.39,21.36,58.18,41.01,35.89,58.14-14.65-22.15-32.14-42.37-56.59-57.88-78.29,50.23-132,89.18-207.68,96.38,5.7-15.37,13.53-29.31,9.44-51.41,18.84.02,37.74.01,56.64.02-9.82-16.24-3.01-30.82,7.52-45.28l-153.18-.03c-8.44,19.13-23.27,33.93-33.74,51.68-.13-7.94-4.36-30-3.54-51.7l-115.18-.02c31.83,29.74,62.33,57.18,90.37,77.45,8.45-5.01,21.37-6.92,37.81-6.4Z"/>
  <path class="cls-1" d="M3523.52,161.65c-22.72,7.9-41.23,18.64-57.17,31.12h72.49c-4.49-10.26-9.45-20.66-15.32-31.12Z"/>
  <path class="cls-1" d="M2163.66,143.1h-37.22c12.58,2.17,25.15,4.09,37.65,5.47.15-1.33-.08-3.23-.43-5.47Z"/>
  <path class="cls-1" d="M2361.05,192.55l231.04.05c32.72-9.23,51.99-27.6,66.19-49.43l-172.73-.02c27.13,13.2,48.16,30.63,75.02,44.05-39.11-12.24-48.08-24.22-85-25.76,11.14-.98,26.86,1.09,28.34-6.43-16.06-.63-24.98-6.09-33.46-11.87h-43.2c-18.07,19.18-45.61,31.97-66.21,49.41Z"/>
  <path class="cls-1" d="M2699.13,192.63c65.19-3.12,121.66-12.15,172.95-24.7,1.73-7.73-10.25-16.56-21.17-24.7l-186.32-.03c-11.41,15.06-23.79,30.85-37.22,49.4l71.75.02Z"/>
  <path class="cls-1" d="M2928.73,155.09c-47.21,16.17-98.55,29.54-157.72,37.54l222.35.05c-16.62-14.34-37.62-26.92-64.64-37.59Z"/>
  <path class="cls-1" d="M2998.86,192.69l131.97.03c23.94-15.85,44.7-33.91,69.15-49.44h-51.89c-17.89,2.34-36.06,2.43-52.22,0l-129.81-.04c-6.72,3.53-13.12,7.3-18.42,11.84,19.85,10.65,35.15,24.37,51.23,37.59Z"/>
  <path class="cls-1" d="M3919.97,168.15c.57-10.41,9.98-19.11,22.38-24.71l-210.2-.04c1.51,17.62,4.18,34.35,9.44,49.42l324.9.06c.02-13.3-1.06-27.49-4.89-43.95,23.87,5.11,24.03,26.4,37.77,38.58,11.66-13.28,22.77-28.28,33.8-44.04l-137.93-.02c-2.25,23.76-37.18,25.34-75.28,24.7Z"/>
  <path class="cls-1" d="M1937.51,148.51c-4.89,9.47-13.96,16.16-18.85,25.71,13.19,6.13,26.6,12.18,39.91,18.27l231.92.04c-8.68-34.02-49.78-45.97-111.34-43.97,12.28,27.22-52.66,34.68-56.67,12.82,4.48-5.83,15.23-12.52,21-18.3h-23.73c3.65,3.55,4.79,6.22-6.7,5.46-12.55,0-25.16,0-37.73-.01.65-1.95.71-3.68.92-5.45l-111.44-.04c14.94,8.19,46.9,4.74,72.71,5.49Z"/>
  <path class="cls-1" d="M.16,142.69v49.43s36.95,0,36.95,0c-7.69-16.94-16.16-33.34-25.08-49.43H.16Z"/>
  <path class="cls-1" d="M3259.14,168.02c-13.67,3.53-48.79-7.53-47.2,6.43,21.72-1.89,27.93,6.73,29.88,18.27l160.67.03c.1-3.92-.39-7.89-1.73-11.85,67.37,14.2,73.74,3.44,113.3-25.72-1.43-3.93-2.92-7.88-4.38-11.85l-211.2-.04c24.1,17.36,143-8.16,149.46,31.21-78.21-2.4-107.77-2.16-149.51-31.2h-60.07c11.01,5.46,18.25,13.47,20.77,24.72Z"/>
  <path class="cls-1" d="M672.51,167.54c-2.06-6.86-1.18-15.73-.11-24.73h-21.33c-.17,13.68,4.71,25.46,21.44,24.73Z"/>
  <path class="cls-1" d="M663.11,173.98c-.6,5.9-.81,12.22-1.27,18.27l1.27-.02c0-6.07,0-12.18,0-18.26Z"/>
  <path class="cls-1" d="M634.75,161.11c-11.34,44.6-67.12-9.26-66.27-18.32h-1.63c-32.15,18.49-68.1,34.38-105.31,49.4l177.28.05c-1.26-10.47-2.33-21.02-4.07-31.13Z"/>
  <path class="cls-1" d="M643.55,142.81h-13.69c3.65,3.15,7.49,7.42,14.37,11.85-1.49-3.1-1.29-7.34-.68-11.85Z"/>
  <path class="cls-1" d="M4216.2,143.49h-39.38c-35.95,4.76-53.93,23.66-59.04,49.4l214.75.03v-49.42s-78.47-.01-78.47-.01c-1.19,1.86-2.6,3.53-3.65,5.48-12.51-2.81-23.69-4.4-34.22-5.47Z"/>
  <path class="cls-1" d="M3580.11,187.38c-43.49,8.16-15.07-32.62-37.74-38.56-.18,12.56,1.29,27.63,3.89,43.95l90,.03c.15-1.77.54-3.81.54-5.41.25,1.77.18,3.61.32,5.41h92.32c-1.48-16.6-3.07-33.16-4.95-49.42l-76.88-.02c8.05,4.6,9.49,13.68,26.96,11.87-2.33,11.33-16.32,14.65-37.77,12.84-3.87-12.87,5.44-16.73,8.83-24.71l-74.23-.02c5.25,16.05,31.68,33.38,8.7,44.03Z"/>
  <path class="cls-1" d="M769.38,192.26c16.88-26.57,48.36-43.21,95.18-49.4l-188.78-.04c.87,19.93,7.32,36.08,17.87,49.42l75.74.02Z"/>
  <path class="cls-1" d="M2258.47,167.83c.49,17.21,19.9,23.98,41.94,24.72h7.62c12.46-.35,25.23-2.27,35.43-5.39-.83,2.1-1.14,3.88-1.13,5.4h14.43c12.79-21.86,45.61-30.09,62.13-49.4l-166.56-.04c2.09,3.95,4.26,7.78,6.14,11.85-2.48-3.47-5.84-7.55-9.59-11.87h-15.66c13.36,11.82,29.01,20.11,44.13,24.73-4.14,9.38-8.28-.64-18.89,0Z"/>
  <path class="cls-1" d="M1862.19,192.46c3.12-30.65,20.91-34.51,1.33-49.43h-31.71c-49.14,18.52-73.87,37.53-110.49,49.4l140.86.03Z"/>
  <path class="cls-1" d="M917.95,186.9c2.77,2.02,6.01,3.73,9.26,5.39l198.97.03c8.91-15.58,16.13-32.22,22.24-49.41h-26.42c4.57,1.64,6.76,4.95,3.66,11.83-18.45,25.02-137.71,16.37-141.34-11.88h-28.72c.15,23.32-15.39,35.96-37.65,44.03Z"/>
  <path class="cls-1" d="M67.25,192.12c1.2-22.56,9.65-40.14,30.32-49.4l-74.58-.03c9.3,15.92,17.79,32.38,25.42,49.42h18.84Z"/>
  <path class="cls-1" d="M295.62,192.18c1.93-5.74,4.82-10.16,8.69-11.84,25.42-4.11,34.38,2.1,36.68,11.84h101.39c40.68-15.72,82.22-30.88,118.85-49.39l-417.38-.07c-.02,16.46-.02,32.96-.01,49.43l151.79.04ZM313.81,154.59c2.78,16.94-36.67,5.08-28.33,25.74-20.5,1.08-4.29-22.79-9.47-32.13,16.95-.8,19.94,7.84,37.8,6.39Z"/>
  <path class="cls-1" d="M1884.47,192.47h59.51c-10.81-5.46-22.13-11.38-34.79-18.27-16.62.38-15.44,12.88-24.72,18.27Z"/>
  <path class="cls-1" d="M2243.26,192.53h37.3c-13.78-1.86-25.53-1.66-37.3,0Z"/>
  <path class="cls-1" d="M1418.29,174.11c-11.66-11.36-25.54-21.25-39.35-31.16l-216.83-.05c-5.92,19.98-15.47,37.42-33.02,49.44h122.07c18.51-5.01,43.45-5.72,75.4.03l79.76.03c1.65-1.25,2.19-3.25,2.5-5.41,6.33.02,12.6,0,18.89.02-1,3.14.52,4.55,3.01,5.39l222.75.04c-12.43-18.24-27.81-34.46-45.03-49.44l-223.76-.03c11.57,11.59,22.91,22.35,33.61,31.16Z"/>
  <path class="cls-1" d="M1682.36,192.43h3.79c49.21-11.54,86.62-31.12,125.92-49.41h-121.06c-4.25,17.01-17.7,31.53-8.65,49.41Z"/>
  <path class="cls-1" d="M68.19,970.87c5.44-27.6-14.31-49.49-25.11-74.4H.02s-.02,98.81-.02,98.81l52.22-.02c8.09-7.44,14.15-15.23,15.97-24.39Z"/>
  <path class="cls-1" d="M2834.21,932.83c31.52-4.4,43.52-22.07,61.27-35.82h-60.07c.77,11.85.54,23.81-1.21,35.82Z"/>
  <path class="cls-1" d="M3807.18,995.99h73.76c-2.44-16.43-5.02-33.08-8.27-50.12-6.82,26.96-41.69,34.77-65.49,50.12Z"/>
  <path class="cls-1" d="M3903.81,897.21h-22.04c.08,1.16.31,2.48.3,3.66,5.2,4.2,13.16,1.56,21.73-3.66Z"/>
  <path class="cls-1" d="M1927.95,900.51c4.38,20.62,35.95,22.63,37.74,44.98,4.8-17.45,4.92-33.27,3.07-48.67h-31.32c-3.12,1.32-6.34,2.55-9.49,3.68Z"/>
  <path class="cls-1" d="M3159.5,897.07h-26.73c10.93,5.43,19.54,4.81,26.73,0Z"/>
  <path class="cls-1" d="M87.09,964.45c12.92-25.67,31.79-47.28,52.08-67.95l-84.72-.02c6.96,25.29,14.82,50.04,32.64,67.97Z"/>
  <path class="cls-1" d="M1095.94,995.47l104.32.03c-.6-1.04-1.15-2.05-1.8-3-21.28-30.41-41.25-61.81-57.3-95.79l-646.28-.12c9.25,9.53,23.24,19.66,26.45,29.4,18.19-2.6,7.48-24.92,37.75-19.32-28.59,39.34,2.11,65.4,28.37,88.67l175.05.1c5.16-4.5,10.46-8.57,13.69-11.56,15.61,2.52,16.85,6.16,14.67,11.51l297.91.1c-3.31-9.88-.05-7.52,7.17,0ZM974.52,932.48c3.99-10.11,29.61-5.48,18.85-25.73,15.7.02,31.47.02,47.21.03.69,24.02-37.05,21.92-66.05,25.7Z"/>
  <path class="cls-1" d="M4332.42,996.08l-.02-7.26c-7.55,2.91-15.58,5.34-23.9,7.25h23.92Z"/>
  <path class="cls-1" d="M2881.44,932.86c-26.54-2.79,23.62,23.96-9.48,25.67-23.33-17.81-36.91-13.21-47.21-12.86,2.32-18,1.43-33.9-.97-48.67h-8.12c-.08,1.23-.18,2.43-.3,3.66-3.23-1.13-6.38-2.36-9.46-3.64l-85.16-.03c-2.21,6.78-6.96,11.67-18.7,10.1,1.18-3.45,2.54-6.74,3.86-10.1h-34.26c3.78,29.31,17.08,57.15,49.27,61.5-2.94,8.76-23.61,5.37-37.73,6.45,5.34,6.12,9.65,18.26,10.76,30.83l133.15.03c-8.53-17.92-20.09-34.23-21.22-43.68,16.18-1.36,24.45,10.96,28.33.01,3.5,14.41,6.61,29,9.65,43.68h28.62c6.63-26.42,38.58-59.49,8.96-62.94Z"/>
  <path class="cls-1" d="M3494.14,897.12c3.92,14.32,4.13,29.59.84,42.28-12.53.02-25.16.01-37.71,0,1.68-18.61-5.37-31.16-14.61-42.3l-264.16-.04c-3.79,1.79-8.12,3.22-13.86,3.66,9.53,10.66,40.03,6.99,56.61,12.9-31.79,12.42,13.14,71.37-56.62,70.68-20.4-20.17,13.3-47.94,28.3-64.3-24.79-8.98-83.68,14.1-56.7,45-9.37,0-18.81.02-28.27,0-13.16,7.26-27.21,19.2-41.37,30.8l586.08.12c-8.1-33.07-16.67-65.81-24.86-98.79l-133.67-.03ZM3287.37,932.91c-100.9,6.38,11.31-70.04,0,0h0Z"/>
  <path class="cls-1" d="M2665.7,896.98h-16.13c12.53,33.56-13.61,85.53-51.42,93.68-64.38-6.67-21.02-51.16-75.46-57.88,23.36-6.59,34.55-21.6,46.72-35.83l-54.14-.02c-30.71,12.2-60.3,23.33-86.51,30.72-6.01,2.79-12.1,4.76-19.38,5.09,6.12-1.37,12.78-3.25,19.38-5.09,15.91-7.45,31.08-21.45,64.42-30.71l-515.55-.13c4.22,20.04,10.82,41.48,6.95,61.55,20.08,11.03,36.51,24.62,54.32,37.26l178.34.04c56.95-18.68,112.67-35.41,163.85-43.64-22.07,11.28-71.18,26.96-125.71,43.64l150.68.04c1.26-1.84,2.45-3.68,3.33-5.11,3.81.9,6.06,2.8,7.72,5.09l261.73.07c3.35-30.29-5.08-65.4-13.14-98.78ZM2371.63,945.57c8.56-11.13,33.07-16.57,47.18-6.38-11.73,19.65-27.42,20.52-47.18,6.38Z"/>
  <path class="cls-1" d="M4231.35,965.23c-21.95,2.02-36.29-1.04-47.18-6.48-12.21,11.9-23.49,24.45-34.33,37.29l80.04.02c-14.09-10.82,6.8-11.15,1.48-30.83Z"/>
  <path class="cls-1" d="M3079.66,984.3c11.47-24.3,37.42-38.8,56.6-57.85-7.34-6.93-11.53-16.1-9.64-29.39h-123.77c-11.41,15.17-23.14,30.91-34.07,47-5.8,10.4-12.36,20.67-19.25,30.64-4.04,7.07-7.63,14.14-10.97,21.12l118.64.03c6.68-4.36,13.86-8.42,22.46-11.54Z"/>
  <path class="cls-1" d="M3796.81,995.97c23.92-17.57,59.7-27.14,75.86-50.1,1.08-17.33.41-33.27-.93-48.67l-118.01-.02c3.07,34.88,8.48,68.17,17.69,98.78h25.38Z"/>
  <path class="cls-1" d="M3742.47,897.17l-104.47-.03c8.73,32.51,17.52,65.04,24.39,98.8l89.98.02c.09-27.84-6.01-60.93-9.9-98.79Z"/>
  <path class="cls-1" d="M1767.43,939.07c22.13,2.05,35.47,10.15,66.11,6.38-1.42-19.71-9.32-35.07-19.84-48.65h-44.11c.89,12.21,1.08,23.74-2.17,42.26Z"/>
  <path class="cls-1" d="M4332.41,922.52l-.02-25.25h-79.61c-3.99,3.32-8.09,6.65-12.04,10.1,29.4,7.33,59.93,11.95,91.67,15.16Z"/>
  <path class="cls-1" d="M4212.52,933.08c9.43,0,18.84,0,28.23,0-.01,8.58,0,17.12,0,25.7,32.09-8.17,59.96-19.16,85.04-32.11-25.54-5.04-103.45-17.55-113.27,6.41Z"/>
  <path class="cls-1" d="M3985.95,945.87c-48.37,1.69-36.77-37.47-66.17-48.66h-11.83c-23,20.59-25.66,63.67-13.35,98.78h25.58c.19-1.5.12-3.13-.42-5.1,12.63,0,25.21.01,37.84.02,2.62,1.7,4.43,3.39,5.79,5.1l176.29.03c19.81-29.05,43.77-57.86,82.26-82.23-63.29-.9-112.99-10.91-169.12-16.58h-29.17c.68,25.22-2.57,47.85-37.72,48.64Z"/>
  <path class="cls-1" d="M1842.96,913.37c2.04-7.32,7.28-12.5,14.17-16.57h-37.79c9.06,13.32,17.41,27.1,23.63,42.31,2.25,11.28,16.21,14.59,37.74,12.84,3.74,15.4-42.96-3.61-28.3,19.29-11.08-1.08-7.92-11.76-9.43-19.3-68.52-2.66-132.03-8.73-188.82-19.32-42.19,5.02-64.06-9.91-9.43-6.42,27.43,7.03,66.97,5.83,94.38,12.92-13.71-29.89-91.78-15.99-110.76-42.32h-9.67c-14.4,9.07-5.27,34.18-30.57,35.83,1.04,12.13,31.21,4.4,28.32,19.26-5.25,11.44-4.84,26.72-18.91,32.13,2.26,3.53,5.3,7.62,8.2,11.57l381.4.06c-11.62-35.11-34.4-62.54-59.15-88.7-34.73,3.4-52.22,18.4-84.99,6.44Z"/>
  <path class="cls-1" d="M2968.77,944.05c8.67-15.53,15.48-31.35,19.4-47.03h-60.91c-5.84,30.88-28.25,61.51-48.04,98.78h54.68c5.3-6.85,10.6-13.82,15.62-21.12,6.89-9.97,13.45-20.24,19.25-30.64Z"/>
  <path class="cls-1" d="M4231.36,907.35c3.86-3.31,7.59-6.7,11.28-10.09h-138.78c43.28,4.16,88.21,7.42,127.5,10.09Z"/>
  <path class="cls-1" d="M1418.17,900.37c-.37-1.18-.6-2.47-.98-3.65h-19.39c6.98,1.09,13.89,2.23,20.37,3.65Z"/>
  <path class="cls-1" d="M2003.43,971.26c-4.15,5.78-6.39,14.53-7.17,24.38l30.66.02c-10.86-8.69-20.03-17.66-23.49-24.39Z"/>
  <path class="cls-1" d="M481.5,896.58l-57.86-.04c-8.36,3.17-19.14,4.43-34.5,3.67.41-1.24.79-2.43,1.2-3.68h-103.47c7.52,8.59,13.72,18.11,17.31,29.37,21.47,14.67-27.13-9.22-18.85-25.68-37.23,10.81-28.88,10.83-66.11-.03,1.44-1.34,2.35-2.41,3.64-3.7h-75.57c-33.66,30.26-62.13,62.18-56.92,98.78l482.94.12c-27.65-36.89-61.62-63.61-91.81-98.81ZM181.47,945.17c-38.19,7.18-46.66-19.76-28.31-32.12,29.47-2.91,30.15,13.73,28.31,32.12ZM228.65,945.17c31.73-10.84,54.98,5.27,75.52,19.33-13.92,26.76-77.52,4.45-75.52-19.33Z"/>
  <path class="cls-1" d="M1569.18,977.64c-4.92,5.77-9.39,11.85-13.9,17.89l37.68.02c-7.33-6.4-15.06-12.51-23.77-17.91Z"/>
  <path class="cls-1" d="M1454.11,995.54c-16.27-27.87-31.02-57.66-26.54-82.24-21.9-10.32-53.06-14.33-86.8-16.6h-58.05c-15.67,13.41-.59,47.71-6.18,67.98-35.05-13.69-64.16-46.42-18.87-64.32-.9-1.61-2.45-2.5-3.78-3.67h-101.9c13.09,34.92,28.26,67.96,46.46,95.79.71,1.02,1.41,2.05,2.1,3l253.56.05Z"/>
  <path class="cls-1" d="M1427.59,900.4c26.08-2.19,66.31,18.46,84.96,0-1.9-1.14-3.54-2.45-5.37-3.65h-80.19c.13,1.26.5,2.35.61,3.65Z"/>
  <path class="cls-1" d="M1550.29,990.45c9.03-26.86.84-41.69,37.81-57.83-1.44-11.89-31.98-4-37.78-12.91-22.29,1.82,10.82,17.17,9.41,25.74-10.58,12.96-23.12-26.56-37.68-32.14-34.4,1.96-61.48-1.03-84.96-6.46-11.07,22.66,9.45,56.36,28.99,88.69h9.63c16.81-26.69,46.81-24.56,74.59-5.09Z"/>
  <path class="cls-1" d="M63.59,995.25l15.67.02c-.62-3.87-1.27-7.75-1.66-11.54-4.88,3.73-9.42,7.65-14.01,11.52Z"/>
  <path class="cls-1" d="M1597.53,919.69c3.82-7.93,8.16-15.53,12.74-22.91l-93.9-.04c27.28,17.57,56.45,28.78,81.16,22.95Z"/>
  <path class="cls-1" d="M4332.43,853.35v-24.72c-11.98,9.07-25.11,17.45-39.85,24.7l39.85.02Z"/>
  <path class="cls-1" d="M41.25,852.58l141.99-.02c9.3-9.52,18.37-19.17,26.59-29.48-6-6.3-12.78-13.04-19.7-19.9l-190.08-.06v49.45s39.11,0,39.11,0c.37-1.34.28-2.51.74-3.86.49,1.26.88,2.62,1.36,3.88Z"/>
  <path class="cls-1" d="M2261.51,803.58c-9.36.93-19.4,1.41-31.46.56.15-.21.34-.36.45-.57l-264.99-.05c-.56,10.59-.96,20.53.21,26.33,1.54,7.52,17.2,5.38,28.36,6.41-7.51,4.89-12.33,10.51-15.35,16.67l375.53.07c-9.72-17.77-25.96-31.06-34.77-49.39l-57.98-.02ZM2069.56,849.1c4.99-5.12,9.82-10.38,9.47-19.24,12.59-.02,25.14-.02,37.68,0,4.36,20.07-20.13,20.53-47.16,19.25Z"/>
  <path class="cls-1" d="M3268.49,836.48c-12.02-11.28-13.69-22.11-9.71-32.72h-63.12c18.22,4.11,34.79,7.13,44.46,7.01,15.73,11.29.63,24.22-1.58,42.39l191.22.03c4.25-.27,8.24-.3,12.05,0h62.68c0-14.12.01-28.23.01-42.37,29.59-3.04,38.53,8,47.17,19.29-2.28,10.09-8.23,17.64-17.31,23.08h82.93c-3.68-16.28-7.17-32.71-10.25-49.38l-159.17-.02c-.05.17,0,.39-.06.57-10.92-1.06-16.76,1.43-18.87,6.43-8.04-1.8-12.37-4.27-15.17-7.02h-25.34c-10.45,18.15-41.05,22.6-82.25,19.88,1.47-7.69,5.51-14.45,11.21-19.91h-37.27c11.84,9.53,2.26,23.76-11.63,32.72Z"/>
  <path class="cls-1" d="M1743.77,803.46c13.14,16.94,27.37,33.13,41.41,49.43h94.61c.27-1.26.36-2.36.94-3.82,4.83.32,8.14,1.79,10.71,3.82l68.64.03c-3.6-15.4-6.58-31.62-7.32-49.39l-209-.07Z"/>
  <path class="cls-1" d="M3089.13,836.45c-1.12-26.43,60.73-16.9,62.77-32.72h-92.46c-3.01,14.1-12.19,30.85-24.76,49.37l158.45.04c2.89-3.73,5.94-7.23,9.27-10.22-17.77-16.51-105.16,22.43-113.26-6.46Z"/>
  <path class="cls-1" d="M3865.45,853.27c-3.48-17.16-7.66-33.49-11.93-49.4l-103.57-.03c.1,16.64.48,33.11,1.12,49.41l114.37.03Z"/>
  <path class="cls-1" d="M3056.63,803.71h-120.06c.05,16.28,4.44,33.66,9.19,49.37h44.47c-1.12-5.62-2.57-11.21-4.97-16.65,42.55,21.73,57.72-12.55,71.38-32.72Z"/>
  <path class="cls-1" d="M219.23,829.5c-6.39,7.72-13.98,15.4-22.17,23.08h35.95c-3.49-6.37-8.22-13.68-13.78-23.08Z"/>
  <path class="cls-1" d="M1238.77,842.55c12.49-8.23,34.82-8.25,47.27.01-2.96,3-5.46,6.39-7.25,10.23h128.53c-3.8-17.91-8.61-35.13-17.79-49.4l-266.23-.02c4.11,16.55,8.69,32.99,13.74,49.39l102.96.02c-1.42-2.72-1.92-6.08-1.22-10.23ZM1172.72,836.1c7.59-13.62,38.84-25.06,56.64-12.85-1.06,16.44-31.61,12.79-56.64,12.85Z"/>
  <path class="cls-1" d="M223.46,803.19h-18.89c4.94,4.5,9.92,9.05,14.68,13.42,1.78-4.03,2.89-8.84,4.21-13.42Z"/>
  <path class="cls-1" d="M3626.68,853.23l113.15.02c-.29-17.28.27-33.74,1.38-49.39l-125.32-.02c3.18,16.75,6.85,33.2,10.8,49.39Z"/>
  <path class="cls-1" d="M2588.76,823.52c10.36,21.55-18.91,16.2-20.67,29.5h52.38c25.4-12.71,45.92-33.69,30.24-49.36l-141.29-.05c4.29,4.6,5.17,11.49,3.79,19.91-12.55,0-25.13,0-37.76-.02-2.93-10.04,2.16-14.6,6.19-19.89l-151.05-.02c4.68,8.46,9.01,17.18,12.76,26.32,18.75-.1,12-17.55,37.77-12.85,14.66,22.87-32.09,3.85-28.35,19.26,4.03,9.48,16.82,12.94,29.25,16.67l111.57.02c.26-1.26.34-2.4.83-3.82,31.55-8.45,58.87-19.85,94.36-25.66Z"/>
  <path class="cls-1" d="M2919.33,803.69c2.68,11.95,2.48,23.52-9.59,32.73,1.56-12.08,1.42-22.89.47-32.74l-93.85-.02c4.14,16.44,8.57,32.87,12.25,49.41l76.57.02c6.27-15.48,18.52-32.58,25.46-49.39h-11.32Z"/>
  <path class="cls-1" d="M4289.65,853.33c12.9-11.32,26.77-22.02,42.79-31.27l.02-18.1-469.31-.1c2.57,15.08,7.27,32.12,11.52,49.41l414.99.07Z"/>
  <path class="cls-1" d="M1399.3,804c5.35,16.63,11.98,32.37,17.6,48.79l41.27.04c-17.04-18.05-34.24-35.95-58.87-48.83Z"/>
  <path class="cls-1" d="M1673.07,829.77c-41.94,28.21,80.77,23.44,94.38,12.9-11.31-12.57-21.59-25.78-31.65-39.19l-309.62-.07c2.39,9.4,16.42,28.81,36.74,49.4l182.8.06c8.43-8.17,17.36-16.01,27.36-23.09Z"/>
  <path class="cls-1" d="M1767.47,852.86l3.76.03c-1.24-1.3-2.55-2.57-3.77-3.85-.04,1.39,0,2.51.01,3.82Z"/>
  <path class="cls-1" d="M391.88,803.2h-31.83c-1.22,5.63-.7,12.45.8,19.88-31.44.03-59.02-2.58-64.97-19.9h-64.26c-4.37,6.43-8.88,12.84-12.37,19.88,4.71,11.35,12.2,20.79,20.73,29.52h161.06c-11.28-13.71-14.9-33.42-9.17-49.39Z"/>
  <path class="cls-1" d="M2626.06,853.03h30.47c-.54-3.39-1.29-6.95-1.66-10.21-9.39,3.15-19.03,6.57-28.81,10.21Z"/>
  <path class="cls-1" d="M2806.25,803.67l-141.68-.02c.69,9.71.75,18.79-.24,26.32,10.96,1.05,16.8-1.42,18.9-6.41-4.16,2.42-8.45,14.13-10.87,29.49l47.39.03c2.02-10.89,3.17-22.39,1.19-35.97,13.4,9.07,23.65,20.26,27.31,35.96h59.8c-3.49-5.75-7.1-11.52-11.61-16.65,7.22-8.87,9.72-20.19,9.81-32.74Z"/>
  <path class="cls-1" d="M596.67,852.67l526.91.06c-5.14-15.72-9.28-32.14-12.17-49.38l-112.93-.02c-12.14,16.73-29.36,29.85-42.85,45.53-32.31-2.1-39.2-21.56-39.4-45.53l-97.81-.04c-.79,1.89-2,4.06-4.4,7.05-1.33-2.75-3.27-5.04-5.58-7.03l-88.84-.04c-.01,4.5-.02,8.98,0,13.48-12.6-.03-25.17,0-37.73-.03-1.16-5.32-.95-9.75.25-13.42l-69.16-.03c-8.18,14.61-16.03,29.39-16.27,49.4Z"/>
</svg>