<?xml version="1.0" encoding="UTF-8"?>
<svg id="Layer_1" data-name="Layer 1" xmlns="http://www.w3.org/2000/svg" viewBox="0 0 1520.24 750.65">
  <defs>
    <style>
      .cls-1 {
        fill: #f73131;
      }

      .cls-1, .cls-2, .cls-3, .cls-4 {
        stroke-width: 0px;
      }

      .cls-2 {
        fill: #0c0c0c;
      }

      .cls-3 {
        fill: #e21510;
      }

      .cls-4 {
        fill: #fff;
      }
    </style>
  </defs>
  <path class="cls-1" d="M1429.61,319.23s-839.67.48-953.62.54l-385.59.22c-32.96.02-59.67,26.76-59.65,59.72l.16,280.55c.02,32.96,26.76,59.67,59.72,59.65l1339.22-.76c32.96-.02,59.67-26.76,59.65-59.72l-.16-280.55c-.02-32.96-26.76-59.67-59.72-59.65Z"/>
  <g>
    <path class="cls-4" d="M205.78,605.24c-11.44-3.31-20.62-7.62-27.56-12.93l12.15-27c6.64,4.86,14.53,8.77,23.68,11.71,9.15,2.95,18.29,4.41,27.44,4.41,10.18,0,17.7-1.52,22.57-4.55,4.87-3.02,7.3-7.05,7.29-12.06,0-3.69-1.44-6.75-4.32-9.18-2.88-2.43-6.57-4.38-11.07-5.86-4.5-1.47-10.59-3.09-18.26-4.86-11.8-2.79-21.47-5.59-28.99-8.39-7.53-2.8-13.98-7.29-19.37-13.49-5.39-6.19-8.08-14.45-8.09-24.78,0-9,2.42-17.15,7.29-24.45,4.86-7.3,12.2-13.1,22.01-17.38,9.81-4.28,21.79-6.43,35.95-6.44,9.88,0,19.54,1.17,28.99,3.52,9.44,2.36,17.7,5.74,24.79,10.16l-11.05,27.22c-14.31-8.1-28.63-12.15-42.93-12.15-10.03,0-17.44,1.63-22.23,4.88-4.79,3.25-7.19,7.53-7.18,12.84,0,5.31,2.77,9.26,8.3,11.83,5.53,2.58,13.98,5.12,25.34,7.62,11.8,2.8,21.47,5.6,28.99,8.39,7.52,2.8,13.98,7.22,19.37,13.26,5.39,6.05,8.08,14.23,8.09,24.56,0,8.85-2.46,16.93-7.4,24.23-4.94,7.3-12.35,13.1-22.23,17.38-9.88,4.28-21.9,6.43-36.06,6.44-12.25,0-24.08-1.65-35.52-4.96Z"/>
    <path class="cls-4" d="M363.09,599.73c-12.91-6.92-23.02-16.47-30.33-28.64-7.31-12.17-10.97-25.84-10.98-41.04,0-15.19,3.63-28.88,10.93-41.05,7.29-12.17,17.39-21.73,30.3-28.67,12.9-6.94,27.39-10.42,43.47-10.42,16.08,0,30.54,3.45,43.37,10.38,12.84,6.93,22.95,16.47,30.33,28.64,7.38,12.17,11.08,25.85,11.09,41.04,0,15.2-3.67,28.88-11.04,41.05-7.37,12.17-17.47,21.73-30.3,28.67-12.83,6.94-27.29,10.42-43.36,10.42-16.08,0-30.57-3.45-43.48-10.38ZM431.34,573.25c7.37-4.21,13.16-10.08,17.36-17.6,4.2-7.53,6.3-16.08,6.29-25.67,0-9.59-2.11-18.14-6.32-25.66-4.21-7.52-10-13.38-17.38-17.58-7.38-4.2-15.64-6.3-24.79-6.29-9.15,0-17.41,2.11-24.78,6.32-7.38,4.21-13.16,10.07-17.36,17.6-4.2,7.53-6.3,16.08-6.29,25.67,0,9.59,2.11,18.14,6.32,25.66,4.21,7.52,10,13.38,17.38,17.58,7.38,4.2,15.64,6.3,24.79,6.29,9.14,0,17.4-2.11,24.78-6.32Z"/>
    <path class="cls-4" d="M518.23,452.5l35.84-.02.07,125.68,77.66-.04.02,29.21-113.51.06-.09-154.89Z"/>
    <path class="cls-4" d="M651.87,452.43l70.36-.04c16.82,0,31.68,3.19,44.59,9.6,12.91,6.41,22.95,15.44,30.11,27.09,7.16,11.65,10.74,25.22,10.75,40.71,0,15.49-3.56,29.06-10.71,40.72-7.15,11.66-17.17,20.7-30.08,27.12-12.91,6.42-27.76,9.64-44.58,9.65l-70.36.04-.09-154.89ZM720.53,577.85c15.49,0,27.84-4.33,37.06-12.97,9.21-8.63,13.82-20.33,13.81-35.08,0-14.75-4.63-26.44-13.85-35.06-9.23-8.62-21.58-12.93-37.07-12.92l-32.75.02.05,96.03,32.75-.02Z"/>
    <path class="cls-4" d="M928.86,599.41c-12.91-6.92-23.02-16.47-30.33-28.64-7.31-12.17-10.97-25.84-10.98-41.04,0-15.19,3.64-28.88,10.93-41.05,7.3-12.17,17.39-21.73,30.3-28.67,12.9-6.94,27.39-10.42,43.47-10.42,16.08,0,30.54,3.45,43.37,10.38,12.84,6.93,22.94,16.47,30.33,28.64,7.38,12.17,11.08,25.85,11.09,41.04,0,15.2-3.67,28.88-11.04,41.05-7.37,12.17-17.47,21.73-30.3,28.67-12.83,6.94-27.29,10.42-43.36,10.42-16.08,0-30.57-3.45-43.48-10.38ZM997.11,572.93c7.37-4.21,13.16-10.08,17.36-17.6,4.2-7.53,6.3-16.08,6.29-25.67,0-9.59-2.11-18.14-6.32-25.66-4.21-7.52-10-13.38-17.38-17.58-7.38-4.2-15.64-6.3-24.79-6.29-9.15,0-17.41,2.11-24.78,6.32-7.38,4.21-13.16,10.07-17.36,17.6-4.2,7.53-6.3,16.08-6.29,25.67,0,9.59,2.11,18.14,6.32,25.66,4.21,7.52,10,13.38,17.38,17.58,7.38,4.2,15.64,6.3,24.78,6.29,9.14,0,17.4-2.11,24.78-6.32Z"/>
    <path class="cls-4" d="M1101.23,591.35c-12.33-12.24-18.49-29.71-18.51-52.43l-.05-86.74,35.85-.02.05,85.41c.02,27.73,11.53,41.59,34.54,41.58,11.21,0,19.76-3.36,25.66-10.08,5.89-6.71,8.84-17.23,8.83-31.54l-.05-85.41,35.4-.02.05,86.74c.01,22.72-6.14,40.2-18.45,52.45-12.31,12.25-29.53,18.38-51.65,18.39-22.13.01-39.35-6.1-51.68-18.34Z"/>
    <path class="cls-4" d="M1287.8,481.27l-49.56.03-.02-29.21,134.97-.08.02,29.21-49.56.03.07,125.68-35.85.02-.07-125.68Z"/>
  </g>
  <path class="cls-3" d="M759.88,104.7c-28.87.02-52.36-23.45-52.38-52.32S730.96.02,759.83,0c28.87-.02,52.36,23.45,52.38,52.32.02,28.87-23.45,52.36-52.32,52.38ZM759.83,11.39c-22.59.01-40.95,18.4-40.94,40.99.01,22.59,18.4,40.95,40.99,40.94,22.59-.01,40.95-18.4,40.94-40.99-.01-22.59-18.4-40.95-40.99-40.94Z"/>
  <circle class="cls-3" cx="759.85" cy="52.35" r="30" transform="translate(543.77 782.71) rotate(-77.46)"/>
  <path class="cls-2" d="M1429.86,749.89l-1343.38.32c-4.4,0-17.97-3.56-17.98-7.97,0-4.4,13.56-7.97,17.97-7.98l1343.38-.32c41.07-.02,74.47-33.46,74.45-74.53l-.16-280.55c-.02-41.07-33.46-74.47-74.53-74.45l-264.19.15c-28.77.02-56.87-10-79.14-28.21L794.99,38.18c-20.23-16.55-49.05-15.89-68.51,1.56l-259.91,233.05c-23.16,20.76-53.04,32.21-84.14,32.22l-292.04.17c-41.07.02-74.47,33.46-74.45,74.53l.16,280.55c.02,41.07,33.46,74.47,74.53,74.45,4.4,0,797.97,3.56,797.98,7.97,0,4.4-793.56,7.97-797.97,7.98-49.86.03-90.45-40.52-90.48-90.38L0,379.72c-.03-49.86,40.52-90.45,90.38-90.48l292.04-.17c27.17-.02,53.27-10.01,73.5-28.15L715.83,27.88c25.35-22.73,62.88-23.59,89.25-2.03l291.28,238.18c19.43,15.89,43.95,24.63,69.04,24.61l264.19-.15c49.86-.03,90.45,40.52,90.48,90.38l.16,280.55c.03,49.86-40.52,90.45-90.38,90.48Z"/>
</svg>