<svg width="512" height="512" viewBox="0 0 512 512" fill="none" xmlns="http://www.w3.org/2000/svg">
<path d="M48 192C39.2 192 32 184.8 32 176L32 86C32 77.2 39.2 70 48 70C56.8 70 64 77.2 64 86L64 140.6C103.2 75.5 174.5 32 256 32C379.7 32 480 132.3 480 256C480 379.7 379.7 480 256 480C176.1 480 106 438.2 66.3 375.2C59.8 364.8 67.7 352 80 352C86 352 91.4 355.2 94.7 360.2C128.9 413 188.4 448 256 448C362 448 448 362 448 256C448 150 362 64 256 64C184.9 64 122.9 102.6 89.7 160L140.5 160.712C149.3 160.712 156.5 167.912 156.5 176.712C156.5 185.512 149.3 192.712 140.5 192.712L48 192Z" fill="black"/>
<path d="M174.879 163.481L151 211.286H226.357L241.429 151H195.131C186.559 151 178.741 155.851 174.879 163.481ZM286.643 211.286H362L338.121 163.481C334.259 155.851 326.441 151 317.869 151H271.571L286.643 211.286ZM226.357 226.357H151V331.857C151 348.483 164.517 362 181.143 362H331.857C348.483 362 362 348.483 362 331.857V226.357H286.643V256.5C286.643 264.836 279.908 271.571 271.571 271.571H241.429C233.092 271.571 226.357 264.836 226.357 256.5V226.357Z" fill="black"/>
</svg>
