<svg width="62" height="3" viewBox="0 0 62 3" fill="none" xmlns="http://www.w3.org/2000/svg">
<g clip-path="url(#clip0_2144_13078)">
<path d="M0 -31H62V3H60.1793C60.179 2.99673 60.1787 2.99347 60.1783 2.9902C60.069 1.89105 59.0893 1.08866 57.9902 1.19801C57.0219 1.29434 56.2839 2.06612 56.1967 3H54.1793L54.1783 2.9902C54.069 1.89105 53.0893 1.08866 51.9902 1.19801C51.0219 1.29434 50.2839 2.06612 50.1967 3H48.1793L48.1783 2.9902C48.069 1.89105 47.0893 1.08866 45.9902 1.19801C45.0219 1.29434 44.2839 2.06612 44.1967 3H42.1793L42.1783 2.9902C42.069 1.89105 41.0893 1.08866 39.9902 1.19801C39.0219 1.29434 38.2839 2.06612 38.1967 3H36.1793L36.1783 2.9902C36.069 1.89105 35.0893 1.08866 33.9902 1.19801C33.0219 1.29434 32.2839 2.06612 32.1967 3H30.1793L30.1783 2.9902C30.069 1.89105 29.0893 1.08866 27.9902 1.19801C27.0219 1.29434 26.2839 2.06612 26.1967 3H24.1793L24.1783 2.9902C24.069 1.89105 23.0893 1.08866 21.9902 1.19801C21.0219 1.29434 20.2839 2.06612 20.1967 3H18.1793L18.1783 2.9902C18.069 1.89105 17.0893 1.08866 15.9902 1.19801C15.0219 1.29434 14.2839 2.06612 14.1967 3H12.1793L12.1783 2.9902C12.069 1.89105 11.0893 1.08866 9.99018 1.19801C9.02187 1.29434 8.28388 2.06612 8.19666 3H6.17929L6.17834 2.9902C6.06899 1.89105 5.08932 1.08866 3.99018 1.19801C3.02187 1.29434 2.28388 2.06612 2.19666 3H0V-31Z" fill="#027F51"/>
</g>
<defs>
<clipPath id="clip0_2144_13078">
<rect width="62" height="3" fill="white"/>
</clipPath>
</defs>
</svg>
