<?xml version="1.0" encoding="utf-8"?>
<!-- Generator: Adobe Illustrator 16.0.0, SVG Export Plug-In . SVG Version: 6.00 Build 0)  -->
<!DOCTYPE svg PUBLIC "-//W3C//DTD SVG 1.1//EN" "http://www.w3.org/Graphics/SVG/1.1/DTD/svg11.dtd">
<svg version="1.1" xmlns="http://www.w3.org/2000/svg" xmlns:xlink="http://www.w3.org/1999/xlink" x="0px" y="0px"
	 width="314.06px" height="84px" viewBox="0 0 314.06 84" enable-background="new 0 0 314.06 84" xml:space="preserve">
<g id="Layer_3">
</g>
<g id="Layer_4">
</g>
<g id="Layer_9" display="none">
	<circle display="inline" fill="#7CBF21" cx="48.561" cy="40.333" r="37.779"/>
</g>
<g id="Layer_1">
	<g>
		<defs>
			<polygon id="SVGID_1_" points="315.727,0 -8.273,0 -22.011,84 317.06,84 			"/>
		</defs>
		<clipPath id="SVGID_2_">
			<use xlink:href="#SVGID_1_"  overflow="visible"/>
		</clipPath>
		<path clip-path="url(#SVGID_2_)" fill="#2874F0" d="M273.23,79.77c-21.645,0-39.252-17.605-39.252-39.24
			c0-21.637,17.607-39.246,39.252-39.246c21.632,0,39.241,17.609,39.241,39.246C312.471,62.164,294.862,79.77,273.23,79.77
			 M273.23,5.186c-19.498,0-35.352,15.859-35.352,35.344c0,19.482,15.854,35.343,35.352,35.343c19.484,0,35.344-15.86,35.344-35.343
			C308.574,21.045,292.714,5.186,273.23,5.186"/>
		<path clip-path="url(#SVGID_2_)" fill="#2874F0" d="M9.56,34.143h221.219c-0.358,2.233-0.551,4.522-0.551,6.857
			c0,19.229,12.664,35.501,30.106,40.929H9.56c-2.012,0-3.643-1.631-3.643-3.643V37.785C5.917,35.773,7.548,34.143,9.56,34.143"/>
	</g>
</g>
<g id="Layer_8">
</g>
<g id="Layer_7">
	<path fill="#7CBF21" d="M293.547,31.604h-16.381c0,0.684,0.135,1.363,0.396,1.999c0.262,0.628,0.642,1.2,1.125,1.681
		c0.485,0.482,1.064,0.863,1.69,1.123c0.632,0.264,1.309,0.393,1.987,0.393h3.04c-1.168,2.632-3.204,4.779-5.756,6.082
		c-2.557,1.313-5.486,1.702-8.292,1.124c-2.815-0.6-5.335-2.14-7.156-4.36c-1.817-2.229-2.821-5.011-2.841-7.889v-0.152
		c0.025-2.492,0.793-4.92,2.195-6.973c1.4-2.047,3.383-3.634,5.689-4.565c2.303-0.915,4.834-1.136,7.25-0.624
		c2.438,0.512,4.653,1.749,6.387,3.523c0.422,0.439,0.813,0.914,1.165,1.402c0.462,0.635,1.066,1.154,1.767,1.508
		c0.689,0.359,1.469,0.542,2.25,0.549h2.745c-1.269-4.033-3.931-7.494-7.505-9.73c-3.58-2.24-7.85-3.129-12.021-2.51
		c-4.176,0.632-7.985,2.729-10.757,5.929c-2.77,3.194-4.306,7.277-4.339,11.501h-1.952c-1.271,0-2.519,0.322-3.634,0.913
		c-1.117,0.601-2.08,1.466-2.784,2.519c-0.71,1.053-1.146,2.255-1.284,3.527c-0.131,1.269,0.047,2.543,0.523,3.717l6.52,16.197
		c0.574,1.442,1.566,2.668,2.847,3.534c1.278,0.869,2.786,1.321,4.33,1.321h26.274c1.548,0,3.056-0.452,4.334-1.321
		c1.274-0.866,2.273-2.092,2.846-3.534l6.522-16.197c0.478-1.174,0.657-2.448,0.53-3.725c-0.131-1.273-0.574-2.48-1.283-3.543
		c-0.705-1.051-1.665-1.915-2.785-2.508C296.07,31.904,294.817,31.604,293.547,31.604"/>
</g>
<g id="Layer_6">
</g>
<g id="Layer_5">
</g>
<g id="Layer_2">
	<g>
		<path fill="#FFFFFF" d="M22.124,73.211c-1.727,0-3.336-0.146-4.829-0.438c-1.493-0.292-2.803-0.739-3.929-1.339
			c-1.127-0.6-1.997-1.375-2.612-2.326s-0.922-2.085-0.922-3.402c0-0.409,0.029-0.855,0.088-1.339
			c0.058-0.482,0.146-0.914,0.263-1.295h4.873c-0.059,0.264-0.125,0.57-0.198,0.922c-0.073,0.352-0.109,0.658-0.109,0.922
			c0,0.937,0.292,1.712,0.878,2.326c0.585,0.615,1.404,1.062,2.458,1.339c1.054,0.278,2.283,0.417,3.687,0.417
			c1.375,0,2.575-0.109,3.6-0.329c1.024-0.22,1.888-0.541,2.59-0.966c0.703-0.424,1.229-0.936,1.581-1.536
			c0.351-0.6,0.526-1.266,0.526-1.997s-0.212-1.354-0.636-1.866c-0.425-0.511-0.988-0.958-1.69-1.338
			c-0.703-0.381-1.5-0.717-2.393-1.01c-0.893-0.292-1.822-0.571-2.787-0.834c-1.113-0.352-2.225-0.725-3.336-1.12
			c-1.112-0.395-2.129-0.899-3.051-1.514c-0.921-0.615-1.653-1.361-2.195-2.239s-0.812-1.96-0.812-3.248
			c0-1.551,0.33-2.882,0.988-3.994c0.659-1.112,1.558-2.034,2.7-2.766c1.141-0.731,2.458-1.28,3.951-1.646
			c1.492-0.365,3.073-0.549,4.741-0.549c1.639,0,3.139,0.147,4.499,0.439c1.361,0.293,2.553,0.725,3.578,1.295
			c1.024,0.57,1.814,1.303,2.371,2.194c0.555,0.894,0.834,1.939,0.834,3.139c0,0.264-0.015,0.571-0.044,0.922
			c-0.03,0.352-0.088,0.762-0.176,1.229h-4.873c0.088-0.322,0.146-0.585,0.176-0.79c0.029-0.205,0.044-0.38,0.044-0.527
			c0-1.199-0.549-2.121-1.646-2.766c-1.098-0.643-2.642-0.965-4.631-0.965c-1.434,0-2.721,0.161-3.863,0.482
			c-1.141,0.322-2.034,0.783-2.677,1.383c-0.644,0.6-0.966,1.354-0.966,2.261c0,0.614,0.168,1.141,0.505,1.58
			c0.336,0.438,0.804,0.819,1.404,1.142c0.6,0.322,1.28,0.622,2.042,0.899c0.76,0.278,1.565,0.534,2.414,0.769
			c1.2,0.381,2.421,0.775,3.666,1.185c1.243,0.41,2.392,0.922,3.446,1.537c1.053,0.614,1.902,1.397,2.546,2.348
			c0.643,0.952,0.966,2.115,0.966,3.49c0,1.785-0.359,3.307-1.076,4.565c-0.717,1.258-1.69,2.282-2.919,3.072
			s-2.627,1.368-4.192,1.734C25.409,73.028,23.792,73.211,22.124,73.211z"/>
		<path fill="#FFFFFF" d="M37.531,80.278l5.399-30.683h3.643l-0.088,3.16h0.352c0.936-1.229,2.033-2.151,3.292-2.766
			c1.258-0.614,2.59-0.922,3.995-0.922c1.638,0,3.036,0.315,4.192,0.944c1.156,0.629,2.041,1.573,2.656,2.831
			c0.614,1.259,0.922,2.81,0.922,4.653c0,0.614-0.022,1.258-0.066,1.931c-0.044,0.674-0.139,1.391-0.285,2.151
			c-0.469,2.663-1.215,4.851-2.239,6.563c-1.025,1.712-2.254,2.984-3.688,3.818c-1.434,0.834-2.985,1.251-4.653,1.251
			c-1.083,0-2.063-0.117-2.941-0.351c-0.878-0.234-1.639-0.6-2.283-1.098c-0.644-0.497-1.156-1.126-1.536-1.888h-0.308l-1.8,10.403
			H37.531z M49.69,69.261c1.317,0,2.443-0.264,3.38-0.79c0.937-0.527,1.705-1.354,2.305-2.48c0.599-1.126,1.046-2.538,1.339-4.235
			c0.146-0.673,0.248-1.244,0.307-1.712c0.058-0.468,0.102-0.885,0.132-1.251c0.029-0.366,0.044-0.695,0.044-0.988
			c0-1.111-0.176-2.019-0.527-2.722c-0.351-0.702-0.856-1.222-1.515-1.558c-0.658-0.337-1.5-0.505-2.524-0.505
			c-1.288,0-2.414,0.3-3.38,0.899c-0.966,0.601-1.756,1.471-2.371,2.612c-0.614,1.141-1.068,2.546-1.36,4.214
			c-0.088,0.556-0.169,1.039-0.242,1.448c-0.073,0.41-0.117,0.769-0.132,1.075c-0.015,0.308-0.022,0.608-0.022,0.9
			c0,1.229,0.19,2.217,0.571,2.963c0.38,0.746,0.907,1.288,1.581,1.624C47.949,69.093,48.753,69.261,49.69,69.261z"/>
		<path fill="#FFFFFF" d="M74.448,73.211c-2.107,0-3.879-0.314-5.313-0.943c-1.433-0.629-2.516-1.587-3.248-2.875
			c-0.732-1.287-1.097-2.926-1.097-4.917c0-0.555,0.029-1.141,0.088-1.755c0.058-0.615,0.146-1.259,0.263-1.932
			c0.468-2.692,1.258-4.901,2.37-6.629c1.112-1.726,2.532-3.007,4.258-3.841s3.76-1.251,6.102-1.251
			c2.135,0,3.922,0.315,5.355,0.944s2.508,1.588,3.227,2.875c0.717,1.288,1.074,2.94,1.074,4.96c0,0.557-0.021,1.135-0.064,1.734
			c-0.045,0.6-0.141,1.236-0.285,1.909c-0.469,2.692-1.244,4.901-2.328,6.628c-1.082,1.728-2.479,3.007-4.191,3.841
			C78.948,72.794,76.875,73.211,74.448,73.211z M74.711,69.437c1.434,0,2.662-0.285,3.688-0.856c1.023-0.57,1.865-1.44,2.523-2.611
			c0.658-1.17,1.133-2.648,1.426-4.434c0.146-0.585,0.242-1.09,0.285-1.515c0.045-0.424,0.074-0.797,0.088-1.119
			c0.016-0.321,0.023-0.614,0.023-0.878c0-1.17-0.184-2.136-0.549-2.897c-0.367-0.761-0.93-1.331-1.691-1.712
			c-0.76-0.38-1.727-0.57-2.896-0.57c-1.434,0-2.656,0.293-3.666,0.878c-1.01,0.586-1.844,1.456-2.502,2.611
			c-0.658,1.157-1.162,2.627-1.514,4.412c-0.088,0.586-0.162,1.098-0.219,1.536c-0.061,0.439-0.104,0.813-0.133,1.119
			c-0.029,0.308-0.043,0.607-0.043,0.9c0,1.171,0.182,2.129,0.549,2.875c0.365,0.746,0.943,1.31,1.732,1.689
			C72.604,69.246,73.569,69.437,74.711,69.437z"/>
		<path fill="#FFFFFF" d="M89.898,72.685l4.038-23.089h3.688l-0.132,3.292h0.308c0.673-0.79,1.434-1.471,2.282-2.041
			c0.849-0.571,1.756-1.01,2.722-1.317c0.966-0.307,1.946-0.461,2.941-0.461c1.229,0,2.333,0.191,3.313,0.571
			s1.763,0.995,2.349,1.843c0.585,0.85,0.878,1.976,0.878,3.381c0,0.468-0.029,0.958-0.088,1.47
			c-0.059,0.513-0.146,1.062-0.264,1.646l-2.59,14.705h-4.564l2.546-14.441c0.059-0.38,0.109-0.746,0.153-1.098
			s0.066-0.673,0.066-0.966c0-0.79-0.147-1.411-0.439-1.865c-0.293-0.454-0.702-0.775-1.229-0.966
			c-0.526-0.19-1.141-0.285-1.843-0.285c-0.82,0-1.632,0.153-2.437,0.461c-0.806,0.307-1.536,0.753-2.195,1.339
			c-0.658,0.585-1.229,1.316-1.712,2.194c-0.482,0.878-0.812,1.888-0.987,3.029l-2.238,12.598H89.898z"/>
		<path fill="#FFFFFF" d="M124.092,73.211c-1.521,0-2.868-0.139-4.038-0.417c-1.171-0.277-2.158-0.673-2.963-1.185
			s-1.404-1.134-1.8-1.866c-0.395-0.73-0.593-1.536-0.593-2.414c0-0.351,0.037-0.688,0.11-1.01c0.072-0.321,0.139-0.599,0.197-0.834
			h4.478c-0.06,0.176-0.104,0.366-0.132,0.571c-0.029,0.205-0.044,0.366-0.044,0.482c0,0.731,0.212,1.324,0.637,1.778
			c0.424,0.453,1.01,0.775,1.756,0.965c0.746,0.191,1.587,0.286,2.523,0.286c0.703,0,1.383-0.066,2.041-0.198
			c0.659-0.132,1.252-0.329,1.778-0.592c0.526-0.264,0.937-0.615,1.229-1.054c0.292-0.439,0.438-0.98,0.438-1.624
			c0-0.556-0.169-1.017-0.505-1.383c-0.337-0.366-0.783-0.673-1.339-0.922c-0.556-0.248-1.192-0.476-1.909-0.681
			c-0.718-0.204-1.471-0.424-2.261-0.658s-1.573-0.497-2.349-0.79c-0.775-0.292-1.478-0.651-2.106-1.076
			c-0.63-0.424-1.135-0.965-1.515-1.624c-0.381-0.658-0.57-1.455-0.57-2.392c0-1.229,0.255-2.312,0.768-3.249
			c0.512-0.936,1.222-1.719,2.129-2.348s1.96-1.104,3.161-1.427c1.199-0.322,2.472-0.483,3.818-0.483
			c1.287,0,2.465,0.117,3.534,0.352c1.067,0.234,1.989,0.586,2.765,1.054s1.376,1.031,1.8,1.689s0.637,1.412,0.637,2.261
			c0,0.41-0.037,0.798-0.109,1.163c-0.074,0.366-0.14,0.608-0.198,0.725h-4.434c0.029-0.176,0.051-0.336,0.066-0.483
			c0.015-0.146,0.021-0.277,0.021-0.395c0-0.644-0.168-1.163-0.505-1.559c-0.336-0.395-0.812-0.688-1.426-0.878
			c-0.615-0.189-1.361-0.285-2.239-0.285c-0.79,0-1.485,0.065-2.085,0.197s-1.119,0.329-1.559,0.593
			c-0.438,0.264-0.775,0.586-1.009,0.966c-0.235,0.381-0.352,0.806-0.352,1.273c0,0.644,0.264,1.148,0.79,1.514
			c0.526,0.366,1.199,0.666,2.02,0.9c0.818,0.234,1.712,0.512,2.678,0.834c0.848,0.264,1.689,0.542,2.523,0.834
			c0.834,0.293,1.603,0.651,2.305,1.075c0.702,0.425,1.258,0.98,1.668,1.668c0.409,0.688,0.614,1.544,0.614,2.568
			c0,1.434-0.271,2.663-0.812,3.687c-0.542,1.025-1.295,1.859-2.261,2.503s-2.078,1.119-3.336,1.426
			C126.873,73.058,125.526,73.211,124.092,73.211z"/>
		<path fill="#FFFFFF" d="M148.191,73.211c-2.106,0-3.878-0.314-5.312-0.943s-2.517-1.587-3.248-2.875
			c-0.731-1.287-1.098-2.926-1.098-4.917c0-0.555,0.029-1.141,0.088-1.755c0.059-0.615,0.146-1.259,0.264-1.932
			c0.468-2.692,1.258-4.901,2.37-6.629c1.112-1.726,2.531-3.007,4.258-3.841s3.761-1.251,6.102-1.251
			c2.136,0,3.922,0.315,5.355,0.944s2.509,1.588,3.227,2.875c0.717,1.288,1.075,2.94,1.075,4.96c0,0.557-0.021,1.135-0.065,1.734
			s-0.14,1.236-0.285,1.909c-0.469,2.692-1.244,4.901-2.327,6.628c-1.083,1.728-2.479,3.007-4.191,3.841
			S150.62,73.211,148.191,73.211z M148.455,69.437c1.434,0,2.662-0.285,3.688-0.856c1.023-0.57,1.865-1.44,2.523-2.611
			c0.658-1.17,1.134-2.648,1.427-4.434c0.146-0.585,0.241-1.09,0.285-1.515c0.044-0.424,0.073-0.797,0.088-1.119
			c0.015-0.321,0.022-0.614,0.022-0.878c0-1.17-0.184-2.136-0.549-2.897c-0.366-0.761-0.93-1.331-1.69-1.712
			c-0.761-0.38-1.727-0.57-2.896-0.57c-1.435,0-2.656,0.293-3.666,0.878c-1.01,0.586-1.844,1.456-2.502,2.611
			c-0.658,1.157-1.163,2.627-1.515,4.412c-0.087,0.586-0.161,1.098-0.219,1.536c-0.06,0.439-0.104,0.813-0.132,1.119
			c-0.029,0.308-0.044,0.607-0.044,0.9c0,1.171,0.183,2.129,0.549,2.875c0.365,0.746,0.943,1.31,1.733,1.689
			C146.347,69.246,147.313,69.437,148.455,69.437z"/>
		<path fill="#FFFFFF" d="M163.642,72.685l4.082-23.089h3.6l-0.132,3.687h0.264c0.38-0.702,0.834-1.367,1.36-1.997
			c0.527-0.629,1.156-1.155,1.888-1.58c0.731-0.424,1.595-0.637,2.59-0.637c0.497,0,0.944,0.044,1.339,0.132
			c0.396,0.088,0.681,0.161,0.856,0.22l-0.703,4.302h-1.58c-0.937,0-1.793,0.146-2.567,0.438c-0.776,0.293-1.449,0.732-2.02,1.317
			c-0.57,0.586-1.047,1.295-1.427,2.129c-0.381,0.834-0.658,1.793-0.834,2.875l-2.15,12.203H163.642z"/>
		<path fill="#FFFFFF" d="M188.75,73.211c-2.166,0-3.98-0.314-5.443-0.943c-1.464-0.629-2.554-1.595-3.27-2.897
			c-0.718-1.302-1.076-2.934-1.076-4.895c0-0.79,0.044-1.594,0.132-2.414c0.088-0.818,0.204-1.595,0.352-2.326
			c0.409-2.048,1.09-3.87,2.041-5.465c0.95-1.595,2.224-2.86,3.818-3.797s3.606-1.405,6.036-1.405c2.02,0,3.701,0.315,5.048,0.944
			c1.346,0.629,2.355,1.565,3.029,2.809c0.673,1.244,1.009,2.788,1.009,4.632c0,0.673-0.051,1.434-0.153,2.282
			s-0.271,1.697-0.505,2.546h-15.978c-0.06,0.41-0.104,0.783-0.132,1.119c-0.029,0.337-0.044,0.681-0.044,1.032
			c0,1.141,0.183,2.092,0.549,2.853c0.365,0.762,0.929,1.317,1.689,1.668c0.761,0.352,1.727,0.527,2.897,0.527
			c0.731,0,1.419-0.088,2.063-0.264c0.643-0.176,1.229-0.453,1.756-0.834c0.526-0.38,0.987-0.87,1.382-1.471
			c0.396-0.6,0.681-1.339,0.856-2.217h4.478c-0.264,1.464-0.71,2.729-1.339,3.797c-0.63,1.069-1.405,1.947-2.326,2.634
			c-0.922,0.688-1.961,1.207-3.117,1.559S190.096,73.211,188.75,73.211z M184.405,58.945h11.237
			c0.059-0.352,0.103-0.681,0.132-0.987c0.028-0.308,0.044-0.593,0.044-0.856c0-0.994-0.169-1.814-0.505-2.458
			c-0.337-0.644-0.842-1.119-1.515-1.427c-0.674-0.308-1.478-0.461-2.414-0.461c-1.2,0-2.261,0.234-3.183,0.702
			c-0.922,0.469-1.689,1.163-2.305,2.085C185.283,56.465,184.785,57.6,184.405,58.945z"/>
		<path fill="#FFFFFF" d="M211.005,73.211c-1.609,0-2.992-0.336-4.147-1.009c-1.156-0.673-2.041-1.639-2.656-2.897
			c-0.614-1.258-0.922-2.766-0.922-4.521c0-0.614,0.022-1.258,0.066-1.932c0.044-0.673,0.139-1.39,0.285-2.15
			c0.351-2.02,0.862-3.753,1.536-5.202c0.673-1.448,1.471-2.647,2.393-3.6c0.922-0.95,1.938-1.66,3.051-2.129
			c1.111-0.468,2.312-0.702,3.6-0.702c1.082,0,2.056,0.117,2.919,0.352c0.862,0.234,1.624,0.593,2.282,1.075
			c0.658,0.483,1.178,1.119,1.559,1.909h0.264l2.019-11.456h4.565l-5.619,31.736h-3.643l0.088-3.16h-0.308
			c-0.937,1.229-2.034,2.15-3.292,2.765C213.786,72.904,212.439,73.211,211.005,73.211z M212.542,69.261c1.316,0,2.45-0.3,3.401-0.9
			c0.951-0.599,1.734-1.47,2.349-2.611s1.054-2.546,1.316-4.214c0.117-0.556,0.198-1.038,0.242-1.448s0.08-0.775,0.109-1.098
			s0.044-0.614,0.044-0.878c0-1.229-0.184-2.217-0.549-2.963c-0.366-0.746-0.893-1.288-1.58-1.624
			c-0.688-0.337-1.485-0.505-2.393-0.505c-1.346,0-2.479,0.263-3.401,0.79c-0.922,0.526-1.684,1.346-2.283,2.458
			s-1.061,2.531-1.383,4.258c-0.088,0.674-0.168,1.244-0.241,1.712c-0.073,0.469-0.125,0.878-0.153,1.229
			c-0.029,0.351-0.044,0.688-0.044,1.009c0,1.64,0.38,2.847,1.142,3.622C209.878,68.873,211.02,69.261,212.542,69.261z"/>
	</g>
</g>
</svg>
