<svg width="165" height="60" viewBox="0 0 165 60" fill="none" xmlns="http://www.w3.org/2000/svg">
<rect width="165" height="60" fill="white"/>
<path d="M2.30542 50.3266H3.52359L2.38277 55.0584C2.20874 55.7536 2.24741 56.2944 2.47945 56.642C2.71148 56.9897 3.13687 57.1635 3.77495 57.1635C4.3937 57.1635 4.91577 56.9897 5.32183 56.642C5.72788 56.2944 5.99859 55.7536 6.17261 55.0584L7.31343 50.3266H8.55093L7.39077 55.1742C7.13941 56.2171 6.69468 57.009 6.03726 57.5305C5.39917 58.0519 4.54839 58.3223 3.50425 58.3223C2.46011 58.3223 1.74468 58.0712 1.35796 57.5498C0.971242 57.0283 0.893899 56.2365 1.14527 55.1935L2.30542 50.3266ZM8.37691 58.1099L10.3105 50.0176L13.9843 54.7687C14.081 54.9038 14.1777 55.039 14.2744 55.1935C14.371 55.348 14.4677 55.5219 14.5837 55.715L15.8793 50.3266H17.0201L15.0865 58.3996L11.3353 53.5519L11.0453 53.1463C10.9486 52.9918 10.8712 52.8566 10.8132 52.6828L9.51773 58.0905H8.37691V58.1099ZM16.9234 58.1099L18.7796 50.3266H20.0171L18.1609 58.1099H16.9234ZM19.9205 58.1099L21.7767 50.3266H26.0113L25.7599 51.4081H22.7628L22.2988 53.3395H25.2959L25.0252 54.4403H22.0281L21.158 58.0905H19.9205V58.1099ZM25.5279 58.1099L27.3841 50.3266H28.6216L26.7654 58.1099H25.5279ZM28.525 58.1099L30.3812 50.3266H34.6158L34.3644 51.4081H31.3673L30.9033 53.3588H33.9003L33.6296 54.4596H30.6326L30.0332 56.9704H33.0302L32.7595 58.1099H28.525ZM34.1904 58.1099L36.0466 50.3266H37.7095C38.7923 50.3266 39.5464 50.3845 39.9525 50.5004C40.3585 50.6163 40.7066 50.7901 40.9773 51.0605C41.3253 51.4081 41.5574 51.8523 41.6541 52.3738C41.7507 52.9146 41.7121 53.5326 41.5574 54.2086C41.3834 54.9038 41.132 55.5026 40.7839 56.0433C40.4359 56.5841 39.9912 57.009 39.4691 57.3566C39.0824 57.627 38.657 57.8008 38.1929 57.9167C37.7482 58.0326 37.0714 58.0905 36.182 58.0905H34.1904V58.1099ZM35.6986 56.9511H36.7427C37.3035 56.9511 37.7482 56.9124 38.0576 56.8352C38.3669 56.7579 38.6376 56.6227 38.889 56.4489C39.2371 56.1978 39.5271 55.8888 39.7591 55.5026C39.9912 55.1356 40.1652 54.6914 40.2812 54.1893C40.3972 53.6871 40.4359 53.2622 40.3779 52.8953C40.3199 52.5283 40.1845 52.2 39.9525 51.9489C39.7785 51.7558 39.5658 51.6399 39.2757 51.5626C38.9857 51.4854 38.541 51.4468 37.9029 51.4468H37.0134L35.6986 56.9511ZM47.2421 54.6141L46.4107 58.1099H45.2505L47.1068 50.3266H48.9824C49.5431 50.3266 49.9298 50.3652 50.1812 50.4232C50.4326 50.4811 50.6259 50.5777 50.7806 50.7322C50.974 50.906 51.1093 51.1571 51.1673 51.4661C51.2253 51.7751 51.206 52.1034 51.1287 52.4704C51.032 52.8373 50.8966 53.185 50.6839 53.494C50.4712 53.803 50.2199 54.0541 49.9492 54.2279C49.7171 54.3631 49.4658 54.479 49.1951 54.5369C48.9244 54.5948 48.499 54.6335 47.9576 54.6335H47.2421V54.6141ZM47.5709 53.5712H47.8802C48.557 53.5712 49.0404 53.494 49.3111 53.3395C49.5818 53.185 49.7558 52.9146 49.8525 52.5283C49.9492 52.1227 49.8912 51.8137 49.6978 51.6592C49.4851 51.4854 49.0597 51.4081 48.4216 51.4081H48.1123L47.5709 53.5712ZM55.3246 58.1099L54.9378 56.1013H51.9214L50.5679 58.1099H49.2724L54.8798 50.0176L56.6201 58.1099H55.3246ZM52.6562 55.039H54.7638L54.4158 53.2622C54.3964 53.1463 54.3771 53.0111 54.3771 52.8759C54.3578 52.7214 54.3578 52.5669 54.3578 52.3931C54.2804 52.5669 54.2031 52.7214 54.1064 52.8759C54.0291 53.0305 53.9517 53.1656 53.8744 53.2815L52.6562 55.039ZM58.399 58.1099L59.2498 54.5562L57.7029 50.3459H58.9984L59.9652 52.9918C59.9845 53.0691 60.0039 53.1463 60.0425 53.2622C60.0812 53.3781 60.1005 53.494 60.1392 53.6099L60.3712 53.2622C60.4486 53.1463 60.5259 53.0498 60.6033 52.9532L62.8656 50.3459H64.1031L60.4873 54.5369L59.6365 58.0905H58.399V58.1099ZM70.1746 54.2665C70.1746 54.2086 70.1939 54.0347 70.2326 53.7644C70.2519 53.5326 70.2712 53.3588 70.2906 53.2043C70.2132 53.3781 70.1359 53.5519 70.0392 53.745C69.9425 53.9189 69.8265 54.112 69.6912 54.2858L66.7134 58.4382L65.7466 54.2086C65.708 54.0347 65.6693 53.8609 65.65 53.7064C65.6306 53.5519 65.6113 53.3781 65.6113 53.2236C65.5726 53.3781 65.5146 53.5519 65.4566 53.745C65.3986 53.9189 65.3212 54.112 65.2246 54.3051L63.4843 58.1292H62.3435L66.0753 50.0176L67.1388 54.9232C67.1582 55.0004 67.1775 55.1356 67.1968 55.3094C67.2162 55.4832 67.2548 55.715 67.2935 55.9854C67.4289 55.7536 67.6029 55.4832 67.8349 55.1356C67.8929 55.039 67.9509 54.9811 67.9703 54.9232L71.3347 50.0176L71.2187 58.1292H70.0779L70.1746 54.2665ZM72.2242 58.1099L74.0804 50.3266H78.315L78.0636 51.4081H75.0666L74.6025 53.3588H77.5996L77.3289 54.4596H74.3318L73.7324 56.9704H76.7294L76.4587 58.1099H72.2242ZM77.8703 58.1099L79.8039 50.0176L83.4777 54.7687C83.5744 54.9038 83.6711 55.039 83.7677 55.1935C83.8644 55.348 83.9611 55.5219 84.0771 55.715L85.3726 50.3266H86.5134L84.5798 58.3996L80.8287 53.5519L80.5386 53.1463C80.4419 52.9918 80.3646 52.8566 80.3066 52.6828L79.0111 58.0905H77.8703V58.1099ZM90.458 51.3888L88.8531 58.0905H87.6156L89.2205 51.3888H87.2095L87.4609 50.3073H92.7203L92.4689 51.3888H90.458ZM91.7535 56.5455L92.8556 56.082C92.875 56.4296 92.9716 56.7 93.1843 56.8738C93.397 57.0476 93.6871 57.1442 94.0738 57.1442C94.4412 57.1442 94.7505 57.0476 95.0212 56.8352C95.2919 56.6227 95.466 56.3523 95.5433 56.0047C95.6593 55.5412 95.3886 55.1356 94.7312 54.788C94.6345 54.73 94.5765 54.6914 94.5185 54.6721C93.7837 54.2472 93.3197 53.8802 93.1263 53.5326C92.933 53.185 92.8943 52.7794 93.0103 52.2965C93.165 51.6592 93.4937 51.1571 94.0158 50.7515C94.5378 50.3652 95.1179 50.1528 95.814 50.1528C96.3748 50.1528 96.8195 50.2686 97.1482 50.4811C97.4769 50.6935 97.6509 51.0219 97.7089 51.4274L96.6261 51.9296C96.5295 51.6785 96.4134 51.5047 96.2587 51.3888C96.1041 51.2729 95.9107 51.215 95.6787 51.215C95.35 51.215 95.0599 51.3116 94.8279 51.4854C94.5958 51.6592 94.4412 51.891 94.3638 52.2C94.2478 52.6635 94.5765 53.1077 95.3306 53.5133C95.3886 53.5519 95.4273 53.5712 95.466 53.5905C96.1234 53.9382 96.5681 54.2858 96.7615 54.6335C96.9548 54.9811 96.9935 55.3867 96.8775 55.9081C96.7035 56.642 96.3361 57.2214 95.7753 57.6656C95.2146 58.0905 94.5572 58.3223 93.7837 58.3223C93.1457 58.3223 92.6429 58.1678 92.2949 57.8588C91.9082 57.5498 91.7341 57.1056 91.7535 56.5455ZM100.861 58.1099L102.717 50.3266H103.954L102.098 58.1099H100.861ZM103.877 58.1099L105.811 50.0176L109.485 54.7687C109.581 54.9038 109.678 55.039 109.775 55.1935C109.871 55.348 109.968 55.5219 110.084 55.715L111.379 50.3266H112.52L110.587 58.3996L106.836 53.5519L106.545 53.1463C106.449 52.9918 106.371 52.8566 106.313 52.6828L105.018 58.0905H103.877V58.1099ZM116.465 51.3888L114.86 58.0905H113.622L115.227 51.3888H113.216L113.468 50.3073H118.727L118.476 51.3888H116.465ZM117.799 58.1099L119.655 50.3266H123.909L123.658 51.4081H120.661L120.197 53.3588H123.194L122.923 54.4596H119.926L119.327 56.9704H122.324L122.053 58.1099H117.799ZM125.437 54.6141L124.605 58.0905H123.445L125.301 50.3073H127.022C127.525 50.3073 127.912 50.3459 128.163 50.4038C128.434 50.4618 128.646 50.5777 128.801 50.7322C128.994 50.9253 129.111 51.1571 129.169 51.4661C129.227 51.7558 129.207 52.0841 129.13 52.4511C128.975 53.0691 128.724 53.5712 128.337 53.9189C127.95 54.2665 127.467 54.479 126.887 54.5562L128.646 58.0905H127.254L125.572 54.6141H125.437ZM125.746 53.6292H125.978C126.636 53.6292 127.08 53.5519 127.332 53.3974C127.583 53.2429 127.757 52.9725 127.854 52.5669C127.95 52.142 127.912 51.833 127.718 51.6592C127.525 51.4854 127.119 51.3888 126.5 51.3888H126.268L125.746 53.6292ZM129.401 58.1099L131.257 50.3266H135.491L135.24 51.4081H132.243L131.779 53.3395H134.776L134.505 54.4403H131.508L130.638 58.0905H129.401V58.1099ZM139.61 58.1099L139.223 56.1013H136.207L134.853 58.1099H133.558L139.165 50.0176L140.905 58.1099H139.61ZM136.922 55.039H139.03L138.682 53.2622C138.662 53.1463 138.643 53.0111 138.643 52.8759C138.624 52.7214 138.624 52.5669 138.624 52.3931C138.546 52.5669 138.469 52.7214 138.372 52.8759C138.295 53.0305 138.218 53.1656 138.14 53.2815L136.922 55.039ZM148.949 52.2193C148.678 51.9103 148.35 51.6785 148.002 51.5433C147.654 51.3888 147.267 51.3116 146.822 51.3116C145.991 51.3116 145.256 51.582 144.599 52.1227C143.941 52.6635 143.516 53.3781 143.303 54.2472C143.11 55.0777 143.187 55.7729 143.574 56.333C143.941 56.8738 144.521 57.1442 145.295 57.1442C145.739 57.1442 146.184 57.0669 146.629 56.8931C147.074 56.7386 147.518 56.4875 147.982 56.1592L147.634 57.5884C147.248 57.8395 146.842 58.0133 146.416 58.1292C145.991 58.245 145.565 58.303 145.101 58.303C144.521 58.303 143.999 58.2064 143.554 58.0133C143.11 57.8202 142.742 57.5305 142.452 57.1442C142.162 56.7772 141.988 56.333 141.911 55.8309C141.834 55.3287 141.853 54.788 142.008 54.2086C142.143 53.6292 142.375 53.1077 142.684 52.6056C142.994 52.1034 143.4 51.6592 143.864 51.2923C144.328 50.906 144.831 50.6163 145.372 50.4232C145.913 50.23 146.455 50.1335 147.016 50.1335C147.46 50.1335 147.866 50.1914 148.253 50.3266C148.62 50.4618 148.969 50.6549 149.278 50.9253L148.949 52.2193ZM149.065 58.1099L150.921 50.3266H155.156L154.905 51.4081H151.908L151.444 53.3588H154.441L154.17 54.4596H151.173L150.573 56.9704H153.57L153.3 58.1099H149.065Z" fill="#3D3D3C"/>
<path d="M126.557 43.5472H118.068L129.863 1H138.352L126.557 43.5472ZM122.148 2.33262C121.568 1.52146 120.659 1.11588 119.422 1.11588H72.7833L70.4824 9.45923H112.905L110.43 18.3627H76.4958V18.3433H68.0074L60.9691 43.7403H69.4576L74.1755 26.706H112.325C113.524 26.706 114.646 26.3004 115.69 25.4893C116.734 24.6781 117.43 23.6738 117.759 22.4764L122.477 5.44206C122.844 4.16738 122.728 3.14378 122.148 2.33262ZM56.0191 40.882C55.555 42.5622 54.0081 43.7403 52.2679 43.7403H8.51069C7.31186 43.7403 6.42241 43.3348 5.84233 42.5236C5.26225 41.7124 5.1269 40.7082 5.47495 39.5107L16.1484 1.11588H24.6369L15.1042 35.4163H49.0581L58.5908 1.11588H67.0792L56.0191 40.882Z" fill="#70706E"/>
<path d="M153.009 1.08008L163.741 22.402L141.176 43.7239L153.009 1.08008Z" fill="#098041"/>
<path d="M145.47 1.08008L156.202 22.402L133.617 43.7239L145.47 1.08008Z" fill="#E97626"/>
</svg>
