<svg width="16" height="15" viewBox="0 0 16 15" fill="none" xmlns="http://www.w3.org/2000/svg">
<path d="M13.915 6.5011C13.8749 6.23022 14.0655 5.96937 14.3364 5.92924C14.6073 5.88911 14.8681 6.07973 14.9083 6.35061C14.9584 6.69172 14.9885 7.03283 14.9986 7.37394C15.0287 9.19987 14.3765 10.9355 13.2629 12.2899C12.1393 13.6443 10.5441 14.6175 8.67802 14.9084C8.33691 14.9586 7.98577 14.9887 7.6246 14.9987C5.55789 15.0288 3.67176 14.2162 2.29729 12.8919C0.902764 11.5575 0.0399619 9.69146 -0.000168477 7.62475C-0.0302662 5.55804 0.782373 3.67191 2.10668 2.29745C3.45104 0.902916 5.30707 0.040113 7.38382 -1.73896e-05C8.30682 -0.01005 9.18968 0.140439 10.0124 0.431384C10.8651 0.732362 11.6477 1.19386 12.3299 1.76572C12.5406 1.9463 12.5707 2.26735 12.3901 2.47803C12.2095 2.68872 11.8885 2.71881 11.6778 2.53823C11.0858 2.0366 10.4137 1.64533 9.67125 1.38448C8.95893 1.13367 8.18642 0.993209 7.38382 1.01327C5.59802 1.04337 3.98277 1.79582 2.82902 2.98969C1.67527 4.18357 0.972993 5.81888 1.00309 7.61472C1.03319 9.40052 1.78563 11.0158 2.97951 12.1695C4.17339 13.3233 5.8087 14.0255 7.60453 13.9954C7.91554 13.9954 8.21652 13.9653 8.5175 13.9152C10.1327 13.6644 11.5072 12.8216 12.4804 11.6478C13.4535 10.474 14.0154 8.96912 13.9853 7.394C13.9853 7.10306 13.9552 6.80208 13.905 6.5011H13.915ZM13.3532 2.67868H14.0254V3.70201H15.0487V4.52468H14.0254V5.548H13.2027V4.52468H12.1794V3.70201H13.2027V2.67868H13.3532ZM5.78864 10.5944H4.58472V6.04963C4.14329 6.46097 3.63163 6.77198 3.02967 6.9626V5.86905C3.34068 5.76872 3.68179 5.56807 4.053 5.28716C4.4242 4.99621 4.67502 4.66514 4.80544 4.2839H5.7786V10.6044L5.78864 10.5944ZM8.21652 7.19335C7.90551 7.06293 7.68479 6.88234 7.54434 6.65159C7.40388 6.42084 7.33365 6.17003 7.33365 5.89915C7.33365 5.42761 7.49418 5.04637 7.82525 4.73536C8.14629 4.43439 8.61783 4.27387 9.21978 4.27387C9.82174 4.27387 10.2832 4.42435 10.6043 4.73536C10.9354 5.03634 11.0959 5.42761 11.0959 5.89915C11.0959 6.19009 11.0156 6.45094 10.8651 6.68169C10.7146 6.91244 10.504 7.08299 10.223 7.20338C10.5742 7.34384 10.835 7.54449 11.0156 7.81537C11.1962 8.08625 11.2865 8.39726 11.2865 8.7484C11.2865 9.33029 11.1059 9.80182 10.7347 10.163C10.3635 10.5242 9.8719 10.7048 9.25991 10.7048C8.68805 10.7048 8.21652 10.5543 7.83528 10.2533C7.38382 9.90215 7.1631 9.41055 7.1631 8.78853C7.1631 8.44742 7.24336 8.13641 7.41391 7.84547C7.58447 7.56456 7.84532 7.34384 8.20649 7.18332L8.21652 7.19335ZM8.46734 5.97941C8.46734 6.22019 8.53757 6.41081 8.66799 6.54123C8.80845 6.67165 8.979 6.74188 9.20975 6.74188C9.4405 6.74188 9.62109 6.67165 9.75151 6.54123C9.89197 6.40077 9.95216 6.22019 9.95216 5.97941C9.95216 5.74866 9.88193 5.56807 9.75151 5.43765C9.61105 5.29719 9.4405 5.23699 9.21978 5.23699C8.99906 5.23699 8.80845 5.30722 8.66799 5.44768C8.52753 5.58813 8.46734 5.76872 8.46734 5.99947V5.97941ZM8.35698 8.66814C8.35698 8.99922 8.43724 9.26006 8.60779 9.45068C8.77835 9.6413 8.98903 9.73159 9.23985 9.73159C9.49066 9.73159 9.69131 9.6413 9.85183 9.46071C10.0124 9.28013 10.0926 9.01928 10.0926 8.67817C10.0926 8.37719 10.0124 8.14645 9.8418 7.96586C9.68128 7.78527 9.4706 7.69498 9.20975 7.69498C8.9188 7.69498 8.69809 7.7953 8.55763 8.00599C8.41717 8.20664 8.34695 8.42736 8.34695 8.66814H8.35698Z" fill="black"/>
</svg>
