<svg width="69" height="28" viewBox="0 0 69 28" fill="none" xmlns="http://www.w3.org/2000/svg">
<path d="M17.9566 7.66762C14.3209 10.0197 14.8973 14.9643 18.5329 16.5637C18.5055 16.6542 18.4798 16.7446 18.4487 16.8387C17.8675 18.4482 16.9855 19.9352 15.8487 21.2226C15.6797 21.4168 15.4963 21.5982 15.2998 21.7653C14.4344 22.5089 13.45 22.6808 12.3723 22.328C12.0795 22.2321 11.7959 22.1109 11.5123 21.9897C10.9563 21.7427 10.3543 21.6129 9.74479 21.6085C9.13524 21.6042 8.53145 21.7254 7.97185 21.9643C7.66629 22.0856 7.36439 22.2122 7.057 22.3262C5.9976 22.7188 5.04432 22.5505 4.19534 21.8051C3.88264 21.53 3.59149 21.2318 3.3244 20.9132C1.66503 18.9437 0.572292 16.5689 0.160841 14.038C-0.0770207 12.5906 -0.0733612 11.1305 0.380406 9.71027C0.890893 8.10908 1.84417 6.84984 3.38295 6.09176C4.65277 5.46576 5.96833 5.3373 7.31682 5.84209C7.73582 5.99949 8.15665 6.14966 8.572 6.31792C8.83861 6.42809 9.1247 6.48482 9.41366 6.48482C9.70262 6.48482 9.98871 6.42809 10.2553 6.31792C10.927 6.04507 11.6136 5.8095 12.3119 5.61231C13.3025 5.36457 14.3441 5.40338 15.313 5.72412C16.2819 6.04486 17.1372 6.63403 17.7772 7.42156C17.834 7.49213 17.8834 7.57354 17.9566 7.66762Z" fill="#636363"/>
<path d="M27.883 22.3406H24.6535C24.5932 22.1362 24.573 1.99559 24.6371 1.58851C24.7286 1.58851 24.82 1.57403 24.9225 1.57403H32.3657C33.3948 1.5522 34.4179 1.73301 35.3756 2.10595C36.2292 2.43419 36.998 2.94678 37.6257 3.6063C38.2534 4.26582 38.7243 5.05562 39.0039 5.91805C39.5766 7.52323 39.5766 9.27384 39.0039 10.879C38.2171 13.0972 36.6088 14.4487 34.3217 15.0276C33.6335 15.1917 32.9271 15.2689 32.2194 15.2574H27.883V22.3406ZM27.8939 12.5345C27.9726 12.5345 28.0202 12.5453 28.0769 12.5453C29.3412 12.5453 30.6074 12.5598 31.8717 12.5345C32.3293 12.5268 32.7843 12.4661 33.2275 12.3536C34.7334 11.9646 35.672 11.0201 35.9867 9.49494C36.1214 8.84661 36.1338 8.17926 36.0233 7.52647C35.7983 6.15868 35.0737 5.17445 33.749 4.64976C33.2794 4.45483 32.7778 4.34631 32.2688 4.32952C30.8636 4.30781 29.4602 4.30781 28.0604 4.29877C28.0079 4.30329 27.9559 4.31237 27.9049 4.32591L27.8939 12.5345Z" fill="#636363"/>
<path d="M50.1282 13.3505C50.1282 12.6611 50.2106 11.9718 49.9983 11.3006C49.9057 10.9973 49.7467 10.7179 49.5326 10.4821C49.3185 10.2464 49.0546 10.0601 48.7596 9.93641C48.1413 9.67982 47.4707 9.57074 46.8018 9.61798C46.2829 9.62969 45.7727 9.75318 45.307 9.97983C44.9805 10.1306 44.6916 10.3506 44.4608 10.6242C44.2299 10.8978 44.0628 11.2183 43.9713 11.5629C43.9585 11.6082 43.9365 11.6534 43.9164 11.7077H41.0072C41.0011 11.3898 41.0456 11.0729 41.1389 10.7687C41.4383 9.71339 42.1178 8.80283 43.0491 8.20857C43.8611 7.66612 44.7882 7.31516 45.7589 7.18273C47.1046 6.9638 48.4836 7.0611 49.7843 7.46678C50.8257 7.76789 51.7425 8.39044 52.4007 9.24347C52.9138 9.92732 53.2122 10.7452 53.2589 11.5955C53.2735 11.8108 53.2772 12.0279 53.2772 12.245V22.3316H50.2691V19.8493C50.2139 19.8965 50.1625 19.9479 50.1154 20.0031C49.2921 21.3564 48.0479 22.1127 46.5127 22.404C45.2322 22.6638 43.901 22.507 42.7179 21.9571C40.9285 21.1266 40.0813 19.4241 40.2552 17.5896C40.3887 16.1747 41.1279 15.1688 42.3721 14.5138C43.167 14.0941 44.0372 13.8323 44.9337 13.7431C45.973 13.6327 47.0196 13.5766 48.0625 13.5043C48.7084 13.4572 49.3543 13.4247 50.0002 13.3848C50.0435 13.376 50.0863 13.3645 50.1282 13.3505ZM50.1282 15.5632C50.0038 15.5632 49.9068 15.5632 49.8099 15.5632C48.5675 15.641 47.3251 15.7079 46.0828 15.8074C45.453 15.8426 44.8413 16.0289 44.3006 16.3502C43.9393 16.5676 43.6627 16.899 43.5153 17.2909C43.3679 17.6829 43.3583 18.1125 43.4882 18.5105C43.6804 19.1853 44.1707 19.596 44.8093 19.8131C45.7961 20.1605 46.8759 20.1477 47.8539 19.7769C48.8822 19.4151 49.6269 18.7402 49.98 17.6909C50.2124 16.9979 50.1191 16.2887 50.1282 15.5632Z" fill="#636363"/>
<path d="M56.0803 27.9222V25.4399C56.2175 25.449 56.3364 25.4653 56.4462 25.4635C56.8232 25.4635 57.2037 25.4779 57.5788 25.4418C57.9494 25.4166 58.3068 25.2961 58.6159 25.0924C58.9249 24.8887 59.1748 24.6087 59.3408 24.2802C59.5403 23.9093 59.6537 23.4932 59.8367 23.1114C60.0672 22.632 59.9959 22.1923 59.8147 21.7038C58.0838 17.0161 56.3767 12.3174 54.6604 7.62423C54.6238 7.52291 54.5927 7.42159 54.5488 7.29856H57.9539C58.5925 9.33035 59.2347 11.3766 59.8751 13.4229C60.5155 15.4692 61.1559 17.4973 61.7853 19.5345H61.8658C63.1417 15.4649 64.4189 11.3857 65.6972 7.29675H68.9998C68.9614 7.41616 68.9303 7.52472 68.8919 7.63146L65.3496 17.4503C64.6433 19.4079 63.9377 21.3649 63.2326 23.3213C62.9937 24.0104 62.6918 24.6766 62.3306 25.3115C62.1718 25.585 61.9977 25.8496 61.8091 26.1039C61.015 27.1714 59.93 27.7449 58.6126 27.9222C57.8795 28.0057 57.1402 28.0215 56.4041 27.9693C56.2954 27.9594 56.1873 27.9437 56.0803 27.9222Z" fill="#636363"/>
<path d="M13.7758 0C14.1125 2.45878 11.8455 5.36624 9.24366 5.16904C9.16683 4.83619 9.16683 4.49051 9.24366 4.15766C9.43142 3.13512 9.92985 2.19344 10.6725 1.45808C11.4152 0.722729 12.3669 0.228627 13.4008 0.0416127C13.5249 0.0206314 13.6501 0.00673756 13.7758 0Z" fill="#636363"/>
</svg>
