<?xml version="1.0" encoding="utf-8"?>
<!-- Generator: Adobe Illustrator 26.5.0, SVG Export Plug-In . SVG Version: 6.00 Build 0)  -->
<svg version="1.1" id="Layer_1" xmlns="http://www.w3.org/2000/svg" xmlns:xlink="http://www.w3.org/1999/xlink" x="0px" y="0px"
	 viewBox="0 0 1792 1792" style="enable-background:new 0 0 1792 1792;" xml:space="preserve">
<style type="text/css">
	.st0{fill:#727272;}
</style>
<path class="st0" d="M896,78.5l896,358.4v119.5h-119.5c0,16.2-6.4,30.2-19.1,42c-12.8,11.8-27.8,17.7-45.3,17.7H183.9
	c-17.4,0-32.5-5.9-45.3-17.7c-12.8-11.8-19.1-25.8-19.1-42H0V436.9L896,78.5z M238.9,675.9h238.9v716.8h119.5V675.9h238.9v716.8
	h119.5V675.9h238.9v716.8h119.5V675.9h238.9v716.8h55.1c17.4,0,32.5,5.9,45.3,17.7c12.8,11.8,19.1,25.8,19.1,42v59.7H119.5v-59.7
	c0-16.2,6.4-30.2,19.1-42c12.8-11.8,27.8-17.7,45.3-17.7h55.1L238.9,675.9L238.9,675.9z M1727.6,1571.9c17.4,0,32.5,5.9,45.3,17.7
	c12.8,11.8,19.1,25.8,19.1,42v119.5H0v-119.5c0-16.2,6.4-30.2,19.1-42c12.8-11.8,27.8-17.7,45.3-17.7H1727.6z"/>
</svg>
