<svg width="25" height="25" viewBox="0 0 25 25" fill="none" xmlns="http://www.w3.org/2000/svg">
<g clip-path="url(#clip0_1372_36038)">
<path d="M5.3 2.3C5.3 2 5.3 1.8 5.3 1.6C5.3 0.7 6 0 6.8 0C7.7 0 8.3 0.7 8.3 1.6C8.3 1.8 8.3 2 8.3 2.3C11 2.3 13.6 2.3 16.3 2.3C16.3 2.1 16.3 1.8 16.3 1.6C16.3 0.7 17 0 17.9 0C18.8 0 19.4 0.7 19.4 1.6C19.4 1.8 19.4 2 19.4 2.3C19.6 2.3 19.7 2.3 19.9 2.3C20.6 2.3 21.2 2.3 21.9 2.3C23.3 2.3 24.4 3.4 24.4 4.8C24.4 9.5 24.4 14.3 24.4 19C24.4 20.1 24.4 21.3 24.4 22.4C24.4 23.9 23.3 25 21.8 25C15.4 25 9 25 2.6 25C1.1 25 0 23.9 0 22.4C0 16.6 0 10.8 0 4.9C0 3.3 1.1 2.2 2.7 2.2C3.4 2.2 4.2 2.2 4.9 2.2C5 2.3 5.1 2.3 5.3 2.3ZM0.8 8.2C0.8 8.3 0.8 8.4 0.8 8.5C0.8 13.1 0.8 17.7 0.8 22.3C0.8 23.4 1.5 24.1 2.6 24.1C8.9 24.1 15.3 24.1 21.6 24.1C22.8 24.1 23.5 23.4 23.5 22.2C23.5 17.6 23.5 13 23.5 8.4C23.5 8.3 23.5 8.2 23.5 8.1C16 8.2 8.4 8.2 0.8 8.2ZM0.8 7.4C8.4 7.4 15.9 7.4 23.5 7.4C23.5 6.5 23.5 5.7 23.5 4.8C23.5 3.8 22.8 3.1 21.8 3.1C21.1 3.1 20.4 3.1 19.7 3.1C19.6 3.1 19.5 3.1 19.4 3.1C19.4 3.4 19.4 3.7 19.4 3.9C19.4 4.1 19.4 4.3 19.3 4.5C19.1 5.2 18.4 5.6 17.6 5.5C16.8 5.4 16.3 4.8 16.3 4C16.3 3.7 16.3 3.4 16.3 3.1C13.6 3.1 11 3.1 8.3 3.1C8.3 3.4 8.3 3.7 8.3 3.9C8.3 4.8 7.6 5.5 6.8 5.5C5.9 5.5 5.3 4.8 5.3 3.9C5.3 3.6 5.3 3.4 5.3 3.1C5.2 3.1 5.2 3.1 5.2 3.1C4.3 3.1 3.3 3.1 2.4 3.1C1.7 3.1 1 3.8 0.9 4.5C0.8 5.5 0.8 6.4 0.8 7.4ZM18.6 2.8C18.6 2.4 18.6 2 18.6 1.6C18.6 1.1 18.3 0.8 17.9 0.8C17.5 0.8 17.2 1.1 17.2 1.6C17.2 2.4 17.2 3.2 17.2 4C17.2 4.4 17.5 4.8 17.9 4.8C18.3 4.8 18.6 4.5 18.6 4C18.6 3.6 18.6 3.2 18.6 2.8ZM7.5 2.8C7.5 2.4 7.5 2 7.5 1.6C7.5 1.1 7.2 0.8 6.8 0.8C6.4 0.8 6.1 1.1 6.1 1.6C6.1 2.4 6.1 3.2 6.1 4C6.1 4.5 6.4 4.8 6.9 4.8C7.3 4.8 7.6 4.5 7.6 4C7.5 3.6 7.5 3.2 7.5 2.8Z" fill="black"/>
<path d="M12.5996 16.1002C12.5996 15.6002 12.5996 15.2002 12.5996 14.7002C12.5996 14.4002 12.6996 14.2002 13.0996 14.2002C13.9996 14.2002 14.8996 14.2002 15.7996 14.2002C16.1996 14.2002 16.2996 14.3002 16.2996 14.7002C16.2996 15.6002 16.2996 16.5002 16.2996 17.3002C16.2996 17.7002 16.1996 17.8002 15.7996 17.8002C14.8996 17.8002 13.9996 17.8002 13.1996 17.8002C12.7996 17.8002 12.6996 17.7002 12.6996 17.3002C12.5996 17.0002 12.5996 16.5002 12.5996 16.1002ZM13.4996 15.1002C13.4996 15.8002 13.4996 16.4002 13.4996 17.1002C14.1996 17.1002 14.7996 17.1002 15.4996 17.1002C15.4996 16.4002 15.4996 15.8002 15.4996 15.1002C14.7996 15.1002 14.0996 15.1002 13.4996 15.1002Z" fill="black"/>
<path d="M11.7 16.0998C11.7 16.5998 11.7 16.9998 11.7 17.4998C11.7 17.7998 11.6 17.9998 11.2 17.9998C10.3 17.9998 9.4 17.9998 8.5 17.9998C8.1 17.9998 8 17.8998 8 17.4998C8 16.5998 8 15.6998 8 14.7998C8 14.3998 8.1 14.2998 8.5 14.2998C9.4 14.2998 10.3 14.2998 11.2 14.2998C11.5 14.2998 11.7 14.3998 11.7 14.7998C11.7 15.1998 11.7 15.5998 11.7 16.0998ZM8.9 15.0998C8.9 15.7998 8.9 16.3998 8.9 17.0998C9.6 17.0998 10.2 17.0998 10.9 17.0998C10.9 16.3998 10.9 15.7998 10.9 15.0998C10.2 15.0998 9.6 15.0998 8.9 15.0998Z" fill="black"/>
<path d="M16.2992 11.5999C16.2992 12.0999 16.2992 12.4999 16.2992 12.9999C16.2992 13.2999 16.1992 13.4999 15.8992 13.4999C14.9992 13.4999 14.0992 13.4999 13.0992 13.4999C12.7992 13.4999 12.6992 13.2999 12.6992 13.0999C12.6992 12.1999 12.6992 11.2999 12.6992 10.3999C12.6992 10.0999 12.7992 9.8999 13.1992 9.8999C14.0992 9.8999 14.9992 9.8999 15.8992 9.8999C16.1992 9.8999 16.3992 9.9999 16.3992 10.3999C16.2992 10.6999 16.2992 11.1999 16.2992 11.5999ZM15.4992 12.5999C15.4992 11.8999 15.4992 11.2999 15.4992 10.5999C14.7992 10.5999 14.1992 10.5999 13.4992 10.5999C13.4992 11.2999 13.4992 11.8999 13.4992 12.5999C14.0992 12.5999 14.7992 12.5999 15.4992 12.5999Z" fill="black"/>
<path d="M9.9 18.7002C10.3 18.7002 10.8 18.7002 11.2 18.7002C11.5 18.7002 11.7 18.8002 11.7 19.2002C11.7 20.1002 11.7 21.0002 11.7 21.9002C11.7 22.2002 11.6 22.4002 11.2 22.4002C10.3 22.4002 9.4 22.4002 8.5 22.4002C8.2 22.4002 8 22.3002 8 21.9002C8 21.0002 8 20.1002 8 19.2002C8 18.9002 8.1 18.7002 8.5 18.7002C9 18.7002 9.5 18.7002 9.9 18.7002ZM10.9 21.5002C10.9 20.8002 10.9 20.2002 10.9 19.5002C10.2 19.5002 9.6 19.5002 8.9 19.5002C8.9 20.2002 8.9 20.8002 8.9 21.5002C9.6 21.5002 10.2 21.5002 10.9 21.5002Z" fill="black"/>
<path d="M12.5996 20.5002C12.5996 20.1002 12.5996 19.6002 12.5996 19.2002C12.5996 18.8002 12.6996 18.7002 13.0996 18.7002C13.9996 18.7002 14.8996 18.7002 15.7996 18.7002C16.1996 18.7002 16.2996 18.8002 16.2996 19.2002C16.2996 20.1002 16.2996 21.0002 16.2996 21.8002C16.2996 22.2002 16.1996 22.3002 15.7996 22.3002C14.8996 22.3002 13.9996 22.3002 13.1996 22.3002C12.7996 22.3002 12.6996 22.2002 12.6996 21.8002C12.5996 21.4002 12.5996 21.0002 12.5996 20.5002ZM15.4996 21.5002C15.4996 20.8002 15.4996 20.2002 15.4996 19.5002C14.7996 19.5002 14.1996 19.5002 13.4996 19.5002C13.4996 20.2002 13.4996 20.8002 13.4996 21.5002C14.0996 21.5002 14.7996 21.5002 15.4996 21.5002Z" fill="black"/>
<path d="M9.89961 9.7998C10.3996 9.7998 10.7996 9.7998 11.2996 9.7998C11.5996 9.7998 11.7996 9.8998 11.7996 10.2998C11.7996 11.1998 11.7996 12.0998 11.7996 12.9998C11.7996 13.2998 11.6996 13.4998 11.2996 13.4998C10.3996 13.4998 9.49961 13.4998 8.59961 13.4998C8.29961 13.4998 8.09961 13.3998 8.09961 12.9998C8.09961 12.0998 8.09961 11.2998 8.09961 10.3998C8.09961 9.9998 8.19961 9.8998 8.69961 9.7998C8.99961 9.7998 9.49961 9.7998 9.89961 9.7998ZM8.89961 10.5998C8.89961 11.2998 8.89961 11.8998 8.89961 12.5998C9.59961 12.5998 10.1996 12.5998 10.8996 12.5998C10.8996 11.8998 10.8996 11.2998 10.8996 10.5998C10.1996 10.5998 9.59961 10.5998 8.89961 10.5998Z" fill="black"/>
<path d="M7.1 16.0998C7.1 16.4998 7.1 16.9998 7.1 17.3998C7.1 17.7998 7 17.8998 6.6 17.8998C5.7 17.8998 4.9 17.8998 4 17.8998C3.6 17.8998 3.5 17.7998 3.5 17.3998C3.5 16.4998 3.5 15.6998 3.5 14.7998C3.5 14.4998 3.6 14.2998 3.9 14.2998C4.8 14.2998 5.8 14.2998 6.7 14.2998C7 14.2998 7.1 14.4998 7.1 14.7998C7.1 15.1998 7.1 15.5998 7.1 16.0998ZM4.3 15.0998C4.3 15.7998 4.3 16.4998 4.3 17.0998C5 17.0998 5.6 17.0998 6.3 17.0998C6.3 16.3998 6.3 15.7998 6.3 15.0998C5.6 15.0998 5 15.0998 4.3 15.0998Z" fill="black"/>
<path d="M20.9008 16.0998C20.9008 16.4998 20.9008 16.9998 20.9008 17.3998C20.9008 17.6998 20.8008 17.8998 20.4008 17.8998C19.5008 17.8998 18.6008 17.8998 17.7008 17.8998C17.4008 17.8998 17.3008 17.7998 17.3008 17.4998C17.3008 16.5998 17.3008 15.5998 17.3008 14.6998C17.3008 14.3998 17.5008 14.2998 17.7008 14.2998C18.6008 14.2998 19.6008 14.2998 20.5008 14.2998C20.8008 14.2998 20.9008 14.4998 20.9008 14.7998C20.9008 15.1998 20.9008 15.5998 20.9008 16.0998ZM18.0008 15.0998C18.0008 15.7998 18.0008 16.4998 18.0008 17.0998C18.7008 17.0998 19.3008 17.0998 20.0008 17.0998C20.0008 16.3998 20.0008 15.7998 20.0008 15.0998C19.4008 15.0998 18.7008 15.0998 18.0008 15.0998Z" fill="#FF304F"/>
<path d="M18.9992 13.4999C18.4992 13.4999 18.0992 13.4999 17.5992 13.4999C17.2992 13.4999 17.1992 13.3999 17.1992 13.0999C17.1992 12.1999 17.1992 11.2999 17.1992 10.3999C17.1992 9.9999 17.2992 9.8999 17.6992 9.8999C18.5992 9.8999 19.4992 9.8999 20.2992 9.8999C20.6992 9.8999 20.7992 9.9999 20.7992 10.3999C20.7992 11.2999 20.7992 12.0999 20.7992 12.9999C20.7992 13.3999 20.6992 13.4999 20.2992 13.4999C19.8992 13.4999 19.4992 13.4999 18.9992 13.4999ZM17.9992 10.5999C17.9992 11.2999 17.9992 11.8999 17.9992 12.5999C18.6992 12.5999 19.2992 12.5999 19.9992 12.5999C19.9992 11.8999 19.9992 11.2999 19.9992 10.5999C19.3992 10.5999 18.6992 10.5999 17.9992 10.5999Z" fill="black"/>
<path d="M5.3 9.7998C5.8 9.7998 6.2 9.7998 6.7 9.7998C7 9.7998 7.2 9.8998 7.2 10.2998C7.2 11.1998 7.2 12.0998 7.2 12.9998C7.2 13.2998 7.1 13.4998 6.7 13.4998C5.8 13.4998 4.9 13.4998 4 13.4998C3.7 13.4998 3.6 13.3998 3.5 13.0998C3.5 12.1998 3.5 11.1998 3.5 10.2998C3.5 9.9998 3.7 9.8998 3.9 9.8998C4.4 9.7998 4.8 9.7998 5.3 9.7998ZM4.3 10.5998C4.3 11.2998 4.3 11.8998 4.3 12.5998C5 12.5998 5.6 12.5998 6.3 12.5998C6.3 11.8998 6.3 11.2998 6.3 10.5998C5.6 10.5998 5 10.5998 4.3 10.5998Z" fill="black"/>
<path d="M20.8992 20.5002C20.8992 21.0002 20.8992 21.4002 20.8992 21.9002C20.8992 22.2002 20.7992 22.4002 20.3992 22.4002C19.4992 22.4002 18.5992 22.4002 17.6992 22.4002C17.3992 22.4002 17.1992 22.3002 17.1992 21.9002C17.1992 21.0002 17.1992 20.1002 17.1992 19.2002C17.1992 18.8002 17.2992 18.7002 17.6992 18.7002C18.5992 18.7002 19.4992 18.7002 20.3992 18.7002C20.7992 18.7002 20.8992 18.8002 20.8992 19.2002C20.8992 19.6002 20.8992 20.1002 20.8992 20.5002ZM20.0992 19.5002C19.3992 19.5002 18.6992 19.5002 18.0992 19.5002C18.0992 20.2002 18.0992 20.8002 18.0992 21.5002C18.7992 21.5002 19.3992 21.5002 20.0992 21.5002C20.0992 20.8002 20.0992 20.2002 20.0992 19.5002Z" fill="black"/>
<path d="M3.5 20.5002C3.5 20.1002 3.5 19.6002 3.5 19.2002C3.5 18.8002 3.6 18.7002 4 18.7002C4.9 18.7002 5.8 18.7002 6.7 18.7002C7.1 18.7002 7.2 18.8002 7.2 19.2002C7.2 20.1002 7.2 21.0002 7.2 21.9002C7.2 22.2002 7.1 22.4002 6.7 22.4002C5.8 22.4002 4.9 22.4002 4 22.4002C3.7 22.4002 3.5 22.3002 3.5 21.9002C3.5 21.4002 3.5 20.9002 3.5 20.5002ZM6.3 21.5002C6.3 20.8002 6.3 20.2002 6.3 19.5002C5.6 19.5002 5 19.5002 4.3 19.5002C4.3 20.2002 4.3 20.8002 4.3 21.5002C5 21.5002 5.6 21.5002 6.3 21.5002Z" fill="black"/>
</g>
<defs>
<clipPath id="clip0_1372_36038">
<rect width="24.4" height="25" fill="white"/>
</clipPath>
</defs>
</svg>
