<svg width="50" height="28" viewBox="0 0 50 28" fill="none" xmlns="http://www.w3.org/2000/svg">
<path fill-rule="evenodd" clip-rule="evenodd" d="M47 1H3C1.89542 1 1 1.89542 1 3V8H49V3C49 1.89542 48.1046 1 47 1ZM0 8V13V25C0 26.6569 1.34314 28 3 28H47C48.6569 28 50 26.6569 50 25V13V8V3C50 1.34314 48.6569 0 47 0H3C1.34314 0 0 1.34314 0 3V8ZM47 27C48.1046 27 49 26.1046 49 25V13H1V25C1 26.1046 1.89542 27 3 27H47ZM39 17C37.8954 17 37 17.8954 37 19V20C37 21.1046 37.8954 22 39 22H42C43.1046 22 44 21.1046 44 20V19C44 17.8954 43.1046 17 42 17H39ZM5 16.5C5 16.2238 5.22385 16 5.5 16H12.5C12.7762 16 13 16.2238 13 16.5C13 16.7762 12.7762 17 12.5 17H5.5C5.22385 17 5 16.7762 5 16.5ZM5.5 18C5.22385 18 5 18.2238 5 18.5C5 18.7762 5.22385 19 5.5 19H12.5C12.7762 19 13 18.7762 13 18.5C13 18.2238 12.7762 18 12.5 18H5.5Z" fill="#636363"/>
</svg>
