<svg width="23" height="23" viewBox="0 0 23 23" fill="none" xmlns="http://www.w3.org/2000/svg">
<path d="M22.4212 3.80729C22.2964 3.6501 22.1375 3.52332 21.9566 3.43651C21.7756 3.34971 21.5773 3.30515 21.3766 3.30621H7.84743C7.71453 3.30621 7.58708 3.359 7.49311 3.45297C7.39914 3.54695 7.34635 3.6744 7.34635 3.80729C7.34635 3.94019 7.39914 4.06764 7.49311 4.16161C7.58708 4.25558 7.71453 4.30837 7.84743 4.30837H21.3766C21.422 4.30737 21.4671 4.3168 21.5083 4.33594C21.5496 4.35508 21.5858 4.38342 21.6144 4.41878C21.6636 4.49395 21.6819 4.58524 21.6654 4.67357L19.9668 11.7481C19.8922 12.0588 19.7149 12.3351 19.4636 12.5324C19.2124 12.7297 18.9019 12.8364 18.5824 12.8352H6.93869L4.33987 1.23395C4.27579 0.941862 4.11356 0.680553 3.88021 0.493561C3.64685 0.30657 3.35647 0.205188 3.05744 0.206308H0.509573C0.374426 0.206308 0.244814 0.259995 0.14925 0.355558C0.0536869 0.451122 0 0.580734 0 0.715881C0 0.851028 0.0536869 0.98064 0.14925 1.0762C0.244814 1.17177 0.374426 1.22545 0.509573 1.22545H3.05744C3.12436 1.22559 3.18927 1.24831 3.24167 1.28992C3.29407 1.33154 3.3309 1.38962 3.3462 1.45476L5.89406 12.8607C5.33095 12.8866 4.80119 13.1351 4.42133 13.5516C4.04146 13.9681 3.84261 14.5185 3.86851 15.0816C3.89441 15.6447 4.14295 16.1745 4.55945 16.5543C4.97595 16.9342 5.52629 17.1331 6.0894 17.1072H19.2958C19.431 17.1072 19.5606 17.0535 19.6562 16.9579C19.7517 16.8623 19.8054 16.7327 19.8054 16.5976C19.8054 16.4624 19.7517 16.3328 19.6562 16.2373C19.5606 16.1417 19.431 16.088 19.2958 16.088H6.0894C5.79658 16.088 5.51575 15.9717 5.3087 15.7646C5.10165 15.5576 4.98532 15.2767 4.98532 14.9839C4.98532 14.6911 5.10165 14.4103 5.3087 14.2032C5.51575 13.9962 5.79658 13.8799 6.0894 13.8799H18.557C19.1043 13.8806 19.636 13.6977 20.0672 13.3605C20.4983 13.0233 20.8038 12.5513 20.935 12.0199L22.6335 4.95383C22.6886 4.75925 22.6981 4.55461 22.6613 4.35577C22.6244 4.15694 22.5423 3.96926 22.4212 3.80729V3.80729Z" fill="#7CBF21"/>
<path d="M16.3233 17.226C15.8375 17.2243 15.3621 17.3669 14.9574 17.6355C14.5526 17.9042 14.2367 18.287 14.0496 18.7353C13.8626 19.1836 13.8127 19.6774 13.9065 20.1541C14.0002 20.6308 14.2333 21.0689 14.5762 21.413C14.9192 21.7571 15.3565 21.9917 15.8328 22.0871C16.3092 22.1825 16.8031 22.1344 17.2521 21.9489C17.7011 21.7634 18.0849 21.4488 18.355 21.045C18.6251 20.6412 18.7692 20.1663 18.7692 19.6805C18.767 19.0317 18.5089 18.4099 18.0509 17.9504C17.5929 17.4908 16.9721 17.2305 16.3233 17.226V17.226ZM16.3233 21.2771C16.0051 21.2788 15.6936 21.1859 15.4283 21.0102C15.1631 20.8344 14.956 20.5838 14.8335 20.2902C14.7109 19.9965 14.6784 19.6731 14.7401 19.3609C14.8018 19.0488 14.9548 18.762 15.1798 18.537C15.4048 18.312 15.6916 18.1589 16.0037 18.0973C16.3159 18.0356 16.6393 18.0681 16.933 18.1907C17.2266 18.3132 17.4772 18.5203 17.653 18.7855C17.8287 19.0508 17.9216 19.3623 17.92 19.6805C17.9177 20.1032 17.7488 20.5081 17.4498 20.807C17.1509 21.106 16.7461 21.2749 16.3233 21.2771V21.2771Z" fill="#7CBF21"/>
<path d="M7.68559 17.226C7.19979 17.2243 6.72442 17.3669 6.31967 17.6355C5.91493 17.9042 5.59901 18.287 5.41194 18.7353C5.22486 19.1836 5.17504 19.6774 5.26879 20.1541C5.36253 20.6308 5.59562 21.0689 5.93854 21.413C6.28146 21.7571 6.71878 21.9917 7.19513 22.0871C7.67148 22.1825 8.16542 22.1344 8.6144 21.9489C9.06339 21.7634 9.44723 21.4488 9.7173 21.045C9.98738 20.6412 10.1315 20.1663 10.1315 19.6805C10.1315 19.031 9.87412 18.408 9.41566 17.9479C8.9572 17.4879 8.33508 17.2283 7.68559 17.226V17.226ZM7.68559 21.2771C7.36741 21.2788 7.0559 21.1859 6.79064 21.0102C6.52537 20.8344 6.31832 20.5838 6.19578 20.2902C6.07324 19.9965 6.04074 19.6731 6.1024 19.3609C6.16406 19.0488 6.31711 18.762 6.54211 18.537C6.7671 18.312 7.05389 18.1589 7.36605 18.0973C7.67821 18.0356 8.00165 18.0681 8.2953 18.1907C8.58895 18.3132 8.83955 18.5203 9.01528 18.7855C9.19101 19.0508 9.28394 19.3623 9.28226 19.6805C9.28226 20.1039 9.11404 20.5101 8.81461 20.8095C8.51517 21.1089 8.10906 21.2771 7.68559 21.2771V21.2771Z" fill="#7CBF21"/>
</svg>
