<?xml version="1.0" encoding="utf-8"?>
<!-- Generator: Adobe Illustrator 26.5.0, SVG Export Plug-In . SVG Version: 6.00 Build 0)  -->
<svg version="1.1" id="Layer_1" xmlns="http://www.w3.org/2000/svg" xmlns:xlink="http://www.w3.org/1999/xlink" x="0px" y="0px"
	 viewBox="0 0 32 38" style="enable-background:new 0 0 32 38;" xml:space="preserve">
<style type="text/css">
	.st0{fill:#636363;}
</style>
<g>
	<path class="st0" d="M1.2,24.6v10.3c0,0.3,0.2,0.5,0.5,0.5H5c0.4,0,0.8-0.1,1.1-0.4c0.3-0.3,0.5-0.6,0.5-1l5.2,2.4
		c1.2,0.6,2.6,0.7,4,0.5s2.6-0.8,3.6-1.7l6.9-6.2c1.2-1,0.3-3-1.2-2.8v-5.9v0c0-0.4-0.2-0.8-0.5-1.1c-0.3-0.3-0.7-0.5-1.1-0.5
		c-2,0-6.2,0-8.1,0h-4.9c-0.4,0-0.8,0.2-1.1,0.5c-0.3,0.3-0.5,0.7-0.5,1.1v4.9c0,0-2.2,0-2.3,0c-0.1-0.3-0.3-0.6-0.6-0.8
		C5.6,24.1,5.3,24,5,24H1.7c-0.1,0-0.3,0.1-0.4,0.2C1.2,24.3,1.2,24.4,1.2,24.6L1.2,24.6z M17.9,19.7v2.2l-0.8-0.5
		c-0.5-0.3-1,0.3-1.4,0.5l0-2.2H17.9z M10.4,19.7h4.3v3.2c0,0.2,0.1,0.3,0.2,0.4c0.2,0.1,0.4,0.2,0.6,0l1.3-0.9l1.3,0.9
		c0.2,0.1,0.5,0.1,0.7-0.1c0.1-0.1,0.1-0.2,0.1-0.4v-3.2h4.3c0.3,0,0.5,0.2,0.5,0.5v6.3l-8,3.9c1-1.5-0.3-3.7-2.1-3.6l-3.6,0
		c-0.1-0.3-0.2-0.7-0.4-1v-5.5C9.8,19.9,10.1,19.7,10.4,19.7L10.4,19.7z M9,26.6c0.2,0.5,0.2,1.3,0.8,1.3h4c0.5,0,0.9,0.3,1.2,0.7
		c0.2,0.4,0.2,0.9,0,1.4c-0.2,0.4-0.7,0.7-1.2,0.7h-2.4c-0.1,0-0.3,0.1-0.4,0.2c-0.1,0.1-0.2,0.2-0.2,0.4s0.1,0.3,0.2,0.4
		c0.1,0.1,0.2,0.2,0.4,0.2h4.3h0c0.1,0,0.2,0,0.2-0.1c0.1-0.1,8.9-4.3,8.8-4.3c0.2-0.1,0.5-0.1,0.7,0.2c0.2,0.2,0.1,0.5-0.1,0.7
		l-6.9,6.2c-0.8,0.8-1.9,1.3-3,1.5c-1.1,0.2-2.3,0-3.3-0.4l-5.6-2.6v-6.6h1.9C8.8,26.2,9,26.3,9,26.6L9,26.6z M2.3,25.1H5
		c0.3,0,0.5,0.2,0.5,0.5v8.1c0,0.3-0.2,0.5-0.5,0.5H2.3V25.1z"/>
	<path class="st0" d="M19,26.7h1.6c0.7,0,0.7-1.1,0-1.1H19C18.3,25.7,18.3,26.7,19,26.7z"/>
	<path class="st0" d="M31.5,13.2V5.1c0-0.3-0.2-0.5-0.5-0.5c-0.4,0-3.5-0.1-3.8,0.1L22.5,2h0c-1-0.6-2.2-0.8-3.4-0.7
		C18,1.5,16.9,2,16,2.8l-2.5,2.4l-4-2.5L7.7,1.6C7.6,1.6,7.4,1.5,7.3,1.6C7.1,1.6,7,1.7,6.9,1.8c-0.6,1.1-2,3.3-2.7,4.4L3.2,8.1
		C3,8.4,3.1,8.7,3.3,8.8l11.1,7c2.8,1.7,2,1.8,3.8-0.8c0,0,0,0,0,0c0,0,1-1.6,1-1.6l1,0.6c0.6,0.4,1.3,0.6,2,0.5
		c0.7,0,1.4-0.2,2-0.6l2-1.2h0c0.1,0.3,0.3,0.5,0.6,0.7c0.3,0.2,0.6,0.3,0.9,0.3h3.2c0.1,0,0.3-0.1,0.4-0.2
		C31.4,13.5,31.5,13.4,31.5,13.2L31.5,13.2z M7.6,2.8l0.8,0.5C8,3.7,7.5,3.8,7.1,3.7L7.6,2.8z M4.9,7.4c0.3,0.4,0.4,0.9,0.3,1.4
		L4.4,8.2L4.9,7.4z M16.4,15.8l-0.8-0.5C16,15,16.5,14.9,17,15L16.4,15.8z M17.6,14c-1-0.4-2.2-0.1-2.9,0.7L6.1,9.3
		c0.2-0.5,0.2-1.1,0.1-1.6c-0.1-0.5-0.4-1-0.8-1.4l1-1.7C7.5,5,8.7,4.7,9.4,4l5.8,3.6c-1.3,0.7-1.3,2.7,0,3.4l3.1,1.9L17.6,14z
		 M23.7,13.1L23.7,13.1c-0.4,0.3-0.9,0.4-1.4,0.4c-0.5,0-1-0.1-1.4-0.4l-5.1-3.1l0,0c-0.2-0.1-0.4-0.3-0.4-0.6
		c-0.2-0.8,0.7-1.4,1.4-1l3.4,2.1c0.2,0.2,0.6,0.4,0.8,0.2c0.4-0.2,0.3-0.7,0-0.9l-6.5-4l2.3-2.2c0.7-0.7,1.5-1.1,2.5-1.2
		c0.9-0.1,1.9,0.1,2.7,0.5l4.3,2.4c-0.1,0.2-0.2,0.5-0.2,0.8v5.5L23.7,13.1z M30.4,12.7h-2.7v0c-0.3,0-0.5-0.2-0.5-0.5v-6
		c0-0.3,0.2-0.5,0.5-0.5h2.7L30.4,12.7z"/>
	<path class="st0" d="M12,7.3c-2.9,0.1-2.9,4.2,0,4.3C14.9,11.5,14.9,7.4,12,7.3z M12,10.5c-1.4,0-1.4-2.1,0-2.2
		C13.4,8.4,13.4,10.5,12,10.5z"/>
	<path class="st0" d="M29.1,11.4c0.2-0.3,0.2-0.6,0-0.8c-0.3-0.2-0.6-0.2-0.8,0c-0.2,0.2-0.2,0.6,0,0.8
		C28.6,11.6,28.9,11.7,29.1,11.4z"/>
	<path class="st0" d="M3.5,32.3c-0.2,0.2-0.2,0.5,0,0.8c0.2,0.2,0.4,0.2,0.6,0.1c0.2-0.1,0.3-0.3,0.3-0.5s-0.1-0.4-0.3-0.5
		C3.9,32.1,3.7,32.1,3.5,32.3L3.5,32.3z"/>
</g>
</svg>
