<svg width="27" height="25" viewBox="0 0 27 25" fill="none" xmlns="http://www.w3.org/2000/svg">
<path fill-rule="evenodd" clip-rule="evenodd" d="M0 11.1795V6.35897C0 2.87179 2.87832 0 6.47622 0H12.1301V11.1795H0ZM1.23357 9.94872H10.7937V1.23077H6.37343C3.5979 1.23077 1.23357 3.48718 1.23357 6.35897V9.94872ZM13.8779 0H19.6346C23.1297 0 26.008 2.87179 26.008 6.35897V11.1795H13.8779V0ZM15.1115 9.94872H24.6716V6.35897C24.6716 3.58974 22.4101 1.23077 19.5318 1.23077H15.1115V9.94872ZM0 17.8461C0 21.3333 2.87832 24.2051 6.37342 24.2051H12.0273V13.0256H0V17.8461ZM1.33636 14.2564H10.8965V22.9744H6.47622C3.5979 22.9744 1.33636 20.6154 1.33636 17.8461V14.2564ZM19.5318 24.2051H13.8779V13.0256H25.9052V17.8461C25.9052 21.3333 23.0269 24.2051 19.5318 24.2051ZM24.7744 14.2564H15.2143V22.9744H19.6346C22.4101 22.9744 24.7744 20.7179 24.7744 17.8461V14.2564Z" fill="#585858"/>
</svg>
