<svg width="15" height="15" viewBox="0 0 15 15" fill="none" xmlns="http://www.w3.org/2000/svg">
<path d="M9.92468 5.81102L5.81095 9.92475C5.60696 10.1247 5.2798 10.1231 5.07788 9.92097C4.87577 9.71901 4.87417 9.39201 5.07409 9.18789L9.18782 5.07416C9.39196 4.87424 9.71897 4.87584 9.92105 5.07794C10.123 5.2799 10.1246 5.6069 9.92468 5.81102H9.92468ZM6.06555 6.0659C6.21778 5.91367 6.30342 5.70706 6.30342 5.49172C6.30342 5.27639 6.21778 5.06993 6.06555 4.91769C5.91332 4.76531 5.70671 4.67982 5.49137 4.67982C5.27603 4.67982 5.06957 4.76532 4.91734 4.91769C4.76511 5.06992 4.67947 5.27638 4.67947 5.49172C4.67947 5.70706 4.76511 5.91367 4.91734 6.0659C5.06957 6.21813 5.27603 6.30377 5.49137 6.30377C5.70671 6.30377 5.91331 6.21813 6.06555 6.0659ZM8.93276 8.93312C8.78053 9.08535 8.69504 9.29181 8.69504 9.50715C8.69504 9.72249 8.78053 9.92894 8.93276 10.0812C9.08499 10.2336 9.2916 10.319 9.50694 10.319C9.72213 10.319 9.92874 10.2336 10.081 10.0812C10.2332 9.92895 10.3187 9.72249 10.3187 9.50715C10.3188 9.29181 10.2332 9.08535 10.081 8.93312C9.92875 8.78074 9.72228 8.69525 9.50694 8.69525C9.29161 8.69525 9.085 8.78074 8.93276 8.93312ZM14.9794 8.68274V8.6826C14.938 8.95725 14.8234 9.21561 14.6476 9.43068C14.4718 9.64572 14.2412 9.80929 13.9804 9.90451L12.9626 10.2831L13.2547 11.3294C13.3546 11.6869 13.324 12.0683 13.1683 12.4053C13.0126 12.7423 12.742 13.0129 12.405 13.1687C12.068 13.3244 11.6866 13.3549 11.3291 13.255L10.2828 12.9629L9.90418 13.9807C9.80924 14.2414 9.64581 14.4717 9.43106 14.6475C9.21631 14.8233 8.95823 14.938 8.68387 14.9796C8.60042 14.9927 8.51594 14.9993 8.43147 14.9995C7.95559 14.9999 7.50618 14.781 7.21321 14.4061L6.53942 13.5547L5.63724 14.1546V14.1547C5.32799 14.3608 4.95549 14.45 4.58648 14.4063C4.21746 14.3625 3.87607 14.1886 3.62367 13.9159C3.37126 13.6432 3.22439 13.2895 3.20928 12.9181L3.1645 11.8342L2.08117 11.79H2.08102C1.70968 11.7747 1.35595 11.6277 1.08315 11.3753C0.81053 11.1229 0.636638 10.7815 0.592717 10.4125C0.548806 10.0435 0.637933 9.67082 0.843962 9.36159L1.44386 8.45982L0.592568 7.78548C0.301484 7.55488 0.101987 7.22816 0.0298892 6.86395C-0.0423728 6.49973 0.0173849 6.12171 0.198402 5.79747C0.379422 5.47324 0.669925 5.22404 1.01802 5.09447L2.03581 4.71585L1.7437 3.66959C1.64382 3.31206 1.67435 2.93056 1.83007 2.59352C1.98579 2.25649 2.25637 1.98591 2.59341 1.83032C2.93044 1.6746 3.31182 1.64393 3.66934 1.74396L4.7156 2.03606L5.09421 1.01828C5.22376 0.670196 5.47283 0.379555 5.79707 0.198546C6.1213 0.0173815 6.49948 -0.0423776 6.86369 0.0298881C7.22791 0.10215 7.5546 0.301635 7.78522 0.592864L8.45901 1.44431L9.36118 0.844259C9.67044 0.638085 10.0429 0.548958 10.4119 0.592723C10.781 0.636488 11.1224 0.810383 11.3746 1.08301C11.627 1.35577 11.774 1.70952 11.7891 2.08088L11.8339 3.16481L12.9173 3.20901C13.2886 3.22427 13.6423 3.37127 13.9151 3.62369C14.1879 3.87612 14.3618 4.21749 14.4057 4.5865C14.4495 4.95552 14.3605 5.32818 14.1545 5.63742L13.5546 6.53918L14.4059 7.21353C14.6245 7.38437 14.7932 7.61091 14.8942 7.86941C14.9952 8.12792 15.0245 8.40882 14.9795 8.68263L14.9794 8.68274ZM13.7591 8.03077L12.5311 7.0588C12.3187 6.89043 12.2707 6.58743 12.4207 6.36164L13.2869 5.05989H13.2867C13.3913 4.90316 13.403 4.70222 13.3177 4.53444C13.2322 4.3665 13.0628 4.25789 12.8745 4.25019L11.3118 4.18606C11.0408 4.17501 10.8237 3.95779 10.8127 3.68692L10.7481 2.12362H10.748C10.7403 1.93547 10.6315 1.76609 10.4637 1.68076C10.2958 1.59541 10.095 1.60733 9.93843 1.71202L8.63727 2.57771L8.63713 2.57757C8.41162 2.72849 8.10802 2.68065 7.93997 2.46765L6.968 1.24019C6.85125 1.09262 6.66412 1.01948 6.47831 1.04885C6.2925 1.07808 6.13692 1.2053 6.07133 1.38167L5.52581 2.84827C5.43247 3.10315 5.1584 3.24289 4.8974 3.16844L3.38948 2.7475C3.20817 2.69675 3.01377 2.74779 2.88059 2.88082C2.74755 3.01386 2.69652 3.2084 2.74726 3.38972L3.1682 4.89749C3.2409 5.15833 3.10175 5.4314 2.84804 5.52605L1.38143 6.07157C1.20521 6.13714 1.07814 6.29272 1.04862 6.4784C1.01925 6.66407 1.09209 6.85136 1.23938 6.96824L2.46739 7.9402C2.67982 8.10857 2.7278 8.41158 2.5779 8.63736L1.71175 9.93911V9.93897C1.60721 10.0957 1.59543 10.2966 1.68093 10.4644C1.76642 10.6324 1.93581 10.741 2.12394 10.7487L3.68665 10.8128C3.95766 10.824 4.17473 11.0411 4.18579 11.3121L4.25035 12.8754H4.25049C4.2582 13.0635 4.36695 13.2328 4.53474 13.3183C4.70267 13.4036 4.90347 13.3917 5.06005 13.287L6.3612 12.4213H6.36135C6.58686 12.271 6.89016 12.3186 7.05851 12.5312L8.03047 13.7587C8.14708 13.9062 8.33436 13.9794 8.52016 13.9502C8.70598 13.9208 8.86156 13.7936 8.92714 13.6172L9.47266 12.1506C9.56717 11.8969 9.84023 11.7579 10.1011 11.8306L11.609 12.2515V12.2514C11.7902 12.303 11.9851 12.2518 12.1179 12.118C12.2527 11.986 12.304 11.7905 12.2512 11.6091L11.8303 10.1012V10.1014C11.7576 9.84053 11.8967 9.56746 12.1504 9.47296L13.617 8.92744C13.7933 8.86172 13.9203 8.70629 13.9499 8.52061C13.9792 8.33479 13.9064 8.14765 13.7591 8.03077V8.03077Z" fill="#FF304F"/>
</svg>
