<svg width="20" height="20" viewBox="0 0 20 20" fill="none" xmlns="http://www.w3.org/2000/svg">
<path d="M15.6739 0H4.32609C1.93686 0 0 1.93686 0 4.32609V15.6739C0 18.0631 1.93686 20 4.32609 20H15.6739C18.0631 20 20 18.0631 20 15.6739V4.32609C20 1.93686 18.0631 0 15.6739 0Z" fill="#3F51B5"/>
<path d="M15.191 11.8044H13.065V20H9.91279V11.8044H8.02148V9.30002H9.91279V7.77828C9.91279 5.56524 10.8345 4.2522 13.4389 4.2522H15.5867V6.77394H14.1476C13.1302 6.77394 13.065 7.1522 13.065 7.86089V9.30002H15.5867L15.191 11.8044Z" fill="white"/>
</svg>
