<svg width="60" height="60" viewBox="0 0 60 60" fill="none" xmlns="http://www.w3.org/2000/svg">
<path d="M29.9956 59.9913C46.5618 59.9913 59.9913 46.5618 59.9913 29.9956C59.9913 13.4295 46.5618 0 29.9956 0C13.4295 0 0 13.4295 0 29.9956C0 46.5618 13.4295 59.9913 29.9956 59.9913Z" fill="#FF304F"/>
<path d="M30.0134 38.5695C29.6425 38.5688 29.2853 38.4294 29.012 38.1787C28.7387 37.9281 28.569 37.5842 28.5363 37.2148L26.7883 16.6409C26.631 14.8929 28.3615 13.713 30.0483 13.713C31.7351 13.713 33.4656 14.9104 33.3083 16.6409L31.5603 37.2148C31.5269 37.5965 31.3473 37.9506 31.059 38.203C30.7708 38.4555 30.3961 38.5868 30.0134 38.5695Z" fill="white"/>
<path d="M30.0136 40.099C30.5007 40.0911 30.983 40.1968 31.4222 40.4076C31.8614 40.6184 32.2455 40.9287 32.544 41.3137C32.8425 41.6987 33.0473 42.148 33.1421 42.6259C33.2368 43.1038 33.219 43.5971 33.09 44.067C32.9493 44.5339 32.7002 44.9611 32.363 45.3134C32.0258 45.6658 31.6101 45.9335 31.1498 46.0946C30.721 46.2749 30.2573 46.357 29.7927 46.335C29.3281 46.313 28.8743 46.1873 28.4645 45.9673C28.0546 45.7472 27.6992 45.4384 27.4242 45.0633C27.1492 44.6881 26.9615 44.2563 26.8749 43.7993C26.7883 43.3423 26.8049 42.8717 26.9237 42.4219C27.0424 41.9722 27.2601 41.5547 27.561 41.2C27.8619 40.8453 28.2383 40.5623 28.6626 40.3718C29.087 40.1813 29.5485 40.0881 30.0136 40.099Z" fill="white"/>
</svg>
