<svg width="26" height="26" viewBox="0 0 26 26" fill="none" xmlns="http://www.w3.org/2000/svg">
<path d="M18.9147 9.4359C18.9147 4.20513 14.7 0 9.45734 0C4.21469 0 0 4.20513 0 9.4359C0 14.6667 4.21469 18.8718 9.45734 18.8718C11.8217 18.8718 13.9804 18.0513 15.6252 16.6154L24.2601 25.2308L25.6993 23.7949L17.0643 15.1795C18.1951 13.4359 18.9147 11.4872 18.9147 9.4359ZM9.56014 17.641C5.03706 17.641 1.33636 13.9487 1.33636 9.4359C1.33636 4.92308 5.03706 1.23077 9.56014 1.23077C14.0832 1.23077 17.7839 4.92308 17.7839 9.4359C17.6811 13.9487 14.0832 17.641 9.56014 17.641Z" fill="#585858"/>
</svg>
