<svg width="14" height="14" viewBox="0 0 14 14" fill="none" xmlns="http://www.w3.org/2000/svg">
<circle cx="7" cy="7" r="7" fill="#888888"/>
<path d="M7.16953 8.45776H6.15234C6.15599 8.10776 6.18698 7.82157 6.24531 7.59917C6.30729 7.37313 6.40755 7.16714 6.54609 6.9812C6.68463 6.79526 6.86875 6.58381 7.09843 6.34683C7.26614 6.17547 7.41927 6.01506 7.55781 5.86558C7.7 5.71245 7.81484 5.54839 7.90234 5.37339C7.98984 5.19474 8.03359 4.98146 8.03359 4.73355C8.03359 4.48198 7.98802 4.26506 7.89687 4.08276C7.80937 3.90047 7.67812 3.76011 7.50312 3.66167C7.33177 3.56323 7.11849 3.51401 6.86328 3.51401C6.65182 3.51401 6.4513 3.5523 6.26172 3.62886C6.07213 3.70542 5.91901 3.82391 5.80234 3.98433C5.68567 4.1411 5.62552 4.34709 5.62187 4.6023H4.61015C4.61744 4.19032 4.71953 3.83667 4.9164 3.54136C5.11692 3.24605 5.38672 3.02 5.72578 2.86323C6.06484 2.70646 6.44401 2.62808 6.86328 2.62808C7.3263 2.62808 7.72005 2.71193 8.04453 2.87964C8.37265 3.04735 8.62239 3.28797 8.79375 3.60151C8.9651 3.91141 9.05078 4.27964 9.05078 4.7062C9.05078 5.03433 8.98333 5.33693 8.84843 5.61401C8.71718 5.88745 8.54765 6.14448 8.33984 6.38511C8.13203 6.62573 7.91146 6.85542 7.67812 7.07417C7.4776 7.26011 7.34271 7.46974 7.27343 7.70308C7.20416 7.93641 7.16953 8.18797 7.16953 8.45776ZM6.10859 10.1914C6.10859 10.0273 6.15963 9.88875 6.26172 9.77573C6.3638 9.66271 6.51146 9.6062 6.70468 9.6062C6.90156 9.6062 7.05104 9.66271 7.15312 9.77573C7.25521 9.88875 7.30625 10.0273 7.30625 10.1914C7.30625 10.3481 7.25521 10.483 7.15312 10.596C7.05104 10.7091 6.90156 10.7656 6.70468 10.7656C6.51146 10.7656 6.3638 10.7091 6.26172 10.596C6.15963 10.483 6.10859 10.3481 6.10859 10.1914Z" fill="white"/>
</svg>
