<svg width="26" height="26" viewBox="0 0 26 26" fill="none" xmlns="http://www.w3.org/2000/svg">
<path d="M1.91595 14.5897H2.73833V25.8718H10.6537V14.5897H14.9712V25.8718H22.8866V14.5897H23.709C24.5313 14.5897 25.2509 14.1795 25.5593 13.359C25.8677 12.641 25.6621 11.8205 25.1481 11.2051L14.1488 0.538462C13.4292 -0.179487 12.0929 -0.179487 11.3733 0.538462L0.579583 11.3077C-0.0372006 11.9231 -0.139991 12.641 0.1684 13.4615C0.373994 14.1795 1.09357 14.5897 1.91595 14.5897ZM1.40196 12.1282L12.1957 1.35897C12.5041 1.05128 12.9152 1.05128 13.2236 1.35897L24.0173 12.1282C24.3257 12.4359 24.2229 12.8462 24.2229 12.9487C24.2229 13.0513 24.0174 13.359 23.6062 13.359H21.5502V24.7436H16.102V13.359H9.31734V24.7436H3.8691V13.359H1.81315C1.40196 13.359 1.19637 13.0513 1.19637 12.9487C1.19637 12.8462 1.09357 12.5385 1.40196 12.1282Z" fill="#585858"/>
</svg>
