<svg width="16" height="16" viewBox="0 0 16 16" fill="none" xmlns="http://www.w3.org/2000/svg">
<path d="M9.31048 5.24096C9.88013 4.55739 10.5637 3.87382 11.1333 3.30418L11.2473 3.19025C11.0194 2.96239 10.9055 2.73453 10.6776 2.62061C10.108 3.19025 9.53834 3.87382 8.9687 4.44346C8.62691 4.10168 8.28512 3.64596 7.94334 3.30418C7.71548 3.41811 7.48762 3.64596 7.25977 3.75989C7.71548 4.32953 8.17119 4.78525 8.51298 5.24096C8.74084 5.46882 8.9687 5.58275 9.31048 5.24096Z" fill="white"/>
<path d="M3.83594 13.1178C3.83594 14.2571 4.74737 15.0546 5.77272 15.0546C6.91201 15.0546 7.70951 14.1432 7.70951 13.1178C7.70951 11.9785 6.79808 11.181 5.77272 11.181C4.74737 11.0671 3.83594 11.9785 3.83594 13.1178ZM5.77272 12.0925C6.34237 12.0925 6.79808 12.5482 6.79808 13.1178C6.79808 13.6875 6.34237 14.1432 5.77272 14.1432C5.20308 14.1432 4.74737 13.6875 4.74737 13.1178C4.8613 12.5482 5.31701 12.0925 5.77272 12.0925Z" fill="white"/>
<path d="M14.2085 10.7285L15.6896 2.7535V2.63957C15.6896 2.41171 15.4618 2.18385 15.2339 2.18385H12.4996C12.7275 2.52564 12.8414 2.86743 12.9553 3.20921H14.5503L13.2971 10.1589H5.20819L3.95497 3.20921H5.6639C5.77783 2.86743 5.89176 2.52564 6.11962 2.18385H3.84105L3.38533 0.588856C3.38533 0.360999 3.15748 0.24707 2.92962 0.24707H1.33462C1.10676 0.24707 0.878906 0.474927 0.878906 0.702784C0.878906 0.930641 1.10676 1.1585 1.33462 1.1585H2.4739L2.81569 2.7535L4.29676 10.7285C4.29676 10.9564 4.52462 11.1842 4.75247 11.1842H5.77783H12.7275H13.7528C13.9807 11.0703 14.2085 10.9564 14.2085 10.7285Z" fill="white"/>
<path d="M10.7793 13.1082C10.7793 14.2475 11.6907 15.045 12.7161 15.045C13.7414 15.045 14.6529 14.1335 14.6529 13.1082C14.6529 11.9689 13.7414 11.1714 12.7161 11.1714C11.6907 11.1714 10.7793 11.9689 10.7793 13.1082ZM12.7161 12.0828C13.2857 12.0828 13.7414 12.5385 13.7414 13.1082C13.7414 13.6778 13.2857 14.1335 12.7161 14.1335C12.1464 14.1335 11.6907 13.6778 11.6907 13.1082C11.6907 12.5385 12.1464 12.0828 12.7161 12.0828Z" fill="white"/>
<path d="M5.53906 4.14881C5.53906 6.19953 7.24799 7.90846 9.29871 7.90846C11.3494 7.90846 13.0584 6.19953 13.0584 4.14881C13.0584 3.80702 13.0584 3.57917 12.9444 3.23738C12.8305 2.89559 12.7166 2.55381 12.4887 2.21202C11.8051 1.07273 10.6659 0.38916 9.29871 0.38916C7.93157 0.38916 6.67835 1.07273 5.99478 2.21202C5.88085 2.55381 5.76692 2.89559 5.65299 3.23738C5.53906 3.46524 5.53906 3.80702 5.53906 4.14881ZM7.02014 2.21202C7.58978 1.64238 8.38728 1.18666 9.18478 1.18666C9.98229 1.18666 10.8937 1.64238 11.3494 2.21202C11.5773 2.55381 11.8051 2.78166 11.9191 3.23738C12.1469 3.46524 12.1469 3.80702 12.1469 4.14881C12.1469 5.74381 10.8937 6.99703 9.29871 6.99703C7.70371 6.99703 6.33656 5.74381 6.33656 4.14881C6.33656 3.80702 6.45049 3.46524 6.56442 3.23738C6.67835 2.89559 6.79228 2.55381 7.02014 2.21202Z" fill="white"/>
</svg>
