<svg width="17" height="18" viewBox="0 0 17 18" fill="none" xmlns="http://www.w3.org/2000/svg">
<path d="M16.638 13.9651C16.503 13.695 16.233 13.56 15.9629 13.56L14.6128 13.9651C15.2879 12.885 15.6929 11.6698 15.8279 10.4547C16.0979 8.02447 15.1529 5.72924 13.2627 4.10907C12.9926 3.97406 12.7226 3.97406 12.5876 4.10907C12.4526 4.3791 12.4526 4.64913 12.5876 4.78414C14.0727 6.13428 14.8828 8.15948 14.7478 10.1847C14.6128 11.2648 14.3428 12.3449 13.6677 13.155L13.5327 11.8048C13.5327 11.5348 13.3977 11.2648 13.1276 11.2648C12.8576 11.2648 12.5876 11.3998 12.5876 11.6698C12.5876 11.8048 12.5876 11.8048 12.5876 11.9399L12.8576 15.3152L16.0979 14.5051C16.503 14.5051 16.638 14.2351 16.638 13.9651Z" fill="white"/>
<path d="M1.3843 9.26635C1.51931 9.26635 1.51931 9.40136 1.65433 9.40136C1.92435 9.40136 2.19438 9.26635 2.19438 8.99632C2.59942 5.756 5.56972 3.32575 8.94507 3.46076L7.72994 4.27085C7.45991 4.40586 7.45991 4.8109 7.59493 4.94591C7.72994 5.08093 7.86495 5.08093 7.99997 5.21594C8.13498 5.21594 8.27 5.21594 8.27 5.08093L11.1053 3.19074L8.67504 0.760494C8.54002 0.490467 8.27 0.355453 7.99997 0.490466C7.72994 0.62548 7.72994 1.03052 7.86496 1.16553L7.99997 1.30055L8.94507 2.24564C5.16468 2.11063 1.78934 4.8109 1.24928 8.59128C1.11427 8.86131 1.24928 9.13133 1.3843 9.26635Z" fill="white"/>
<path d="M10.4199 15.8849C9.60987 16.1549 8.79979 16.2899 7.85469 16.1549C5.69448 15.8849 3.9393 14.6698 2.85919 12.9146L4.20932 13.4547C4.47935 13.4547 4.74938 13.3196 4.74938 13.0496C4.74938 12.7796 4.74938 12.6446 4.47935 12.5096L2.18412 11.5645L1.50905 11.2944L0.833984 14.5348C0.833984 14.8048 0.968997 15.0748 1.23902 15.0748H1.37404C1.64407 15.0748 1.91409 14.9398 1.91409 14.6698L2.18412 13.4547C3.39924 15.6149 5.55946 16.965 7.98971 17.235C8.9348 17.3701 10.0149 17.235 10.96 16.965C11.23 16.83 11.365 16.56 11.23 16.2899C10.96 16.0199 10.69 15.8849 10.4199 15.8849Z" fill="white"/>
<path d="M10.5517 7.12939H6.36622C6.0962 7.12939 5.82617 7.39942 5.82617 7.66945V11.8549C5.82617 12.1249 6.0962 12.3949 6.36622 12.3949H10.5517C10.8217 12.3949 11.0917 12.1249 11.0917 11.8549V7.66945C11.0917 7.39942 10.9567 7.12939 10.5517 7.12939ZM10.1466 11.3148H7.04129V8.20951H10.1466V11.3148Z" fill="white"/>
</svg>
