<svg width="19" height="15" viewBox="0 0 19 15" fill="none" xmlns="http://www.w3.org/2000/svg">
<path d="M18.1107 3.29336L12.5282 0.217282C12.4143 0.103354 12.1864 0.103354 11.9586 0.217282L6.37607 3.29336C6.14821 3.52121 6.03428 3.863 6.14821 4.09086C6.14821 4.20478 6.26214 4.20478 6.37607 4.31871L11.7307 7.28086V13.3191L10.0218 12.4076L9.45215 13.3191L11.9586 14.6862C12.0725 14.8001 12.3004 14.8001 12.5282 14.6862L18.1107 11.6101C18.3386 11.4962 18.4525 11.2684 18.4525 11.1544V3.863C18.4525 3.63514 18.3386 3.40728 18.1107 3.29336ZM12.3004 6.2555L7.85714 3.863L12.3004 1.35657L16.7436 3.863L12.3004 6.2555ZM17.3132 10.8126L12.87 13.3191V7.28086L17.3132 4.77443V10.8126Z" fill="#878787"/>
<path d="M7.29408 6.02277C7.29408 5.68098 7.06622 5.45312 6.72443 5.45312H1.48371C1.14192 5.45312 0.914062 5.68098 0.914062 6.02277C0.914062 6.36456 1.14192 6.59241 1.48371 6.59241H6.72443C7.06622 6.59241 7.29408 6.36456 7.29408 6.02277Z" fill="#878787"/>
<path d="M8.88783 8.53937C8.88783 8.19758 8.65997 7.96973 8.31818 7.96973H3.07746C2.73567 7.96973 2.50781 8.19758 2.50781 8.53937C2.50781 8.88116 2.73567 9.10901 3.07746 9.10901H8.31818C8.65997 8.99509 8.88783 8.76723 8.88783 8.53937Z" fill="#878787"/>
<path d="M8.55654 9.87744H6.05011C5.70833 9.87744 5.48047 10.1053 5.48047 10.4471C5.48047 10.7889 5.70833 11.0167 6.05011 11.0167H8.55654C8.89832 11.0167 9.12618 10.7889 9.12618 10.4471C9.01225 10.1053 8.78439 9.87744 8.55654 9.87744Z" fill="#878787"/>
</svg>
