<svg width="22" height="15" viewBox="0 0 22 15" fill="none" xmlns="http://www.w3.org/2000/svg">
<path d="M21.7637 6.54052C21.7637 6.43837 21.7637 6.33622 21.6615 6.33622L19.0057 1.94392C18.9036 1.73963 18.6993 1.73963 18.5971 1.73963H14.7156V1.33104C14.7156 1.02461 14.5113 0.820312 14.2048 0.820312H1.43651C1.13007 0.820312 0.925781 1.02461 0.925781 1.33104C0.925781 1.63748 1.13007 1.84178 1.43651 1.84178H13.592V11.3414H11.0383C10.834 10.3199 9.91469 9.60491 8.79107 9.60491C7.66746 9.60491 6.85028 10.3199 6.54384 11.3414H5.93097V8.37915C5.93097 8.07271 5.72667 7.86842 5.42023 7.86842C5.11379 7.86842 4.9095 8.07271 4.9095 8.37915V11.8521C4.9095 12.1586 5.11379 12.3629 5.42023 12.3629H6.74814C6.95244 13.3843 7.87175 14.0994 8.99536 14.0994C10.119 14.0994 10.9361 13.3843 11.2426 12.3629H15.6349C15.8392 13.3843 16.7585 14.0994 17.8821 14.0994C19.0057 14.0994 19.8229 13.3843 20.1293 12.3629H21.4572C21.7637 12.3629 21.968 12.1586 21.968 11.8521L21.7637 6.54052C21.7637 6.64266 21.7637 6.64266 21.7637 6.54052ZM18.2907 2.7611L20.3336 6.13193H14.7156V2.7611H18.2907ZM8.89322 13.18C8.17819 13.18 7.66746 12.6693 7.66746 11.9543C7.66746 11.2393 8.17819 10.7285 8.89322 10.7285C9.60825 10.7285 10.119 11.2393 10.119 11.9543C10.119 12.6693 9.60825 13.18 8.89322 13.18ZM17.6778 13.18C16.9628 13.18 16.4521 12.6693 16.4521 11.9543C16.4521 11.2393 16.9628 10.7285 17.6778 10.7285C18.3929 10.7285 18.9036 11.2393 18.9036 11.9543C18.9036 12.6693 18.3929 13.18 17.6778 13.18ZM20.7422 11.3414H19.925C19.7208 10.3199 18.8014 9.60491 17.6778 9.60491C16.5542 9.60491 15.737 10.3199 15.4306 11.3414H14.6134V7.15339H20.6401V11.3414H20.7422Z" fill="white"/>
<path d="M8.88606 5.58838H5.41308C5.10664 5.58838 4.90234 5.79267 4.90234 6.09911C4.90234 6.40555 5.10664 6.60984 5.41308 6.60984H8.88606C9.1925 6.60984 9.39679 6.40555 9.39679 6.09911C9.39679 5.79267 9.1925 5.58838 8.88606 5.58838Z" fill="white"/>
<path d="M9.40066 3.90673C9.40066 3.60029 9.19637 3.396 8.88993 3.396H3.37401C3.16972 3.396 2.86328 3.60029 2.86328 3.90673C2.86328 4.21317 3.06757 4.41746 3.37401 4.41746H8.88993C9.19637 4.41746 9.40066 4.11102 9.40066 3.90673Z" fill="white"/>
</svg>
