<svg width="19" height="16" viewBox="0 0 19 16" fill="none" xmlns="http://www.w3.org/2000/svg">
<path d="M17.1739 9.8206H17.0743V1.16907C17.0743 0.863722 16.7754 0.660156 16.5762 0.660156H5.7174C5.7174 0.660156 5.7174 0.660156 5.61778 0.660156C5.41854 0.660156 5.21929 0.863722 5.21929 1.16907V8.80277H4.22308V8.70099C4.22308 8.39564 4.02383 8.19208 3.72497 8.19208H1.33405C1.33405 8.19208 1.33405 8.19208 1.23442 8.19208C1.03518 8.29386 0.835938 8.49743 0.835938 8.70099V14.4008C0.835938 14.7062 1.03518 14.9097 1.33405 14.9097H3.72497C4.02383 14.9097 4.22308 14.7062 4.22308 14.4008V13.9937L7.11211 15.5204C7.21173 15.5204 7.21173 15.5204 7.31135 15.5204H12.8902C12.9898 15.5204 13.0894 15.5204 13.189 15.4186L18.0705 12.5687C18.469 12.3652 18.6682 11.8563 18.6682 11.3473C18.6682 10.5331 17.9709 9.8206 17.1739 9.8206ZM17.4728 11.7545L12.7905 14.5026H7.41097L4.22308 12.8741V9.8206H6.91286C7.51059 9.8206 7.80946 10.1259 8.20795 10.3295C8.30757 10.3295 8.30757 10.4313 8.40719 10.4313C8.80568 10.7366 9.20416 11.042 9.70227 11.042H13.4879C13.7868 11.042 13.986 11.2456 13.986 11.5509C13.986 11.8563 13.7868 12.0598 13.4879 12.0598H9.90152C9.8019 12.0598 9.60265 12.0598 9.50303 12.1616C9.40341 12.2634 9.40341 12.3652 9.40341 12.5687C9.40341 12.6705 9.50303 12.8741 9.50303 12.9759C9.50303 13.0776 9.70227 13.0776 9.90152 13.0776H13.4879C14.1853 13.0776 14.783 12.5687 14.9822 11.8563L16.9747 10.8384C16.9747 10.8384 17.0743 10.8384 17.1739 10.8384C17.4728 10.8384 17.672 11.042 17.672 11.3473C17.672 11.5509 17.5724 11.7545 17.4728 11.7545ZM9.70227 10.0242C9.50303 10.0242 9.30379 9.8206 8.9053 9.61704L8.80568 9.51525C8.30757 9.2099 7.70984 8.80277 6.91286 8.80277H6.21551V1.67798H15.9784V10.2277L14.8826 10.8384C14.5837 10.3295 14.0856 10.0242 13.5875 10.0242H9.70227ZM3.22686 9.2099V13.8919H1.83215V9.2099H3.22686Z" fill="#878787"/>
</svg>
