<svg width="20" height="20" viewBox="0 0 20 20" fill="none" xmlns="http://www.w3.org/2000/svg">
<path d="M15.6522 20H4.34783C1.95652 20 0 18.0435 0 15.6522V4.34783C0 1.95652 1.95652 0 4.34783 0H15.6522C18.0435 0 20 1.95652 20 4.34783V15.6522C20 18.0435 18.0435 20 15.6522 20Z" fill="url(#paint0_radial_348_3685)"/>
<path d="M9.9997 3.91299C11.9997 3.91299 12.2171 3.91299 12.9997 3.95647C13.7388 3.99995 14.1301 4.13038 14.391 4.21734C14.7388 4.34777 14.9997 4.52169 15.2606 4.78256C15.5214 5.04343 15.6954 5.30429 15.8258 5.65212C15.9127 5.91299 16.0432 6.30429 16.0867 7.04343C16.0867 7.78256 16.0867 7.99995 16.0867 9.99995C16.0867 11.9999 16.0867 12.2173 16.0432 12.9999C15.9997 13.7391 15.8693 14.1304 15.7823 14.3913C15.6519 14.7391 15.478 14.9999 15.2171 15.2608C14.9562 15.5217 14.6954 15.6956 14.3475 15.826C14.0867 15.913 13.6954 16.0434 12.9562 16.0869C12.2171 16.0869 11.9997 16.0869 9.9997 16.0869C7.9997 16.0869 7.78231 16.0869 6.9997 16.0434C6.26057 15.9999 5.86927 15.8695 5.6084 15.7826C5.26057 15.6521 4.9997 15.4782 4.73883 15.2173C4.47796 14.9565 4.30405 14.6956 4.17362 14.3478C4.08666 14.0869 3.95622 13.6956 3.91275 12.9565C3.91275 12.2173 3.91275 11.9999 3.91275 9.99995C3.91275 7.99995 3.91275 7.78256 3.95622 6.99995C3.9997 6.26082 4.13014 5.86951 4.21709 5.60864C4.34753 5.26082 4.52144 4.99995 4.78231 4.73908C5.04318 4.47821 5.30405 4.30429 5.65188 4.17386C5.91275 4.0869 6.30405 3.95647 7.04318 3.91299C7.78231 3.91299 7.9997 3.91299 9.9997 3.91299ZM9.9997 2.60864C7.9997 2.60864 7.73883 2.60864 6.95622 2.65212C6.17362 2.6956 5.65188 2.82603 5.17362 2.99995C4.69535 3.17386 4.26057 3.43473 3.86927 3.86951C3.47796 4.30429 3.21709 4.6956 2.9997 5.17386C2.82579 5.65212 2.69536 6.17386 2.65188 6.95647C2.6084 7.73908 2.6084 7.99995 2.6084 9.99995C2.6084 11.9999 2.6084 12.2608 2.65188 13.0434C2.69536 13.826 2.82579 14.3478 2.9997 14.826C3.17362 15.3043 3.43449 15.7391 3.86927 16.1304C4.26057 16.5217 4.69535 16.7826 5.17362 16.9999C5.65188 17.1739 6.17362 17.3043 6.95622 17.3478C7.73883 17.3913 7.9997 17.3913 9.9997 17.3913C11.9997 17.3913 12.2606 17.3913 13.0432 17.3478C13.8258 17.3043 14.3475 17.1739 14.8258 16.9999C15.3041 16.826 15.7388 16.5652 16.1301 16.1304C16.5214 15.7391 16.7823 15.3043 16.9997 14.826C17.1736 14.3478 17.3041 13.826 17.3475 13.0434C17.391 12.2608 17.391 11.9999 17.391 9.99995C17.391 7.99995 17.391 7.73908 17.3475 6.95647C17.3041 6.17386 17.1736 5.65212 16.9997 5.17386C16.8258 4.6956 16.5649 4.26082 16.1301 3.86951C15.6954 3.47821 15.3041 3.21734 14.8258 2.99995C14.3475 2.82603 13.8258 2.6956 13.0432 2.65212C12.2606 2.60864 11.9997 2.60864 9.9997 2.60864Z" fill="white"/>
<path d="M9.99996 6.08691C7.82604 6.08691 6.08691 7.82604 6.08691 9.99996C6.08691 12.1739 7.82604 13.913 9.99996 13.913C12.1739 13.913 13.913 12.1739 13.913 9.99996C13.913 7.82604 12.1739 6.08691 9.99996 6.08691ZM9.99996 12.6087C8.56518 12.6087 7.39126 11.4347 7.39126 9.99996C7.39126 8.56517 8.56518 7.39126 9.99996 7.39126C11.4347 7.39126 12.6087 8.56517 12.6087 9.99996C12.6087 11.4347 11.4347 12.6087 9.99996 12.6087Z" fill="white"/>
<path d="M13.9125 6.95642C14.3928 6.95642 14.7821 6.5671 14.7821 6.08685C14.7821 5.6066 14.3928 5.21729 13.9125 5.21729C13.4323 5.21729 13.043 5.6066 13.043 6.08685C13.043 6.5671 13.4323 6.95642 13.9125 6.95642Z" fill="white"/>
<defs>
<radialGradient id="paint0_radial_348_3685" cx="0" cy="0" r="1" gradientUnits="userSpaceOnUse" gradientTransform="translate(4.13433 24.0333) rotate(-49.945) scale(30.2807 20.0029)">
<stop offset="0.073" stop-color="#EACC7B"/>
<stop offset="0.184" stop-color="#ECAA59"/>
<stop offset="0.307" stop-color="#EF802E"/>
<stop offset="0.358" stop-color="#EF6D3A"/>
<stop offset="0.46" stop-color="#F04B50"/>
<stop offset="0.516" stop-color="#F03E58"/>
<stop offset="0.689" stop-color="#DB359E"/>
<stop offset="0.724" stop-color="#CE37A4"/>
<stop offset="0.789" stop-color="#AC3CB4"/>
<stop offset="0.877" stop-color="#7544CF"/>
<stop offset="0.98" stop-color="#2B4FF2"/>
</radialGradient>
</defs>
</svg>
