<?xml version="1.0" encoding="UTF-8"?>
<!DOCTYPE svg PUBLIC "-//W3C//DTD SVG 1.1//EN" "http://www.w3.org/Graphics/SVG/1.1/DTD/svg11.dtd">
<!-- Creator: CorelDRAW (Evaluation Version) -->
<svg xmlns="http://www.w3.org/2000/svg" xml:space="preserve" width="15px" height="17px" version="1.1" style="shape-rendering:geometricPrecision; text-rendering:geometricPrecision; image-rendering:optimizeQuality; fill-rule:evenodd; clip-rule:evenodd"
viewBox="0 0 15 17.05"
 xmlns:xlink="http://www.w3.org/1999/xlink"
 xmlns:xodm="http://www.corel.com/coreldraw/odm/2003">
 <defs>
  <style type="text/css">
   <![CDATA[
    .fil0 {fill:black;fill-rule:nonzero}
   ]]>
  </style>
 </defs>
 <g id="Layer_x0020_1">
  <metadata id="CorelCorpID_0Corel-Layer"/>
  <g id="_1876835390800">
   <g>
    <path class="fil0" d="M7.11 0.36c-4.09,0 -7.41,3.18 -7.41,7.1 0,5.32 6.73,9.66 7.02,9.84l0 0c0.11,0.07 0.25,0.11 0.39,0.11 0.13,0 0.27,-0.04 0.38,-0.11 0.3,-0.19 7.02,-4.53 7.02,-9.84 0,-3.92 -3.32,-7.1 -7.4,-7.1l0 0zm0 15.44c-1.39,-0.97 -5.96,-4.49 -5.96,-8.34 0,-3.13 2.67,-5.66 5.96,-5.66 3.28,0 5.95,2.54 5.95,5.66 0,3.85 -4.57,7.37 -5.95,8.35l0 -0.01z"/>
    <path class="fil0" d="M7.11 3.55c-0.92,0 -1.8,0.37 -2.44,1.01 -0.65,0.65 -1.02,1.53 -1.02,2.45 0,0.92 0.37,1.79 1.02,2.44 0.64,0.65 1.52,1.01 2.44,1.01 0.91,0 1.79,-0.36 2.44,-1.01 0.65,-0.65 1.01,-1.52 1.01,-2.44 0,-0.92 -0.36,-1.8 -1.02,-2.45 -0.64,-0.64 -1.52,-1.01 -2.43,-1.01zm0 5.46c-0.54,0 -1.05,-0.21 -1.42,-0.58 -0.38,-0.38 -0.59,-0.89 -0.59,-1.42 0,-0.54 0.21,-1.05 0.59,-1.42 0.37,-0.38 0.88,-0.59 1.42,-0.59 0.53,0 1.04,0.21 1.42,0.59 0.37,0.37 0.58,0.89 0.58,1.42 0,0.53 -0.21,1.04 -0.58,1.42 -0.38,0.37 -0.89,0.58 -1.42,0.58l0 0z"/>
   </g>
  </g>
 </g>
</svg>
