<svg width="15" height="18" viewBox="0 0 15 18" fill="none" xmlns="http://www.w3.org/2000/svg">
<path d="M7.50011 0C3.3649 0 0 3.23048 0 7.20447C0 12.5845 6.818 16.9863 7.10622 17.1671H7.10639C7.22409 17.2418 7.36055 17.2815 7.50009 17.2815C7.63962 17.2815 7.77608 17.2418 7.89378 17.1671C8.1848 16.9811 15 12.577 15 7.20447C15.0002 3.23061 11.6351 0 7.49989 0H7.50011ZM7.50011 15.6509C6.10135 14.6728 1.46727 11.1002 1.46727 7.19442C1.46727 4.03255 4.17438 1.45723 7.50011 1.45723C10.8258 1.45723 13.5329 4.03966 13.5329 7.20141C13.5329 11.0995 8.89882 14.6701 7.50011 15.6579V15.6509Z" fill="#8A8A8A"/>
<path d="M7.50021 3.23792C6.57208 3.23792 5.68198 3.60654 5.02577 4.26278C4.36956 4.91916 4.00073 5.80926 4.00073 6.7374C4.00073 7.66536 4.36953 8.55546 5.02577 9.21184C5.68198 9.86805 6.57208 10.2367 7.50021 10.2367C8.42835 10.2367 9.31845 9.86808 9.97466 9.21184C10.6309 8.55546 10.9997 7.66536 10.9997 6.7374C10.9983 5.80961 10.6292 4.92021 9.97331 4.26431C9.31727 3.60827 8.428 3.23909 7.50021 3.23792ZM7.50021 8.77205C6.96117 8.77205 6.4443 8.55798 6.06325 8.17689C5.68217 7.79581 5.46809 7.27898 5.46809 6.73993C5.46809 6.20088 5.68217 5.68402 6.06325 5.30297C6.44433 4.92189 6.96117 4.70781 7.50021 4.70781C8.03926 4.70781 8.55612 4.92188 8.93718 5.30297C9.31826 5.68405 9.53234 6.20088 9.53234 6.73993C9.53166 7.27863 9.31741 7.79514 8.93648 8.17624C8.5554 8.55715 8.03887 8.7714 7.50017 8.7721L7.50021 8.77205Z" fill="#8A8A8A"/>
</svg>
