<svg width="10" height="11" viewBox="0 0 10 11" fill="none" xmlns="http://www.w3.org/2000/svg">
<g clip-path="url(#clip0_450_5798)">
<path d="M1.85872 4.07356C1.85872 3.75486 1.85872 3.45932 1.85872 3.16378C1.85872 1.56478 2.92022 0.303231 4.49053 0.038569C6.1354 -0.236017 7.78028 0.97922 7.98754 2.64328C8.0217 3.05403 8.03488 3.46626 8.02701 3.87837C8.02701 3.93902 8.02701 3.99967 8.02701 4.07686C8.12461 4.07686 8.20466 4.07686 8.28361 4.07686C8.5319 4.07745 8.76981 4.17704 8.94517 4.3538C9.12052 4.53056 9.219 4.77004 9.219 5.01972C9.219 6.69959 9.219 8.37909 9.219 10.0582C9.21965 10.1843 9.19504 10.3093 9.14664 10.4256C9.09825 10.542 9.02706 10.6473 8.93731 10.7354C8.84757 10.8235 8.74111 10.8925 8.62428 10.9383C8.50746 10.9842 8.38265 11.0059 8.2573 11.0022C7.31533 11.0022 6.37227 11.0022 5.4303 11.0022C4.16045 11.0022 2.89024 11.0022 1.61967 11.0022C1.49441 11.0041 1.37004 10.9808 1.25386 10.9337C1.13768 10.8866 1.03205 10.8166 0.943161 10.7278C0.854275 10.639 0.783935 10.5333 0.736275 10.4168C0.688616 10.3003 0.664598 10.1754 0.665636 10.0494C0.665636 8.38423 0.665636 6.71907 0.665636 5.05391C0.661037 4.92421 0.683049 4.79495 0.730303 4.67418C0.777557 4.55342 0.849038 4.44373 0.940292 4.35196C1.03155 4.2602 1.14062 4.18831 1.26071 4.14079C1.3808 4.09327 1.50934 4.07114 1.63831 4.07576L1.85872 4.07356ZM4.94232 10.5346H6.26919C6.92714 10.5346 7.58509 10.5346 8.24304 10.5346C8.35579 10.5426 8.46769 10.5102 8.55899 10.4432C8.65029 10.3762 8.71511 10.2789 8.74199 10.1685C8.75757 10.0838 8.76382 9.99763 8.76063 9.91155C8.76063 8.33828 8.76063 6.76391 8.76063 5.18844C8.76063 5.12669 8.76063 5.06493 8.76063 5.00208C8.75712 4.88159 8.70833 4.76692 8.62409 4.68118C8.53984 4.59543 8.4264 4.54499 8.30664 4.54002C8.19698 4.5323 8.0972 4.54002 7.99302 4.54002C5.90366 4.54002 3.81466 4.54002 1.72603 4.54002C1.30714 4.54002 1.12949 4.71426 1.12949 5.12889C1.12949 6.73671 1.12949 8.34453 1.12949 9.95235C1.12949 10.3593 1.30933 10.5357 1.71617 10.5357L4.94232 10.5346ZM7.5489 4.06804C7.5489 3.6512 7.57632 3.24759 7.5489 2.85501C7.49561 2.27495 7.25193 1.7292 6.85624 1.30374C6.46056 0.878276 5.93537 0.597287 5.36341 0.505035C4.77767 0.412129 4.1779 0.520356 3.66082 0.812259C3.14375 1.10416 2.73954 1.56272 2.51338 2.11396C2.25788 2.73922 2.32148 3.39205 2.32367 4.04047C2.32367 4.04819 2.33464 4.05591 2.34341 4.06914L7.5489 4.06804Z" fill="black"/>
<path d="M5.65162 8.33134C5.65162 8.50779 5.65162 8.68533 5.65162 8.86177C5.65162 9.05012 5.57721 9.23076 5.44478 9.36394C5.31234 9.49712 5.13271 9.57194 4.94542 9.57194C4.75812 9.57194 4.5785 9.49712 4.44606 9.36394C4.31362 9.23076 4.23922 9.05012 4.23922 8.86177C4.23922 8.50779 4.23922 8.1549 4.23922 7.80092C4.24181 7.75673 4.23402 7.71254 4.2165 7.67193C4.19897 7.63132 4.1722 7.59542 4.13833 7.56713C3.95722 7.39861 3.83321 7.17723 3.78373 6.93413C3.73425 6.69103 3.76181 6.43845 3.86252 6.21193C3.96322 5.9854 4.13202 5.79632 4.34515 5.67129C4.55829 5.54626 4.80504 5.49156 5.05069 5.51491C5.29645 5.53507 5.52954 5.63302 5.7165 5.79468C5.90347 5.95635 6.03469 6.17343 6.09135 6.41476C6.14565 6.61971 6.14242 6.83578 6.08203 7.039C6.02164 7.24223 5.90644 7.42465 5.74921 7.56603C5.71495 7.59412 5.68805 7.6302 5.67085 7.67114C5.65364 7.71209 5.64667 7.75664 5.65052 7.80092C5.6571 7.97736 5.65271 8.1538 5.65162 8.33134ZM4.69869 8.15931C4.69869 8.3942 4.69211 8.62799 4.69869 8.86177C4.69853 8.89313 4.70464 8.9242 4.71667 8.95313C4.7287 8.98206 4.74639 9.00827 4.76869 9.03018C4.791 9.0521 4.81746 9.06928 4.8465 9.0807C4.87554 9.09212 4.90657 9.09755 4.93774 9.09666C5.00022 9.09611 5.06005 9.07121 5.10464 9.02719C5.14923 8.98317 5.1751 8.92348 5.1768 8.86067C5.17955 8.80814 5.17955 8.7555 5.1768 8.70297C5.1768 8.31591 5.1768 7.93104 5.1768 7.54067C5.17237 7.49424 5.18193 7.44755 5.20422 7.40665C5.22651 7.36574 5.26051 7.33252 5.30181 7.3113C5.43098 7.2374 5.53331 7.12395 5.59386 6.98747C5.65442 6.85099 5.67005 6.69863 5.63846 6.5526C5.60448 6.40015 5.5224 6.26282 5.40447 6.16111C5.28653 6.0594 5.13906 5.99875 4.98406 5.98821C4.82905 5.97767 4.6748 6.0178 4.54433 6.10262C4.41385 6.18744 4.31413 6.3124 4.26005 6.45887C4.20502 6.61141 4.20446 6.77845 4.25848 6.93136C4.3125 7.08427 4.41773 7.21352 4.55613 7.29696C4.60556 7.32187 4.64594 7.3618 4.67153 7.41109C4.69712 7.46038 4.70662 7.51652 4.69869 7.57155C4.69869 7.76673 4.69869 7.95861 4.69869 8.15931Z" fill="black"/>
</g>
<defs>
<clipPath id="clip0_450_5798">
<rect width="8.55556" height="11" fill="white" transform="translate(0.666504)"/>
</clipPath>
</defs>
</svg>
