<?xml version="1.0" encoding="UTF-8"?>
<!DOCTYPE svg PUBLIC "-//W3C//DTD SVG 1.1//EN" "http://www.w3.org/Graphics/SVG/1.1/DTD/svg11.dtd">
<!-- Creator: CorelDRAW (Evaluation Version) -->
<svg xmlns="http://www.w3.org/2000/svg" xml:space="preserve" width="15px" height="15px" version="1.1" style="shape-rendering:geometricPrecision; text-rendering:geometricPrecision; image-rendering:optimizeQuality; fill-rule:evenodd; clip-rule:evenodd"
viewBox="0 0 15 15.2"
 xmlns:xlink="http://www.w3.org/1999/xlink"
 xmlns:xodm="http://www.corel.com/coreldraw/odm/2003">
 <defs>
  <style type="text/css">
   <![CDATA[
    .fil0 {fill:black;fill-rule:nonzero}
   ]]>
  </style>
 </defs>
 <g id="Layer_x0020_1">
  <metadata id="CorelCorpID_0Corel-Layer"/>
  <path class="fil0" d="M14.5 2.75l0 10.5c0,0.6 -0.24,1.17 -0.66,1.59 -0.42,0.42 -0.99,0.66 -1.59,0.66l-9 0c-0.6,0 -1.17,-0.24 -1.59,-0.66 -0.42,-0.42 -0.66,-0.99 -0.66,-1.59l0 -2.25c0,-0.27 0.14,-0.52 0.37,-0.65 0.24,-0.13 0.52,-0.13 0.76,0 0.23,0.13 0.37,0.38 0.37,0.65l0 2.25c0,0.2 0.08,0.39 0.22,0.53 0.14,0.14 0.33,0.22 0.53,0.22l9 0c0.2,0 0.39,-0.08 0.53,-0.22 0.14,-0.14 0.22,-0.33 0.22,-0.53l0 -10.5c0,-0.2 -0.08,-0.39 -0.22,-0.53 -0.14,-0.14 -0.33,-0.22 -0.53,-0.22l-9 0c-0.2,0 -0.39,0.08 -0.53,0.22 -0.14,0.14 -0.22,0.33 -0.22,0.53l0 2.25c0,0.27 -0.14,0.52 -0.37,0.65 -0.24,0.13 -0.52,0.13 -0.76,0 -0.23,-0.13 -0.37,-0.38 -0.37,-0.65l0 -2.25c0,-0.6 0.24,-1.17 0.66,-1.59 0.42,-0.42 0.99,-0.66 1.59,-0.66l9 0c0.6,0 1.17,0.24 1.59,0.66 0.42,0.42 0.66,0.99 0.66,1.59zm-8.78 7.72c-0.14,0.14 -0.22,0.33 -0.22,0.53 0,0.2 0.08,0.39 0.22,0.53 0.14,0.14 0.33,0.23 0.53,0.23 0.2,0 0.39,-0.09 0.53,-0.23l3 -3c0.15,-0.14 0.23,-0.33 0.23,-0.53 0,-0.2 -0.08,-0.39 -0.23,-0.53l-3 -3c-0.19,-0.19 -0.46,-0.27 -0.72,-0.2 -0.26,0.07 -0.47,0.27 -0.54,0.53 -0.07,0.26 0.01,0.54 0.2,0.73l1.72 1.72 -7.19 0c-0.27,0 -0.52,0.14 -0.65,0.37 -0.13,0.24 -0.13,0.52 0,0.75 0.13,0.24 0.38,0.38 0.65,0.38l7.19 0 -1.72 1.72z"/>
 </g>
</svg>
