<svg width="27" height="27" viewBox="0 0 27 27" fill="none" xmlns="http://www.w3.org/2000/svg">
<path d="M26.8002 5.70006C26.8002 5.50006 26.7002 5.20006 26.5002 5.10006C26.4002 4.90006 26.2002 4.80006 26.0002 4.70006C25.8002 4.60006 25.6002 4.50006 25.3002 4.50006H23.4002H5.8002L5.3002 2.00006C5.2002 1.70006 5.0002 1.40006 4.7002 1.20006C4.4002 1.00006 4.1002 0.900064 3.7002 0.900064H0.700195C0.600195 0.800064 0.500195 0.900064 0.400195 1.00006C0.300195 1.10006 0.200195 1.30006 0.200195 1.40006C0.200195 1.60006 0.300195 1.70006 0.400195 1.80006C0.500195 1.90006 0.600195 2.00006 0.800195 2.00006H3.8002C3.9002 2.00006 3.9002 2.00006 4.0002 2.10006C4.1002 2.20006 4.1002 2.20006 4.1002 2.30006L7.1002 15.7001C6.4002 15.7001 5.8002 16.0001 5.4002 16.5001C5.0002 17.0001 4.7002 17.6001 4.8002 18.3001C4.8002 19.0001 5.0002 19.6001 5.5002 20.0001C6.0002 20.4001 6.6002 20.7001 7.3002 20.6001H22.8002C23.0002 20.6001 23.1002 20.5001 23.2002 20.4001C23.3002 20.3001 23.4002 20.1001 23.4002 20.0001C23.4002 19.8001 23.3002 19.7001 23.2002 19.6001C23.1002 19.5001 22.9002 19.4001 22.8002 19.4001H7.3002C7.0002 19.4001 6.6002 19.3001 6.4002 19.0001C6.2002 18.7001 6.0002 18.5001 6.0002 18.2001C6.0002 17.9001 6.1002 17.5001 6.4002 17.3001C6.7002 17.0001 7.0002 16.9001 7.3002 16.9001H22.0002C22.6002 16.9001 23.3002 16.7001 23.8002 16.3001C24.3002 15.9001 24.7002 15.3001 24.8002 14.7001L26.8002 6.40006C26.8002 6.20006 26.8002 5.90006 26.8002 5.70006Z" fill="#7CBF21"/>
<path d="M19.3006 20.8C18.7006 20.8 18.2006 21 17.7006 21.3C17.2006 21.6 16.9006 22.1 16.6006 22.6C16.4006 23.1 16.3006 23.7 16.4006 24.3C16.5006 24.9 16.8006 25.4 17.2006 25.8C17.6006 26.2 18.1006 26.5 18.7006 26.6C19.3006 26.7 19.8006 26.7 20.4006 26.4C20.9006 26.2 21.4006 25.8 21.7006 25.3C22.0006 24.8 22.2006 24.3 22.2006 23.7C22.2006 22.9 21.9006 22.2 21.4006 21.7C20.8006 21.1 20.1006 20.8 19.3006 20.8ZM20.7006 25C20.3006 25.4 19.9006 25.5 19.4006 25.6C19.0006 25.6 18.7006 25.5 18.3006 25.3C18.0006 25.1 17.7006 24.8 17.6006 24.5C17.5006 24.2 17.4006 23.8 17.5006 23.4C17.6006 23 17.8006 22.7 18.0006 22.4C18.3006 22.1 18.6006 22 19.0006 21.9C19.4006 21.8 19.7006 21.9 20.1006 22C20.4006 22.1 20.7006 22.4 20.9006 22.7C21.1006 23 21.2006 23.4 21.2006 23.8C21.2006 24.2 21.0006 24.7 20.7006 25Z" fill="#7CBF21"/>
<path d="M9.19997 20.8C8.59997 20.8 8.09997 21 7.59997 21.3C7.09997 21.6 6.79997 22.1 6.49997 22.6C6.29997 23.1 6.19997 23.7 6.29997 24.3C6.39997 24.9 6.69997 25.4 7.09997 25.8C7.49997 26.2 7.99997 26.5 8.59997 26.6C9.19997 26.7 9.69997 26.7 10.3 26.4C10.8 26.2 11.3 25.8 11.6 25.3C11.9 24.8 12.1 24.3 12.1 23.7C12.1 22.9 11.8 22.2 11.3 21.7C10.7 21.1 9.99997 20.8 9.19997 20.8ZM10.5 25C10.1 25.4 9.69997 25.5 9.19997 25.5C8.79997 25.5 8.49997 25.4 8.09997 25.2C7.79997 25 7.49997 24.7 7.39997 24.4C7.29997 24.1 7.19997 23.7 7.29997 23.3C7.39997 22.9 7.59997 22.6 7.79997 22.3C8.09997 22 8.39997 21.9 8.79997 21.8C9.19997 21.7 9.49997 21.8 9.89997 21.9C10.2 22 10.5 22.3 10.7 22.6C10.9 22.9 11 23.3 11 23.7C11.1 24.2 10.9 24.7 10.5 25Z" fill="#7CBF21"/>
</svg>
