<?xml version="1.0" encoding="UTF-8"?>
<!DOCTYPE svg PUBLIC "-//W3C//DTD SVG 1.1//EN" "http://www.w3.org/Graphics/SVG/1.1/DTD/svg11.dtd">
<!-- Creator: CorelDRAW (Evaluation Version) -->
<svg xmlns="http://www.w3.org/2000/svg" xml:space="preserve" width="15px" height="22px" version="1.1" style="shape-rendering:geometricPrecision; text-rendering:geometricPrecision; image-rendering:optimizeQuality; fill-rule:evenodd; clip-rule:evenodd"
viewBox="0 0 15 21.57"
 xmlns:xlink="http://www.w3.org/1999/xlink"
 xmlns:xodm="http://www.corel.com/coreldraw/odm/2003">
 <defs>
  <style type="text/css">
   <![CDATA[
    .fil0 {fill:black;fill-rule:nonzero}
   ]]>
  </style>
 </defs>
 <g id="Layer_x0020_1">
  <metadata id="CorelCorpID_0Corel-Layer"/>
  <path class="fil0" d="M7.16 0c-2.72,0 -4.93,2.3 -4.93,5.14l0 1.55 -1.78 0c-0.17,0 -0.34,0.07 -0.46,0.19 -0.12,0.13 -0.19,0.3 -0.19,0.48l0 13.54c0,0.18 0.07,0.35 0.19,0.47 0.12,0.13 0.29,0.2 0.46,0.2l13.42 0c0.17,0 0.33,-0.07 0.45,-0.2 0.12,-0.12 0.19,-0.29 0.19,-0.47l0 -13.54c0,-0.18 -0.07,-0.35 -0.19,-0.48 -0.12,-0.12 -0.28,-0.19 -0.45,-0.19l-1.79 0 0 -1.55c0,-2.84 -2.21,-5.14 -4.92,-5.14l0 0zm0 1.35c2.02,0 3.63,1.68 3.63,3.79l0 1.55 -7.26 0 0 -1.55c0,-2.11 1.6,-3.79 3.63,-3.79l0 0zm-6.07 6.68l1.14 0 0 2.6c0,0.18 0.07,0.35 0.19,0.48 0.12,0.13 0.29,0.2 0.46,0.2 0.17,0 0.34,-0.07 0.46,-0.2 0.12,-0.13 0.19,-0.3 0.19,-0.48l0 -2.6 7.26 0 0 2.6c0,0.18 0.06,0.35 0.18,0.48 0.13,0.13 0.29,0.2 0.46,0.2 0.18,0 0.34,-0.07 0.46,-0.2 0.13,-0.13 0.19,-0.3 0.19,-0.48l0 -2.6 1.14 0 0 12.19 -12.13 0 0 -12.19z"/>
 </g>
</svg>
