<?xml version="1.0" encoding="UTF-8"?>
<!DOCTYPE svg PUBLIC "-//W3C//DTD SVG 1.1//EN" "http://www.w3.org/Graphics/SVG/1.1/DTD/svg11.dtd">
<!-- Creator: CorelDRAW (Evaluation Version) -->
<svg xmlns="http://www.w3.org/2000/svg" xml:space="preserve" width="15px" height="15px" version="1.1" style="shape-rendering:geometricPrecision; text-rendering:geometricPrecision; image-rendering:optimizeQuality; fill-rule:evenodd; clip-rule:evenodd"
viewBox="0 0 15 15"
 xmlns:xlink="http://www.w3.org/1999/xlink"
 xmlns:xodm="http://www.corel.com/coreldraw/odm/2003">
 <defs>
  <style type="text/css">
   <![CDATA[
    .fil0 {fill:black;fill-rule:nonzero}
   ]]>
  </style>
 </defs>
 <g id="Layer_x0020_1">
  <metadata id="CorelCorpID_0Corel-Layer"/>
  <path class="fil0" d="M13.54 4.65l0 -0.27c0,-1.07 -0.87,-1.95 -1.95,-1.95l-0.46 0 -1.07 -1.71c-0.07,-0.12 -0.19,-0.2 -0.31,-0.22 -0.13,-0.03 -0.27,-0.01 -0.38,0.07l-2.8 1.86 -4.72 0c-1.07,0 -1.95,0.88 -1.95,1.95l0 8.77c0,1.07 0.88,1.95 1.95,1.95l10.72 0c1.07,0 1.94,-0.88 1.94,-1.95l0 -6.82c0,-0.72 -0.39,-1.34 -0.97,-1.68l0 0zm0 6.06l-1.95 0c-0.54,0 -0.97,-0.43 -0.97,-0.97 0,-0.54 0.43,-0.97 0.97,-0.97l1.95 0 0 1.94zm-0.97 -6.33l-0.22 0 -0.6 -0.96c0.46,0.08 0.82,0.48 0.82,0.96zm-3.08 -2.72l1.71 2.72 -5.79 0 4.08 -2.72zm3.08 12.46l-10.72 0c-0.54,0 -0.97,-0.43 -0.97,-0.97l0 -8.77c0,-0.53 0.43,-0.97 0.97,-0.97l3.26 0 -1.46 0.97 -1.31 0c-0.27,0 -0.49,0.22 -0.49,0.49 0,0.27 0.22,0.49 0.49,0.49l10.23 0c0.53,0 0.97,0.43 0.97,0.97l0 1.46 -1.95 0c-1.07,0 -1.95,0.88 -1.95,1.95 0,1.07 0.88,1.95 1.95,1.95l1.95 0 0 1.46c0,0.54 -0.44,0.97 -0.97,0.97l0 0z"/>
 </g>
</svg>
