<?xml version="1.0" encoding="utf-8"?>
<!-- Generator: Adobe Illustrator 16.0.0, SVG Export Plug-In . SVG Version: 6.00 Build 0)  -->
<!DOCTYPE svg PUBLIC "-//W3C//DTD SVG 1.1//EN" "http://www.w3.org/Graphics/SVG/1.1/DTD/svg11.dtd">
<svg version="1.1" id="Layer_1" xmlns="http://www.w3.org/2000/svg" xmlns:xlink="http://www.w3.org/1999/xlink" x="0px" y="0px"
	 width="17.375px" height="13.412px" viewBox="4.625 0.688 17.375 13.412" enable-background="new 4.625 0.688 17.375 13.412"
	 xml:space="preserve">
<path fill="#7BBE42" d="M21.764,6.541c0-0.102,0-0.204-0.102-0.204l-2.656-4.393C18.904,1.74,18.699,1.74,18.598,1.74h-3.882V1.331
	c0-0.307-0.204-0.511-0.511-0.511h-9.33v1.021H4.91v10.01c0,0.307,0.204,0.512,0.511,0.512h1.328
	C6.953,13.385,7.872,14.1,8.995,14.1c1.124,0,1.941-0.715,2.248-1.736h4.392c0.205,1.021,1.123,1.736,2.248,1.736
	c1.123,0,1.939-0.715,2.246-1.736h1.328c0.307,0,0.511-0.205,0.511-0.512L21.764,6.541z M8.893,13.18
	c-0.715,0-1.226-0.51-1.226-1.226c0-0.715,0.511-1.226,1.226-1.226c0.715,0,1.226,0.511,1.226,1.226
	C10.119,12.67,9.608,13.18,8.893,13.18z M13.592,11.342h-2.554c-0.204-1.021-1.124-1.736-2.247-1.736S6.85,10.32,6.544,11.342H5.931
	v-9.5h7.661V11.342z M14.716,2.761h3.575l2.043,3.371h-5.618V2.761z M17.678,13.18c-0.715,0-1.226-0.51-1.226-1.226
	c0-0.715,0.511-1.226,1.226-1.226s1.227,0.511,1.227,1.226C18.904,12.67,18.393,13.18,17.678,13.18z M19.925,11.342
	c-0.204-1.021-1.124-1.736-2.247-1.736s-1.941,0.715-2.247,1.736h-0.817V7.153h6.027v4.188H19.925z"/>
</svg>
