<svg width="27" height="27" viewBox="0 0 27 27" fill="none" xmlns="http://www.w3.org/2000/svg">
<path d="M1.37598 14.4727L1.88997 14.5752C2.19836 14.6778 2.40396 14.8829 2.40396 15.1906C2.40396 15.4983 2.30116 15.806 2.09556 15.9086L1.68437 16.2163C0.96479 16.8317 0.6564 17.7547 1.06759 18.6778C1.47878 19.4983 2.30115 20.0111 3.32913 19.806L3.84311 19.7034C4.1515 19.6009 4.4599 19.806 4.5627 20.0111C4.76829 20.2163 4.76829 20.524 4.66549 20.8317L4.4599 21.3445C4.04871 22.165 4.25431 23.1906 4.97389 23.806C5.69347 24.4214 6.72143 24.4214 7.44102 23.806L7.85221 23.4983C8.0578 23.2932 8.3662 23.2932 8.67459 23.3958C8.98298 23.4983 9.08578 23.806 9.08578 24.1137V24.6265C9.08578 25.5496 9.80536 26.3701 10.7305 26.4727C10.8333 26.4727 11.0389 26.4727 11.1417 26.4727C11.9641 26.4727 12.5809 26.0624 12.9921 25.2419L13.1977 24.7291C13.3005 24.4214 13.6089 24.3188 13.8144 24.3188C14.1228 24.3188 14.3284 24.4214 14.534 24.7291L14.8424 25.1393C15.3564 25.9599 16.2816 26.3701 17.2068 26.0624C18.1319 25.7547 18.6459 24.9342 18.6459 24.0111V23.4983C18.6459 23.1906 18.7487 22.8829 19.0571 22.7804C19.2627 22.6778 19.5711 22.6778 19.8795 22.7804L20.2907 23.0881C21.113 23.6009 22.141 23.4983 22.7578 22.7804C23.4774 22.0624 23.5802 21.1393 23.0662 20.3188L22.7578 19.9086C22.5522 19.7034 22.5522 19.3958 22.7578 19.0881C22.9634 18.8829 23.169 18.6778 23.4774 18.6778H23.9914C24.9166 18.7804 25.7389 18.165 26.0473 17.2419C26.3557 16.3188 25.9445 15.3958 25.1221 14.8829L24.711 14.5752C24.5054 14.4727 24.2998 14.165 24.2998 13.8573C24.2998 13.5496 24.5054 13.3445 24.8138 13.2419L25.3277 13.0368C26.2529 12.6265 26.6641 11.806 26.5613 10.8829C26.3557 9.95986 25.6361 9.24191 24.711 9.24191H24.197C23.8886 9.24191 23.683 9.03678 23.5802 8.83166C23.4774 8.52396 23.4774 8.21627 23.683 8.01114L23.9914 7.60089C24.6082 6.88294 24.6082 5.8573 23.9914 5.13935C23.3746 4.4214 22.4494 4.11371 21.5242 4.52396L21.0103 4.72909C20.7019 4.83166 20.3935 4.83166 20.1879 4.62653C19.9823 4.4214 19.8795 4.11371 19.8795 3.90858L19.9823 3.39576C20.1879 2.47268 19.6739 1.5496 18.8515 1.13935C18.0291 0.729092 17.0012 0.93422 16.3844 1.75473L16.076 2.16499C15.8704 2.37012 15.562 2.47268 15.3564 2.47268C15.048 2.37012 14.8424 2.16499 14.7396 1.95986L14.6368 1.44704C14.3284 0.523964 13.5061 -0.0914208 12.5809 0.0111433C11.6557 0.0111433 10.8333 0.729092 10.7305 1.65217L10.6277 2.16499C10.5249 2.47268 10.4221 2.67781 10.1138 2.78037C9.80536 2.88294 9.49696 2.78037 9.29137 2.57525L8.88018 2.16499C8.2634 1.5496 7.23542 1.34448 6.41304 1.8573C5.59066 2.37012 5.28228 3.29319 5.48787 4.21627L5.69347 4.72909C5.79626 5.03678 5.69347 5.34448 5.48787 5.5496C5.28228 5.75473 4.97388 5.8573 4.66549 5.75473L4.15151 5.5496C3.22633 5.24191 2.30115 5.5496 1.78717 6.37012C1.27318 7.19063 1.47878 8.21627 2.19836 8.83166L2.60955 9.24191C2.81514 9.44704 2.91794 9.75473 2.81514 10.0624C2.71234 10.3701 2.50675 10.5752 2.19836 10.5752L1.68437 10.6778C0.759196 10.7804 0.0396166 11.6009 0.0396166 12.524C-0.165978 13.3445 0.450809 14.2676 1.37598 14.4727ZM1.78717 11.806L2.30115 11.7034C3.02073 11.6009 3.63752 11.0881 3.84311 10.3701C4.04871 9.65217 3.84311 8.83166 3.32913 8.31884L2.91794 7.90858C2.60955 7.60089 2.60954 7.19063 2.81514 6.9855C3.02073 6.78037 3.32913 6.47268 3.74032 6.67781L4.2543 6.88294C4.97388 7.08807 5.79626 6.9855 6.31025 6.37012C6.82423 5.8573 7.02983 5.03678 6.82423 4.31884L6.61864 3.80602C6.51584 3.39576 6.72143 3.08807 6.92703 2.88294C7.23542 2.78037 7.54381 2.67781 7.85221 2.9855L8.2634 3.39576C8.77738 3.90858 9.59976 4.11371 10.3193 3.90858C11.0389 3.70345 11.5529 3.08807 11.7585 2.37012L11.8613 1.8573C11.9641 1.44704 12.2725 1.24191 12.5809 1.24191C12.8893 1.24191 13.1977 1.34448 13.4033 1.75473L13.5061 2.26755C13.7116 2.9855 14.3284 3.49832 15.048 3.70345C15.7676 3.80601 16.59 3.60089 17.0012 2.9855L17.3096 2.57525C17.6179 2.26755 17.9263 2.26755 18.2347 2.37012C18.5431 2.47268 18.7487 2.78037 18.6459 3.19063L18.5431 3.70345C18.4403 4.4214 18.6459 5.24191 19.2627 5.65217C19.8795 6.06243 20.7019 6.26755 21.3186 5.8573L21.8326 5.65217C22.2438 5.44704 22.5522 5.65217 22.7578 5.8573C22.9634 6.06242 23.0662 6.47268 22.7578 6.78037L22.4494 7.19063C21.9354 7.80601 21.8326 8.52396 22.141 9.24191C22.4494 9.95986 23.0662 10.3701 23.8886 10.4727H24.4026C24.8137 10.4727 25.1221 10.7804 25.1221 11.0881C25.1221 11.3958 25.1221 11.806 24.711 11.9086L24.197 12.1137C23.4774 12.4214 23.0662 13.0368 22.9634 13.8573C22.8606 14.6778 23.2718 15.2932 23.9914 15.7035L24.4026 16.0111C24.8137 16.2163 24.8138 16.6265 24.711 16.9342C24.6082 17.2419 24.4026 17.5496 23.8886 17.447H23.3746C22.655 17.3445 21.9354 17.7547 21.5242 18.3701C21.1131 18.9855 21.1131 19.806 21.5242 20.4214L21.8326 20.8317C22.0382 21.2419 21.9354 21.5496 21.7298 21.7547C21.5242 21.9599 21.113 22.0624 20.8047 21.8573L20.3935 21.5496C19.7767 21.1393 18.9543 21.1393 18.3375 21.5496C17.7207 21.9599 17.3096 22.6778 17.4124 23.3958V23.9086C17.4124 24.3188 17.104 24.6265 16.8984 24.7291C16.59 24.8317 16.1788 24.7291 15.9732 24.4214L15.6648 24.0111C15.2536 23.3958 14.534 22.9855 13.8144 22.9855C13.0949 22.9855 12.3753 23.4983 12.0669 24.2163L11.8613 24.7291C11.6557 25.1393 11.3473 25.2419 11.0389 25.1393C10.7305 25.0368 10.4221 24.8317 10.4221 24.4214V23.9086C10.4221 23.1906 9.90815 22.4727 9.29137 22.165C8.98298 22.0624 8.77738 21.9599 8.46899 21.9599C8.0578 21.9599 7.54382 22.0624 7.23542 22.3701L6.82423 22.6778C6.51584 22.9855 6.10465 22.8829 5.89906 22.6778C5.69346 22.4727 5.48787 22.165 5.69347 21.7547L5.89906 21.2419C6.20745 20.524 6.10465 19.806 5.69347 19.1906C5.17948 18.5752 4.4599 18.2676 3.74032 18.4727L3.22633 18.5752C2.81514 18.6778 2.50675 18.3701 2.40396 18.165C2.30116 17.8573 2.30116 17.5496 2.60955 17.2419L3.02074 16.9342C3.63752 16.524 3.94591 15.7035 3.74032 14.9855C3.63752 14.2676 3.12353 13.6522 2.30115 13.447L1.68437 13.3445C1.27318 13.2419 1.06759 12.8317 1.17038 12.524C1.17038 12.2163 1.37598 11.9086 1.78717 11.806Z" fill="#585858"/>
<path d="M8.60938 11.0239V10.5352C8.60938 10.1839 8.68555 9.86442 8.83789 9.57666C8.99023 9.2889 9.21452 9.05827 9.51074 8.88477C9.80697 8.71126 10.1709 8.62451 10.6025 8.62451C11.0469 8.62451 11.4172 8.71126 11.7134 8.88477C12.0138 9.05827 12.2381 9.2889 12.3862 9.57666C12.5386 9.86442 12.6147 10.1839 12.6147 10.5352V11.0239C12.6147 11.3667 12.5386 11.682 12.3862 11.9697C12.2381 12.2575 12.016 12.4881 11.7197 12.6616C11.4235 12.8351 11.0575 12.9219 10.6216 12.9219C10.1815 12.9219 9.8112 12.8351 9.51074 12.6616C9.21452 12.4881 8.99023 12.2575 8.83789 11.9697C8.68555 11.682 8.60938 11.3667 8.60938 11.0239ZM9.82178 10.5352V11.0239C9.82178 11.172 9.84928 11.3138 9.9043 11.4492C9.96354 11.5804 10.0524 11.6883 10.1709 11.7729C10.2936 11.8534 10.4417 11.8936 10.6152 11.8936C10.7972 11.8936 10.9453 11.8534 11.0596 11.7729C11.1738 11.6883 11.2585 11.5804 11.3135 11.4492C11.3685 11.3138 11.396 11.172 11.396 11.0239V10.5352C11.396 10.3786 11.3664 10.2347 11.3071 10.1035C11.2521 9.9681 11.1654 9.86019 11.0469 9.77979C10.9326 9.69515 10.7845 9.65283 10.6025 9.65283C10.4333 9.65283 10.2894 9.69515 10.1709 9.77979C10.0524 9.86019 9.96354 9.9681 9.9043 10.1035C9.84928 10.2347 9.82178 10.3786 9.82178 10.5352ZM13.0273 16.2227V15.7339C13.0273 15.3869 13.1035 15.0695 13.2559 14.7817C13.4124 14.494 13.6388 14.2633 13.9351 14.0898C14.2355 13.9163 14.6037 13.8296 15.0396 13.8296C15.4797 13.8296 15.8478 13.9163 16.144 14.0898C16.4403 14.2633 16.6646 14.494 16.8169 14.7817C16.9692 15.0695 17.0454 15.3869 17.0454 15.7339V16.2227C17.0454 16.5697 16.9692 16.887 16.8169 17.1748C16.6688 17.4626 16.4466 17.6932 16.1504 17.8667C15.8542 18.0402 15.4881 18.127 15.0522 18.127C14.6121 18.127 14.2419 18.0402 13.9414 17.8667C13.641 17.6932 13.4124 17.4626 13.2559 17.1748C13.1035 16.887 13.0273 16.5697 13.0273 16.2227ZM14.2461 15.7339V16.2227C14.2461 16.375 14.2799 16.5189 14.3477 16.6543C14.4154 16.7897 14.5085 16.8976 14.627 16.978C14.7497 17.0584 14.8914 17.0986 15.0522 17.0986C15.2554 17.0986 15.4141 17.0584 15.5283 16.978C15.6426 16.8976 15.7209 16.7897 15.7632 16.6543C15.8097 16.5189 15.833 16.375 15.833 16.2227V15.7339C15.833 15.5815 15.8034 15.4398 15.7441 15.3086C15.6849 15.1732 15.596 15.0653 15.4775 14.9849C15.3633 14.9002 15.2173 14.8579 15.0396 14.8579C14.8618 14.8579 14.7137 14.9002 14.5952 14.9849C14.481 15.0653 14.3942 15.1732 14.335 15.3086C14.2757 15.4398 14.2461 15.5815 14.2461 15.7339ZM15.4902 10.0781L10.9771 17.3018L10.0884 16.832L14.6016 9.6084L15.4902 10.0781Z" fill="#585858"/>
</svg>
