<svg width="27" height="27" viewBox="0 0 27 27" fill="none" xmlns="http://www.w3.org/2000/svg">
<path d="M24.8881 13.2419L25.4021 13.0368C26.3272 12.6265 26.7384 11.806 26.6356 10.8829C26.43 9.95986 25.7105 9.24191 24.7853 9.24191H24.2713C23.9629 9.24191 23.7573 9.03679 23.6545 8.83166C23.5517 8.62653 23.5517 8.21627 23.7573 8.01114L24.0657 7.60089C24.6825 6.88294 24.6825 5.8573 24.0657 5.13935C23.4489 4.4214 22.5238 4.11371 21.5986 4.52397L21.0846 4.72909C20.7762 4.83166 20.4678 4.83166 20.2622 4.62653C20.0566 4.4214 19.9538 4.11371 19.9538 3.90858L20.0566 3.39576C20.2622 2.47268 19.7482 1.54961 18.9259 1.13935C18.1035 0.729094 17.0755 0.934221 16.4587 1.75473L16.1503 2.16499C15.9447 2.37012 15.6363 2.47268 15.4307 2.47268C15.1224 2.37012 14.9168 2.16499 14.814 1.95986L14.7112 1.44704C14.4028 0.523965 13.6832 -0.0914208 12.6552 0.0111433C11.73 0.113707 10.9077 0.729094 10.8049 1.65217L10.7021 2.16499C10.5993 2.47268 10.4965 2.67781 10.1881 2.78037C9.8797 2.88294 9.57131 2.78037 9.36571 2.57525L8.95452 2.16499C8.33774 1.34448 7.30976 1.24191 6.48739 1.75473C5.66501 2.26755 5.35662 3.19063 5.56222 4.11371L5.76781 4.62653C5.87061 4.93422 5.76781 5.24191 5.56222 5.44704C5.35662 5.65217 5.04823 5.75473 4.73984 5.65217L4.32865 5.34448C3.40347 5.03678 2.4783 5.34448 1.96432 6.16499C1.45033 6.9855 1.55312 8.01114 2.2727 8.62653L2.68389 9.03678C2.88949 9.24191 2.99228 9.54961 2.88949 9.8573C2.78669 10.165 2.5811 10.3701 2.2727 10.3701L1.65592 10.4727C0.730747 10.5752 0.0111686 11.3958 0.0111686 12.3188C-0.0916286 13.2419 0.525156 14.0624 1.45033 14.3701L1.96432 14.4727C2.27271 14.5752 2.4783 14.7804 2.4783 15.0881C2.4783 15.3958 2.3755 15.7035 2.16991 15.806L1.75872 16.1137C1.03914 16.7291 0.730747 17.6522 1.14194 18.5752C1.55313 19.3958 2.3755 19.9086 3.40347 19.7034L3.91746 19.6009C4.22585 19.4983 4.53425 19.7035 4.63704 19.9086C4.84264 20.1137 4.84264 20.4214 4.73984 20.7291L4.53425 21.2419C4.12306 22.0624 4.32865 23.0881 5.15103 23.7035C5.87061 24.3188 6.89858 24.3188 7.61816 23.7035L8.02935 23.3958C8.23494 23.1906 8.54333 23.1906 8.85173 23.2932C9.16012 23.3958 9.26292 23.7035 9.26292 24.0111V24.524C9.26292 25.447 9.9825 26.2676 10.9077 26.3701C11.0105 26.3701 11.2161 26.3701 11.3189 26.3701C12.1412 26.3701 12.758 25.9599 13.1692 25.1393L13.3748 24.6265C13.4776 24.3188 13.786 24.2163 13.9916 24.2163C14.3 24.2163 14.5056 24.3188 14.7112 24.6265L15.0196 25.0368C15.5335 25.8573 16.4587 26.2676 17.3839 25.9599C18.3091 25.6522 18.8231 24.8317 18.8231 23.9086V23.3958C18.8231 23.0881 18.9258 22.7804 19.2342 22.6778C19.5426 22.5752 19.7482 22.5752 20.0566 22.6778L20.4678 22.9855C21.2902 23.4983 22.3182 23.3958 22.9349 22.6778C23.6545 21.9599 23.7573 21.0368 23.2433 20.2163L22.7293 19.7034C22.5238 19.4983 22.5238 19.1906 22.7293 18.8829C22.9349 18.6778 23.1405 18.4727 23.4489 18.4727H23.9629C24.8881 18.5752 25.7105 17.9599 26.0189 17.0368C26.3272 16.1137 25.9161 15.1906 25.0937 14.6778L24.6825 14.3701C24.4769 14.2676 24.2713 13.9599 24.2713 13.6522C24.2713 13.3445 24.5797 13.3445 24.8881 13.2419Z" fill="#006AD7"/>
<path d="M8.60938 11.0239V10.5352C8.60938 10.1839 8.68555 9.86442 8.83789 9.57666C8.99023 9.2889 9.21452 9.05827 9.51074 8.88477C9.80697 8.71126 10.1709 8.62451 10.6025 8.62451C11.0469 8.62451 11.4172 8.71126 11.7134 8.88477C12.0138 9.05827 12.2381 9.2889 12.3862 9.57666C12.5386 9.86442 12.6147 10.1839 12.6147 10.5352V11.0239C12.6147 11.3667 12.5386 11.682 12.3862 11.9697C12.2381 12.2575 12.016 12.4881 11.7197 12.6616C11.4235 12.8351 11.0575 12.9219 10.6216 12.9219C10.1815 12.9219 9.8112 12.8351 9.51074 12.6616C9.21452 12.4881 8.99023 12.2575 8.83789 11.9697C8.68555 11.682 8.60938 11.3667 8.60938 11.0239ZM9.82178 10.5352V11.0239C9.82178 11.172 9.84928 11.3138 9.9043 11.4492C9.96354 11.5804 10.0524 11.6883 10.1709 11.7729C10.2936 11.8534 10.4417 11.8936 10.6152 11.8936C10.7972 11.8936 10.9453 11.8534 11.0596 11.7729C11.1738 11.6883 11.2585 11.5804 11.3135 11.4492C11.3685 11.3138 11.396 11.172 11.396 11.0239V10.5352C11.396 10.3786 11.3664 10.2347 11.3071 10.1035C11.2521 9.9681 11.1654 9.86019 11.0469 9.77979C10.9326 9.69515 10.7845 9.65283 10.6025 9.65283C10.4333 9.65283 10.2894 9.69515 10.1709 9.77979C10.0524 9.86019 9.96354 9.9681 9.9043 10.1035C9.84928 10.2347 9.82178 10.3786 9.82178 10.5352ZM13.0273 16.2227V15.7339C13.0273 15.3869 13.1035 15.0695 13.2559 14.7817C13.4124 14.494 13.6388 14.2633 13.9351 14.0898C14.2355 13.9163 14.6037 13.8296 15.0396 13.8296C15.4797 13.8296 15.8478 13.9163 16.144 14.0898C16.4403 14.2633 16.6646 14.494 16.8169 14.7817C16.9692 15.0695 17.0454 15.3869 17.0454 15.7339V16.2227C17.0454 16.5697 16.9692 16.887 16.8169 17.1748C16.6688 17.4626 16.4466 17.6932 16.1504 17.8667C15.8542 18.0402 15.4881 18.127 15.0522 18.127C14.6121 18.127 14.2419 18.0402 13.9414 17.8667C13.641 17.6932 13.4124 17.4626 13.2559 17.1748C13.1035 16.887 13.0273 16.5697 13.0273 16.2227ZM14.2461 15.7339V16.2227C14.2461 16.375 14.2799 16.5189 14.3477 16.6543C14.4154 16.7897 14.5085 16.8976 14.627 16.978C14.7497 17.0584 14.8914 17.0986 15.0522 17.0986C15.2554 17.0986 15.4141 17.0584 15.5283 16.978C15.6426 16.8976 15.7209 16.7897 15.7632 16.6543C15.8097 16.5189 15.833 16.375 15.833 16.2227V15.7339C15.833 15.5815 15.8034 15.4398 15.7441 15.3086C15.6849 15.1732 15.596 15.0653 15.4775 14.9849C15.3633 14.9002 15.2173 14.8579 15.0396 14.8579C14.8618 14.8579 14.7137 14.9002 14.5952 14.9849C14.481 15.0653 14.3942 15.1732 14.335 15.3086C14.2757 15.4398 14.2461 15.5815 14.2461 15.7339ZM15.4902 10.0781L10.9771 17.3018L10.0884 16.832L14.6016 9.6084L15.4902 10.0781Z" fill="white"/>
</svg>
