<?xml version="1.0" encoding="utf-8"?>
<!-- Generator: Adobe Illustrator 26.5.0, SVG Export Plug-In . SVG Version: 6.00 Build 0)  -->
<svg version="1.1" id="Layer_1" xmlns="http://www.w3.org/2000/svg" xmlns:xlink="http://www.w3.org/1999/xlink" x="0px" y="0px"
	 viewBox="0 0 34 34" style="enable-background:new 0 0 34 34;" xml:space="preserve">
<style type="text/css">
	.st0{fill:#636363;}
</style>
<g>
	<path class="st0" d="M31.7,11.6H23c-0.1,0.1-0.2,0.1-0.3,0.2l-1.9,1.2c0,0.2-0.1,0.5-0.2,0.8h10.1v12H9.2v-3.1
		C8.8,22.8,8.3,23,7.9,23c-0.2,0-0.5,0.1-0.7,0.1v5.3c0,0.6,0.5,1.2,1.2,1.2h9.4v2.1h-2.1c-0.3,0-0.6,0.2-0.6,0.6v1.1
		c0,0.3,0.2,0.6,0.6,0.6h8.7c0.3,0,0.6-0.2,0.6-0.6v-1.1c0-0.3-0.2-0.6-0.6-0.6h-2.1v-2.1h9.4c0.6,0,1.2-0.5,1.2-1.2V12.7
		C32.8,12.1,32.3,11.6,31.7,11.6L31.7,11.6z M20,28.5c-0.5,0-0.8-0.3-0.8-0.8c0-0.5,0.3-0.8,0.8-0.8c0.5,0,0.8,0.4,0.8,0.8
		S20.4,28.5,20,28.5z"/>
	<path class="st0" d="M9.7,20.1c0.5-0.7,6-7.4,6-7.4c0.6-0.7,0.4-1.7-0.3-2.2c-0.7-0.5-1.6-0.3-2.1,0.3l-2.6,3.2
		c-0.4,0.5-1.2,0.4-1.5-0.1l-1.4-2.3l11.4-6.8l2.3,3.8c0.1,0.2,0.1,0.5-0.1,0.6L17,12v0c0,0.3-0.1,0.7-0.3,0.9L14,16.2l0.1,0.1
		c0.3,0.5,0.9,0.7,1.4,0.4l0.1-0.1c0.5-0.3,0.7-0.8,0.6-1.4c0.1,0,0.2,0.1,0.3,0.1c0.2,0,0.4,0,0.6-0.2c0.6-0.3,0.8-1,0.5-1.6
		c0.1,0,0.2,0.1,0.3,0.1c0.2,0,0.4,0,0.6-0.1c0.5-0.3,0.7-0.9,0.5-1.5l2.9-1.7c0.7-0.4,0.9-1.3,0.6-1.8l-4-6.8c-0.5-0.8-1.4-1-2-0.6
		L5.8,7.4C5.2,7.8,5,8.5,5.3,9.2c-0.9,0.6-2.4,6.3-2.4,6.3l-1.3,1.1c-0.3,0.2-0.4,0.7-0.2,1l2.3,4.3c0.2,0.3,0.6,0.5,1,0.3
		c0.7-0.3,1.9-0.8,3-0.9C8.4,21.2,9.5,20.4,9.7,20.1L9.7,20.1z M6.2,8.9C6,8.6,6.1,8.4,6.3,8.3L16.9,2c0.2-0.1,0.5-0.1,0.6,0.1
		l0.6,1L6.8,9.9L6.2,8.9z"/>
	<path class="st0" d="M17.6,10l2-1.2c0.2-0.1,0.3-0.4,0.1-0.6L19,7.1c-0.1-0.2-0.4-0.3-0.6-0.1l-2,1.2c-0.2,0.1-0.3,0.4-0.1,0.6
		L17,9.9C17.1,10.1,17.4,10.1,17.6,10z"/>
</g>
</svg>
