<svg width="15" height="15" viewBox="0 0 15 15" fill="none" xmlns="http://www.w3.org/2000/svg">
<g clip-path="url(#clip0_478_350)">
<path d="M7.06036 12.0068V11.9836C7.50012 7.5 4.43035 4.42808 4.43035 4.42808C6.97297 5.59834 7.62569 9.8902 7.62569 9.8902C8.18829 7.57836 9.67398 5.68574 9.67398 5.68574C8.82326 5.94519 8.46139 6.81776 8.46139 6.81776C8.26339 5.15045 9.86106 4.67388 10.8879 4.53869C10.4026 3.98228 9.78823 3.55329 9.09869 3.28926C8.40914 3.02522 7.6654 2.93419 6.93253 3.02412C6.19966 3.11406 5.5 3.38221 4.89476 3.80514C4.28951 4.22806 3.79713 4.79286 3.46069 5.45012C3.12425 6.10738 2.954 6.83707 2.96484 7.57536C2.97568 8.31365 3.16728 9.03803 3.52288 9.68513C3.87847 10.3322 4.38723 10.8823 5.00463 11.2873C5.62203 11.6923 6.32926 11.9398 7.06446 12.0081L7.06036 12.0068Z" fill="#7CBF21"/>
<path d="M9.37222 7.24521C8.24156 8.85653 7.9466 11.3118 7.88379 12.0068C8.64223 11.9388 9.37119 11.6803 10.003 11.2553C10.6348 10.8303 11.1491 10.2525 11.4979 9.57565C11.8468 8.89879 12.019 8.14475 11.9985 7.38355C11.978 6.62235 11.7656 5.87865 11.3809 5.2215C11.4 7.40498 9.37222 7.24521 9.37222 7.24521Z" fill="#7CBF21"/>
<path d="M0 0V15.0017H15V0H0ZM14.3472 14.3472H0.652764V0.654459H14.3472V14.3472Z" fill="#7CBF21"/>
</g>
<defs>
<clipPath id="clip0_478_350">
<rect width="15" height="15" fill="white"/>
</clipPath>
</defs>
</svg>
