<svg width="79" height="17" viewBox="0 0 79 17" fill="none" xmlns="http://www.w3.org/2000/svg">
<g clip-path="url(#clip0_447_5723)">
<path d="M60.5384 1.12048H56.1219C55.9759 1.1211 55.8348 1.17236 55.724 1.2651C55.6131 1.35784 55.5397 1.48602 55.5168 1.62672L53.7301 12.6699C53.7218 12.7211 53.725 12.7734 53.7394 12.8233C53.7538 12.8731 53.7792 12.9193 53.8137 12.9587C53.8482 12.9981 53.8911 13.0297 53.9393 13.0513C53.9876 13.073 54.0401 13.0842 54.0932 13.0841H56.3599C56.4623 13.0839 56.5612 13.0482 56.639 12.9833C56.7168 12.9184 56.7684 12.8286 56.7845 12.7299L57.2871 9.60048C57.3107 9.45843 57.3858 9.32938 57.4987 9.23683C57.6117 9.14428 57.755 9.09439 57.9025 9.09624H59.2994C62.2082 9.09624 63.8861 7.72359 64.3251 5.00231C64.5303 3.80175 64.3251 2.87731 63.7631 2.221C63.1272 1.50266 62.0154 1.12048 60.5384 1.12048ZM61.0471 5.15438C60.8051 6.70111 59.5948 6.70111 58.4235 6.70111H57.7589L58.2266 3.81375C58.2399 3.72927 58.2839 3.65228 58.3505 3.59681C58.4172 3.54134 58.502 3.5111 58.5897 3.51161H58.8953C59.6912 3.51161 60.444 3.51161 60.8317 3.95382C61.0656 4.21994 61.1353 4.61213 61.0471 5.15438Z" fill="#636363"/>
<path d="M29.0423 1.12048H24.6258C24.4798 1.1211 24.3387 1.17236 24.2279 1.2651C24.117 1.35784 24.0436 1.48602 24.0207 1.62672L22.234 12.6699C22.2257 12.7213 22.2289 12.7737 22.2434 12.8237C22.258 12.8738 22.2835 12.9201 22.3183 12.9595C22.353 12.9989 22.3961 13.0304 22.4446 13.052C22.4931 13.0735 22.5459 13.0845 22.5991 13.0841H24.7058C24.8533 13.086 24.9966 13.0361 25.1096 12.9435C25.2225 12.851 25.2976 12.7219 25.3212 12.5799L25.8033 9.59847C25.8269 9.45643 25.902 9.32738 26.0149 9.23483C26.1279 9.14228 26.2712 9.09238 26.4187 9.09423H27.8156C30.7244 9.09423 32.4044 7.72159 32.8434 5.00031C33.0485 3.79974 32.8434 2.87531 32.2793 2.219C31.6331 1.50266 30.5193 1.12048 29.0423 1.12048ZM29.551 5.15438C29.311 6.70111 28.1008 6.70111 26.9295 6.70111H26.2628L26.7223 3.81375C26.736 3.72945 26.7801 3.65269 26.8466 3.59729C26.9132 3.5419 26.9979 3.51151 27.0854 3.51161H27.391C28.189 3.51161 28.9418 3.51161 29.3295 3.95382C29.5695 4.21994 29.6392 4.61213 29.551 5.15438Z" fill="#636363"/>
<path d="M42.2405 5.10638H40.1256C40.0381 5.10628 39.9535 5.13667 39.8869 5.19206C39.8203 5.24746 39.7762 5.32422 39.7626 5.40852L39.6702 5.98479L39.5226 5.78469C39.0631 5.13639 38.0436 4.92029 37.0241 4.92029C34.6876 4.92029 32.6938 6.6471 32.3061 9.06824C32.1009 10.2688 32.3922 11.4314 33.0938 12.2377C33.7379 12.9781 34.6589 13.2862 35.7605 13.2862C36.3047 13.2915 36.8444 13.1897 37.3474 12.9869C37.8503 12.784 38.3062 12.4843 38.6877 12.1057L38.5933 12.6799C38.585 12.7311 38.5882 12.7834 38.6026 12.8333C38.617 12.8831 38.6424 12.9294 38.6769 12.9687C38.7114 13.0081 38.7543 13.0397 38.8025 13.0614C38.8508 13.083 38.9033 13.0942 38.9564 13.0941H40.8621C41.0078 13.0936 41.1486 13.0426 41.2594 12.9503C41.3703 12.8579 41.4439 12.7302 41.4672 12.5899L42.6098 5.52857C42.6195 5.47631 42.6172 5.42259 42.6031 5.37129C42.5889 5.32 42.5632 5.27242 42.5279 5.23201C42.4925 5.19159 42.4484 5.15935 42.3987 5.13762C42.349 5.1159 42.295 5.10522 42.2405 5.10638ZM39.2949 9.12027C39.2119 9.6762 38.9233 10.1833 38.4834 10.546C38.0436 10.9087 37.4829 11.1019 36.9071 11.0892C36.6433 11.1152 36.377 11.0785 36.1309 10.9822C35.8848 10.8858 35.6664 10.7328 35.4942 10.5361C35.322 10.3394 35.2012 10.105 35.1422 9.85283C35.0832 9.60068 35.0877 9.33833 35.1553 9.08825C35.236 8.5329 35.5212 8.02518 35.9575 7.65991C36.3939 7.29464 36.9517 7.0968 37.5266 7.10332C37.7895 7.08972 38.0522 7.13308 38.2959 7.2303C38.5396 7.32752 38.7581 7.47617 38.9359 7.66558C39.1006 7.868 39.218 8.10303 39.28 8.35427C39.342 8.60551 39.3471 8.86692 39.2949 9.12027Z" fill="#636363"/>
<path d="M73.7364 5.10638H71.6215C71.534 5.10628 71.4493 5.13667 71.3827 5.19206C71.3162 5.24746 71.2721 5.32422 71.2584 5.40852L71.164 5.98479L71.0163 5.78469C70.5589 5.13639 69.5394 4.92029 68.5199 4.92029C66.1834 4.92029 64.1875 6.6471 63.8019 9.06824C63.5967 10.2688 63.886 11.4314 64.5896 12.2377C65.2337 12.9781 66.1547 13.2862 67.2563 13.2862C67.8005 13.2915 68.3402 13.1897 68.8432 12.9869C69.3462 12.784 69.802 12.4843 70.1835 12.1057L70.0891 12.6799C70.0808 12.7311 70.084 12.7834 70.0984 12.8333C70.1129 12.8831 70.1382 12.9294 70.1727 12.9687C70.2072 13.0081 70.2501 13.0397 70.2984 13.0614C70.3466 13.083 70.3991 13.0942 70.4522 13.0941H72.3558C72.5033 13.096 72.6466 13.0461 72.7596 12.9535C72.8725 12.861 72.9476 12.7319 72.9712 12.5899L74.1076 5.52057C74.1161 5.46873 74.1127 5.41571 74.0978 5.36527C74.0829 5.31483 74.0568 5.2682 74.0214 5.22868C73.986 5.18917 73.9421 5.15773 73.8928 5.13659C73.8436 5.11546 73.7902 5.10514 73.7364 5.10638ZM70.7886 9.12027C70.7065 9.67621 70.4184 10.1835 69.9788 10.5464C69.5393 10.9092 68.9786 11.1023 68.403 11.0892C68.1392 11.1152 67.8728 11.0785 67.6267 10.9822C67.3807 10.8858 67.1622 10.7328 66.99 10.5361C66.8178 10.3394 66.697 10.105 66.638 9.85283C66.579 9.60068 66.5835 9.33833 66.6511 9.08825C66.7318 8.53325 67.0166 8.0258 67.4526 7.66058C67.8885 7.29535 68.4458 7.09728 69.0204 7.10332C69.2833 7.08929 69.5462 7.13246 69.7899 7.22971C70.0336 7.32695 70.2522 7.47583 70.4296 7.66558C70.5943 7.868 70.7118 8.10303 70.7738 8.35427C70.8358 8.60551 70.8408 8.86692 70.7886 9.12027Z" fill="#636363"/>
<path d="M53.5021 5.10644H51.377C51.277 5.10672 51.1787 5.13074 51.0904 5.17641C51.0021 5.22208 50.9266 5.28803 50.8703 5.36857L47.9369 9.57054L46.6959 5.52264C46.6576 5.3994 46.5797 5.29143 46.4737 5.21469C46.3677 5.13794 46.2392 5.09648 46.1072 5.09644H44.0189C43.9604 5.09623 43.9026 5.10968 43.8505 5.13567C43.7983 5.16166 43.7533 5.19943 43.7192 5.24584C43.6851 5.29225 43.6628 5.34595 43.6543 5.40245C43.6458 5.45895 43.6512 5.51663 43.6702 5.57066L46.0046 12.2818L43.8097 15.3112C43.7705 15.3648 43.7471 15.428 43.7423 15.4936C43.7375 15.5593 43.7513 15.625 43.7822 15.6836C43.8132 15.7421 43.8601 15.7911 43.9177 15.8254C43.9754 15.8596 44.0417 15.8776 44.1092 15.8775H46.2323C46.3315 15.8774 46.4292 15.8538 46.5171 15.8088C46.6049 15.7639 46.6804 15.6989 46.7369 15.6194L53.7996 5.66671C53.837 5.61328 53.8589 5.55097 53.8629 5.48637C53.867 5.42178 53.853 5.35733 53.8225 5.29986C53.792 5.2424 53.7461 5.19407 53.6897 5.16001C53.6333 5.12596 53.5684 5.10744 53.5021 5.10644Z" fill="#636363"/>
<path d="M76.2285 1.42468L74.4152 12.67C74.4069 12.7211 74.41 12.7735 74.4245 12.8233C74.4389 12.8732 74.4642 12.9194 74.4988 12.9588C74.5333 12.9981 74.5761 13.0297 74.6244 13.0514C74.6726 13.073 74.7251 13.0842 74.7782 13.0842H76.6019C76.7476 13.0836 76.8884 13.0326 76.9992 12.9403C77.1101 12.848 77.1837 12.7203 77.207 12.5799L78.9957 1.53473C79.004 1.48329 79.0008 1.43071 78.9863 1.38061C78.9717 1.33051 78.9462 1.28408 78.9115 1.24452C78.8768 1.20496 78.8337 1.17321 78.7852 1.15146C78.7367 1.12971 78.684 1.11848 78.6306 1.11853H76.5916C76.5035 1.11858 76.4183 1.14953 76.3517 1.20573C76.285 1.26194 76.2413 1.33964 76.2285 1.42468Z" fill="#636363"/>
<path opacity="0.31" d="M14.0824 4.89827C13.863 4.66141 13.6018 4.46487 13.3112 4.31799C13.2947 4.42004 13.2763 4.51809 13.2558 4.62814C12.5399 8.20582 10.0968 9.4424 6.97466 9.4424H5.389C5.20458 9.44224 5.0262 9.50653 4.88621 9.62364C4.74621 9.74074 4.65387 9.90289 4.62591 10.0807L4.65258 9.91663L3.81154 15.1191L3.5818 16.5457C3.573 16.6023 3.57672 16.66 3.59271 16.715C3.60869 16.77 3.63658 16.821 3.67448 16.8646C3.71238 16.9082 3.75942 16.9434 3.81243 16.9678C3.86545 16.9922 3.9232 17.0052 3.9818 17.006H6.79825C6.95988 17.006 7.11622 16.9498 7.23918 16.8475C7.36213 16.7452 7.44363 16.6034 7.46903 16.4477L7.49569 16.3076L8.02698 13.0221L8.06185 12.842C8.08366 12.6839 8.16339 12.5389 8.28632 12.4337C8.40925 12.3285 8.56705 12.2702 8.73058 12.2697H9.15315C11.8834 12.2697 14.0209 11.1872 14.6466 8.05775C14.9071 6.75714 14.7717 5.66663 14.0824 4.89827Z" fill="#636363"/>
<path d="M4.62355 10.0807C4.65156 9.90259 4.7442 9.74017 4.88463 9.62302C5.02505 9.50588 5.20392 9.4418 5.38869 9.44244H6.9764C10.0985 9.44244 12.5416 8.20586 13.2575 4.62818C13.278 4.52213 13.2965 4.42808 13.3129 4.31803C13.518 2.99541 13.3129 2.09699 12.5765 1.2806C11.7703 0.384182 10.32 6.33114e-07 8.44514 6.33114e-07H3.02763C2.84298 -0.000232621 2.66433 0.0639933 2.524 0.181064C2.38366 0.298135 2.2909 0.460324 2.2625 0.638301L0.00605641 14.5889C-0.00430048 14.6536 -0.000175298 14.7198 0.0181478 14.7828C0.0364709 14.8458 0.0685585 14.9043 0.112209 14.9541C0.155859 15.0039 0.210039 15.0439 0.27103 15.0713C0.332021 15.0988 0.398378 15.113 0.46555 15.1131H3.80918L4.65022 9.91066L4.62355 10.0807Z" fill="#636363"/>
</g>
<defs>
<clipPath id="clip0_447_5723">
<rect width="79" height="17" fill="white"/>
</clipPath>
</defs>
</svg>
