<svg width="26" height="26" viewBox="0 0 26 26" fill="none" xmlns="http://www.w3.org/2000/svg">
<path fill-rule="evenodd" clip-rule="evenodd" d="M0 12.8327C0 5.96094 5.34545 0.217354 12.3357 0.0122254C19.4287 -0.295467 25.3909 5.243 25.8021 12.3199C25.9049 15.4994 24.8769 18.5763 22.821 21.0379L22.7182 21.1404L22.6154 21.243C20.1483 24.0122 16.6531 25.6533 12.9524 25.6533H12.8497C9.14895 25.6533 5.65385 24.0122 3.18671 21.243L3.08392 21.0379L2.98112 20.9353C1.02797 18.6789 0 15.8071 0 12.8327ZM20.2511 16.7302C21.279 17.3456 22.1014 18.2686 22.5126 19.3968C23.849 17.3456 24.5685 14.884 24.5685 12.2174C24.2601 5.96095 19.1203 1.03787 12.9524 1.03787H12.4385C6.06504 1.34556 1.23357 6.47377 1.23357 12.7302C1.23357 15.0892 1.95315 17.3456 3.28951 19.2943C3.28951 19.243 3.31521 19.1917 3.34091 19.1404C3.36661 19.0891 3.39231 19.0379 3.39231 18.9866C4.21469 17.3456 5.85944 16.1148 7.81259 16.1148H17.8867C18.5035 16.1148 19.1203 16.2174 19.7371 16.525C19.7371 16.525 19.8399 16.6276 19.9427 16.6276C19.9941 16.6276 20.0455 16.6533 20.0969 16.6789C20.1483 16.7045 20.1997 16.7302 20.2511 16.7302ZM7.91504 8.93528C7.91504 6.26862 10.0738 4.01221 12.8493 4.01221C15.6248 4.01221 17.7836 6.26862 17.7836 8.93528C17.7836 11.602 15.6248 13.8584 12.8493 13.8584C10.1766 13.8584 7.91504 11.602 7.91504 8.93528Z" fill="#006AD7"/>
</svg>
