<svg width="23" height="23" viewBox="0 0 23 23" fill="none" xmlns="http://www.w3.org/2000/svg">
<path d="M11.3913 13.7315C13.8872 13.7315 15.9105 11.7081 15.9105 9.21226C15.9105 6.71637 13.8872 4.69305 11.3913 4.69305C8.89539 4.69305 6.87207 6.71637 6.87207 9.21226C6.87207 11.7081 8.89539 13.7315 11.3913 13.7315Z" stroke="#7CBF21" stroke-width="1.2" stroke-miterlimit="10"/>
<path d="M7.12464 14.9442H15.657C16.5549 14.9456 17.4193 15.2847 18.0787 15.894C18.7381 16.5033 19.1443 17.3383 19.2166 18.2332C19.219 18.2513 19.2265 18.2683 19.2382 18.2823C19.2499 18.2963 19.2654 18.3066 19.2828 18.3121C19.3002 18.3176 19.3188 18.318 19.3364 18.3133C19.3541 18.3086 19.37 18.299 19.3823 18.2856C21.0397 16.2975 21.8926 13.7608 21.7728 11.1753C21.6622 8.45322 20.487 5.88348 18.5003 4.01944C16.5136 2.15539 13.8743 1.14616 11.1507 1.20907C8.42717 1.27199 5.83726 2.40201 3.93873 4.3558C2.0402 6.3096 0.984927 8.93085 1.00016 11.6551C0.998178 14.0781 1.84733 16.4249 3.39935 18.2856C3.41094 18.3021 3.42742 18.3145 3.44647 18.3211C3.46553 18.3277 3.48617 18.3282 3.50549 18.3224C3.5248 18.3166 3.5418 18.3049 3.55407 18.2889C3.56634 18.2729 3.57326 18.2534 3.57384 18.2332C3.64203 17.3383 4.04577 16.5022 4.7042 15.8923C5.36262 15.2824 6.22715 14.9438 7.12464 14.9442V14.9442Z" stroke="#7CBF21" stroke-width="1.2" stroke-miterlimit="10"/>
<path d="M11.426 22.0456C12.914 22.0483 14.3853 21.731 15.74 21.1154C17.0947 20.4998 18.3013 19.6001 19.2779 18.4773C19.2574 17.5447 18.8724 16.6571 18.2054 16.0048C17.5384 15.3525 16.6425 14.9874 15.7096 14.9876H7.12489C6.19198 14.9874 5.29608 15.3525 4.62912 16.0048C3.96215 16.6571 3.57717 17.5447 3.55664 18.4773C4.53518 19.6023 5.74454 20.5033 7.10246 21.119C8.46038 21.7348 9.935 22.0508 11.426 22.0456V22.0456Z" stroke="#7CBF21" stroke-width="1.2" stroke-miterlimit="10"/>
</svg>
