<svg width="26" height="26" viewBox="0 0 26 26" fill="none" xmlns="http://www.w3.org/2000/svg">
<path fill-rule="evenodd" clip-rule="evenodd" d="M0 12.9353C0 5.96094 5.34545 0.319916 12.3357 0.0122235C19.4287 -0.295469 25.3909 5.24299 25.9049 12.4225C26.0077 15.602 24.9797 18.6789 22.9238 21.1404L22.821 21.243L22.7182 21.3456C20.251 24.1148 16.7559 25.7558 13.0552 25.7558H12.9524C9.25175 25.7558 5.75664 24.1148 3.28951 21.3456L3.08392 21.1404L2.98112 21.0379C1.02797 18.7815 0 15.9097 0 12.9353ZM4.31748 20.7302C6.47622 23.1917 9.56014 24.525 12.9524 24.525C16.1392 24.525 19.2231 23.0891 21.3818 20.6276C21.279 19.2943 20.4566 18.1661 19.2231 17.6532C18.8119 17.5507 18.4007 17.4481 17.8867 17.4481H7.81259C6.06503 17.4481 4.52308 18.7815 4.31748 20.525V20.7302ZM20.251 16.7302C21.279 17.3456 22.1014 18.2686 22.5126 19.3968C23.8489 17.3456 24.5685 14.884 24.5685 12.4225C24.2601 6.16607 19.1203 1.24299 12.9524 1.24299H12.4385C6.06504 1.44812 1.23357 6.57633 1.23357 12.7302C1.23357 15.0891 1.95315 17.3456 3.28951 19.2943C3.28951 19.243 3.31521 19.1917 3.34091 19.1404C3.36661 19.0891 3.39231 19.0379 3.39231 18.9866C4.21468 17.3456 5.85944 16.1148 7.81259 16.1148H17.8867C18.5253 16.1148 19.002 16.2763 19.5323 16.4561C19.5996 16.4789 19.6677 16.502 19.7371 16.525C19.7371 16.525 19.8399 16.6276 19.9427 16.6276C19.9941 16.6276 20.0455 16.6532 20.0969 16.6789C20.1483 16.7045 20.1997 16.7302 20.251 16.7302ZM7.91504 8.93527C7.91504 6.26861 10.0738 4.0122 12.8493 4.0122C15.6248 4.0122 17.7836 6.26861 17.7836 8.93527C17.7836 11.6019 15.6248 13.8583 12.8493 13.8583C10.1766 13.8583 7.91504 11.6019 7.91504 8.93527ZM8.94301 8.93527C8.94301 11.0891 10.6906 12.8327 12.8493 12.8327C15.008 12.8327 16.7556 11.0891 16.7556 8.93527C16.7556 6.78143 15.008 5.03784 12.8493 5.03784C10.6906 5.03784 8.94301 6.78143 8.94301 8.93527Z" fill="#585858"/>
</svg>
