<svg width="13" height="13" viewBox="0 0 13 13" fill="none" xmlns="http://www.w3.org/2000/svg">
<path d="M4.69063 5.19822C5.21634 4.92822 5.75625 4.644 6.28196 4.374C6.60875 4.20347 6.92134 4.03294 7.24813 3.87663C7.34759 3.834 7.36179 3.79136 7.33338 3.67768C6.87871 2.02924 7.8875 0.395011 9.56409 0.053955C11.127 -0.25868 12.7041 0.821332 12.9599 2.41293C13.2298 4.03294 12.1074 5.5677 10.5018 5.76665C9.43621 5.89454 8.5695 5.53928 7.87329 4.72927C7.84488 4.70085 7.81646 4.65822 7.77384 4.61558C6.87871 5.07032 5.9978 5.53928 5.10267 6.00823C5.28738 6.6335 5.25896 7.24456 5.01742 7.85562C5.85571 8.40983 6.70821 8.96405 7.5465 9.53248C7.83067 9.27668 8.15746 9.07774 8.54109 9.00668C9.35096 8.86458 10.0472 9.09195 10.5587 9.74564C11.0702 10.3993 11.1412 11.1383 10.7718 11.8772C10.4166 12.602 9.80563 12.9999 8.98154 12.9999C7.61754 13.0141 6.65138 11.7493 7.00659 10.4277C7.04921 10.2999 7.02079 10.243 6.90713 10.172C6.15409 9.67458 5.38684 9.17721 4.6338 8.67984C4.53434 8.62299 4.49171 8.62299 4.40646 8.69405C3.63921 9.39037 2.74409 9.60353 1.76371 9.26247C0.769131 8.92142 0.200798 8.19667 0.0302982 7.15929C-0.211243 5.62454 1.02488 4.18926 2.54517 4.17505C3.42609 4.17505 4.02284 4.45927 4.69063 5.19822ZM10.1182 4.8998C11.2265 4.88559 12.1358 3.96189 12.1358 2.86767C12.1216 1.75924 11.198 0.849753 10.104 0.863964C9.00996 0.878174 8.10063 1.78766 8.10063 2.88188C8.10063 3.99031 9.02417 4.91401 10.1182 4.8998ZM0.882798 6.77561C0.882798 7.72772 1.66426 8.4951 2.61621 8.4951C3.55396 8.4951 4.33542 7.71351 4.33542 6.77561C4.34963 5.85191 3.55396 5.05611 2.61621 5.05611C1.66426 5.05611 0.882798 5.8377 0.882798 6.77561ZM8.96734 9.81669C8.32796 9.81669 7.81646 10.3141 7.80225 10.9393C7.80225 11.5788 8.31375 12.1046 8.95313 12.1046C9.5925 12.1046 10.104 11.593 10.104 10.9678C10.104 10.3283 9.60671 9.8309 8.96734 9.81669Z" fill="black"/>
</svg>
