<svg width="69" height="63" viewBox="0 0 69 63" fill="none" xmlns="http://www.w3.org/2000/svg">
<g clip-path="url(#clip0_551_5010)">
<path d="M32.3537 62.8148C27.3556 62.8145 22.4297 61.6213 17.9855 59.3345C13.5412 57.0477 9.70694 53.7332 6.80123 49.6665C3.89551 45.5999 2.0023 40.8985 1.27893 35.953C0.555556 31.0075 1.02291 25.9608 2.64215 21.2323C4.26139 16.5038 6.98575 12.23 10.5888 8.76605C14.1919 5.30214 18.5697 2.74815 23.3583 1.31633C28.1469 -0.115482 33.2081 -0.383777 38.1212 0.533745C43.0344 1.45127 47.6576 3.52811 51.6067 6.59168C51.8076 6.74917 51.9742 6.94609 52.0962 7.17034C52.2181 7.39458 52.2929 7.64141 52.316 7.89564C52.339 8.14987 52.3098 8.40612 52.2302 8.64865C52.1505 8.89117 52.0221 9.11484 51.8528 9.3059C51.5392 9.6602 51.1022 9.88143 50.631 9.92439C50.1598 9.96735 49.69 9.8288 49.3176 9.53705C44.7785 6.01336 39.255 3.99014 33.5138 3.74824C27.7726 3.50634 22.0985 5.05775 17.2791 8.18713C12.4597 11.3165 8.7341 15.8686 6.61935 21.2116C4.50461 26.5546 4.10567 32.4234 5.47791 38.0034C6.85015 43.5835 9.92549 48.5979 14.2771 52.3507C18.6286 56.1035 24.0406 58.4085 29.7617 58.9457C35.4828 59.483 41.2293 58.2259 46.2034 55.3488C51.1776 52.4718 55.1328 48.1176 57.5199 42.8906C57.7147 42.4609 58.0665 42.1219 58.5032 41.9431C58.9399 41.7643 59.4284 41.7591 59.8687 41.9287C60.1066 42.0184 60.3236 42.1558 60.5064 42.3325C60.6892 42.5092 60.8339 42.7213 60.9317 42.956C61.0295 43.1907 61.0782 43.4429 61.075 43.6971C61.0717 43.9513 61.0164 44.2021 60.9126 44.4342C58.395 49.8981 54.3704 54.5301 49.3115 57.786C44.2526 61.0419 38.3697 62.7865 32.3537 62.8148Z" fill="#7CBF21"/>
<path d="M31.1829 44.71L18.3574 31.8846C18.0091 31.5352 17.8135 31.0619 17.8135 30.5685C17.8135 30.0751 18.0091 29.6018 18.3574 29.2524C18.5306 29.0788 18.7363 28.9411 18.9628 28.8471C19.1892 28.7531 19.432 28.7047 19.6772 28.7047C19.9224 28.7047 20.1652 28.7531 20.3917 28.8471C20.6182 28.9411 20.8239 29.0788 20.9971 29.2524L31.3618 39.6171C31.6951 39.9492 32.1417 40.143 32.6119 40.1596C33.0821 40.1762 33.5412 40.0144 33.8971 39.7066L64.9465 12.7359C65.1305 12.5744 65.3446 12.451 65.5766 12.3729C65.8085 12.2947 66.0537 12.2634 66.2979 12.2808C66.542 12.2981 66.7803 12.3638 66.9989 12.4739C67.2175 12.584 67.4121 12.7364 67.5713 12.9223C67.7323 13.1062 67.8555 13.3201 67.9336 13.5517C68.0118 13.7833 68.0435 14.028 68.0269 14.2719C68.0103 14.5157 67.9457 14.7539 67.8368 14.9727C67.7279 15.1916 67.5768 15.3868 67.3923 15.5471L33.7554 44.7995C33.3981 45.1199 32.9307 45.2896 32.4511 45.2729C31.9715 45.2562 31.517 45.0545 31.1829 44.71Z" fill="#7CBF21"/>
</g>
<defs>
<clipPath id="clip0_551_5010">
<rect width="67.08" height="62.8073" fill="white" transform="translate(0.953613)"/>
</clipPath>
</defs>
</svg>
