<?xml version="1.0" encoding="UTF-8"?>
<!DOCTYPE svg PUBLIC "-//W3C//DTD SVG 1.1//EN" "http://www.w3.org/Graphics/SVG/1.1/DTD/svg11.dtd">
<!-- Creator: CorelDRAW (Evaluation Version) -->
<svg xmlns="http://www.w3.org/2000/svg" xml:space="preserve" width="15px" height="15px" version="1.1" style="shape-rendering:geometricPrecision; text-rendering:geometricPrecision; image-rendering:optimizeQuality; fill-rule:evenodd; clip-rule:evenodd"
viewBox="0 0 15 15"
 xmlns:xlink="http://www.w3.org/1999/xlink"
 xmlns:xodm="http://www.corel.com/coreldraw/odm/2003">
 <defs>
  <style type="text/css">
   <![CDATA[
    .fil0 {fill:black;fill-rule:nonzero}
   ]]>
  </style>
 </defs>
 <g id="Layer_x0020_1">
  <metadata id="CorelCorpID_0Corel-Layer"/>
  <g id="_1840693077504">
   <g>
    <path class="fil0" d="M-0.2 14.27l1.83 -0.23 1.41 -0.17c1.22,0.86 2.68,1.33 4.18,1.33 4.02,0 7.29,-3.3 7.29,-7.36 0,-4.05 -3.27,-7.35 -7.29,-7.35 -4.03,0 -7.3,3.3 -7.3,7.35 0,1.28 0.32,2.52 0.94,3.62l-0.41 1.08 -0.65 1.73zm7.42 -12.66c3.41,0 6.18,2.79 6.18,6.23 0,3.45 -2.77,6.24 -6.18,6.24 -1.47,0 -2.82,-0.52 -3.88,-1.38l-1.85 0.23 0.6 -1.59c-0.67,-1 -1.06,-2.2 -1.06,-3.5 0,-3.44 2.77,-6.23 6.19,-6.23l0 0z"/>
    <path class="fil0" d="M6.9 5.78c0.11,0 0.22,0.02 0.32,0.06 0.09,0.04 0.17,0.08 0.24,0.15 0.07,0.06 0.12,0.13 0.15,0.22 0.04,0.09 0.06,0.18 0.06,0.28 0,0.12 -0.02,0.23 -0.05,0.32 -0.04,0.1 -0.08,0.19 -0.15,0.28 -0.06,0.09 -0.14,0.18 -0.24,0.27 -0.09,0.09 -0.2,0.19 -0.32,0.3 -0.12,0.09 -0.22,0.19 -0.31,0.29 -0.08,0.1 -0.16,0.21 -0.22,0.32 -0.05,0.11 -0.1,0.22 -0.13,0.35 -0.03,0.12 -0.04,0.26 -0.04,0.41 0,0.09 0.01,0.2 0.03,0.3 0.01,0.11 0.04,0.2 0.07,0.29l1.28 0c-0.03,-0.06 -0.06,-0.12 -0.08,-0.21 -0.02,-0.08 -0.03,-0.16 -0.03,-0.24 0,-0.11 0.01,-0.21 0.04,-0.3 0.03,-0.09 0.07,-0.18 0.13,-0.26 0.06,-0.08 0.13,-0.16 0.21,-0.24 0.09,-0.08 0.19,-0.17 0.3,-0.27 0.17,-0.14 0.32,-0.28 0.45,-0.41 0.13,-0.13 0.24,-0.27 0.33,-0.41 0.09,-0.15 0.15,-0.3 0.2,-0.46 0.04,-0.16 0.06,-0.34 0.06,-0.54 0,-0.32 -0.05,-0.59 -0.16,-0.81 -0.11,-0.23 -0.26,-0.41 -0.45,-0.55 -0.19,-0.15 -0.42,-0.25 -0.68,-0.32 -0.26,-0.07 -0.54,-0.1 -0.84,-0.1 -0.32,0 -0.62,0.04 -0.92,0.11 -0.29,0.08 -0.57,0.19 -0.82,0.34l0 1.48c0.25,-0.22 0.5,-0.38 0.78,-0.49 0.27,-0.1 0.53,-0.16 0.79,-0.16l0 0z"/>
   </g>
   <path class="fil0" d="M7.02 10.15c-0.26,0 -0.47,0.08 -0.65,0.23 -0.17,0.15 -0.25,0.35 -0.25,0.58 0,0.22 0.08,0.41 0.25,0.57 0.18,0.16 0.39,0.24 0.65,0.24 0.26,0 0.48,-0.08 0.65,-0.23 0.16,-0.15 0.24,-0.35 0.24,-0.58 0,-0.24 -0.08,-0.43 -0.25,-0.58 -0.17,-0.15 -0.38,-0.23 -0.64,-0.23l0 0z"/>
  </g>
 </g>
</svg>
