<svg width="20" height="20" viewBox="0 0 20 20" fill="none" xmlns="http://www.w3.org/2000/svg">
<path d="M15.6739 0H4.32609C1.93686 0 0 1.93686 0 4.32609V15.6739C0 18.0631 1.93686 20 4.32609 20H15.6739C18.0631 20 20 18.0631 20 15.6739V4.32609C20 1.93686 18.0631 0 15.6739 0Z" fill="#00ACEE"/>
<path d="M17.391 5.4131C16.8387 5.6593 16.2524 5.82055 15.6519 5.89136C16.284 5.5116 16.7568 4.91523 16.9823 4.2131C16.3895 4.5659 15.7412 4.81581 15.0649 4.95223C14.6059 4.47005 14.0015 4.15167 13.3442 4.04588C12.6869 3.94009 12.0131 4.05272 11.426 4.36651C10.8389 4.68031 10.3708 5.17795 10.0936 5.7832C9.81631 6.38844 9.74516 7.0679 9.89101 7.71745C8.68485 7.65723 7.50486 7.3439 6.42771 6.79784C5.35056 6.25177 4.40035 5.48518 3.63883 4.54788C3.25196 5.2164 3.13374 6.007 3.30812 6.75944C3.48251 7.51188 3.93646 8.16988 4.57796 8.60006C4.09615 8.58314 3.62525 8.452 3.20405 8.21745V8.25658C3.2057 8.95609 3.44827 9.63368 3.89092 10.1753C4.33358 10.717 4.94931 11.0896 5.63449 11.2305C5.3737 11.301 5.10462 11.3361 4.83448 11.3348C4.64342 11.3351 4.45275 11.3177 4.26492 11.2827C4.46005 11.8846 4.83793 12.4107 5.346 12.7879C5.85407 13.165 6.46707 13.3745 7.0997 13.387C6.02535 14.2328 4.6975 14.6923 3.33014 14.6914C3.08888 14.6922 2.84781 14.6777 2.6084 14.6479C3.98993 15.5351 5.59696 16.0074 7.23883 16.0088C12.8214 16.0088 15.8693 11.387 15.8693 7.37832C15.8693 7.24788 15.8693 7.1131 15.8693 6.98701C16.4661 6.55707 16.9814 6.02408 17.391 5.4131Z" fill="white"/>
</svg>
