<svg width="16" height="22" viewBox="0 0 16 22" fill="none" xmlns="http://www.w3.org/2000/svg">
<g clip-path="url(#clip0_11_22)">
<path d="M0.666656 2.66667C0.666656 1.19583 1.86249 0 3.33332 0H12.6667C14.1375 0 15.3333 1.19583 15.3333 2.66667V18.6667C15.3333 20.1375 14.1375 21.3333 12.6667 21.3333H3.33332C1.86249 21.3333 0.666656 20.1375 0.666656 18.6667V2.66667ZM9.33333 18.6667C9.33333 18.313 9.19285 17.9739 8.9428 17.7239C8.69275 17.4738 8.35361 17.3333 7.99999 17.3333C7.64637 17.3333 7.30723 17.4738 7.05718 17.7239C6.80713 17.9739 6.66666 18.313 6.66666 18.6667C6.66666 19.0203 6.80713 19.3594 7.05718 19.6095C7.30723 19.8595 7.64637 20 7.99999 20C8.35361 20 8.69275 19.8595 8.9428 19.6095C9.19285 19.3594 9.33333 19.0203 9.33333 18.6667ZM12.6667 2.66667H3.33332V16H12.6667V2.66667Z" fill="black"/>
</g>
<defs>
<clipPath id="clip0_11_22">
<rect width="16" height="21.3333" fill="white"/>
</clipPath>
</defs>
</svg>
