<?xml version="1.0" encoding="utf-8"?>
<!-- Generator: Adobe Illustrator 27.8.1, SVG Export Plug-In . SVG Version: 6.00 Build 0)  -->
<svg version="1.1" id="Layer_1" xmlns="http://www.w3.org/2000/svg" xmlns:xlink="http://www.w3.org/1999/xlink" x="0px" y="0px"
	 viewBox="0 0 512 512" style="enable-background:new 0 0 512 512;" xml:space="preserve">
<style type="text/css">
	.st0{fill:#D6D6D6;}
</style>
<path class="st0" d="M64,48c-26.5,0-48,21.5-48,48v260.7l89.4-89.4c12.5-12.5,32.8-12.5,45.3,0l73.3,73.4l137.4-137.4
	c12.5-12.5,32.8-12.5,45.3,0l89.3,89.4V96c0-26.5-21.5-48-48-48H64z M16,379.3V416c0,26.5,21.5,48,48,48h36.7l112-112l-73.4-73.4
	c-6.2-6.2-16.4-6.2-22.6,0L16,379.3z M395.3,214.6c-6.2-6.2-16.4-6.2-22.6,0L123.3,464H448c26.5,0,48-21.5,48-48V315.3L395.3,214.6z
	 M0,96c0-35.3,28.7-64,64-64h384c35.3,0,64,28.7,64,64v320c0,35.3-28.7,64-64,64H64c-35.3,0-64-28.7-64-64V96z M168,160
	c0-22.1-17.9-40-40-40s-40,17.9-40,40s17.9,40,40,40S168,182.1,168,160z M72,160c0-30.9,25.1-56,56-56s56,25.1,56,56s-25.1,56-56,56
	S72,190.9,72,160z"/>
</svg>
