<svg width="114" height="140" viewBox="0 0 114 140" fill="none" xmlns="http://www.w3.org/2000/svg">
<path d="M43.727 46.7361C39.9436 47.7005 37.6603 51.546 38.6247 55.3294L47.3523 89.5684L47.6578 90.7668L50.8434 103.264C51.2274 104.771 50.309 106.317 48.8025 106.701C47.2959 107.085 45.7491 106.167 45.3651 104.66L42.9345 95.1249C42.6532 95.4518 42.3977 95.8086 42.1379 96.1484L39.5492 99.7253C37.5821 102.451 36.9296 105.899 37.7587 109.152L39.4169 115.657C41.0752 122.163 45.5394 127.588 51.5987 130.474L52.7195 131.009C58.6972 133.861 65.4661 134.524 71.8688 132.891L92.087 127.738C104.19 124.653 111.499 112.343 108.414 100.239L105.626 89.2998L104.229 83.8216C103.073 79.2849 98.454 76.5425 93.9174 77.6989C91.7945 78.24 90.0823 79.5333 88.9588 81.2054C87.5513 77.0426 83.1566 74.6076 78.8253 75.7117C76.7025 76.2528 74.9902 77.5461 73.8667 79.2182C72.4592 75.0554 68.0646 72.6204 63.7333 73.7245C61.6276 74.2612 59.911 75.5375 58.7875 77.2095L52.3203 51.8384C51.3559 48.055 47.5104 45.7717 43.727 46.7361Z" fill="white"/>
<path fill-rule="evenodd" clip-rule="evenodd" d="M72.2918 27.3964C79.7293 40.2787 77.4516 56.1215 67.7245 66.4219L67.7096 66.4305L75.669 73.9514C88.657 60.2266 91.7074 39.1149 81.7793 21.9188C69.6772 0.957374 42.8803 -6.22283 21.9188 5.87927C0.957378 17.9814 -6.22283 44.7783 5.87927 65.7397C14.2026 80.1561 29.4702 88.0488 45.0099 87.6447L42.0649 76.654C31.345 76.0609 21.1288 70.2422 15.3668 60.2621C6.29447 44.5484 11.6828 24.4391 27.3964 15.3668C43.1101 6.29447 63.2195 11.6828 72.2918 27.3964Z" fill="white"/>
</svg>
