<svg width="20" height="23" viewBox="0 0 20 23" fill="none" xmlns="http://www.w3.org/2000/svg">
<g clip-path="url(#clip0_3107_76)">
<path d="M5.71429 5.71429V8.57143H14.2857V5.71429C14.2857 3.34821 12.3661 1.42857 10 1.42857C7.63393 1.42857 5.71429 3.34821 5.71429 5.71429ZM4.28571 8.57143V5.71429C4.28571 2.55804 6.84375 0 10 0C13.1563 0 15.7143 2.55804 15.7143 5.71429V8.57143H16.4286C18.4018 8.57143 20 10.1696 20 12.1429V19.2857C20 21.2589 18.4018 22.8571 16.4286 22.8571H3.57143C1.59821 22.8571 0 21.2589 0 19.2857V12.1429C0 10.1696 1.59821 8.57143 3.57143 8.57143H4.28571ZM1.42857 12.1429V19.2857C1.42857 20.4688 2.38839 21.4286 3.57143 21.4286H16.4286C17.6116 21.4286 18.5714 20.4688 18.5714 19.2857V12.1429C18.5714 10.9598 17.6116 10 16.4286 10H3.57143C2.38839 10 1.42857 10.9598 1.42857 12.1429Z" fill="#2C483B"/>
</g>
<defs>
<clipPath id="clip0_3107_76">
<rect width="20" height="22.8571" fill="white"/>
</clipPath>
</defs>
</svg>
